<?xml version="1.0" encoding="UTF-8"?>
<svg id="Layer_2" data-name="Layer 2" xmlns="http://www.w3.org/2000/svg" viewBox="0 0 85.43 7.76">
  <defs>
    <style>
      .cls-1 {
        fill: #13c394;
        stroke-width: 0px;
      }
    </style>
  </defs>
  <g id="Layer_1_--_Wireframe" data-name="Layer 1 -- Wireframe">
    <path class="cls-1" d="m.07,5.62c-.13.25-.06.47.08.68.16.25.34.49.48.75.33.62.9.75,1.63.69,1.12-.09,2.25-.21,3.36-.19,1.14.02,2.23.01,3.32-.35.3-.1.72-.04,1.04.07.73.25,1.46.1,2.2.09.1,0,.26-.03.3-.1.2-.3.5-.24.8-.22.33.03.65.07.98.08.75.02,1.48.19,2.23-.2.44-.23,1.07-.31,1.59-.27.67.06,1.3,0,1.95-.1.45-.07.92-.05,1.38-.06.19,0,.38.03.57.03.93,0,1.86-.01,2.79-.04.54-.01,1.09-.07,1.63-.1.25-.01.51-.07.73-.01.31.09.58.05.88-.03.18-.05.38-.06.57-.06.18,0,.32,0,.42.04.62,0,1.25-.02,1.89-.03,1.93-.27,3.85-.49,5.8-.35.34,0,.69,0,1.03.08.21.04.43.02.63.07.48.11.89-.14,1.32-.17,1.06-.08,2.13-.08,3.2-.09.82,0,1.64.03,2.46,0,1.15-.03,2.29-.1,3.44-.15.08,0,.16.04.24.04,1.2,0,2.41,0,3.61-.02.79-.01,1.58-.07,2.36-.08,1.2,0,2.41.1,3.6.02,1.24-.09,2.46-.02,3.7-.02.98,0,1.97-.01,2.95-.1,1.43-.12,2.85-.07,4.27.02.9.06,1.8.17,2.7.21.76.04,1.53-.03,2.29.02,1.5.1,3,.3,4.5.36.97.04,1.81.3,2.65.66.23.1.51.12.78.15.69.08,1.19-.27,1.7-.6.63-.41,1.35-1.57,1.32-2.24,0-.25-.09-.53-.23-.75-.14-.21-.18-.35-.05-.59.21-.41-.11-1.15-.52-1.29-1.13-.38-2.27-.69-3.48-.79-1.06-.08-2.13-.15-3.18-.28-.85-.11-1.69-.1-2.54-.04-.54.04-1.09.01-1.63-.03-.95-.07-1.9-.2-2.85-.25-1.23-.06-2.47,0-3.7-.09-1.41-.09-2.79,0-4.17.24-.31.06-.66.04-.97-.03-.49-.11-.96-.12-1.46-.06-.54.06-1.12.14-1.63.03-1.09-.23-2.17-.22-3.26-.04-.35.06-.71.14-1.05.12-1.49-.09-2.95,0-4.41.29-.26.05-.57.1-.8.03-.92-.3-1.83-.16-2.76-.04-.92.12-1.83.33-2.77.28-.57-.03-1.14,0-1.71.02-.54.02-1.09.07-1.63.06-1.61-.04-3.22-.21-4.81.21-.15.04-.33.04-.49.04-.22,0-.38,0-.5-.02-2.35.29-4.66.29-6.89-.04-.02.25-.13.27-.61.31-1.28.1-2.57.17-3.85.24-.03,0-.06,0-.08,0-.75-.14-1.47.04-2.19.18-.16.03-.32.06-.49.07-1.2.04-2.4.1-3.61.11-.6,0-1.2-.07-1.8-.09-.49-.02-.98-.04-1.47-.01-1.48.1-2.95.23-4.42.34-.24.02-.49,0-.74-.01-.87-.03-1.75-.11-2.62-.07-.69.03-1.37.04-2.04-.12-.96-.22-1.89-.17-2.84.08-.56.14-.87.44-.91.9-.06.74-.33,1.46-.16,2.21.03.11.02.25-.03.35Z"/>
  </g>
</svg>
