<svg id="Layer_1" data-name="Layer 1" xmlns="http://www.w3.org/2000/svg" width="273.1699" height="8.0844" viewBox="0 0 273.1699 8.0844"><defs><style>.cls-1{fill:#00cd9f;}</style></defs><path class="cls-1" d="M.2248,5.8431c-.4267.263-.1923.4879.2562.715.5156.2612,1.0808.5157,1.5246.7867,1.0625.6489,2.8891.7887,5.2125.7261,3.58-.0967,7.18-.2189,10.76-.1987A93.964,93.964,0,0,0,28.5969,7.509,17.1892,17.1892,0,0,1,31.91,7.58a61.6979,61.6979,0,0,0,7.0244.0951,3.562,3.562,0,0,0,.9537-.1009A6.0286,6.0286,0,0,1,42.44,7.3484c1.0412.03,2.08.0752,3.1244.0851a39.4175,39.4175,0,0,0,7.1261-.21,28.8206,28.8206,0,0,1,5.0727-.2781c2.1457.0582,4.1592.0069,6.243-.1055,1.4347-.0774,2.9352-.0564,4.4072-.0671.6074-.0045,1.2168.0353,1.8255.0338,2.9737-.0066,5.9482-.0107,8.9208-.0356,1.7395-.0146,3.4758-.0689,5.2142-.1012.7853-.0146,1.6383-.0775,2.3432-.014a14.7746,14.7746,0,0,0,2.801-.0333c.5732-.0524,1.213-.0575,1.8234-.06.5852-.0021,1.0152.0081,1.3411.0378,1.99-.0084,4.0105-.0235,6.0575-.0314,6.1554-.2856,12.3174-.5084,18.5322-.36,1.0947-.0094,2.1935.01,3.2978.0793.6585.0414,1.3668.0235,2.0167.0712a38.8857,38.8857,0,0,0,4.2247-.18c3.3942-.0879,6.8187-.08,10.2313-.0926,2.622-.01,5.2465.0325,7.8664.01,3.6641-.032,7.3248-.1041,10.9877-.1552.2555-.0035.5158.039.7743.0388,3.8469-.0022,7.6944.0015,11.541-.0162,2.5212-.0116,5.0416-.0774,7.5618-.08,3.84-.0034,7.7018.11,11.514.0206,3.9627-.0933,7.8816-.0182,11.8208-.02,3.1418-.0009,6.2989-.0116,9.4237-.0986,4.5665-.1271,9.1041-.0763,13.6462.023,2.8806.0628,5.748.1775,8.6314.2231,2.44.0385,4.9059-.0315,7.3383.0221,4.8036.1061,9.5821.3174,14.39.382a65.6262,65.6262,0,0,1,8.4738.6926c.7431.1042,1.6432.1291,2.4854.1622a20.1062,20.1062,0,0,0,5.4352-.629c2.0225-.4286,4.3086-1.6357,4.2352-2.3413-.0276-.2653-.2821-.5535-.7343-.7819-.4352-.22-.5623-.3654-.1694-.6119.6779-.4251-.3381-1.2009-1.6581-1.345C267.0075,1.19,263.35.8569,259.4718.7588c-3.3967-.086-6.806-.1541-10.1759-.294-2.72-.1129-5.4-.108-8.1257-.0444-1.7291.04-3.49.0137-5.2229-.0271-3.0468-.0713-6.0757-.2117-9.1258-.2586-3.9386-.06-7.9049-.0082-11.8328-.0948-4.501-.0993-8.91-.0116-13.3239.246a24.9805,24.9805,0,0,1-3.0878-.03,41.8374,41.8374,0,0,0-4.675-.0614A49.8777,49.8777,0,0,1,188.7.2251,84.03,84.03,0,0,0,178.2754.178c-1.1132.06-2.26.1417-3.3685.1207-4.7534-.09-9.4422.0091-14.1.3045a16.7972,16.7972,0,0,1-2.5624.0259,59.4577,59.4577,0,0,0-8.818-.044c-2.9435.1241-5.8407.3455-8.8667.2918-1.8172-.0323-3.6529.0048-5.48.0212-1.7383.0156-3.4789.0748-5.2124.0623C124.72.9229,119.561.7426,114.4827,1.18c-.4949.0425-1.0446.0379-1.57.0433-.7114.0074-1.2176.0025-1.5992-.026-7.5091.3053-14.8949.297-22.0192-.04-.0516.2588-.4061.2867-1.9559.3256-4.0994.1031-8.2083.1717-12.3133.2544-.0876.0018-.18.0084-.2624.0034a56.1656,56.1656,0,0,0-7.012.1847c-.5138.0318-1.0356.066-1.5571.0722-3.8424.0449-7.6853.1009-11.529.1159-1.9126.0074-3.8256-.0737-5.7414-.0974-1.5686-.02-3.15-.0465-4.7113-.0125-4.7181.1028-9.4286.2368-14.1444.35-.7783.0186-1.5687-.0034-2.3527-.0116-2.7954-.03-5.5977-.1133-8.3831-.0757-2.2171.03-4.3864.038-6.52-.1233a56.4165,56.4165,0,0,0-9.0678.08C1.9467,2.3738.9489,2.6874.825,3.1683.6269,3.9371-.2271,4.6975.3247,5.48A.2378.2378,0,0,1,.2248,5.8431Z"/></svg>