<svg id="Layer_1" data-name="Layer 1" xmlns="http://www.w3.org/2000/svg" width="205.2989" height="10.7628" viewBox="0 0 205.2989 10.7628"><defs><style>.cls-1{fill:#5c51ff;}</style></defs><path class="cls-1" d="M205.1239,5.0915c.3263-.35.1551-.6559-.1771-.9676-.3818-.3585-.801-.7085-1.1286-1.0793-.7844-.888-2.1539-1.0983-3.9011-1.0412-2.692.0881-5.4.21-8.0892.1408a39.5525,39.5525,0,0,0-7.9869.3646,7.2438,7.2438,0,0,1-2.4881-.1352,25.8769,25.8769,0,0,0-5.2761-.2112,1.5648,1.5648,0,0,0-.7188.1248,2.6594,2.6594,0,0,1-1.9223.2746c-.7817-.0524-1.5615-.126-2.3458-.1517a16.619,16.619,0,0,0-5.3591.1986,12.24,12.24,0,0,1-3.8177.3153,31.7775,31.7775,0,0,0-4.6932.0685c-1.08.0875-2.2068.0414-3.313.0385-.4565-.0011-.9136-.062-1.371-.0672-2.2346-.0262-4.47-.0559-6.7039-.0574-1.3074-.0009-2.6132.0518-3.92.0749a9.876,9.876,0,0,1-1.761-.0088,6.22,6.22,0,0,0-2.1053.0119,9.0893,9.0893,0,0,1-1.3715.059,6.3007,6.3007,0,0,1-1.0068-.0668c-1.4953-.0122-3.0141-.0157-4.5523-.0292a110.4114,110.4114,0,0,1-13.9329.2666,19.353,19.353,0,0,1-2.4763-.1459c-.4939-.0637-1.0265-.0478-1.5138-.12a16.3922,16.3922,0,0,0-3.1783.1937c-2.5523.0783-5.1254.0276-7.69.0039-1.97-.0182-3.9415-.1059-5.9106-.106-2.7539,0-5.5061.0539-8.26.0794-.1921.0017-.3868-.0586-.581-.0614-2.8907-.0426-5.7816-.0929-8.6723-.1146-1.8947-.0141-3.79.0448-5.6837.0181-2.8856-.0409-5.7848-.24-8.6512-.1638-2.98.0789-5.9226-.0687-8.8826-.1134C53.322,2.6483,50.95,2.6254,48.6,2.7057c-3.434.1175-6.8425-.0046-10.2533-.1922-2.1631-.1188-4.3153-.3075-6.4808-.403-1.8323-.0809-3.687-.0155-5.5136-.1166-3.6072-.2-7.1932-.5415-10.8046-.6854A28.1462,28.1462,0,0,1,9.1951.2739,11.3579,11.3579,0,0,0,7.331.0257,8.8937,8.8937,0,0,0,3.2334.81C1.7045,1.3644-.0393,2.9659.0007,3.9188A1.5958,1.5958,0,0,0,.5356,4.9824c.3222.3017.4147.5.1141.8274-.5185.5656.2282,1.6243,1.2169,1.8343a56.3254,56.3254,0,0,0,8.3489,1.243c2.55.1562,5.1107.2884,7.64.5169A52.2023,52.2023,0,0,0,23.96,9.56c1.3-.034,2.6226.0229,3.9239.0983,2.2879.1323,4.5608.3575,6.8516.4568,2.9582.1282,5.94.1045,8.8892.2678a69.2952,69.2952,0,0,0,10.0169-.1745,10.4907,10.4907,0,0,1,2.32.0773,17.5384,17.5384,0,0,0,3.5115.1381,20.9232,20.9232,0,0,1,3.91.02,35.2367,35.2367,0,0,0,7.8317.1868,19.824,19.824,0,0,1,2.5336-.1231,71.9031,71.9031,0,0,0,10.6016-.244,7.0516,7.0516,0,0,1,1.9259-.0047,24.9643,24.9643,0,0,0,6.625.1635,61.1134,61.1134,0,0,1,6.6687-.2888c1.3648.065,2.745.0367,4.1178.0361,1.3065-.0005,2.6157-.06,3.918-.0224a69.6584,69.6584,0,0,0,11.5649-.1138,9.1277,9.1277,0,0,1,1.1808-.04,8.4688,8.4688,0,0,1,1.201.054,105.3087,105.3087,0,0,1,16.5444.3145c.0444-.3486.3114-.382,1.4767-.4162,3.0825-.0906,6.1715-.1346,9.2578-.1977a1.43,1.43,0,0,1,.1972-.0014A23.6146,23.6146,0,0,0,154.3,9.58c.3868-.0369.78-.0768,1.1716-.079,2.8881-.0152,5.7769-.0453,8.6654-.02,1.4373.0127,2.873.1447,4.312.1993,1.1783.0448,2.3657.1,3.54.0725,3.5475-.0829,7.09-.208,10.6357-.305.5852-.0159,1.1787.023,1.7676.0435,2.1.0727,4.2037.219,6.2974.2011a30.842,30.842,0,0,1,4.8968.2435,23.7,23.7,0,0,0,6.8153-.0014c1.3533-.1826,2.11-.5938,2.2133-1.2411.1654-1.035.8235-2.0507.4257-3.1126A.47.47,0,0,1,205.1239,5.0915Z"/></svg>