<svg id="Layer_1" data-name="Layer 1" xmlns="http://www.w3.org/2000/svg" width="168.3841" height="9.8574" viewBox="0 0 168.3841 9.8574"><defs><style>.cls-1{fill:#00cd9f;}</style></defs><path class="cls-1" d="M.1441,5.4811c-.2682.3242-.1282.6073.1436.8952.3126.3311.6558.6544.9239.9971.6419.82,1.7648,1.0128,3.1979.957,2.2082-.0862,4.4294-.2039,6.635-.144a28.8189,28.8189,0,0,0,6.5515-.351,5.2771,5.2771,0,0,1,2.04.1209,18.8316,18.8316,0,0,0,4.3272.1866,1.16,1.16,0,0,0,.59-.1168c.3992-.3814.9888-.3008,1.5771-.2574.6411.0472,1.2806.114,1.9238.1365a12.1139,12.1139,0,0,0,4.3958-.193,8.9449,8.9449,0,0,1,3.1318-.2982,23.1068,23.1068,0,0,0,3.8495-.0714c.8858-.0828,1.81-.042,2.7174-.0412.3744,0,.7493.0558,1.1244.06,1.8327.0205,3.6659.0442,5.4984.0419,1.0723-.0015,2.1434-.0525,3.2154-.0761a7.1987,7.1987,0,0,1,1.4444.0052,4.527,4.527,0,0,0,1.7268-.0145,6.6163,6.6163,0,0,1,1.125-.057,4.591,4.591,0,0,1,.8257.06c1.2264.0087,2.472.0094,3.7337.0193a80.3045,80.3045,0,0,1,11.4282-.27,14.1021,14.1021,0,0,1,2.0308.1308c.405.0582.8418.0426,1.2414.1085A11.9549,11.9549,0,0,0,78.15,7.1245c2.0935-.0769,4.2038-.0343,6.3072-.0167,1.616.0135,3.2326.0913,4.8477.0881,2.2587-.0045,4.5162-.0592,6.7745-.0875.1576-.0019.3172.0536.4765.0558,2.3708.0345,4.7418.0763,7.1127.0914,1.554.01,3.1086-.0479,4.6618-.0264,2.3667.033,4.7443.2122,7.0954.1371,2.444-.0781,4.8576.0534,7.2853.09,1.9363.0292,3.8821.0464,5.81-.032a83.4312,83.4312,0,0,1,8.4094.1606c1.774.1062,3.5389.2772,5.3149.362,1.5027.0717,3.024.0081,4.522.0986,2.9582.1789,5.8989.4889,8.8608.616a20.6524,20.6524,0,0,1,5.2083.9468,8.3025,8.3025,0,0,0,1.5285.2265,6.6,6.6,0,0,0,3.3622-.7329c1.2549-.5156,2.6879-2.0008,2.6567-2.8826a1.5484,1.5484,0,0,0-.4369-.9835c-.2638-.2787-.3393-.4617-.0922-.7656.4263-.5243-.1844-1.5029-.995-1.6956a41.2623,41.2623,0,0,0-6.8456-1.1363c-2.0916-.14-4.1913-.2582-6.2653-.4655a37.98,37.98,0,0,0-5.0068-.1339c-1.0664.0337-2.151-.0167-3.2182-.0843-1.8763-.1186-3.74-.3231-5.6189-.4112-2.426-.1136-4.8714-.0867-7.29-.2328a50.4013,50.4013,0,0,0-8.2162.1785,7.6338,7.6338,0,0,1-1.9023-.0676,12.7531,12.7531,0,0,0-2.88-.1219,15.2205,15.2205,0,0,1-3.2068-.0117,25.638,25.638,0,0,0-6.4232-.16,14.4241,14.4241,0,0,1-2.0783.1183A52.3009,52.3009,0,0,0,99.2118.49a5.1324,5.1324,0,0,1-1.58.0076,18.1712,18.1712,0,0,0-5.4334-.14,44.4831,44.4831,0,0,1-5.47.2787C85.6092.5784,84.4772.6069,83.3511.61,82.28.6124,81.2057.67,80.1376.6371A50.6738,50.6738,0,0,0,70.6519.762a6.6443,6.6443,0,0,1-.9685.0389,6.1471,6.1471,0,0,1-.985-.048A76.56,76.56,0,0,1,55.1292.49c-.037.3227-.256.3541-1.2119.3878-2.5284.089-5.062.135-7.5935.1986a1.0319,1.0319,0,0,1-.1618.0016,17.1925,17.1925,0,0,0-4.325.163,9.6156,9.6156,0,0,1-.961.075c-2.3689.019-4.7383.0517-7.1074.0333C32.59,1.34,31.4124,1.22,30.2322,1.172c-.9663-.0394-1.94-.0884-2.9032-.061-2.91.0827-5.8154.2045-8.7239.3-.48.0158-.9667-.0193-1.45-.0372-1.7221-.0638-3.4475-.1956-5.1648-.1755A22.4319,22.4319,0,0,1,7.9747.9815a17.2506,17.2506,0,0,0-5.59.0128c-1.11.1713-1.7315.5531-1.8174,1.1524C.43,3.1049-.1115,4.0461.2129,5.0282A.48.48,0,0,1,.1441,5.4811Z"/></svg>