<svg id="Layer_1" data-name="Layer 1" xmlns="http://www.w3.org/2000/svg" width="127.1641" height="11.5772" viewBox="0 0 127.1641 11.5772"><defs><style>.cls-1{fill:#5545ff;}</style></defs><path class="cls-1" d="M.1068,8.2291A1.0067,1.0067,0,0,0,.22,9.2935c.2379.39.499.77.7034,1.1738a2.1735,2.1735,0,0,0,2.4205,1.0918,48.3439,48.3439,0,0,1,5.01-.2717A14.0076,14.0076,0,0,0,13.3,10.7705a2.5723,2.5723,0,0,1,1.5417.1132,9.072,9.072,0,0,0,3.2688.157.6278.6278,0,0,0,.4447-.1479c.2993-.46.7451-.3733,1.19-.33.4844.0465.9677.1165,1.4536.1336,1.113.04,2.2016.3053,3.3185-.2962A4.4517,4.4517,0,0,1,26.88,9.9972a11.1254,11.1254,0,0,0,2.9067-.1431,14.0881,14.0881,0,0,1,2.0519-.09c.2828-.0053.5662.0552.8494.0543,1.3843-.0033,2.7688-.0026,4.1526-.0331.81-.0179,1.6184-.0948,2.4279-.1391a3.4553,3.4553,0,0,1,1.0908-.0156,2.2005,2.2005,0,0,0,1.3039-.0433,3.2084,3.2084,0,0,1,.8493-.0849,2.2251,2.2251,0,0,1,.6239.0592c.9262-.0081,1.8669-.0261,2.82-.0333a38.6525,38.6525,0,0,1,8.6288-.4945,6.7908,6.7908,0,0,1,1.5344.1253c.3062.0631.636.0379.9381.1105.7076.17,1.3208-.2091,1.9679-.2593,1.5806-.1232,3.1745-.1042,4.763-.115,1.22-.0083,2.4418.06,3.6614.0318,1.7058-.04,3.41-.1387,5.1156-.2065.119-.0046.24.0591.36.0594,1.7906.0053,3.5814.0193,5.372.0016,1.1736-.0117,2.3473-.104,3.52-.1018,1.7875.0036,3.584.1812,5.3591.0562,1.8453-.13,3.6688-.01,5.5023-.0028,1.4624.0055,2.932-.0034,4.3872-.1258a39.9811,39.9811,0,0,1,6.3516.0644c1.34.1,2.6741.2769,4.0158.3511,1.1352.0628,2.2837-.0359,3.4155.0492,2.2351.1685,4.4576.4935,6.6951.6a10.54,10.54,0,0,1,3.9387,1.0492,4.1383,4.1383,0,0,0,1.1556.2468,3.613,3.613,0,0,0,2.5348-.9238,5.2741,5.2741,0,0,0,1.99-3.4741,2.4274,2.4274,0,0,0-.3356-1.1649.791.791,0,0,1-.074-.9107,1.696,1.696,0,0,0-.7611-2.0049,20.7712,20.7712,0,0,0-5.1762-1.25c-1.58-.1354-3.1668-.2443-4.7342-.46a18.2039,18.2039,0,0,0-3.7818-.084A16.3564,16.3564,0,0,1,109.87.6436c-1.4176-.1129-2.8263-.3285-4.2456-.4051-1.8328-.0987-3.6794-.03-5.507-.1673a24.268,24.268,0,0,0-6.2037.3365,3.6777,3.6777,0,0,1-1.437-.0518A6.1461,6.1461,0,0,0,90.3008.2541,7.3161,7.3161,0,0,1,87.879.2885,12.3461,12.3461,0,0,0,83.0274.1953a7.003,7.003,0,0,1-1.5689.1722A25.21,25.21,0,0,0,74.893.7891,2.48,2.48,0,0,1,73.7.8219,8.7737,8.7737,0,0,0,69.596.737a21.54,21.54,0,0,1-4.1294.4144c-.8456-.052-1.7-.0009-2.5507.02-.8092.0193-1.62.1036-2.4267.0811-2.3955-.0672-4.7956-.3469-7.1628.2919a3.2107,3.2107,0,0,1-.7312.0609,2.9663,2.9663,0,0,1-.7441-.0423,36.76,36.76,0,0,1-10.2488-.1087c-.0261.385-.1913.4257-.9129.48-1.909.1442-3.8221.2373-5.7334.3512a.5.5,0,0,1-.1222.0044,8.3308,8.3308,0,0,0-3.2653.2594,4.7042,4.7042,0,0,1-.7253.1039c-1.7889.0583-3.578.133-5.3672.1468-.89.0068-1.78-.1181-2.6717-.1577a20.2158,20.2158,0,0,0-2.1928-.029c-2.1969.1425-4.39.3314-6.5864.4893A10.0179,10.0179,0,0,1,12.93,3.08c-1.3009-.05-2.6047-.181-3.9014-.1312a10.8093,10.8093,0,0,1-3.0341-.1979A8.3454,8.3454,0,0,0,1.7733,2.85a1.5793,1.5793,0,0,0-1.3659,1.4,11.3973,11.3973,0,0,0-.2512,3.438A.8555.8555,0,0,1,.1068,8.2291Z"/></svg>