<svg id="Layer_1" data-name="Layer 1" xmlns="http://www.w3.org/2000/svg" width="309.1017" height="10.2708" viewBox="0 0 309.1017 10.2708"><defs><style>.cls-1{fill:#00cd9f;}</style></defs><path class="cls-1" d="M.2563,6.7512c-.4847.352-.2211.6565.2848.9654.5816.3552,1.2193.7016,1.72,1.0695,1.1977.8811,3.2634,1.08,5.8928,1.01,4.0513-.1094,8.126-.2529,12.1761-.2046a89.3412,89.3412,0,0,0,12.0177-.4274,16.3479,16.3479,0,0,1,3.7484.1153,58.5969,58.5969,0,0,0,7.9475.1694,3.4089,3.4089,0,0,0,1.08-.13,5.7847,5.7847,0,0,1,2.8889-.29c1.1779.0462,2.3534.1136,3.5347.1331a37.4857,37.4857,0,0,0,8.0645-.2408,27.44,27.44,0,0,1,5.7418-.3452c2.4274.091,4.706.0337,7.0646-.1056,1.6239-.0959,3.3216-.0588,4.9871-.0646.6874-.0025,1.3767.0547,2.0653.0563,3.3648.0085,6.73.0205,10.0941.0044,1.9684-.0095,3.9333-.0725,5.9006-.1059a22.4021,22.4021,0,0,1,2.6514-.0051,14.0431,14.0431,0,0,0,3.17-.0285,20.5526,20.5526,0,0,1,2.0636-.07,14.28,14.28,0,0,1,1.5172.0588c2.2514,0,4.538-.0082,6.8542-.0068,6.9668-.3489,13.9406-.6132,20.9715-.3765,1.2388-.0062,2.4819.026,3.7309.1262.7449.06,1.5463.04,2.2814.1079a36.97,36.97,0,0,0,4.7815-.2187c3.8411-.0984,7.7159-.0681,11.5773-.0647,2.9668.0027,5.936.0747,8.9006.0592,4.1462-.0216,8.2887-.0973,12.4336-.1446.2892-.0032.5834.0555.8759.0568,4.3527.02,8.7061.0471,13.0586.0459,2.8528-.0008,5.7051-.0747,8.5567-.063,4.3451.0181,8.7137.1939,13.0278.0954,4.4844-.1025,8.918.0217,13.3752.043,3.555.0172,7.1272.0213,10.6636-.0776,5.1678-.1445,10.3017-.05,15.44.1111,3.259.1015,6.5026.2731,9.7648.3514,2.76.0663,5.5512-.0136,8.3031.073,5.4345.1712,10.84.4841,16.28.5994a62.619,62.619,0,0,1,9.583.9835,25.433,25.433,0,0,0,2.8111.2332,19.2987,19.2987,0,0,0,6.1544-.8161c2.2914-.5659,4.8867-2.18,4.8086-3.1317a1.5205,1.5205,0,0,0-.8252-1.0584c-.4909-.2989-.6338-.4959-.1875-.8259.77-.5692-.374-1.621-1.8665-1.8231a125.8705,125.8705,0,0,0-12.5929-1.176c-3.8427-.1358-7.7-.2477-11.5118-.4561-3.0768-.1681-6.1093-.1773-9.1938-.1075-1.9568.0443-3.9489-.0021-5.9095-.0672C263.5658.6734,260.14.4664,256.6888.3852,252.2327.2806,247.7445.3278,243.3007.188c-5.0922-.16-10.0816-.0679-15.0776.2535A23.7434,23.7434,0,0,1,224.73.3825a39.7305,39.7305,0,0,0-5.2894-.11,47.3973,47.3973,0,0,1-5.8868.0111A79.8266,79.8266,0,0,0,201.759.1586c-1.26.0741-2.5586.1778-3.8122.1431-5.3779-.149-10.684-.0432-15.9566.3276a15.9443,15.9443,0,0,1-2.8995.02,56.5,56.5,0,0,0-9.9772-.111c-3.3314.15-6.6111.4315-10.0346.3413-2.056-.0541-4.1333-.015-6.2-.0035-1.9669.0108-3.9369.08-5.8982.0533a157.793,157.793,0,0,0-17.4094.2052c-.56.0543-1.1822.0449-1.7769.0491-.8049.0057-1.3777-.0038-1.8092-.0445A238.7225,238.7225,0,0,1,101.0707.9556c-.06.3487-.4615.3842-2.2153.4276-4.6392.1149-9.2889.1833-13.9343.2707-.0991.0019-.2033.01-.2969.003a53.3847,53.3847,0,0,0-7.9353.2079c-.5816.04-1.1723.0828-1.7623.0881-4.348.0381-8.6966.091-13.0458.0886-2.1642-.0012-4.3282-.1218-6.4957-.165-1.7748-.0355-3.5635-.0811-5.3307-.0445-5.3392.1109-10.67.2639-16.0067.3888-.8808.02-1.775-.0137-2.662-.03-3.1627-.056-6.333-.1856-9.4849-.1512a69.85,69.85,0,0,1-7.3768-.2045,53.6064,53.6064,0,0,0-10.2607.0552c-2.034.1932-3.1653.61-3.3089,1.2576C.7248,4.1838-.2469,5.2039.3719,6.2618A.3523.3523,0,0,1,.2563,6.7512Z"/></svg>