<svg id="Layer_1" data-name="Layer 1" xmlns="http://www.w3.org/2000/svg" width="177" height="32.6558" viewBox="0 0 177 32.6558"><defs><style>.cls-1{fill:#13c798;}</style></defs><polygon class="cls-1" points="45.564 8.247 40.953 8.247 40.953 24.55 53.342 24.55 53.342 20.893 45.564 20.893 45.564 8.247"/><path class="cls-1" d="M61.5154,8.247,54.3187,24.55h4.7041l1.2811-3.1673h6.8935l1.281,3.1673h4.7978L66.0564,8.247Zm.14,9.7356,2.0957-5.2168,2.0958,5.2168Z"/><path class="cls-1" d="M87.11,16.0489a3.85,3.85,0,0,0,2.1894-3.54c0-2.5147-2.0957-4.262-6.3819-4.262H74.58V24.55h8.8031c4.3778,0,6.7072-1.6536,6.7072-4.4715A4.1166,4.1166,0,0,0,87.11,16.0489Zm-7.9651-4.4715h3.1673c1.5378,0,2.3294.5358,2.3294,1.561,0,1.0474-.7916,1.5832-2.3294,1.5832H79.1446Zm3.8662,9.642H79.1446V17.9121h3.8662c1.5842,0,2.4221.5357,2.4221,1.6536S84.595,21.2194,83.0108,21.2194Z"/><path class="cls-1" d="M101.1053,12.9753c0-.8148.6979-1.4673,2.6315-1.4673a9.627,9.627,0,0,1,4.5179,1.2578l1.421-3.4241a12.2115,12.2115,0,0,0-5.9157-1.42c-4.8441,0-7.22,2.3757-7.22,5.2862,0,6.0557,9.2693,4.1694,9.2693,6.7536,0,.7926-.7452,1.3274-2.6547,1.3274a10.2793,10.2793,0,0,1-5.38-1.6064l-1.5136,3.4a12.8356,12.8356,0,0,0,6.87,1.7936c4.8441,0,7.2188-2.422,7.2188-5.263C110.35,13.6037,101.1053,15.4668,101.1053,12.9753Z"/><polygon class="cls-1" points="116.759 18.006 124.002 18.006 124.002 14.558 116.759 14.558 116.759 11.811 124.98 11.811 124.98 8.247 112.195 8.247 112.195 24.55 125.283 24.55 125.283 20.987 116.759 20.987 116.759 18.006"/><polygon class="cls-1" points="135.804 18.868 131.379 8.247 126.394 8.247 133.359 24.55 137.9 24.55 144.886 8.247 140.322 8.247 135.804 18.868"/><polygon class="cls-1" points="150.871 18.006 158.114 18.006 158.114 14.558 150.871 14.558 150.871 11.811 159.092 11.811 159.092 8.247 146.307 8.247 146.307 24.55 159.395 24.55 159.395 20.987 150.871 20.987 150.871 18.006"/><polygon class="cls-1" points="172.482 8.247 172.482 16.934 165.285 8.247 161.49 8.247 161.49 24.55 166.008 24.55 166.008 15.863 173.204 24.55 177 24.55 177 8.247 172.482 8.247"/><polygon class="cls-1" points="0 14.818 0 24.48 14.156 32.656 14.174 32.656 14.174 19.094 6.153 19.094 8.304 13.49 13.311 0.428 0 8.116 0 14.818"/><polygon class="cls-1" points="28.357 14.879 28.357 8.116 14.298 0 14.298 13.182 15.728 13.182 22.557 13.182 15.157 32.097 28.357 24.48 28.357 14.879"/></svg>