<svg id="Layer_1" data-name="Layer 1" xmlns="http://www.w3.org/2000/svg" width="29.3218" height="19.493" viewBox="0 0 29.3218 19.493"><defs><style>.cls-1{fill:#fff;}.cls-2{fill:#bd0c30;}.cls-3{fill:#3c3b6e;}</style></defs><rect class="cls-1" y="1.4995" width="29.3218" height="1.4995"/><rect class="cls-1" y="4.4984" width="29.3218" height="1.4995"/><rect class="cls-1" y="7.4973" width="29.3218" height="1.4995"/><rect class="cls-1" y="10.4962" width="29.3218" height="1.4995"/><rect class="cls-1" y="13.4951" width="29.3218" height="1.4995"/><rect class="cls-1" y="16.494" width="29.3218" height="1.4995"/><rect class="cls-2" width="29.3218" height="1.4995"/><rect class="cls-2" y="2.9989" width="29.3218" height="1.4995"/><rect class="cls-2" y="5.9978" width="29.3218" height="1.4995"/><rect class="cls-2" y="8.9968" width="29.3218" height="1.4995"/><rect class="cls-2" y="11.9957" width="29.3218" height="1.4995"/><rect class="cls-2" y="14.9946" width="29.3218" height="1.4995"/><rect class="cls-2" y="17.9935" width="29.3218" height="1.4995"/><rect class="cls-3" width="14.9522" height="10.4962"/><polygon class="cls-1" points="0.831 0.403 0.959 0.798 1.375 0.798 1.039 1.042 1.167 1.437 0.831 1.193 0.495 1.437 0.623 1.042 0.287 0.798 0.703 0.798 0.831 0.403"/><polygon class="cls-1" points="2.497 0.403 2.626 0.798 3.041 0.798 2.705 1.042 2.833 1.437 2.497 1.193 2.161 1.437 2.29 1.042 1.954 0.798 2.369 0.798 2.497 0.403"/><polygon class="cls-1" points="1.663 2.149 1.791 2.544 2.206 2.544 1.87 2.788 1.999 3.183 1.663 2.939 1.327 3.183 1.455 2.788 1.119 2.544 1.534 2.544 1.663 2.149"/><polygon class="cls-1" points="3.32 2.149 3.448 2.544 3.863 2.544 3.527 2.788 3.656 3.183 3.32 2.939 2.984 3.183 3.112 2.788 2.776 2.544 3.191 2.544 3.32 2.149"/><polygon class="cls-1" points="4.977 2.149 5.105 2.544 5.52 2.544 5.184 2.788 5.312 3.183 4.977 2.939 4.641 3.183 4.769 2.788 4.433 2.544 4.848 2.544 4.977 2.149"/><polygon class="cls-1" points="6.645 2.149 6.773 2.544 7.189 2.544 6.853 2.788 6.981 3.183 6.645 2.939 6.309 3.183 6.437 2.788 6.101 2.544 6.517 2.544 6.645 2.149"/><polygon class="cls-1" points="8.309 2.149 8.438 2.544 8.853 2.544 8.517 2.788 8.645 3.183 8.309 2.939 7.973 3.183 8.102 2.788 7.766 2.544 8.181 2.544 8.309 2.149"/><polygon class="cls-1" points="9.97 2.149 10.099 2.544 10.514 2.544 10.178 2.788 10.306 3.183 9.97 2.939 9.634 3.183 9.763 2.788 9.427 2.544 9.842 2.544 9.97 2.149"/><polygon class="cls-1" points="11.627 2.149 11.755 2.544 12.171 2.544 11.835 2.788 11.963 3.183 11.627 2.939 11.291 3.183 11.419 2.788 11.083 2.544 11.499 2.544 11.627 2.149"/><polygon class="cls-1" points="13.292 2.149 13.42 2.544 13.835 2.544 13.499 2.788 13.628 3.183 13.292 2.939 12.956 3.183 13.084 2.788 12.748 2.544 13.163 2.544 13.292 2.149"/><polygon class="cls-1" points="1.663 5.65 1.791 6.045 2.206 6.045 1.87 6.289 1.999 6.684 1.663 6.44 1.327 6.684 1.455 6.289 1.119 6.045 1.534 6.045 1.663 5.65"/><polygon class="cls-1" points="3.32 5.65 3.448 6.045 3.863 6.045 3.527 6.289 3.656 6.684 3.32 6.44 2.984 6.684 3.112 6.289 2.776 6.045 3.191 6.045 3.32 5.65"/><polygon class="cls-1" points="4.977 5.65 5.105 6.045 5.52 6.045 5.184 6.289 5.312 6.684 4.977 6.44 4.641 6.684 4.769 6.289 4.433 6.045 4.848 6.045 4.977 5.65"/><polygon class="cls-1" points="6.645 5.65 6.773 6.045 7.189 6.045 6.853 6.289 6.981 6.684 6.645 6.44 6.309 6.684 6.437 6.289 6.101 6.045 6.517 6.045 6.645 5.65"/><polygon class="cls-1" points="8.309 5.65 8.438 6.045 8.853 6.045 8.517 6.289 8.645 6.684 8.309 6.44 7.973 6.684 8.102 6.289 7.766 6.045 8.181 6.045 8.309 5.65"/><polygon class="cls-1" points="9.97 5.65 10.099 6.045 10.514 6.045 10.178 6.289 10.306 6.684 9.97 6.44 9.634 6.684 9.763 6.289 9.427 6.045 9.842 6.045 9.97 5.65"/><polygon class="cls-1" points="11.627 5.65 11.755 6.045 12.171 6.045 11.835 6.289 11.963 6.684 11.627 6.44 11.291 6.684 11.419 6.289 11.083 6.045 11.499 6.045 11.627 5.65"/><polygon class="cls-1" points="13.292 5.65 13.42 6.045 13.835 6.045 13.499 6.289 13.628 6.684 13.292 6.44 12.956 6.684 13.084 6.289 12.748 6.045 13.163 6.045 13.292 5.65"/><polygon class="cls-1" points="1.663 9.152 1.791 9.546 2.206 9.546 1.87 9.791 1.999 10.185 1.663 9.941 1.327 10.185 1.455 9.791 1.119 9.546 1.534 9.546 1.663 9.152"/><polygon class="cls-1" points="3.32 9.152 3.448 9.546 3.863 9.546 3.527 9.791 3.656 10.185 3.32 9.941 2.984 10.185 3.112 9.791 2.776 9.546 3.191 9.546 3.32 9.152"/><polygon class="cls-1" points="4.977 9.152 5.105 9.546 5.52 9.546 5.184 9.791 5.312 10.185 4.977 9.941 4.641 10.185 4.769 9.791 4.433 9.546 4.848 9.546 4.977 9.152"/><polygon class="cls-1" points="6.645 9.152 6.773 9.546 7.189 9.546 6.853 9.791 6.981 10.185 6.645 9.941 6.309 10.185 6.437 9.791 6.101 9.546 6.517 9.546 6.645 9.152"/><polygon class="cls-1" points="8.309 9.152 8.438 9.546 8.853 9.546 8.517 9.791 8.645 10.185 8.309 9.941 7.973 10.185 8.102 9.791 7.766 9.546 8.181 9.546 8.309 9.152"/><polygon class="cls-1" points="9.97 9.152 10.099 9.546 10.514 9.546 10.178 9.791 10.306 10.185 9.97 9.941 9.634 10.185 9.763 9.791 9.427 9.546 9.842 9.546 9.97 9.152"/><polygon class="cls-1" points="11.627 9.152 11.755 9.546 12.171 9.546 11.835 9.791 11.963 10.185 11.627 9.941 11.291 10.185 11.419 9.791 11.083 9.546 11.499 9.546 11.627 9.152"/><polygon class="cls-1" points="13.292 9.152 13.42 9.546 13.835 9.546 13.499 9.791 13.628 10.185 13.292 9.941 12.956 10.185 13.084 9.791 12.748 9.546 13.163 9.546 13.292 9.152"/><polygon class="cls-1" points="4.152 0.403 4.281 0.798 4.696 0.798 4.36 1.042 4.488 1.437 4.152 1.193 3.816 1.437 3.945 1.042 3.609 0.798 4.024 0.798 4.152 0.403"/><polygon class="cls-1" points="5.81 0.403 5.939 0.798 6.354 0.798 6.018 1.042 6.146 1.437 5.81 1.193 5.474 1.437 5.603 1.042 5.267 0.798 5.682 0.798 5.81 0.403"/><polygon class="cls-1" points="7.476 0.403 7.604 0.798 8.02 0.798 7.684 1.042 7.812 1.437 7.476 1.193 7.14 1.437 7.268 1.042 6.933 0.798 7.348 0.798 7.476 0.403"/><polygon class="cls-1" points="9.14 0.403 9.269 0.798 9.684 0.798 9.348 1.042 9.476 1.437 9.14 1.193 8.804 1.437 8.933 1.042 8.597 0.798 9.012 0.798 9.14 0.403"/><polygon class="cls-1" points="10.803 0.403 10.931 0.798 11.347 0.798 11.011 1.042 11.139 1.437 10.803 1.193 10.467 1.437 10.595 1.042 10.259 0.798 10.675 0.798 10.803 0.403"/><polygon class="cls-1" points="12.464 0.403 12.592 0.798 13.007 0.798 12.671 1.042 12.8 1.437 12.464 1.193 12.128 1.437 12.256 1.042 11.92 0.798 12.335 0.798 12.464 0.403"/><polygon class="cls-1" points="14.122 0.403 14.251 0.798 14.666 0.798 14.33 1.042 14.458 1.437 14.122 1.193 13.787 1.437 13.915 1.042 13.579 0.798 13.994 0.798 14.122 0.403"/><polygon class="cls-1" points="0.831 3.904 0.959 4.299 1.375 4.299 1.039 4.543 1.167 4.938 0.831 4.694 0.495 4.938 0.623 4.543 0.287 4.299 0.703 4.299 0.831 3.904"/><polygon class="cls-1" points="2.497 3.904 2.626 4.299 3.041 4.299 2.705 4.543 2.833 4.938 2.497 4.694 2.161 4.938 2.29 4.543 1.954 4.299 2.369 4.299 2.497 3.904"/><polygon class="cls-1" points="4.152 3.904 4.281 4.299 4.696 4.299 4.36 4.543 4.488 4.938 4.152 4.694 3.816 4.938 3.945 4.543 3.609 4.299 4.024 4.299 4.152 3.904"/><polygon class="cls-1" points="5.81 3.904 5.939 4.299 6.354 4.299 6.018 4.543 6.146 4.938 5.81 4.694 5.474 4.938 5.603 4.543 5.267 4.299 5.682 4.299 5.81 3.904"/><polygon class="cls-1" points="7.476 3.904 7.604 4.299 8.02 4.299 7.684 4.543 7.812 4.938 7.476 4.694 7.14 4.938 7.268 4.543 6.933 4.299 7.348 4.299 7.476 3.904"/><polygon class="cls-1" points="9.14 3.904 9.269 4.299 9.684 4.299 9.348 4.543 9.476 4.938 9.14 4.694 8.804 4.938 8.933 4.543 8.597 4.299 9.012 4.299 9.14 3.904"/><polygon class="cls-1" points="10.803 3.904 10.931 4.299 11.347 4.299 11.011 4.543 11.139 4.938 10.803 4.694 10.467 4.938 10.595 4.543 10.259 4.299 10.675 4.299 10.803 3.904"/><polygon class="cls-1" points="12.464 3.904 12.592 4.299 13.007 4.299 12.671 4.543 12.8 4.938 12.464 4.694 12.128 4.938 12.256 4.543 11.92 4.299 12.335 4.299 12.464 3.904"/><polygon class="cls-1" points="14.122 3.904 14.251 4.299 14.666 4.299 14.33 4.543 14.458 4.938 14.122 4.694 13.787 4.938 13.915 4.543 13.579 4.299 13.994 4.299 14.122 3.904"/><polygon class="cls-1" points="0.831 7.405 0.959 7.8 1.375 7.8 1.039 8.044 1.167 8.439 0.831 8.195 0.495 8.439 0.623 8.044 0.287 7.8 0.703 7.8 0.831 7.405"/><polygon class="cls-1" points="2.497 7.405 2.626 7.8 3.041 7.8 2.705 8.044 2.833 8.439 2.497 8.195 2.161 8.439 2.29 8.044 1.954 7.8 2.369 7.8 2.497 7.405"/><polygon class="cls-1" points="4.152 7.405 4.281 7.8 4.696 7.8 4.36 8.044 4.488 8.439 4.152 8.195 3.816 8.439 3.945 8.044 3.609 7.8 4.024 7.8 4.152 7.405"/><polygon class="cls-1" points="5.81 7.405 5.939 7.8 6.354 7.8 6.018 8.044 6.146 8.439 5.81 8.195 5.474 8.439 5.603 8.044 5.267 7.8 5.682 7.8 5.81 7.405"/><polygon class="cls-1" points="7.476 7.405 7.604 7.8 8.02 7.8 7.684 8.044 7.812 8.439 7.476 8.195 7.14 8.439 7.268 8.044 6.933 7.8 7.348 7.8 7.476 7.405"/><polygon class="cls-1" points="9.14 7.405 9.269 7.8 9.684 7.8 9.348 8.044 9.476 8.439 9.14 8.195 8.804 8.439 8.933 8.044 8.597 7.8 9.012 7.8 9.14 7.405"/><polygon class="cls-1" points="10.803 7.405 10.931 7.8 11.347 7.8 11.011 8.044 11.139 8.439 10.803 8.195 10.467 8.439 10.595 8.044 10.259 7.8 10.675 7.8 10.803 7.405"/><polygon class="cls-1" points="12.464 7.405 12.592 7.8 13.007 7.8 12.671 8.044 12.8 8.439 12.464 8.195 12.128 8.439 12.256 8.044 11.92 7.8 12.335 7.8 12.464 7.405"/><polygon class="cls-1" points="14.122 7.405 14.251 7.8 14.666 7.8 14.33 8.044 14.458 8.439 14.122 8.195 13.787 8.439 13.915 8.044 13.579 7.8 13.994 7.8 14.122 7.405"/></svg>
