<svg id="Layer_1" data-name="Layer 1" xmlns="http://www.w3.org/2000/svg" width="65.2448" height="57.9597" viewBox="0 0 65.2448 57.9597"><defs><style>.cls-1{fill:#282828;}.cls-2{fill:#1fcb99;}</style></defs><path class="cls-1" d="M65.1925,27.2735c-.08-.6926-.0252-1.4109-.1724-2.0849-.3351-1.534-.05-3.1845-.8172-4.6348a.6178.6178,0,0,1-.0567-.3713,3.8093,3.8093,0,0,0-.5914-2.4678c-.8672-1.6586-1.7832-3.293-2.7336-4.905a3.0808,3.0808,0,0,0-1.1061-1.16,7.265,7.265,0,0,1-2.4828-2.5623A5.43,5.43,0,0,0,56.369,8.081c-.6944-.6046-1.4994-1.0963-2.1346-1.7534A12.6466,12.6466,0,0,0,50.2841,3.7a40.23,40.23,0,0,0-5.0185-1.8841,35.3514,35.3514,0,0,0-10.5-1.7185c-.7046.0044-1.4091-.1167-2.1123-.0945-1.0877.0344-2.1736.1748-3.2613.2126A23.8027,23.8027,0,0,0,22.1241,1.68a18.5965,18.5965,0,0,0-3.1691,1.43,8.5927,8.5927,0,0,0-3.2568,3.6022,11.284,11.284,0,0,0-1.25,4.5009,1.8948,1.8948,0,0,0-.8617-.628,1.2028,1.2028,0,0,0-.7672-.0469,10.6352,10.6352,0,0,0-1.4046.488,9.941,9.941,0,0,0-1.2.5755c-.7132.4106-1.4237.83-2.1062,1.2883a7.3649,7.3649,0,0,0-1.4566.9492c-.4759.5081-1.068.9066-1.549,1.4106a6.8025,6.8025,0,0,0-1.36,1.8792,1.4337,1.4337,0,0,1-.1719.2964,2.752,2.752,0,0,0-.4632.8948,2.8732,2.8732,0,0,0-.1288.845,9.3189,9.3189,0,0,1-.1268,1.27c-.13.9544-.169,1.9209-.2443,2.8827-.0089.1143-.0078.2294-.02.3433a14.934,14.934,0,0,0,.1261,3.57c.1452,1.1111.2478,2.23.4528,3.33.2837,1.5224.6087,3.0395.9845,4.5417.4,1.5979.88,3.1755,1.324,4.7622a3.6168,3.6168,0,0,0,.1425.5105c.2119.4727.59.88.5424,1.4522a.525.525,0,0,0,.0588.2207c.443,1.0955.8845,2.1917,1.3371,3.2834.0487.1174.18.198.2443.312a5.26,5.26,0,0,1,.3818.7685.3988.3988,0,0,1,.015.085c.0194.1526-.0222.33.044.4549.3743.7048.76,1.4061,1.1885,2.0786a3.4088,3.4088,0,0,0,.6668.5967,4.1634,4.1634,0,0,1,.7471.695c.2381.3545.3569.7864.5632,1.1653.3638.6685.7579,1.3206,1.1328,1.983a2.0981,2.0981,0,0,1,.3392.7,1.0594,1.0594,0,0,0,.5334.827c.2712.152.54.209.4022.6024-.0116.033.0451.0877.0649.1343.2089.4934.6926.6853,1.0787.9843a3.6135,3.6135,0,0,0,1.708.44,37.8908,37.8908,0,0,0,5.2594.792,6.86,6.86,0,0,0,3.5475-.71c.0965-.052.1992-.0977.2988-.1465,1.5757-.7727,3.4924-1.1992,4.2094-2.9585a6.6118,6.6118,0,0,0-.1865-4.8489,8.2331,8.2331,0,0,1-.9533-2.8955,5.0736,5.0736,0,0,0-.2715-2.3456,1.8254,1.8254,0,0,0-.25-.35,5.4293,5.4293,0,0,0-.844-.6991,1.06,1.06,0,0,0-.4519-.16c-.5477-.0817-1.0976-.1493-1.6477-.2137a4.6664,4.6664,0,0,0-2.181.1794c-.1773.0647-.3527.1389-.5295.2056a2.2051,2.2051,0,0,1-.3538.1118,2.2221,2.2221,0,0,1-1.8383-.6556,9.4777,9.4777,0,0,1-2.111-2.43,7.9948,7.9948,0,0,1-.7813-1.5219c-.1265-.3618-.24-.7283-.3568-1.0934.1.1722.1983.3457.298.517.3181.5471.6539,1.1044,1.0213,1.6456-.3947-.912-.7666-1.8349-1.0757-2.7912a24.94,24.94,0,0,1-1.3767-7.2946,11.069,11.069,0,0,1,.1554-2.5572c.2143-.2168.4333-.4294.6492-.6447a.2453.2453,0,0,1,.1022-.05c.3521-.1031.7065-.199,1.0566-.3085a2.6142,2.6142,0,0,0,.4832-.1978,7.3757,7.3757,0,0,1,.6442-.3959,1.7718,1.7718,0,0,0,.9973-.8986,1.62,1.62,0,0,1,.7819-.7925.68.68,0,0,0,.3911-.7854c-.1018-.6-.2281-1.1955-.3458-1.7927A24.74,24.74,0,0,0,19.79,17.2568c-.1686-.4529-.3661-.8949-.5613-1.3379.0409-.01.0822-.02.123-.03a1.4413,1.4413,0,0,0,1.2-1.6334,7.2031,7.2031,0,0,1,.0447-1.3388,18.52,18.52,0,0,1,.3925-3.4261A9.9082,9.9082,0,0,1,27.9638,2.576a18.2027,18.2027,0,0,1,8.6051-.3279,29.2208,29.2208,0,0,1,8.4988,2.2928,24.3132,24.3132,0,0,1,4.7376,2.8283c.3668.303.7709.5638,1.1217.8831.9368.8528,1.9091,1.6771,2.7605,2.6094A20.1178,20.1178,0,0,1,55.27,13.1258a23.7733,23.7733,0,0,1,4.2948,9.1668,18.5775,18.5775,0,0,1,.3631,5.9956,15.1727,15.1727,0,0,1-2.2047,6.509,22.5824,22.5824,0,0,1-2.7957,3.5486,19.4315,19.4315,0,0,1-2.6842,2.3663,57.58,57.58,0,0,1-5.5265,3.584,55.5489,55.5489,0,0,1-5.6706,2.5161A22.8012,22.8012,0,0,1,32.9447,48.5c-.1981.0049-.3965-.0012-.5948-.0043a7.6812,7.6812,0,0,1,.2,2.2613q1.12.0932,2.24.1715a17.7254,17.7254,0,0,0,3.8468-.1818c1.6194-.2449,3.2136-.675,4.8163-1.0367a5.9934,5.9934,0,0,0,.9176-.295q1.3386-.5406,2.6665-1.1086c1.1506-.4949,2.33-.9387,3.4324-1.526,1.138-.6061,2.1835-1.3843,3.297-2.04a23.5514,23.5514,0,0,0,5.7255-4.4293c.3669-.4083.7766-.7811,1.12-1.2073a19.236,19.236,0,0,0,1.9738-2.6146c.5026-.9089,1.23-1.7353,1.1544-2.95a4.808,4.808,0,0,1,.7389-2.0483A7.6264,7.6264,0,0,0,65.1925,27.2735ZM19.7483,46.1219a18.5691,18.5691,0,0,0,2.0448.0337c.6537-.0439,1.3-.1975,1.9492-.3071.1126-.0191.2214-.06.3323-.09a.4532.4532,0,0,1,.5649.2513,4.2888,4.2888,0,0,1,.428,1.6008c.1765,1.0129.3571,2.0251.5355,3.0378.0065.0369.0256.0862.01.11-.2524.3829.015.7849-.0485,1.1664a1.9208,1.9208,0,0,1-.3034.7237,5.9626,5.9626,0,0,1-.55.5807.9017.9017,0,0,1-1.1132.3,2.2469,2.2469,0,0,0-.8648-.0869.8619.8619,0,0,0-.4373.1923c-.1839.1349-.3313.3189-.513.4574a1.09,1.09,0,0,1-.88.2322c-.8628-.1332-1.732-.2323-2.6016-.3121a2.1555,2.1555,0,0,1-1.4227-.7969c-.1958-.2147-.3861-.4343-.58-.65a5.2561,5.2561,0,0,1-.442-.4931c-.3532-.5125-.69-1.0362-1.0284-1.5586-.0961-.1486-.1794-.3059-.2609-.4633a4.479,4.479,0,0,0-.3274-.645,7.8385,7.8385,0,0,1-.7608-1.4343,7.4452,7.4452,0,0,0-.43-.66.9174.9174,0,0,1-.0978-.3c-.03-.1568.0064-.3523-.0749-.4692a8.4769,8.4769,0,0,1-.6563-1.6946A4.2378,4.2378,0,0,0,11.7,43.89a5.4422,5.4422,0,0,1-.57-1.24c-.1436-.3486-.2724-.7039-.3928-1.0612a5.4,5.4,0,0,0-.1482-.5809c-.1831-.388-.427-.7483-.5983-1.1407-.2183-.5-.3929-1.0193-.58-1.5327-.1382-.38-.2813-.7588-.3939-1.1465-.1-.3435-.1618-.6983-.2375-1.0486-.0214-.0989-.0226-.2028-.05-.3-.1043-.3674-.2161-.7326-.3234-1.0993-.0105-.0362.0036-.0852-.0159-.1122-.306-.4239-.1438-.9313-.2515-1.39-.1106-.4713-.209-.9455-.3194-1.4168a1.5851,1.5851,0,0,0-.1414-.4325A.8213.8213,0,0,1,7.6,30.4959c.0728-.1345-.0386-.3737-.078-.5628-.1027-.4936-.2134-.9854-.3168-1.4788-.0125-.0591-.0249-.1571.0058-.18.3963-.3023.24-.7355.2178-1.0974a10.24,10.24,0,0,1,.3557-3.5547,7.291,7.291,0,0,1,1.3825-2.9148A22.4555,22.4555,0,0,1,10.78,19.089,19.01,19.01,0,0,1,12.3243,17.84a8.1575,8.1575,0,0,1,1.0168-.59c.4-.2139.81-.4111,1.2571-.6365.217.4821.4408.9485.639,1.4258.3014.7258.5963,1.4544.8932,2.1821.2206.5408.4439,1.0805.6638,1.6216.0932.2293-.0361.4684-.3273.5886-.2052.085-.4147.1595-.6232.2364-.1542.0567-.3083.1137-.457.1823a8.2206,8.2206,0,0,0-.9147.5144c-.4222.2649-.8459.5307-1.2457.8272-.3808.2826-.8251.54-.9184,1.0591-.2542,1.4145-.2284,2.24-.5607,3.6992a10.0385,10.0385,0,0,0-.1138,3.887,30.2016,30.2016,0,0,0,1.26,5.3411c.1612.4384.3646.8615.5542,1.2892.0408.0921.1068.1725.1546.2619.2137.4.4314.7971.6351,1.2018.1567.311.2247.6712.5435.8874.0658.0446.0869.152.135.2263a13.7456,13.7456,0,0,0,2.5707,3.2A3.6431,3.6431,0,0,0,19.7483,46.1219Z" transform="translate(0 -0.0001)"/><path class="cls-1" d="M31.9874,38.3827c.179.0625.3622.1284.5395.1921.53.19,1.0773.387,1.6412.5432a18.74,18.74,0,0,0,3.5968.65c.2777.0214.5564.0583.8515.0973.3075.0407.6255.0828.95.1072.4741.0359.8959.06,1.307.06.1742,0,.3465-.0044.52-.0141a22.4621,22.4621,0,0,0,2.437-.2535,8.7173,8.7173,0,0,0,2.4446-.7493A12.8431,12.8431,0,0,0,49.8186,36.61c.4133-.418.8086-.8554,1.191-1.2782.2016-.2231.41-.4538.6163-.6759a12.3026,12.3026,0,0,0,1.6548-2.377,21.0215,21.0215,0,0,0,1.9058-4.6133l.0071-.0237a1.0086,1.0086,0,0,0-.0184-.7519,2.6624,2.6624,0,0,0-1.2438-1.398c-.0511-.0236-.1149-.0615-.1825-.1015-.06-.0358-.1285-.0762-.2-.1144-.0088-.005-.0334-.0206-.05-.0309a1.14,1.14,0,0,0-.71-.2178l-.044-.02c-.0275-.0117-.0649-.03-.1044-.05a1.6884,1.6884,0,0,0-.6613-.2085l-.0752-.0059a1.4156,1.4156,0,0,0-1.3269.4812,1.4525,1.4525,0,0,0-.3244,1.4368l.0219.0649a3.57,3.57,0,0,0,.2984.7048l.0105.02-.0037.01c-.0669.1692-.1419.338-.2215.5168-.0467.105-.095.2136-.1421.3234-.03.0694-.0539.1351-.0753.193-.0207.0561-.04.1092-.0571.1439-.08.1632-.1638.3307-.2453.4925-.11.2181-.2235.4437-.3319.6722-.0762.1606-.1384.3181-.1986.47a2.9659,2.9659,0,0,1-.2862.6015c-.6309.88-1.3161,1.7181-1.8425,2.35a3.3663,3.3663,0,0,1-.4068.38,5.82,5.82,0,0,0-.4542.4115,10.2025,10.2025,0,0,1-1.9166,1.501,9.0828,9.0828,0,0,1-2.2917.9107l-.0846.0253a13.558,13.558,0,0,1-3.5836.3961c-.1185-.008-.2393-.0177-.3666-.0277-.32-.0254-.6511-.0515-.9937-.0576A11.5707,11.5707,0,0,1,32.4605,35.56,7.5,7.5,0,0,1,31.063,34.7a9.0413,9.0413,0,0,1-1.2794-1.1528,7.5536,7.5536,0,0,1-.5663-.7476c-.1655-.2376-.3367-.4834-.5335-.7218a7.2612,7.2612,0,0,1-.994-1.8632q-.0531-.1271-.1065-.2534a12.0278,12.0278,0,0,1-.5068-1.6206c-.0383-.1455-.0766-.2908-.116-.4353A4.77,4.77,0,0,1,26.8,26.1163a1.9485,1.9485,0,0,0-.4861-1.6248,2.0236,2.0236,0,0,0-1.78-.6994,1.32,1.32,0,0,1-.2813.0127,1.4889,1.4889,0,0,0-1.2984.3933,1.3212,1.3212,0,0,0-.4117,1.165l.0354.2273c.1058.6819.2151,1.3869.3888,2.0819a17.951,17.951,0,0,0,1.0934,3.1635,14.1814,14.1814,0,0,0,1.4534,2.5078,15.9555,15.9555,0,0,0,2.3536,2.6195,17.0193,17.0193,0,0,0,1.5821,1.21A10.5454,10.5454,0,0,0,31.9874,38.3827Z" transform="translate(0 -0.0001)"/><path class="cls-1" d="M40.051,14.2921l-.0012.0207c-.01.1812-.0211.3623-.0323.5436-.0233.3783-.0473.7694-.061,1.1576a1.7946,1.7946,0,0,0,.0607.4744c.0091.04.0177.078.0245.113.0123.064.0285.1206.0427.17a.83.83,0,0,1,.0254.1021c.024.3579.0452.723.0656,1.0761.0164.2824.0333.5744.0517.8621.021.33.0469.7148.0867,1.0957.0438.42.0937.8442.142,1.2548l.0053.0453-.0174.0013V21.64c0,.06-.001.12-.002.1807-.0025.1506-.005.3064.0062.4686a5.4161,5.4161,0,0,0,.0913.6684,1.56,1.56,0,0,0,1.3186,1.34,2.4728,2.4728,0,0,0,.41.0617,1.2521,1.2521,0,0,1,.26.039,1.9825,1.9825,0,0,0,.666.1054c.1574,0,.3078-.0134.45-.0261.0764-.0069.1485-.0135.22-.0176a.97.97,0,0,0,.6888-.39.9514.9514,0,0,0,.2125-.7465c-.0294-.1614-.0624-.3223-.0944-.4778-.0569-.2772-.1106-.539-.1457-.803l-.0109-.0814c-.1381-1.0392-.2811-2.1139-.3806-3.17-.0494-.5249-.0659-1.0693-.0818-1.5959-.0068-.2236-.0137-.4548-.0232-.6834-.0081-.1964-.0252-.39-.0417-.5776a5.0683,5.0683,0,0,1-.0182-1.1223,1.7092,1.7092,0,0,0-.0255-.5134c-.0084-.0529-.0164-.1028-.0208-.1471-.0062-.0627-.0142-.1223-.0219-.18a1.9714,1.9714,0,0,1-.0249-.2814c.0018-.08.0034-.161.005-.2413a10.548,10.548,0,0,1,.2149-2.3235.9811.9811,0,0,0-.1965-.8174,2.6159,2.6159,0,0,0-2.1323-.9868,1.4434,1.4434,0,0,1-.39-.0288,1.0068,1.0068,0,0,0-1.298.9706c-.0089.19-.0219.3846-.0344.5731-.0262.3941-.0532.8014-.0486,1.2108.0022.203-.013.41-.0292.63a4.1855,4.1855,0,0,0,.0871,1.5615C40.0533,14.253,40.052,14.2758,40.051,14.2921Z" transform="translate(0 -0.0001)"/><path class="cls-1" d="M30.7821,23.1876a1.7141,1.7141,0,0,0,1.2121,1.5709,2.2515,2.2515,0,0,0,.802.1337c.1781,0,.352-.0144.5235-.0286l.02-.0017a1.1275,1.1275,0,0,0,.5237-.0228.825.825,0,0,0,.484-.4052c.0124-.0084.0252-.0177.0381-.0278a1.6837,1.6837,0,0,0,.4523-1.7616,1.9451,1.9451,0,0,1-.1129-.569c-.026-.43-.0407-.8716-.0549-1.2983-.0074-.2217-.0151-.4509-.0242-.677-.0152-.3761-.0336-.7575-.0515-1.1262-.0388-.8006-.079-1.6285-.087-2.4385-.0046-.4629.0236-.9418.0507-1.4049.0231-.3926.0469-.7985.052-1.2033a5.4765,5.4765,0,0,1,.3043-2.0055,1.237,1.237,0,0,0-.6056-1.545,2.9206,2.9206,0,0,0-2.0938-.26,1.5878,1.5878,0,0,0-1.2072,1.4205c-.0041.1889-.0065.38-.0089.5651-.0054.4278-.011.87-.037,1.2985-.0193.3171-.0074.6289.0041.93a4.8877,4.8877,0,0,1-.0729,1.3733.6933.6933,0,0,0-.01.262l.0013.0111q.0041.3254.0072.6505c.0047.4621.0095.94.0193,1.4111.012.5811.031,1.155.0563,1.7061.0138.3.0311.6035.0478.8971.0263.4632.0536.9425.0672,1.4107.007.2407-.004.3042-.062.3574A.9847.9847,0,0,0,30.7821,23.1876Z" transform="translate(0 -0.0001)"/><path class="cls-2" d="M18.5439,39.5825c-.3674-.5412-.7032-1.0985-1.0213-1.6456-.1-.1713-.1985-.3448-.298-.517.117.3651.23.7316.3568,1.0934a7.9948,7.9948,0,0,0,.7813,1.5219,9.4777,9.4777,0,0,0,2.111,2.43,2.2221,2.2221,0,0,0,1.8383.6556,2.2051,2.2051,0,0,0,.3538-.1118A8.166,8.166,0,0,1,18.5439,39.5825Z" transform="translate(0 -0.0001)"/><path class="cls-2" d="M7.8,45.6446c-.064-.114-.1956-.1946-.2443-.312-.4526-1.0917-.8941-2.1879-1.3371-3.2834a.525.525,0,0,1-.0588-.2207c.0473-.5717-.33-.98-.5424-1.4522a3.6168,3.6168,0,0,1-.1425-.5105c-.4444-1.5867-.9243-3.1643-1.324-4.7622-.3758-1.5022-.7008-3.0193-.9845-4.5417-.205-1.1-.3076-2.219-.4528-3.33a14.934,14.934,0,0,1-.1261-3.57c.0125-.1139.0114-.229.02-.3433.0753-.9618.1144-1.9283.2443-2.8827a9.3189,9.3189,0,0,0,.1268-1.27,2.8732,2.8732,0,0,1,.1288-.845,12.3005,12.3005,0,0,0-1.8664,3.0862A17.44,17.44,0,0,0,.85,33.28,39.1845,39.1845,0,0,0,6.5052,44.1551c.5448.7883,1.1063,1.5719,1.692,2.343a.3988.3988,0,0,0-.015-.085A5.26,5.26,0,0,0,7.8,45.6446Z" transform="translate(0 -0.0001)"/><path class="cls-2" d="M14.9157,42.0445c-.0481-.0743-.0692-.1817-.135-.2263-.3188-.2162-.3868-.5764-.5435-.8874-.2037-.4047-.4214-.8023-.6351-1.2018-.0478-.0894-.1138-.17-.1546-.2619-.19-.4277-.393-.8508-.5542-1.2892a30.2016,30.2016,0,0,1-1.26-5.3411,10.0385,10.0385,0,0,1,.1138-3.887c.3323-1.4589.3065-2.2847.5607-3.6992.0933-.52.5376-.7765.9184-1.0591.4-.2965.8235-.5623,1.2457-.8272a8.2206,8.2206,0,0,1,.9147-.5144c.1487-.0686.3028-.1256.457-.1823.0531-.2272.1057-.4544.1474-.6825A8.513,8.513,0,0,0,16.13,20.221c-.2969-.7277-.5918-1.4563-.8932-2.1821-.1982-.4773-.422-.9437-.639-1.4258-.4472.2254-.8566.4226-1.2571.6365a8.1575,8.1575,0,0,0-1.0168.59A19.01,19.01,0,0,0,10.78,19.089a22.4555,22.4555,0,0,0-1.6139,1.6179A7.291,7.291,0,0,0,7.784,23.6217a10.24,10.24,0,0,0-.3557,3.5547c.0219.3619.1785.7951-.2178,1.0974-.0307.0234-.0183.1214-.0058.18.1034.4934.2141.9852.3168,1.4788.0394.1891.1508.4283.078.5628a.8213.8213,0,0,0,.0779.8935,1.5851,1.5851,0,0,1,.1414.4325c.11.4713.2088.9455.3194,1.4168.1077.4589-.0545.9663.2515,1.39.02.027.0054.076.0159.1122.1073.3667.2191.7319.3234,1.0993.0274.0968.0286.2007.05.3.0757.35.1377.7051.2375,1.0486.1126.3877.2557.7667.3939,1.1465.1869.5134.3615,1.0327.58,1.5327.1713.3924.4152.7527.5983,1.1407a5.4,5.4,0,0,1,.1482.5809c.12.3573.2492.7126.3928,1.0612a5.4422,5.4422,0,0,0,.57,1.24,4.2378,4.2378,0,0,1,.5194.9572,8.4769,8.4769,0,0,0,.6563,1.6946c.0813.1169.0447.3124.0749.4692a.9174.9174,0,0,0,.0978.3,7.4452,7.4452,0,0,1,.43.66,7.8385,7.8385,0,0,0,.7608,1.4343,4.479,4.479,0,0,1,.3274.645c.0815.1574.1648.3147.2609.4633.3382.5224.6752,1.0461,1.0284,1.5586a5.2561,5.2561,0,0,0,.442.4931c.1941.2161.3844.4357.58.65a2.1555,2.1555,0,0,0,1.4227.7969c.87.08,1.7388.1789,2.6016.3121a1.09,1.09,0,0,0,.88-.2322c.1817-.1385.3291-.3225.513-.4574a.8619.8619,0,0,1,.4373-.1923,2.2469,2.2469,0,0,1,.8648.0869.9017.9017,0,0,0,1.1132-.3,5.9626,5.9626,0,0,0,.55-.5807,1.9208,1.9208,0,0,0,.3034-.7237c.0635-.3815-.2039-.7835.0485-1.1664.0159-.0242-.0032-.0735-.01-.11-.1784-1.0127-.359-2.0249-.5355-3.0378A4.2888,4.2888,0,0,0,24.64,46.01a.4532.4532,0,0,0-.5649-.2513c-.1109.0295-.22.0708-.3323.09-.649.11-1.2955.2632-1.9492.3071a18.5691,18.5691,0,0,1-2.0448-.0337,3.6431,3.6431,0,0,1-2.2619-.8777A13.7456,13.7456,0,0,1,14.9157,42.0445Z" transform="translate(0 -0.0001)"/><path class="cls-2" d="M32.35,48.4953a6.7564,6.7564,0,0,0-.5753-1.5584,5.7785,5.7785,0,0,0-2.6214-2.6694,5.4962,5.4962,0,0,0-.5834-.2207,5.0736,5.0736,0,0,1,.2715,2.3456,8.2331,8.2331,0,0,0,.9533,2.8955,6.6118,6.6118,0,0,1,.1865,4.8489c-.717,1.7593-2.6337,2.1858-4.2094,2.9585a8.797,8.797,0,0,0,1.4418-.1584,6.4294,6.4294,0,0,0,5.3368-6.18A7.6812,7.6812,0,0,0,32.35,48.4953Z" transform="translate(0 -0.0001)"/></svg>