<svg id="Layer_1" data-name="Layer 1" xmlns="http://www.w3.org/2000/svg" width="665.2935" height="501.7593" viewBox="0 0 665.2935 501.7593"><defs><style>.cls-1{fill:#c2ffff;}</style></defs><path class="cls-1" d="M466.9672,2.2438c-40.406-7.4059-77.0009,4.6686-109.9609,19.4582S292.2463,54.3243,254.4222,59.13c-42.814,5.4393-89.83-6.2253-135.315-11.8872-22.9148-2.8525-45.6038-3.2864-66.9783.107C29.766,50.9,2.9026,57.8248.2543,83.3888c-3.0421,29.3653,21.8518,65.6392,40.1164,91.8442,20.622,29.5872,52.9054,50.6241,79.1548,75.116q46.95,43.8063,93.8759,87.6389c49.1486,45.8821,99.2211,92.4537,156.408,125.0152s123.5759,49.6518,174.7858,31.133c50.8716-18.3967,78.7076-67.9921,97.0217-118.8947,18.8077-52.2782,30.4585-110.1565,19.3473-171.5728s-48.25-126.9221-104.9319-163.985a277.5645,277.5645,0,0,0-41.47-21.8185C498.8958,11.0488,482.908,5.1655,466.9672,2.2438Z"/></svg>