<svg id="Layer_1" data-name="Layer 1" xmlns="http://www.w3.org/2000/svg" width="59.4055" height="182.9319" viewBox="0 0 59.4055 182.9319"><defs><style>.cls-1,.cls-2{fill:#5c51ff;}.cls-1{stroke:#5c51ff;stroke-miterlimit:10;stroke-width:2.1612px;}</style></defs><path class="cls-1" d="M57.8284,2.3031c-1.14-1.4482-4.1342-1.3337-6.93-1.0374-.7154.2645-1.4076.5464-2.1094.7951a24.8931,24.8931,0,0,1-4.2264,1.2983c-.1462.0244-.263.1483-.4057.2052-.1843.0737-.3831.1223-.57.1894-.26.0932-.5194.1859-.7682.294-.254.1094-.4843.26-.743.3538-.4984.1813-1.0019.3452-1.5033.5018a2.865,2.865,0,0,1-.5849.0911c-.4664.0434-.9435-.0008-1.2075.4908a.8425.8425,0,0,1-.6844.3352,1.3187,1.3187,0,0,0-1.2324.5731,1.37,1.37,0,0,1-.39.2969c-1.3949.67-2.75,1.3623-4.0435,2.1313a11.9862,11.9862,0,0,1-1.2394.5442,10.14,10.14,0,0,0-1.9015,1.3448c-.3811.2963-.72.7077-1.1253.4861-.3022.1871-.4905.312-.6829.4286-.19.1149-.4853.1523-.5558.3457a1.7273,1.7273,0,0,1-.9485,1.046,7.0143,7.0143,0,0,0-1.2822,1.1516c-.6512.5838-1.3032,1.1614-1.9379,1.7683-.05.047-.1089.1024-.1673.1019-.5153-.0046-.81.4906-1.1286.9282a12.8964,12.8964,0,0,1-1.7307,2.3944c-.28.2341-.4964.4341-.8064-.0192-.2168.5247-.3717,1.0286-.593,1.4373-.1823.3366-.4811.5069-.6625.8467a17.8724,17.8724,0,0,1-2.12,3.0469,4.3413,4.3413,0,0,0-.5462.945,11.3248,11.3248,0,0,1-2.6369,3.9033,1.0892,1.0892,0,0,0-.3331.6156,23.3529,23.3529,0,0,1-1.0585,3.2862A3.7209,3.7209,0,0,1,9.962,35.3408c-.1358.097-.197.4276-.3038.63-.12.2258-.2537.4269-.42.7066a1.2937,1.2937,0,0,1,.03.4572A11.6508,11.6508,0,0,1,8.69,38.3237c-.0807.1515-.2647.1821-.2877.3595a27.5212,27.5212,0,0,1-.9641,3.7847,19.2988,19.2988,0,0,1-.8247,2.2186c-.1121.29-.2643.5186-.385.7937q-.2864.6538-.546,1.3363a1.7256,1.7256,0,0,0,.0026.2958,9.0925,9.0925,0,0,1-.1029,1.1956c-.1756.7847-.3577,1.5557-.5838,2.2552-.213.66-.2665,1.5079-.76,1.8167-.2014.1269-.3357.5419-.1522,1.09a1.01,1.01,0,0,1-.0935.9432,2.1561,2.1561,0,0,0-.1963,2.123c-.1014.1987-.2581.335-.23.4792a.9387.9387,0,0,1-.1718.7229,1.5917,1.5917,0,0,0-.2167.9364,5.0005,5.0005,0,0,1-.3753,2.9705,1.6314,1.6314,0,0,0-.0554.698,3.4919,3.4919,0,0,1,.0111,1.79,4.4786,4.4786,0,0,0-.1745,1.188c-.0744,1.4753-.2352,2.8758-.4017,4.2544a16.1,16.1,0,0,0-.0878,1.8561,3.717,3.717,0,0,1-.3326,1.7934,1.51,1.51,0,0,0,.089,1.5626c.2811.5427.2159.9642-.1,1.2009a2.8276,2.8276,0,0,0-.4011.464l.3106.4637c-.068.15-.14.2823-.193.4312-.13.365.2651.8971.1789,1.1956a1.7407,1.7407,0,0,0-.0165,1.2027,4.1683,4.1683,0,0,1,.1855.8933,2.1639,2.1639,0,0,1-.23,1.0034c-.0924.2988.1718.842-.02,1.1361a.3952.3952,0,0,0-.0848.2153,1.4871,1.4871,0,0,0,.0664.629,3.5627,3.5627,0,0,1,.4465,1.7608c.0058.4988.0628,1.0268.0644,1.5353A3.41,3.41,0,0,0,2.2736,88.69c.0612.124-.0122.3-.0026.4621.0258.44.0508.8816.1017,1.3322.0541.4792.159.9768.204,1.4534a6.3683,6.3683,0,0,0,.5019,2.4448.899.899,0,0,1,.0866.3012c.0694.9006.4562,1.8564.6134,2.8011a33.9118,33.9118,0,0,0,1.21,4.8294.9869.9869,0,0,1,.0177.4975,1.9645,1.9645,0,0,0,.2349,1.2244,18.5863,18.5863,0,0,1,1.3263,3.98,2.6006,2.6006,0,0,0,.1224.42,44.62,44.62,0,0,1,1.97,5.8745,2.2058,2.2058,0,0,0,.1676.4553c.3469.704.6588,1.3937.9411,2.1443.4288,1.14.8569,2.2932,1.3257,3.4319.3864.939.74,1.89,1.1346,2.8244.48,1.1374.9891,2.2627,1.4845,3.3911a12.9492,12.9492,0,0,0,1.9527,3.5839,2.5693,2.5693,0,0,1,.2041.3105q-.036.01-.0727.0194c.1382.4023.2719.8059.4165,1.2062.0989.2737.2041.55.3242.8159.2.4408.4052.8816.624,1.3073.1622.3153.3631.5953.523.9108.6864,1.3546,1.3513,2.724,2.0473,4.0611.4722.9075.9688,1.7982,1.4812,2.6536.7351,1.2266,1.4935,2.4144,2.2433,3.606.4418.7023.9181,1.36,1.3258,2.0971a41.189,41.189,0,0,0,2.97,4.4043c1.1241,1.5425,2.3293,2.8631,3.4786,4.3189a37.6953,37.6953,0,0,0,3.3829,3.7723c.86.8309,1.705,1.7514,2.5508,2.6487.7339.7784,1.46,1.5871,2.1876,2.3887.3009.3317.5855.4429.8328.3262.5612-.2654,1.2024-.2979,1.6179-.9941.3024-.5071.4544-1.2636.9407-1.4968.06-.0287.0634-.229.0728-.3634.0316-.4465.0423-.9057.0831-1.343a.9057.9057,0,0,0-.303-.9c-.8671-.7391-1.7394-1.4481-2.5967-2.237-1.156-1.0643-2.3192-2.1253-3.4373-3.347-1.5215-1.6638-3.0046-3.4761-4.4932-5.2872-.46-.56-.8992-1.1817-1.3509-1.77-1.65-2.1492-3.2575-4.3988-4.8072-6.8206-1.2129-1.8957-2.2863-3.94-3.4252-5.93-.3226-.564-.6257-1.153-.9315-1.7368-.4077-.7786-.8086-1.5623-1.2127-2.3462-.13-.2512-.266-.4978-.3887-.7542-.629-1.3142-1.2607-2.6294-1.8764-3.9562-.2941-.6336-.5561-1.2859-.832-1.9307-.5393-1.26-1.0937-2.5171-1.61-3.786-.5779-1.42-1.0912-2.8611-1.6827-4.2762-1.2158-2.9081-2.1067-5.845-3.0137-8.5933-.2684-.8131-.4779-1.6183-.6973-2.4112-.3622-1.31-.7036-2.595-1.0357-3.8594-.1174-.4464-.2391-.8914-.3479-1.3321-.1927-.78-.3824-1.5524-.5526-2.3173-.1875-.8436-.37-1.681-.5158-2.5052-.0971-.5491-.11-1.0776-.2041-1.6217-.1068-.6186-.3082-1.2587-.3847-1.8634-.1965-1.5569-.3415-3.09-.4671-4.6164a9.14,9.14,0,0,1,.05-.942c.0063-.36.0046-.7285-.0213-1.1023-.0567-.8071-.1561-1.63-.1806-2.4252a19.7779,19.7779,0,0,1,.0316-2.8468,27.2187,27.2187,0,0,0,.1807-2.7749q.0118-.7692.055-1.5278c.0213-.3658.065-.7217.1022-1.081.0189-.1809.0593-.3518.0628-.5393a6.5059,6.5059,0,0,0,.0647-2.1769c-.027-.101.0536-.2065.0666-.32.0687-.5951.1425-1.1906.1991-1.7988.0324-.3469.0185-.72.0483-1.07a13.7678,13.7678,0,0,1,.1635-1.39c.1962-1.0267.1518-2.204.4175-3.2146.14-.5343.153-1.1739.2446-1.7576.07-.4479.1668-.8811.26-1.3181.1312-.6156.2747-1.2265.4107-1.8467.132-.6018.25-1.2192.3948-1.8186.1168-.4863.2793-.9392.3911-1.433.25-1.1036.5149-2.2479.7521-3.4729a32.6023,32.6023,0,0,1,1.253-4.24c.7166-2.1267,1.5218-4.2482,2.3753-6.3639.4868-1.2062.9735-2.4347,1.5176-3.5961.8969-1.9146,1.8728-3.7508,2.8846-5.55a7.317,7.317,0,0,0,.9217-1.7856,3.099,3.099,0,0,1,.7589-1.3822c.2735-.3163.5675-.5962.8248-.9443.7356-.9928,1.473-1.9917,2.248-2.93.3024-.3654.646-.66.9471-1.0267.5925-.7228,1.1671-1.4837,1.7912-2.1606.64-.6946,1.3336-1.2981,2.0021-1.9533.65-.637,1.2678-1.34,1.9551-1.9215.7957-.6735,1.6573-1.2333,2.5-1.8449.7088-.5145,1.3983-1.078,2.1332-1.5682.425-.2827.9017-.4729,1.3315-.7538,1.3943-.9128,2.8224-1.81,4.3354-2.6221,1.1722-.6281,2.4047-1.1868,3.6611-1.7546,1.786-.8074,3.6465-1.5844,5.5954-2.3458.55-.2146,1.117-.4094,1.67-.64,1.3085-.5449,2.6545-1.0921,4.0337-1.6607.998-.4115,2.0033-.8508,3.0452-1.2766A2.326,2.326,0,0,0,57.8284,2.3031Z"/><path class="cls-2" d="M35.6664,162.421c-.84.8543-1.6824,1.7067-2.5118,2.5738C32.557,165.62,32,166.2921,31.3883,166.9c-.68.6764-1.4358,1.2635-2.0926,1.9655a3.44,3.44,0,0,1-1.74,1.0136.5394.5394,0,0,0-.291.1436.5592.5592,0,0,1-.7217.1238c-.45-.1752-.6409-.1171-.7991.307-.1534.4114-.2291.8732-.3481,1.3078a1.0055,1.0055,0,0,0,.0077.4778,3.3811,3.3811,0,0,1,.0755,1.2236,1.9106,1.9106,0,0,0,.2261,1.1515,2.0637,2.0637,0,0,0,.7484.795,4.604,4.604,0,0,1,.8816.4739c.0861.0806.2307.0689.3475.1111a2.42,2.42,0,0,1,.7831.3125,5.049,5.049,0,0,0,1.2683.6463c-.08-.1353-.1183-.1991-.1562-.2631a7.87,7.87,0,0,1,2.1817.6575,3.9067,3.9067,0,0,0,.9671.2,12.6236,12.6236,0,0,1,1.9845.513,5.7972,5.7972,0,0,0,1.9266.4219,1.6971,1.6971,0,0,1,1.1475.387,1.7782,1.7782,0,0,0,1.3892.3938,3.74,3.74,0,0,1,1.0494.1362c.4636.1225.9272.244,1.3907.3712.6346.1742,1.2724.3186,1.9027.5419a3.6427,3.6427,0,0,0,1.4254.3364,1.2187,1.2187,0,0,1,.46.0711,8.7225,8.7225,0,0,0,2.666.55,1.3834,1.3834,0,0,1,.3086.0744c.5639.1479,1.13.3344,1.6914.4352a3.7266,3.7266,0,0,1,2.0434.8709,1.0874,1.0874,0,0,0,.2479.1324c.4818.2534.7121.196.8757-.2569a.4516.4516,0,0,1,.3164-.3274.6525.6525,0,0,0,.4987-.7177,1.218,1.218,0,0,1,.0879-.344c.1981.0584.4012.0541.53.1687a1.4553,1.4553,0,0,0,.9907.2754,7.4686,7.4686,0,0,0,.899.1531,9.08,9.08,0,0,0,1.0643-.1459c.502-.0642.6686-.4329.7816-.9466a16.4481,16.4481,0,0,1,.4259-2.36.9929.9929,0,0,0,.05-.4288q-.1913-2.1377-.4016-4.278a3.0617,3.0617,0,0,0-.1534-.8022,3.8125,3.8125,0,0,0-.4193-.6567c.4161-.32.4288-.3787.183-.8945-.0758.041-.1513.0822-.2761.15-.005-.2112-.059-.4009-.0028-.4953a1.7357,1.7357,0,0,0,.1152-1.1338c-.1152-.8595-.2447-1.7208-.395-2.5822a1.2791,1.2791,0,0,0-.492-.9229.94.94,0,0,1-.2819-.513c-.1884-.9551-.3493-1.91-.5183-2.8652-.0066-.0374.0047-.0739.0014-.1116q-.127-1.4763-.255-2.9526c-.01-.1115-.0464-.2552-.0031-.3234.0492-.0774.1742-.0867.2757-.13l-.1144-1.0235-.2325.2179a1.3738,1.3738,0,0,1-.0859-1.0312.36.36,0,0,0-.0522-.223,1.7169,1.7169,0,0,1-.1808-1.1242l.2284.6356a14.4025,14.4025,0,0,0-.4309-3.2241,1.2116,1.2116,0,0,0-.12-.2339l-.0776.0055c.0216.2823.0433.5647.074.9656a9.4335,9.4335,0,0,1-.6271-2.9694c.2277.0246.302-.1262.2657-.3678-.0574-.3827-.1231-.7659-.1878-1.1489a1.3267,1.3267,0,0,0-.1078-.4992c-.0768-.1141-.2637-.1494-.4737-.2558a1.5984,1.5984,0,0,0,.0256-1.8367.995.995,0,0,1-.8659-.7259,8.1952,8.1952,0,0,0-.9131-.1835,4.2376,4.2376,0,0,0-1.4461-.0277,1.91,1.91,0,0,0-1.4165,1.0537c-.098.2468-.2894.31-.5664.2531a.6969.6969,0,0,0-.7138.2146q-.6678.7953-1.3412,1.5845c-1.2272,1.4337-2.4493,2.8732-3.687,4.2954-1.0685,1.2279-2.1591,2.4314-3.2324,3.6541-.35.3984-.666.8336-1.0165,1.2311a1.43,1.43,0,0,1-.1444.14A11.8259,11.8259,0,0,1,35.6664,162.421ZM48.6279,175.8a1.5545,1.5545,0,0,0,.9463.4847,3.062,3.062,0,0,1,.4606.0941.63.63,0,0,1,.2689.2725c-.9748-.0328-1.9518-.3778-3.0479-.4991.3549-.535.8373-.6969,1.1573-1.05C48.7481,175.3491,48.6132,175.5937,48.6279,175.8Zm4.38-5.69c.026.0839.0391.2251-.0019.2543a6.3678,6.3678,0,0,1-.618.35c.0222-.4542.2774-.5417.4536-.7014C52.8612,169.9963,52.9952,170.0693,53.008,170.1106Zm-11.0254,2.8016a1.0534,1.0534,0,0,0,1.025.2829.3118.3118,0,0,1,.2423.0477,3.077,3.077,0,0,0,1.4661.6948c.0466.5933-.0143.6821-.4254.5946-.3745-.08-.75-.2017-1.1246-.2781a7.4345,7.4345,0,0,0-.76-.08c-.0011-.0637-.0065-.116-.0023-.1649.0415-.487-.0472-.6157-.491-.7086-.1349-.0283-.27-.0522-.4048-.0867-.028-.0072-.0556-.0527-.0834-.0806C41.5243,172.778,41.7,172.6822,41.9826,172.9122Zm9.559-9.4984a8.4738,8.4738,0,0,1,.6724,2.3775,7.7193,7.7193,0,0,0-1.0371-.6768,5.7121,5.7121,0,0,0-1.0578-.2531A2.4642,2.4642,0,0,1,51.5416,163.4138Zm-19.9607,8.0385.4226-.2914C32.0012,171.4558,31.8468,171.5356,31.5809,171.4523Zm19.0062-10.9031-.5775-.4176.29-.5637A1.184,1.184,0,0,1,50.5871,160.5492Zm-3.9493-5.0639c.27-.3437.5542-.6731.8379-1.0026.3785-.44.7523-.885,1.1461-1.3073.2011-.2156.4145-.5519.67-.54.4228.02.6569-.2766,1.0695-.389a5.984,5.984,0,0,1,.3244,1.7846c.0132.3094-.2454.4473-.4909.4609a1.1572,1.1572,0,0,0-.9337.5893,1.1675,1.1675,0,0,1-.8593.4567,1.3946,1.3946,0,0,0-1.0205.5516,1.19,1.19,0,0,1-.2126.1922c-.1092.0927-.2359.2305-.3893.057a1.2337,1.2337,0,0,1-.2431-.5183A.45.45,0,0,1,46.6378,155.4853Z"/></svg>