<svg id="Layer_1" data-name="Layer 1" xmlns="http://www.w3.org/2000/svg" width="712.3401" height="475.3935" viewBox="0 0 712.3401 475.3935"><defs><style>.cls-1{fill:#ffffbc;}</style></defs><path class="cls-1" d="M434.2917,38.94c34.1985,23.23,51.08,58.3152,63.3473,92.8432s21.43,70.5062,44.6362,101.03c26.268,34.5509,68.3471,59.3018,104.8374,87.452,18.3834,14.1817,34.7922,30.0115,47.3976,47.7677,13.1883,18.5773,27.0347,42.8829,9.7319,63.8875-19.8757,24.1279-64.7372,33.5327-97.3451,40.127-36.8167,7.4455-75.4843.1934-112.4671-.1786q-66.1473-.6654-132.2977-1.294c-69.2635-.6785-139.6992-1.4989-204.6664-17.8629S32.6158,401.8621,10.21,351.5514C-12.0483,301.5728,5.43,244.662,30.6392,193.5531,56.53,141.064,91.6963,89.4822,145.6518,51.4606S275.0808-9.11,343.0672,3.528a273.9391,273.9391,0,0,1,45.7665,13.2085C405.0528,22.7926,420.8,29.7757,434.2917,38.94Z"/></svg>