<svg id="Layer_1" data-name="Layer 1" xmlns="http://www.w3.org/2000/svg" width="116.5891" height="105.3577" viewBox="0 0 116.5891 105.3577"><defs><style>.cls-1{fill:#00cd9f;}.cls-2,.cls-3,.cls-4{fill:#2d2d2d;}.cls-2,.cls-3{stroke:#2d2d2d;}.cls-2{stroke-miterlimit:10;stroke-width:1.3104px;}.cls-3{stroke-linecap:round;stroke-linejoin:round;stroke-width:0.8352px;}</style></defs><path class="cls-1" d="M109.12,3.833A27.4308,27.4308,0,0,0,97.7529.0656c-1.4085-.15-7.0139-.1887-7.2693,1.5552-.2789,1.9042,6.5295,2.0669,7.4339,4.1084.4289.9682-.5722,8.8-2.0615,9.0436,4.2051-.6855,7.2047-4.1587,10.517-5.9006C108.8258,7.5822,112.493,6.0216,109.12,3.833Z"/><path class="cls-1" d="M56.4482,68.8967a14.5533,14.5533,0,0,0-3.9869-5.6728,12.2034,12.2034,0,0,0-4.5594-2.9664c-2.224-.7024-5.0148-.1907-6.3142,1.9048a16.8392,16.8392,0,0,1-1.467,2.3614c-.452.5146-1.0254.9157-1.4507,1.4527-1.0353,1.3074-1.11,3.1935-1.2874,4.7879a8.1291,8.1291,0,0,0,1.34,5.8057c4.871,6.4154,20.2543,1.81,17.91-7.0655Q56.55,69.1966,56.4482,68.8967Z"/><path class="cls-1" d="M71.7579,49.1855c-2.7689-4.7689-7.7545-4.6513-12.3944-3.5-1.491.37-3.8916-.0508-5.1209.916-2.6678,2.0981-.2829,7.1609,1.3991,9.0786,2.61,2.9757,6.9961,4.0674,10.8258,3.5517C71.3882,58.5687,74.4,53.7362,71.7579,49.1855Z"/><path class="cls-1" d="M81.9868,62.463c1.5313.7266,3.2918-.122,4.78-.9547a24.921,24.921,0,0,0,5.7591-3.98,9.0976,9.0976,0,0,0,2.8424-6.41c-.16-6.631-9.3873-10.1113-14.0791-6.21C77.609,47.9682,77.453,60.3118,81.9868,62.463Z"/><path class="cls-1" d="M99.0388,71.7718c-2.4166-2.4095-5.7665-3.9175-8.5255-3.6362-4.3151.44-4.6424,7.5611-3.924,11.1148.779,3.8526,3.6733,7.2517,7.281,7.7066,4.4712.5638,8.4157-3.2028,8.3969-8.2739A10.0776,10.0776,0,0,0,99.0388,71.7718Z"/><path class="cls-2" d="M32.9714,58.8143c-.0992.3419-.18.6906-.3033,1.0236-.0922.2494-.2558.4717-.3563.7188-.0836.2069-.1174.4336-.1827.6485a1.4543,1.4543,0,0,1-.1069.18,6.652,6.652,0,0,1-.5178,1.0568c-.3183.4376-.6565.8345-.5,1.4326.02.0766-.0595.1966-.121.2743a6.2571,6.2571,0,0,0-.9715,1.2474c-1.1846,2.77-1.4318,6.6294-1.9938,9.6056-.6946,3.6783-2.1265,8.3725-1.6124,12.0925a.4743.4743,0,0,1-.005.22,4.2212,4.2212,0,0,0-.21.4813,10.6857,10.6857,0,0,0-.21,3.616c.1473,1.1524-.0055,6.2571,1.5288,6.5568,0,.4749.42.4436.6965.6135.5821.3574,1.1243.7793,1.6876,1.168a1.0749,1.0749,0,0,0,.2651.094,1.3733,1.3733,0,0,0-.0076-.2831c-.1733-.7441-.4038-1.4787-.52-2.2312a15.2607,15.2607,0,0,1-.21-4.2c.1351-1.1129.0512-2.2523.1831-3.3659.3858-3.2552.7605-6.5144,1.2759-9.75.3707-2.3283.9191-4.6315,1.4665-6.9271.3592-1.5055.8392-2.9834,1.2992-4.463.4887-1.5729.9539-3.1578,1.5456-4.6926.6931-1.7976,1.4671-3.5677,2.29-5.31.5559-1.1763,1.2418-2.2931,1.9032-3.4165.0855-.1451.1858-.2849.2858-.4243-2.2127,1.2366-4.43,2.5966-6.6487,4.0149C32.9383,58.8017,32.9562,58.81,32.9714,58.8143Z"/><path class="cls-2" d="M115.8375,68.006c-.0131-.2924-.0239-.585-.04-.8774-.05-.924-.0488-1.8548-.1686-2.77a22.4792,22.4792,0,0,0-.5494-2.5956,20.1125,20.1125,0,0,0-.8286-2.8245,23.48,23.48,0,0,0-1.8637-3.7622c-1.0953-1.6849-2.3322-3.2838-3.59-4.8543a24.0611,24.0611,0,0,0-2.22-2.209c-.8116-.7779-1.6088-1.5754-2.4686-2.2973-.6683-.5612-1.4277-1.0128-2.1382-1.5251-.7136-.5147-1.3815-1.1029-2.1323-1.5546-1.5249-.9169-3.0831-1.7793-4.6449-2.6326-.9782-.5344-1.9684-1.0559-2.989-1.5021-1.2912-.5645-2.611-1.0667-3.9324-1.5569-.9009-.3343-1.8175-.6346-2.743-.8922-1.1869-.33-2.3882-.608-3.586-.8979-1.0511-.2543-2.0961-.5523-3.1608-.7258-1.3209-.215-2.6576-.34-3.9907-.47-1.21-.1184-2.4235-.1945-3.6361-.2834a8.1474,8.1474,0,0,0-1.337-.0586c-.5285.0491-1.0467.2011-1.5715.2974-.0709.0131-.1522-.0484-.2311-.06a2.4449,2.4449,0,0,0-.6131-.0613c-.1652.0194-.3143.1864-.4788.202-.41.0387-.8311-.0171-1.2352.0465-1.0232.1616-2.0394.369-3.0592.5538A.8357.8357,0,0,1,62.42,34.68c.0144-.0683.0054-.1621.0471-.2.0932-.0852.1953-.1612.2955-.2388a13.4479,13.4479,0,0,0-3.81,4.1214c.0088-.0036.0164-.01.0252-.0129a14.1794,14.1794,0,0,1,1.9474-.6095c1.9174-.42,3.8372-.8378,5.77-1.1742a21.02,21.02,0,0,1,3.0482-.2433c1.7715-.0463,3.5481-.1114,5.3153-.0243,1.5965.0787,3.1855.3326,4.7727.547.5492.0742,1.0806.2712,1.6241.3957.9843.2254,2,.3538,2.9511.6746,1.8243.615,3.6227,1.3112,5.412,2.0233,1.0274.4088,2.0254.8953,3.02,1.3811a40.4418,40.4418,0,0,1,6.44,3.9781c1.1689.8732,2.3337,1.76,3.4248,2.7265a29.7238,29.7238,0,0,1,4.522,5.1828c.5755.8153,1.1568,1.6319,1.6541,2.495a16.5672,16.5672,0,0,1,.778,1.8648,18.4138,18.4138,0,0,1,.9981,2.3827,25.3006,25.3006,0,0,1,.631,9.7482c-.4882,3.4989-2.6377,6.3869-3.1907,9.7763a.2076.2076,0,0,1-.0373.0641c-.3911.6306-.7457,1.2881-1.1817,1.8861-.9047,1.2412-1.82,2.4785-2.7951,3.6637a18.98,18.98,0,0,1-2.1289,2.1988,25.77,25.77,0,0,1-2.34,1.722c-.9683.6726-1.92,1.3792-2.9415,1.9619a16.7165,16.7165,0,0,1-5.7874,1.9919,20.41,20.41,0,0,1-7.44-.2117,33.1522,33.1522,0,0,1-3.5673-1.0635c-1.04-.3488-2.0765-.7264-3.0771-1.175-.699-.3133-1.3207-.7953-2.0033-1.1519-.6921-.3615-1.4345-.6283-2.1228-.9962-1.1193-.5979-2.2035-1.2608-3.32-1.8649-.6812-.3688-1.3983-.6706-2.0912-1.0184-.471-.2364-.91-.5456-1.3949-.7434-1.1141-.4539-2.26-.8307-3.3712-1.2921a19.1712,19.1712,0,0,0-4.8044-1.2578,4.6,4.6,0,0,0-3.5342.7492,7.1278,7.1278,0,0,0-2.437,4.1464c-.5093,2.0014-.905,4.0318-1.3381,6.0522a18.0445,18.0445,0,0,1-2.6113,6.7287,4.2406,4.2406,0,0,1-3.5867,2.0844,1.7691,1.7691,0,0,1-.7153-.1779,25.1778,25.1778,0,0,1-3.0715-2.226,10.65,10.65,0,0,1-2.3018-3.1436,19.7707,19.7707,0,0,1-2.1621-7.2488c-.061-.6035-.1088-1.21-.2046-1.8078-.03-.1892-.0811-.5948-.4565-.2149a.369.369,0,0,1-.3146-.054c-.1491-.5592-.5993-.8305-1.008-1.1669a1.42,1.42,0,0,0-1.74-.1988.328.328,0,0,0-.1466.1619,4.4476,4.4476,0,0,0-.2818,1.14,19.8323,19.8323,0,0,0,1.3549,5.9173,8.2675,8.2675,0,0,0,.6175,1.1753,15.2555,15.2555,0,0,0,1.1973,2.3463c1.037,1.3781,2.1965,2.6644,3.3195,3.9764a5.358,5.358,0,0,0,.894.8534c.5554.4043,1.1414.7684,1.7282,1.1273.8861.542,1.781,1.07,2.6784,1.5927a2.1364,2.1364,0,0,0,.6249.2652,16.378,16.378,0,0,0,2.045.354,7.43,7.43,0,0,0,2.38-.03,3.2838,3.2838,0,0,0,2.1633-1.5255c.0268-.05.0925-.0777.1385-.1176.2273-.1962.5422-.349.6655-.5971.5981-1.2006,1.209-2.4022,1.6917-3.6511.4973-1.2878.88-2.6227,1.258-3.9524.2023-.71.2551-1.4623.4362-2.18.3991-1.58.7584-3.1773,1.2915-4.7126a6.887,6.887,0,0,1,1.3648-2.15,2.526,2.526,0,0,1,2.1208-.6792,8.1363,8.1363,0,0,1,2.03.253c1.0176.3226,1.9918.785,2.9768,1.2055.8266.3529,1.6578.7,2.4594,1.1049,1.0161.513,2.0022,1.0852,3.0049,1.6253.61.3285,1.2315.6356,1.8382.97.3059.1686.579.3983.8876.5611.681.3588,1.3737.695,2.0636,1.0367,1.2536.6211,2.506,1.2448,3.7647,1.8553a8.1292,8.1292,0,0,0,1.0265.4094c.49.16.9936.2782,1.4849.4346,1.2.3818,2.3819.8312,3.5991,1.1458A16.1732,16.1732,0,0,0,87.7,96.06c1.3452.1027,2.6987.1734,4.0461.1415a15.491,15.491,0,0,0,4.2951-.7213,22.35,22.35,0,0,0,5.7282-2.6854c.96-.6387,1.8954-1.3215,2.7932-2.0446a16.9741,16.9741,0,0,0,1.9988-1.8642c1.0036-1.1189,1.97-2.2753,2.8848-3.4679a5.0133,5.0133,0,0,0,1.289-2.3831c.0093-.0772.135-.1506.22-.205.0961-.0616.254-.0711.3041-.1527.4514-.7355.9308-1.4594,1.3111-2.2314.3936-.7991.6948-1.6444,1.02-2.4756a32.7523,32.7523,0,0,0,1.1942-3.19,31.2561,31.2561,0,0,0,.6356-3.4452c.1731-1.1027.3007-2.2123.4484-3.319Z"/><path class="cls-3" d="M93.5576,52.6468A5.8084,5.8084,0,0,1,92.5522,55.95c-.5706,1.0485-1.09,2.68-2.1007,3.3233A11.1947,11.1947,0,0,1,87.0734,60.69a12.29,12.29,0,0,1-3.4758.4418,3.4357,3.4357,0,0,1-1.5791-.3709,15.1827,15.1827,0,0,1-2.83-1.8067,5.2154,5.2154,0,0,1-1.5572-2.1739,9.5,9.5,0,0,1-.6374-4.8017c.1556-.78.2342-1.5756.389-2.3558a10.7458,10.7458,0,0,1,2.36-5.2307l-.2157-.2238a12.4266,12.4266,0,0,1,5.0655-2.1,7.7376,7.7376,0,0,1,2.0735.2643,15.5106,15.5106,0,0,1,1.89.5084A5.8551,5.8551,0,0,1,91.4879,45.12a14.12,14.12,0,0,1,2.3631,7.8245A.4575.4575,0,0,1,93.5576,52.6468Zm-13.59,1.8915c.0943.4755.2381,1.3637.4516,2.2348.2409.9827.6251,1.6457,1.7763,1.2967a17.4142,17.4142,0,0,0,2.4758-.6351,11.6922,11.6922,0,0,0,2.46-1.6946,4.9955,4.9955,0,0,0,1.1317-1.5159,10.7428,10.7428,0,0,0,1.0235-2.5382,5.3209,5.3209,0,0,0-.1078-2.1431,26.6052,26.6052,0,0,0-.9474-3.53,1.32,1.32,0,0,0-2.113-.8519,7.4124,7.4124,0,0,0-2.1423,1.5838,1.7846,1.7846,0,0,0-.482,2.2412c.0168.0279-.01.1209-.0314.1267-.4076.11-.1011.2541-.0425.419a4.5809,4.5809,0,0,1,.2152.9217c.0086.064-.2094.238-.2518.2171-.5365-.2646-1.0676-.5425-1.5831-.8458a5.6754,5.6754,0,0,1-.6453-.5123,3.2013,3.2013,0,0,0-.4294.654A12.421,12.421,0,0,0,79.9674,54.5383Z"/><path class="cls-3" d="M102.9127,75.6431c-.1265.8994-.21,1.7843-.3915,2.6487a5.6993,5.6993,0,0,1-.5413,1.0657,3.7583,3.7583,0,0,0-.2776.8305,4.846,4.846,0,0,1-1.1773,2.0725,11.55,11.55,0,0,1-1.18,1.3638,6.22,6.22,0,0,1-1.1979.7112,2.132,2.132,0,0,1-.6226.2848c-.41.0711-.8313.0816-1.2482.1128-.3528.0264-.7063.0668-1.0593.0645-.5314-.0036-1.0626-.05-1.5941-.0565a5.88,5.88,0,0,1-.8661.0483,7.88,7.88,0,0,1-1.7847-.4208,10.24,10.24,0,0,1-4.1263-3.6056,9.3074,9.3074,0,0,1-1.03-1.7461A6.1246,6.1246,0,0,1,85.558,77.64a8.3466,8.3466,0,0,1-.16-.8365c-.0781-1.0573-.1828-2.1162-.1783-3.1741a6.1163,6.1163,0,0,1,.376-1.37c.12-.4726.2128-.9523.315-1.4294a.7229.7229,0,0,0,.003-.1406,1.0321,1.0321,0,0,1-.1339.08c-.1042.0432-.2113.08-.3172.1191a1.3651,1.3651,0,0,1,.046-.3149,9.8509,9.8509,0,0,1,2.48-3.8124,21.0249,21.0249,0,0,1,3.319-2.47c.4179-.2462,1.1795-.019,1.7492.1279a24.7292,24.7292,0,0,1,2.8956.9373,8.151,8.151,0,0,1,4.3244,3.0651,10.1624,10.1624,0,0,1,.534,1.2164c.4142.9291.8434,1.8517,1.2458,2.7858a8.8958,8.8958,0,0,1,.4659,1.3116C102.6822,74.3624,102.7849,75.0042,102.9127,75.6431ZM88.4949,77.5622l.0528.0049a1.7465,1.7465,0,0,0,.0414.4764c.4016,1.0581.8,2.1182,1.2384,3.1613a1.44,1.44,0,0,0,1.516.9171c.9195-.06,1.8343-.1876,2.7528-.2655A5.183,5.183,0,0,0,98.3741,78.88a7.0117,7.0117,0,0,0,.9047-4.4216,11.0817,11.0817,0,0,0-1.1847-3.9738,17.4121,17.4121,0,0,0-1.2879-1.9677,1.4548,1.4548,0,0,0-1.5145-.7262,5.21,5.21,0,0,0-1.4353.5573c-.8138.4942-1.5818,1.0648-2.3581,1.6186a.5227.5227,0,0,0-.2172.3612c.023.6223.0843,1.2431.1293,1.8647a1.4784,1.4784,0,0,1-.0135.21,1.0075,1.0075,0,0,1-.1954-.0454c-.4007-.18-.7966-.371-1.2013-.5411a.2359.2359,0,0,0-.21.0964,35.4254,35.4254,0,0,0-1.1813,3.377A11.0379,11.0379,0,0,0,88.4949,77.5622Z"/><path class="cls-3" d="M53.0255,70.5091a7.2474,7.2474,0,0,1-1.4474,4.12,3.2717,3.2717,0,0,1-1.0313.8934c-.5692.347-1.07.8216-1.6578,1.1237A9.4543,9.4543,0,0,1,45.37,77.6838a5.102,5.102,0,0,1-3.0555-.574A4.6643,4.6643,0,0,1,39.84,73.9983a7.764,7.764,0,0,1-.6728-2.9961c.1033-.999.2438-1.9941.3674-2.991a1.854,1.854,0,0,0,.0579-.5579c-.1864-.9217.4478-1.5145.8242-2.2113.2037-.3772.398-.76.6106-1.1317.0544-.0951.053-.3955.2927-.1435.0172.0181.0987.0036.1246-.0223.4183-.4184.8247-.85,1.2523-1.2577a2.0211,2.0211,0,0,1,.4682-.2658,4.4259,4.4259,0,0,1,2.6319-.5275c.4874.0566.9805.0611,1.47.1012a4.9789,4.9789,0,0,1,2.9675,1.41,10.7885,10.7885,0,0,1,1.32,1.7118c1.0776,1.4518,1.1261,3.1806,1.4858,4.83A2.328,2.328,0,0,1,53.0255,70.5091Zm-11.699.59-.1424.0191c.1235.9317.2154,1.8691.3788,2.7933a2.18,2.18,0,0,0,2.0342,1.81,3.0714,3.0714,0,0,0,.8225-.1144,7.0271,7.0271,0,0,0,.7819-.3591.4418.4418,0,0,1,.1938-.0108c.0356.0019.0861.0433.1019.0306a.4018.4018,0,0,0,.0717-.118c.0661-.1143.105-.28.2032-.3344a6.7,6.7,0,0,0,2.54-2.1162c.1118-.1707.321-.2808.4141-.4577a6.3338,6.3338,0,0,0,.5755-2.45,12.1212,12.1212,0,0,0-.4449-3.8731,3.11,3.11,0,0,0-.5651-.9822c-.389-.5581-.7879-1.1906-1.5548-1.1362a6.98,6.98,0,0,0-1.66.4388c-.1875.0626-.4855.2731-.473.3862.0749.6816-.43.9363-.8148,1.2887-.1.0916-.1846.2009-.2762.3021a1.5778,1.5778,0,0,0,.3586.21.7124.7124,0,0,1,.4437,1.01.3194.3194,0,0,1-.227.1628,5.1875,5.1875,0,0,1-1.3094-.1149c-.3874-.12-.5343.0192-.662.3217A7.6787,7.6787,0,0,0,41.3265,71.0987Z"/><path class="cls-3" d="M70.6337,51.465a5.43,5.43,0,0,1-1.7119,3.9038c-.42.458-2.7654,3.1746-3.3579,2.4013.078.4857-.5622.7107-1.0323.8557a12.8279,12.8279,0,0,0-1.4544.6478,8.4635,8.4635,0,0,1-7.5613-.662,4.8507,4.8507,0,0,1-1.4516-1.6592,9.6027,9.6027,0,0,1-1.0636-3.9133,12.5162,12.5162,0,0,1-.2855-1.3141,5.1005,5.1005,0,0,1,.2408-.9916A4.3413,4.3413,0,0,1,53.507,48.9c.1056-.1552.0185-.4933-.065-.7156-.1976-.5256.06-.8645.3735-1.233a6.14,6.14,0,0,1,2.3248-1.562c.2775-.1226.455-.4767.7333-.5921a7.7118,7.7118,0,0,1,3.6417-.463c1.6332.14,3.2587.3967,4.8785.6584a5.1175,5.1175,0,0,1,3.2412,2.1845,11.2069,11.2069,0,0,1,1.3173,1.67,12.5342,12.5342,0,0,1,.666,2.2857A1.5167,1.5167,0,0,1,70.6337,51.465ZM58.3,57.3484a3.0285,3.0285,0,0,0,.3165-.0354,16.7433,16.7433,0,0,0,4.2665-1.7237,11.29,11.29,0,0,0,2.9456-1.9209,3.7891,3.7891,0,0,0,1.3056-2.6248c.0957-1.9777-1.1308-3.1962-2.7529-4.02a5.2861,5.2861,0,0,0-1.8281-.3284,7.3185,7.3185,0,0,0-4.2,1.0287.3776.3776,0,0,0-.1373.3385,1.4646,1.4646,0,0,1-.593,1.9764A2.5886,2.5886,0,0,0,56.4282,52.13a8.9273,8.9273,0,0,0,.1265,3.878C56.828,57.0066,57.1422,57.3623,58.3,57.3484Z"/><path class="cls-2" d="M110.3569,73.2945l-.2185.4355c-.0256-.0466-.0826-.1032-.0715-.1381.0545-.171.1272-.3362.1934-.5034Z"/><path class="cls-4" d="M84.5225,19.0657l-3.1767-1.8708a3.3552,3.3552,0,0,0-1.6747-.6144A3.4455,3.4455,0,0,0,77.58,17.7069,162.5675,162.5675,0,0,1,64.6459,27.7291Q47.3846,40.2006,30.28,52.8573q-1.6,1.1867-3.2151,2.354c-.3706.2686-.7736.4971-1.127.7824-.651.5256-1.2534,1.1086-1.9176,1.6156-1.3937,1.0644-2.7957,2.1243-4.23,3.13-1.13.7926-2.0437,1.7975-3.2274,2.5539-1.2171.7775-2.3559,1.716-3.5119,2.6052-.4912.3778-.9135.8445-1.4113,1.21a19.6711,19.6711,0,0,0-3.065,2.8726.5529.5529,0,0,0-.0958.3941c.0264.2932.0914.57.1285.8592.0034.027-.0764.1048-.1283.14-1.317.8819-2.622,1.7881-3.957,2.6326-1.1655.7371-2.3765,1.3811-3.5424,2.1173a2.4931,2.4931,0,0,0-.8018.8894c-.432.8741.0393,1.4119.2074,2.05.1067.4053.5392.5266,1.1451.3178.4271-.1472.8544-.31,1.2815-.4648a58.3806,58.3806,0,0,0,8.9059-4.0733q2.4519-1.3845,4.9089-2.7545c.3255-.1817.7329-.4837.9739-.4738.4382.0176.6163-.2128.8629-.5048a1.96,1.96,0,0,1,.4247-.3787c2.1788-1.3861,4.367-2.7541,6.5408-4.15,1.2984-.8342,2.5751-1.7114,3.8651-2.5626.0394-.026.1012-.0113.16-.0017,2.4854-1.7044,4.9577-3.3573,7.4026-4.9013a6.5509,6.5509,0,0,1,.7113-.71c.6172-.515,1.29-.9739,1.94-1.4545.8429-.6229,1.6969-1.2319,2.5287-1.8687,1.35-1.0333,2.7046-2.0649,4.0141-3.1429.2866-.2358.4441-.6009.8725-.6593.0088-.0011.0223-.016.0333-.0249q.7081-.5679,1.4157-1.1362c.8572-.6908,1.8884-1.2662,2.2739-2.2732.02-.0519.1253-.11.1909-.1651q-.0142.0828-.0282.1655c-.0116.0705-.0228.1409-.0344.2114.0772-.0506.1868-.0942.2264-.1531a3.7189,3.7189,0,0,1,.8859-.76C59.12,41.4277,65.35,34.4923,72.3516,28.5a128.064,128.064,0,0,1,12.3441-9.3325Z"/><path class="cls-4" d="M81.5787,8.8455A3.3826,3.3826,0,0,1,82.66,7.138c.2722-.2485.3585-.7269.649-.9243.7737-.5258,1.3178-1.3611,2.2872-1.6362.3029-.086.5154-.4524.8038-.6361a9.5417,9.5417,0,0,1,3.539-1.5493c.8-.1945,1.6176-.3161,2.4276-.47A1.4169,1.4169,0,0,0,92.71,1.848a1.0071,1.0071,0,0,0,.2247-.2082,1.2991,1.2991,0,0,1-.2014-.068c-.0523-.0271-.1358-.0823-.1308-.1131.01-.0612.07-.1618.1113-.163.3153-.0089.6312.0013.9469.0085.04.0009.0817.0334.1179.0264A7.47,7.47,0,0,0,95.562.94c.3548-.1688.528.0587.7826.0543C96.88.9851,97.4152.9415,97.9507.9369c.357-.0031.715.0286,1.0711.06a5.0816,5.0816,0,0,1,.5367.102,34.624,34.624,0,0,1,3.4361.7129,25.6727,25.6727,0,0,1,2.9107,1.2736c.2029.0914.3981.2.5969.3.6743.34.7424,1.11,1.1566,1.6238.5124.636.2576,1.2475.037,1.836-.0878.2342-.4548.3941-.7257.522a1.0415,1.0415,0,0,0-.5417,1.1211.7167.7167,0,0,1-.0069.23.89.89,0,0,1-.2151-.08c-.4436-.314-.8826-.6344-1.3234-.9524-.0259-.0186-.0631-.0542-.0805-.047-.5963.2479-1.142-.1145-1.7156-.1436a18.0108,18.0108,0,0,0-2.1749-.157,2.017,2.017,0,0,0-1.827,1.4265c-.5579,1.7172-1.2583,3.3881-1.8993,5.0783a22.8413,22.8413,0,0,1-.8545,2.2092,5.6809,5.6809,0,0,1-2.2318,2.6627,7.4888,7.4888,0,0,1-2.4168.4718,3.5219,3.5219,0,0,1-1.1052-.0568c-.5757-.1085-1.14-.2785-1.7111-.4125-.0664-.0155-.1469.0376-.2224.05-.0882.0147-.211.0626-.2622.023a36.977,36.977,0,0,1-3.091-2.4558A9.4843,9.4843,0,0,1,83.04,13.38a.6873.6873,0,0,0-.3181-.2853,1.9,1.9,0,0,1-1.2607-1.94c.05-.6846.0372-1.3737.058-2.0607A1.2315,1.2315,0,0,1,81.5787,8.8455ZM90.6292,5.56a.5277.5277,0,0,0-.1715-.002c-.6708.2471-1.3423.4929-2.0045.7615a.3551.3551,0,0,0-.04.31c.2821.2174.5748.44.9185.06a6.113,6.113,0,0,1,.55-.44C90.1233,6.0393,90.3533,5.8159,90.6292,5.56Zm3.9015-.2376c.0051-.0105.0369-.0772.07-.1433s.0668-.1287.1-.193c-.1095.0408-.259.0516-.3178.13-.0679.0907-.05.2428-.08.3655-.0321.129-.0776.2547-.1173.3819.0971-.12.1968-.238.2895-.3612A.7507.7507,0,0,0,94.5307,5.3226Z"/></svg>