<svg id="Layer_1" data-name="Layer 1" xmlns="http://www.w3.org/2000/svg" width="142.2027" height="72.1966" viewBox="0 0 142.2027 72.1966"><defs><style>.cls-1{fill:#282828;}.cls-2{fill:#00cd9f;}.cls-3{fill:#2d2d2d;}.cls-4{fill:#fff;}</style></defs><path class="cls-1" d="M74.9259,26.8808a6.16,6.16,0,0,0-.9051-2.7531c-1.2339-2.2926-2.5353-4.5506-3.8843-6.7772a4.2877,4.2877,0,0,0-1.5579-1.5945,10.1048,10.1048,0,0,1-3.4964-3.5224,7.5483,7.5483,0,0,0-1.2177-1.386c-.9761-.8294-2.1039-1.5-2.9985-2.4033a17.5889,17.5889,0,0,0-5.5387-3.589,55.9276,55.9276,0,0,0-7.0122-2.5368A49.1821,49.1821,0,0,0,33.6806.1036c-.98.0179-1.962-.1388-2.94-.0962-1.5123.066-3.02.2795-4.5328.35A33.1082,33.1082,0,0,0,16.1234,2.517,25.8762,25.8762,0,0,0,11.7393,4.56a11.9563,11.9563,0,0,0-4.47,5.0652,16.1332,16.1332,0,0,0-1.68,8.1472,14.2994,14.2994,0,0,0,.4322,2.9871,2.5647,2.5647,0,0,0,2.0094,2.0533,9.4179,9.4179,0,0,0,4.4743-.485,2.005,2.005,0,0,0,1.6416-2.2921,10.0145,10.0145,0,0,1,.04-1.8629A25.76,25.76,0,0,1,14.6748,13.4c1.3829-4.9463,4.7009-8.1182,9.5865-9.7349a25.323,25.323,0,0,1,11.9642-.6c4.04.6186,8.11,1.2262,11.86,3.047a33.8192,33.8192,0,0,1,6.6371,3.855c.5153.4153,1.0818.7712,1.575,1.21,1.3174,1.1708,2.6836,2.301,3.8834,3.5837A27.9524,27.9524,0,0,1,62.42,17.8832a34.0736,34.0736,0,0,1,5.7238,11.0894c1.106-.2437,2.2353-.501,3.3641-.823A25.4338,25.4338,0,0,0,74.9259,26.8808Z" transform="translate(0 0)"/><path class="cls-1" d="M62.9067,55.5365a3.4557,3.4557,0,0,1-1.5249-.2636,3.2112,3.2112,0,0,1-.8115-.5282,21.5043,21.5043,0,0,1-1.899,1.5611,80.0775,80.0775,0,0,1-7.6273,5.0777,77.2839,77.2839,0,0,1-7.8456,3.5947,31.724,31.724,0,0,1-11.2407,2.4827c-1.7811.0654-3.568-.127-5.3515-.2149a13.1862,13.1862,0,0,1-9.0251-3.7385c-1.1828-1.1819-2.2359-2.496-3.3029-3.7871a10.1837,10.1837,0,0,1-1.4166-2.0664,57.7628,57.7628,0,0,1-2.6273-6.22A34.6983,34.6983,0,0,1,8.1973,41.31c-.0548-1.9968-.146-4.0943,1.1907-5.9019A1.05,1.05,0,0,0,9.03,33.7956a2.1191,2.1191,0,0,0-.8564-.3317,19.7014,19.7014,0,0,0-3.3182-.3645,8.3119,8.3119,0,0,0-2.9926.6244A3.0174,3.0174,0,0,0,.4056,36.0406a21.19,21.19,0,0,0-.2707,6.6319A27.5872,27.5872,0,0,0,.95,46.5632,25.26,25.26,0,0,0,2.2563,51.43C3.6851,54.46,4.94,57.6,7.06,60.27a24.0347,24.0347,0,0,0,4.6257,4.9,27.9177,27.9177,0,0,0,12.3582,4.6615c3.4748.5233,7.0035.7748,10.521.9769a24.6524,24.6524,0,0,0,5.3478-.3174c2.2483-.3676,4.4587-.9926,6.6819-1.5225a8.3333,8.3333,0,0,0,1.2715-.4257q1.8531-.7743,3.6906-1.5864c1.5921-.7078,3.2247-1.345,4.7489-2.18,1.5726-.8622,3.0141-1.962,4.5519-2.8931.7134-.4319,1.417-.8752,2.1066-1.3359.0473-.9545.0706-1.9111.0545-2.86C63.0063,56.9616,62.9642,56.2458,62.9067,55.5365Z" transform="translate(0 0)"/><path class="cls-1" d="M53.5593,49.5326c.1241-.2307.3889-.3712.4812-.6335a1.9794,1.9794,0,0,0-.0009-.9721c-1.7422-.3675-2.9456-.4315-3.8279-.7315a14.4584,14.4584,0,0,1-2.5346,2.0154,12.6364,12.6364,0,0,1-3.1724,1.3051l-.1172.0367a18.8754,18.8754,0,0,1-4.9782.6108c-.165-.0093-.3332-.02-.51-.0324-.4457-.03-.9066-.0606-1.3831-.0636A16.0938,16.0938,0,0,1,31.0677,49.47a10.4266,10.4266,0,0,1-1.9583-1.1718,12.6012,12.6012,0,0,1-1.7988-1.5823,10.4908,10.4908,0,0,1-.8-1.03c-.2343-.3279-.4765-.6668-.7542-.9952a10.1052,10.1052,0,0,1-1.4138-2.575q-.0761-.1758-.1523-.3509a16.7185,16.7185,0,0,1-.7321-2.2456c-.0558-.2017-.1114-.4031-.1686-.6035a6.6339,6.6339,0,0,1-.2537-2.4862,2.71,2.71,0,0,0-.7032-2.2519,2.8149,2.8149,0,0,0-2.4883-.9431,1.8454,1.8454,0,0,1-.3911.0223,2.0706,2.0706,0,0,0-1.7994.5688,1.8375,1.8375,0,0,0-.5531,1.6273l.053.3158c.1585.9465.3224,1.9253.5755,2.8894a24.9776,24.9776,0,0,0,1.5739,4.3819,19.7337,19.7337,0,0,0,2.0636,3.464,22.1827,22.1827,0,0,0,3.3176,3.6043,23.6969,23.6969,0,0,0,2.2209,1.6565,14.6676,14.6676,0,0,0,3.5517,1.64c.25.084.5061.1725.7537.2581.74.2559,1.505.52,2.292.7284a26.1007,26.1007,0,0,0,5.014.8439c.3865.0252.7748.0717,1.186.1212.4284.0512.8714.1045,1.3237.1332.66.0418,1.2472.0683,1.8191.0615.2422-.003.4819-.0119.723-.0281a31.3156,31.3156,0,0,0,3.3857-.3934,12.1239,12.1239,0,0,0,3.3878-1.0833,22.3119,22.3119,0,0,0,3.0443-1.8382C52.9382,51.7072,52.8635,50.8268,53.5593,49.5326Z" transform="translate(0 0)"/><path class="cls-1" d="M46.8428,15.2882a1.3649,1.3649,0,0,0-.287-1.1339,3.6385,3.6385,0,0,0-2.9825-1.3368,2.0191,2.0191,0,0,1-.5427-.0336,1.4006,1.4006,0,0,0-1.7892,1.3718c-.0093.2638-.024.5353-.0383.7978-.03.5484-.0606,1.1155-.0474,1.6848.0066.2825-.0112.5711-.03.8768a5.8235,5.8235,0,0,0,.1474,2.17c0,.02-.0016.0517-.0026.0744l-.0013.0288c-.011.2522-.0235.5044-.0359.7566-.026.5266-.0529,1.0713-.0656,1.6114a2.5017,2.5017,0,0,0,.0925.6589c.0133.0557.0259.1081.0358.1567.0183.0889.0417.1673.0624.2364a1.12,1.12,0,0,1,.037.1416c.0394.4973.0749,1.0048.1093,1.4957.0275.3924.0559.7983.0862,1.1982.0349.4594.0772.9936.1389,1.5227.068.5829.1445,1.1728.2186,1.743l.0081.0628-.0242.0022.0072.5989c.001.0837.0006.1675,0,.2513-.0009.21-.0018.4263.0165.6518a7.5436,7.5436,0,0,0,.1382.9282,2.17,2.17,0,0,0,1.8566,1.8425,3.4294,3.4294,0,0,0,.5718.079,1.7507,1.7507,0,0,1,.3618.05,2.76,2.76,0,0,0,.9281.1354c.219-.0027.428-.0238.6255-.0439.1062-.0109.2064-.0209.3054-.0281a1.3483,1.3483,0,0,0,.9517-.5534,1.3229,1.3229,0,0,0,.2831-1.0418c-.0436-.2238-.0922-.4472-.1392-.663-.0838-.3846-.1629-.7478-.2162-1.1145l-.0164-.113c-.21-1.4433-.4264-2.9357-.5824-4.4035-.0776-.7293-.11-1.4864-.1406-2.2186-.0131-.3108-.0267-.6323-.0437-.95-.0145-.273-.0416-.5423-.0677-.8027a7.0578,7.0578,0,0,1-.0441-1.5608,2.3718,2.3718,0,0,0-.044-.7137c-.0125-.0735-.0244-.1429-.0313-.2044-.01-.0869-.0218-.17-.0335-.25a2.7284,2.7284,0,0,1-.0394-.3911q.0018-.1679.003-.3358A14.67,14.67,0,0,1,46.8428,15.2882Z" transform="translate(0 0)"/><path class="cls-1" d="M28.5262,32.2885a2.3845,2.3845,0,0,0,1.7123,2.1648,3.1333,3.1333,0,0,0,1.1179.1724c.2476-.003.4893-.0259.7275-.0484l.0279-.0027a1.568,1.568,0,0,0,.728-.04,1.1473,1.1473,0,0,0,.6665-.5718c.0171-.0118.0348-.0249.0526-.0393a2.3418,2.3418,0,0,0,.6-2.4579,2.6991,2.6991,0,0,1-.1665-.7894c-.0433-.598-.0712-1.2117-.0981-1.8052-.014-.3081-.0285-.6269-.045-.9413-.0274-.5228-.0595-1.0529-.09-1.5656-.0674-1.1129-.1371-2.2638-.1618-3.39-.014-.6437.0171-1.31.0471-1.9551.0256-.5465.0519-1.1114.0521-1.6747a7.6218,7.6218,0,0,1,.39-2.7947,1.72,1.72,0,0,0-.8681-2.1387,4.0614,4.0614,0,0,0-2.9168-.3271,2.2084,2.2084,0,0,0-1.6555,1.9959c-.0025.2629-.0027.529-.0029.7862,0,.5952-.0008,1.2107-.03,1.8068-.0214.4415,0,.875.0213,1.2942a6.7836,6.7836,0,0,1-.0786,1.9112.97.97,0,0,0-.01.3647l.0021.0153q.011.4524.0208.9048c.0143.6429.029,1.3074.05,1.9627.0264.8078.0623,1.6059.1068,2.3719.0242.417.0533.839.0814,1.2471.0445.644.09,1.31.1172,1.9613.0137.3347-.0006.4233-.08.4982A1.3691,1.3691,0,0,0,28.5262,32.2885Z" transform="translate(0 0)"/><path class="cls-2" d="M98.0927,60.9716a9.7133,9.7133,0,0,1-2.1568-2.8848,9.286,9.286,0,0,1-.5544-2.352c-.41-1.8115-.9427-3.5969-1.2115-5.4374a51.9632,51.9632,0,0,1-.6329-9.01q.0686-2.3929.0731-4.7865c.003-.8916-.0824-1.7826-.0711-2.6737.0239-1.8836.0578-3.7681.1389-5.65.0774-1.7971.2239-3.5914.3281-5.3877a2.7023,2.7023,0,0,0-.09-.5757,1.3817,1.3817,0,0,0-.4951.1552c-1.5638,1.2712-3.1147,2.5638-4.6761,3.8392-.6375.5208-1.2954,1.0083-1.9383,1.52-.4152.3308-1.0084.3872-1.1366,1.1712-.0363.2215-.5106.3723-.7963.5241-2.547,1.3538-5.084,2.779-7.8764,3.2848a53.06,53.06,0,0,1-5.6391.6715,34.5273,34.5273,0,0,1-8.9131-.8675c-1.1235-.2128-1.1825-.22-1.6729.9725-1.8353,4.4622-3.9044,8.8316-3.0126,13.76.1031.57.3849.7212.8172.6315a74.7538,74.7538,0,0,1,10.4286-1.4975c2.1939-.167,3.9581.5408,6.07.7177,7.436.6224,14.5105,5.6081,19.9325,11.1158a15.2713,15.2713,0,0,1,2.073,3.0816,13.496,13.496,0,0,1,1.2348,2.697,1.6,1.6,0,0,1,.0631.5007,7.2658,7.2658,0,0,0,7.042-2.5819,3.5753,3.5753,0,0,1-1.6264.6058A7.8626,7.8626,0,0,1,98.0927,60.9716ZM88.6275,34.6222a10.123,10.123,0,0,1-4.3877,2.31c-5.7107,1.7769-11.5137.612-17.3354,1.0865-.6965.0569-1.969.4113-2.578.01-.4018-.2649-.7718-2.164-.1118-2.3272.3264-.08.826.3372,1.1458.4209a11.2313,11.2313,0,0,0,1.9425.21q.293.0219.5881.04a53.2361,53.2361,0,0,0,8.3388-.1732,20.32,20.32,0,0,0,7.5613-2.3271c1.0059-.5444,1.9531-1.1894,2.9132-1.809.7314-.4722,1.009-1.3673,2.06-1.05a1.6732,1.6732,0,0,1,1.1425,1.3164C90.1517,33.2109,89.2036,34.0463,88.6275,34.6222Z" transform="translate(0 0)"/><path class="cls-2" d="M108.668,45.7758c.0174-1.0836.1-2.1666.1713-3.63-.0179-.5209-.069-1.42-.0763-2.32a39.628,39.628,0,0,0-1.9076-10.8641,33.8171,33.8171,0,0,0-2.31-5.995c-.5723-1.1109-1.4824-4.3809-3.0257-4.5141-1.8675-.161-2.831,4.134-3.1693,5.5263-1.0661,4.3867-.6723,9.2281-.4947,13.5583.136,3.319.4,6.6282.6076,9.9416a27.7056,27.7056,0,0,0,.2511,3.5306c.43,2.2015.9994,4.3657,1.5411,6.5354a5.9588,5.9588,0,0,0,.5708,1.3845c.0921.169.4061.3518.5333.29a5.771,5.771,0,0,0,1.7268-1.0335,18.5216,18.5216,0,0,0,3.5013-5.0068A18.0988,18.0988,0,0,0,108.668,45.7758Zm-4.8523-3.5564c-.3942.3442-.7263.787-1.1317,1.1095-.532.4232-1.0311.2711-1.6289-.017-1.2871-.62-1.258-1.8012-1.2163-3.0612l.0757-3.573c-.37-1.6182.694-2.8072,2.1249-2.4656.3711.0886.7473.1531,1.1229.2159a3.171,3.171,0,0,1,1.3677,1.6581c.1392.7435.25,1.4968.4264,2.2279A3.6475,3.6475,0,0,1,103.8157,42.2194Z" transform="translate(0 0)"/><path class="cls-2" d="M112.738,29.2747a18.7625,18.7625,0,0,0-4.7366-8.837c.0046.6163.1778.8642.7311,1.7141a7.544,7.544,0,0,1,.86,2.1291c.6823,2.5452,1.148,5.1883,2.0121,7.6431a28.9771,28.9771,0,0,1,1.2439,5.6279,14.4367,14.4367,0,0,1,.0387,1.897c.0056.7661.0507,1.5386.0669,2.3066A31.7761,31.7761,0,0,0,112.738,29.2747Z" transform="translate(0 0)"/><path class="cls-2" d="M83.6422,23.938a23.6779,23.6779,0,0,0,4.9613-4.3254,13.4837,13.4837,0,0,1,2.041-1.64c-5.5113,2.3966-10.2381,6.4545-15.7186,8.9087A25.4338,25.4338,0,0,1,71.508,28.15c-1.1288.322-2.2581.5793-3.3641.823-1.35.2973-2.6626.5757-3.8974.9243C71.0845,31.4573,77.9365,27.3466,83.6422,23.938Z" transform="translate(0 0)"/><path class="cls-2" d="M86.8713,56.0346a24.3586,24.3586,0,0,0-7.65-3.6615c-1.9133-.4851-3.8236-.8546-5.7453-1.1972.0638.4656.1341.93.2314,1.3882l.011.054A18.4834,18.4834,0,0,1,79.35,54.15c3.91,1.7161,8.0562,3.26,11.294,6.044a28.853,28.853,0,0,0,2.439,1.89c-.3445-.5236-.6883-1.0479-1.0613-1.5432A20.6432,20.6432,0,0,0,86.8713,56.0346Z" transform="translate(0 0)"/><path class="cls-2" d="M61.3818,55.2729a3.4557,3.4557,0,0,0,1.5249.2636,23.3332,23.3332,0,0,0-.7426-4.4c-1.1506.2468-2.2926.56-3.4121.883.1065.2185.2063.4441.3173.6575a6.893,6.893,0,0,0,1.501,2.068A3.2112,3.2112,0,0,0,61.3818,55.2729Z" transform="translate(0 0)"/><path class="cls-3" d="M112.8869,39.4489a14.4367,14.4367,0,0,0-.0387-1.897,28.9771,28.9771,0,0,0-1.2439-5.6279c-.8641-2.4548-1.33-5.0979-2.0121-7.6431a7.544,7.544,0,0,0-.86-2.1291c-.5533-.85-.7265-1.0978-.7311-1.7141-.0011-.147.0044-.3084.02-.511a.4038.4038,0,0,0-.1081-.27,16.626,16.626,0,0,0-2.8221-2.7642c-2.5753-1.5412-5.3007-2.3562-8.1955-.801a.8668.8668,0,0,1-.8452-.0859,1.87,1.87,0,0,0-2.0651-.5237,4.5171,4.5171,0,0,0-1.21.8818,19.672,19.672,0,0,1-2.1309,1.6082,13.4837,13.4837,0,0,0-2.041,1.64,23.6779,23.6779,0,0,1-4.9613,4.3254c-5.7057,3.4086-12.5577,7.5193-19.3957,5.9589-.2575-.0587-.5152-.108-.7726-.1834-1.1249-.332-.4816-3.143-2.1208-2.3894a5.6561,5.6561,0,0,0-1.963,1.263,15.207,15.207,0,0,0-2.1889,3.65,50.3973,50.3973,0,0,1-6.2882,2.1814c-3.4123,1.1127-3.8665,8.9483-2.07,11.7415a2.4427,2.4427,0,0,0,1.3691,1.0354c.8823.3,2.0857.364,3.8279.7315a1.9794,1.9794,0,0,1,.0009.9721c-.0923.2623-.3571.4028-.4812.6335-.6958,1.2942-.6211,2.1746-.1732,2.675a2.0372,2.0372,0,0,0,2.0913.3858c.721-.2119,1.0334-.2279,1.2255.02.6712-.1921,1.3562-.3945,2.0491-.5942,1.1195-.3225,2.2615-.6362,3.4121-.883a23.3332,23.3332,0,0,1,.7426,4.4c.0575.7093.1,1.4251.1119,2.15.0161.949-.0072,1.9056-.0545,2.86a66.0639,66.0639,0,0,1-.8693,7.6184,3.01,3.01,0,0,1-1.6091,2.2568.9772.9772,0,0,0-.45.7173A1.09,1.09,0,0,0,61.3182,72.19a4.713,4.713,0,0,0,.8262-.0725c3.3191-.9312,6.6156-.9287,10.0852-1.3774,2.1833-.2825,4.2945.0947,6.315-.5228.46-.1406.9-.3394.9773-.8928a1.4376,1.4376,0,0,0-.5523-1.328,2.7786,2.7786,0,0,1-.7785-.8955c-.9765-2.384-2.0511-4.742-2.8091-7.1976-.7327-2.3731-1.1482-4.8468-1.664-7.2854l-.011-.054c-.0973-.4583-.1676-.9226-.2314-1.3882,1.9217.3426,3.832.7121,5.7453,1.1972a24.3586,24.3586,0,0,1,7.65,3.6615,20.6432,20.6432,0,0,1,5.15,4.5063c.373.4953.7168,1.02,1.0613,1.5432.5373.8167,1.0625,1.6454,1.5966,2.4646a.9135.9135,0,0,1,.0921.3685,1.5968,1.5968,0,0,0,2.0719,1.5878,2.1985,2.1985,0,0,0,1.5355-2.0129,1.6,1.6,0,0,0-.0631-.5007,13.496,13.496,0,0,0-1.2348-2.697,15.2713,15.2713,0,0,0-2.073-3.0816c-5.422-5.5077-12.4965-10.4934-19.9325-11.1158-2.1121-.1769-3.8763-.8847-6.07-.7177a74.7538,74.7538,0,0,0-10.4286,1.4975c-.4323.09-.7141-.0617-.8172-.6315-.8918-4.9282,1.1773-9.2976,3.0126-13.76.49-1.1921.5494-1.1853,1.6729-.9725a34.5273,34.5273,0,0,0,8.9131.8675,53.06,53.06,0,0,0,5.6391-.6715c2.7924-.5058,5.3294-1.931,7.8764-3.2848.2857-.1518.76-.3026.7963-.5241.1282-.784.7214-.84,1.1366-1.1712.6429-.5122,1.3008-1,1.9383-1.52,1.5614-1.2754,3.1123-2.568,4.6761-3.8392a1.3817,1.3817,0,0,1,.4951-.1552,2.7023,2.7023,0,0,1,.09.5757c-.1042,1.7963-.2507,3.5906-.3281,5.3877-.0811,1.8821-.115,3.7666-.1389,5.65-.0113.8911.0741,1.7821.0711,2.6737q-.008,2.3929-.0731,4.7865a51.9632,51.9632,0,0,0,.6329,9.01c.2688,1.84.8016,3.6259,1.2115,5.4374a9.286,9.286,0,0,0,.5544,2.352,9.7133,9.7133,0,0,0,2.1568,2.8848,7.8626,7.8626,0,0,0,5.7019,1.5444,3.5753,3.5753,0,0,0,1.6264-.6058c3-1.9066,5.6088-7.8756,6.4123-10.778a52.8894,52.8894,0,0,0,1.0333-7.2829,13.47,13.47,0,0,0,.0872-2.0938C112.9376,40.9875,112.8925,40.215,112.8869,39.4489Zm-9.8007,18.736a5.771,5.771,0,0,1-1.7268,1.0335c-.1272.062-.4412-.1208-.5333-.29a5.9588,5.9588,0,0,1-.5708-1.3845c-.5417-2.17-1.1108-4.3339-1.5411-6.5354a27.7056,27.7056,0,0,1-.2511-3.5306c-.2079-3.3134-.4716-6.6226-.6076-9.9416-.1776-4.33-.5714-9.1716.4947-13.5583.3383-1.3923,1.3018-5.6873,3.1693-5.5263,1.5433.1332,2.4534,3.4032,3.0257,4.5141a33.8171,33.8171,0,0,1,2.31,5.995,39.628,39.628,0,0,1,1.9076,10.8641c.0073.9.0584,1.7993.0763,2.32-.0715,1.4639-.1539,2.5469-.1713,3.63a18.0988,18.0988,0,0,1-2.0805,7.4023A18.5216,18.5216,0,0,1,103.0862,58.1849Z" transform="translate(0 0)"/><path class="cls-3" d="M142.0988,34.7472c-.1592-.9619-.3849-.948-.6062-.9343-.9775.0606-1.8664.1472-2.7173.2639-.7044.0969-1.4072.2058-2.11.3147a40.8628,40.8628,0,0,1-12.2089.4414c-1.5656-.2224-3.21-1.15-3.8541.511a5.4136,5.4136,0,0,0-.0015,2.7217c.0212.2347.0675.2795.0677.28a.2721.2721,0,0,0,.1164.0162c5.5765.11,10.816,1.0059,16.4194.2479a3.246,3.246,0,0,0,.9394-.2275c.3614-.1675.7166-.4727,1.1048-.377.4487.1116,1.9341.2119,2.1835.5473a.4294.4294,0,0,0,.29.0851c.0343-.1416.0551-.2928.0761-.4434a3.6991,3.6991,0,0,1,.1484-.71A5.3663,5.3663,0,0,0,142.0988,34.7472Z" transform="translate(0 0)"/><path class="cls-3" d="M133.5428,58.9352a12.3607,12.3607,0,0,0-2.35-2.0522,8.2522,8.2522,0,0,1-.6871-.5813,6.4775,6.4775,0,0,0-.7346-.6072,37.1555,37.1555,0,0,0-6.7952-3.5645l-.2859-.1167c-.354-.145-.708-.289-1.0656-.4187-.2463-.0892-.4976-.164-.7489-.2395a7.4078,7.4078,0,0,1-1.5621-.6,1.8648,1.8648,0,0,0-.6212-.2507.45.45,0,0,0-.2.0128c-.2573.0836-.5085.5215-.8067,1.1524a9.3779,9.3779,0,0,0-.5848,2.0892c-.0393.1946-.0785.3887-.12.5792-.2153.9959-.0662,1.0971.4845,1.2936.4233.1515.8528.2769,1.2824.4024,4.809,1.404,10.5559,3.8637,14.35,7.207a3.6865,3.6865,0,0,0,1.5.9713,1.4969,1.4969,0,0,0,1.6646-1.6718C136.12,61.4587,134.2355,59.7635,133.5428,58.9352Z" transform="translate(0 0)"/><path class="cls-3" d="M118.546,23.48a12.566,12.566,0,0,0,4.2806-3.2368c.7366-.8169,1.4468-1.7239,2.1334-2.6012.2419-.3086.484-.6178.7278-.924a12.9162,12.9162,0,0,0,2.6511-4.5687c.1773-.6752.626-4.461-.4557-4.6052-.0479-.0065-.1238.05-.1975.1454-.3842.4988-.7476,1.0527-1.0991,1.5887a45.98,45.98,0,0,1-5.5,6.9829,8.7581,8.7581,0,0,1-4.3532,2.7126c-.1709.0322-.3574.1154-.4127.7269a5.25,5.25,0,0,0,1.27,4.1371C117.9242,23.7188,118.2426,23.61,118.546,23.48Z" transform="translate(0 0)"/><path class="cls-4" d="M88.7648,31.0129c-1.0515-.3175-1.3291.5776-2.06,1.05-.96.62-1.9073,1.2646-2.9132,1.809A20.32,20.32,0,0,1,76.23,36.1988a53.2361,53.2361,0,0,1-8.3388.1732q-.2951-.0181-.5881-.04a11.2313,11.2313,0,0,1-1.9425-.21c-.32-.0837-.8194-.5006-1.1458-.4209-.66.1632-.29,2.0623.1118,2.3272.609.4015,1.8815.0471,2.578-.01,5.8217-.4745,11.6247.69,17.3354-1.0865a10.123,10.123,0,0,0,4.3877-2.31c.5761-.5759,1.5242-1.4113,1.28-2.2929A1.6732,1.6732,0,0,0,88.7648,31.0129Z" transform="translate(0 0)"/><path class="cls-3" d="M104.53,36.0861a3.171,3.171,0,0,0-1.3677-1.6581c-.3756-.0628-.7518-.1273-1.1229-.2159-1.4309-.3416-2.4947.8474-2.1249,2.4656l-.0757,3.573c-.0417,1.26-.0708,2.4414,1.2163,3.0612.5978.2881,1.0969.44,1.6289.017.4054-.3225.7375-.7653,1.1317-1.1095a3.6475,3.6475,0,0,0,1.1407-3.9054C104.78,37.5829,104.6692,36.83,104.53,36.0861Z" transform="translate(0 0)"/></svg>