<svg id="Layer_1" data-name="Layer 1" xmlns="http://www.w3.org/2000/svg" width="92.2296" height="171.5662" viewBox="0 0 92.2296 171.5662"><defs><style>.cls-1{fill:#5c51ff;}</style></defs><path class="cls-1" d="M78.1515.2586a6.6876,6.6876,0,0,0-2.6463-.166A5.3939,5.3939,0,0,1,73.436.5941c-.0925-.0118-.2148.1181-.3054.2017-.3022.2786-.5862.5776-.8963.8467-.2953.2562-.3611.4542-.1467.7543.6674.9346,1.37,1.8445,2.0162,2.7934.8707,1.2791,1.7713,2.5458,2.5317,3.89,1.0339,1.8277,1.9558,3.7193,2.9079,5.5926.2944.5792.5247,1.1907.7945,1.7828a60.16,60.16,0,0,1,2.605,6.6219c.5684,1.7772.86,3.6,1.2847,5.4.1205.51.1982,1.0313.2836,1.55.1137.6895.2155,1.3811.3228,2.0718.0345.2217.0819.4422.1036.665.111,1.1433.228,2.2861.3169,3.4311.0426.5472.0281,1.0989.0386,1.6486.0206,1.0743.0674,2.1491.0537,3.223-.0153,1.2013-.1349,2.4025-.1216,3.6027a55.4744,55.4744,0,0,1-.7195,7.3105c-.0873.7183-.2541,1.4274-.3974,2.1382-.2367,1.1741-.4842,2.3462-.7267,3.5192-.0856.4142-.1633.83-.2563,1.2425-.1645.7291-.3269,1.459-.5106,2.1833-.2025.7992-.4056,1.5995-.6511,2.386-.1635.5236-.4355,1.0134-.5976,1.5374-.1842.5953-.2414,1.2336-.4573,1.8148-.5565,1.4972-1.1594,2.9777-1.7695,4.4542a8.8233,8.8233,0,0,1-.5564.8868,10.1806,10.1806,0,0,0-.531,1.0568c-.3278.7813-.5975,1.5886-.9551,2.3552a18.4976,18.4976,0,0,1-1.4258,2.719,22.4913,22.4913,0,0,0-1.5539,2.6182q-.37.7308-.7721,1.4454c-.1944.3443-.4145.6742-.626,1.0086a5.6646,5.6646,0,0,0-.3258.5005c-.3371.6842-.9872,1.21-1.0318,2.047-.0054.1-.1624.1851-.2288.29-.3474.5491-.6984,1.0964-1.0271,1.6567-.1876.3194-.32.6706-.5037.9928a13.0028,13.0028,0,0,1-.7811,1.2685c-.6757.923-1.0678,2.016-1.8076,2.9054a15.5893,15.5893,0,0,0-.9788,1.573c-.2575.3987-.5428.78-.8226,1.1638-.3943.5411-.7989,1.0748-1.192,1.6167-.3816.5261-.7449,1.0658-1.1341,1.5861-.3148.421-.6769.8073-.9814,1.2349-.68.9555-1.361,1.9065-1.9846,2.9065a33.9322,33.9322,0,0,1-2.6012,3.3736c-1.3591,1.6682-2.7472,3.3128-4.12,4.97-.7833.945-1.5421,1.9109-2.3459,2.8379-1.3252,1.5283-2.6819,3.0292-4.0168,4.5492a5.99,5.99,0,0,0-1.1976,1.5105,2.9819,2.9819,0,0,1-.9541,1.1938c-.3408.2908-.7054.5578-1.0194.8751-.8975.9067-1.77,1.8387-2.6625,2.75-.3482.3554-.7468.6624-1.0852,1.0262-.6649.7149-1.2871,1.47-1.9578,2.179-.6881.7275-1.43,1.404-2.1169,2.1325-.6677.7083-1.2683,1.4809-1.9478,2.1768-.7866.8055-1.6423,1.5433-2.44,2.3386-.6709.669-1.29,1.39-1.9548,2.0652-.3844.39-.8418.71-1.2186,1.1066-1.2223,1.287-2.41,2.607-3.6352,3.8909-.95.9948-1.94,1.9511-2.9052,2.9306q-2.0588,2.088-4.1087,4.1846c-.3863.3932-.7924.7684-1.16,1.1779-.87.9683-1.7345,1.9424-2.5794,2.9328-.7118.8345-1.3774,1.7085-2.0935,2.5392-.4216.4889-.4726.46-.9417.0189l-.1109-.1043c1.5282,2.0962,3.7526,3.4263,5.788,4.8437-.176-.1893-.336-.3971-.5074-.5895.16-.1976.2488-.3179.3482-.4291.9484-1.0611,1.9075-2.1127,2.8445-3.1837.5419-.6195,1.0288-1.2875,1.5761-1.9019a16.261,16.261,0,0,1,2.9363-2.864c.1152-.0774.16-.253.2576-.3648.1266-.1445.278-.2672.4119-.4057.1859-.1923.3728-.3843.5456-.5881.1766-.2082.3169-.45.5079-.6424.3681-.371.7538-.7253,1.1465-1.07a2.53,2.53,0,0,1,.4954-.308c.4082-.2161.859-.3467.9237-.9471a.85.85,0,0,1,.5153-.593c.5872-.1364.7694-.5643.9632-1.0281a1.4629,1.4629,0,0,1,.2735-.4383c1.1146-1.1754,2.2451-2.3359,3.3526-3.5178a12.2422,12.2422,0,0,1,1.125-.9441,15.8114,15.8114,0,0,0,1.6753-1.8828c.34-.3957.6217-.8739,1.0942-.8127.2859-.2666.4649-.4393.65-.6047.1835-.1637.4944-.2929.5376-.485a1.939,1.939,0,0,1,.8623-1.2074,10.4135,10.4135,0,0,0,1.2516-1.3751c.6478-.6882,1.3149-1.3581,1.9757-2.0339a.4381.4381,0,0,1,.18-.1313c.5908-.1447.879-.6262,1.2093-1.0645a11.5438,11.5438,0,0,1,1.8489-2.3442c.3169-.2519.5647-.4589.956-.1875a10.9318,10.9318,0,0,1,.6391-1.2469c.2047-.3.558-.4986.766-.7974a15.5137,15.5137,0,0,1,2.5369-2.7254,4.5094,4.5094,0,0,0,.6782-.7994,11.07,11.07,0,0,1,3.4028-3.2685,1.0655,1.0655,0,0,0,.45-.4875,13.2679,13.2679,0,0,1,1.55-2.4684,3.5078,3.5078,0,0,1,1.4567-1.4653c.1838-.0833.2932-.3215.4507-.4741.1765-.1709.3689-.3253.6122-.5373,0-.0356-.0635-.2333.0076-.3171a10.098,10.098,0,0,1,.881-.8855c.1224-.1124.3655-.1491.4161-.2753a14.8731,14.8731,0,0,1,1.7634-2.73,14.1541,14.1541,0,0,1,1.4378-1.6152c.1971-.21.4375-.3793.6455-.58q.494-.4767.9673-.9744c.0441-.0462.0263-.1461.0539-.2142a4.5058,4.5058,0,0,1,.3767-.8735,16.7956,16.7956,0,0,1,1.2713-1.67c.4371-.4924.7224-1.137,1.4547-1.3593a.7081.7081,0,0,0,.4937-.8349c-.0728-.3494.1257-.54.392-.7348.5939-.4344,1.135-.92.92-1.7022.2-.1571.452-.258.4667-.3863.0387-.3366.2825-.4316.4857-.613.2536-.2263.6133-.5181.6271-.7965.0593-1.19.9593-1.7962,1.6194-2.5773a1.3732,1.3732,0,0,0,.3453-.6143,2.6257,2.6257,0,0,1,.6947-1.6005,4.2973,4.2973,0,0,0,.7155-1.05c.7034-1.3225,1.5122-2.58,2.3381-3.8258a14.5144,14.5144,0,0,0,.9369-1.701,3.9441,3.9441,0,0,1,1.2654-1.618,1.2472,1.2472,0,0,0,.5987-1.4729.8847.8847,0,0,1,.7019-1.1113,5.8158,5.8158,0,0,0,.7747-.3749l-.2085-.4839c.1659-.1306.3289-.2437.4743-.3762.3551-.3236.0654-.8869.3305-1.1557a1.5777,1.5777,0,0,0,.6128-1.1351,2.785,2.785,0,0,1,.1844-.8754c.1466-.4117.5229-.6257.8236-.9142.28-.2685.1851-.8268.6047-1.0748a.5758.5758,0,0,0,.2289-.1895c.0994-.1957.2706-.4317.2292-.6083a2.3428,2.3428,0,0,1,.2837-1.7453c.2521-.4745.4491-.9841.7158-1.4659.29-.5249.7492-1.0107.6376-1.71-.02-.1277.1788-.2813.2522-.4347.2008-.419.4044-.8379.5772-1.2687.1839-.4585.3068-.9424.5048-1.3941a4.2945,4.2945,0,0,0,.638-2.3549.5384.5384,0,0,1,.0444-.2923,24.9508,24.9508,0,0,0,.6993-2.6617,21.1721,21.1721,0,0,0,1.03-4.4906.7685.7685,0,0,1,.2639-.4314,1.206,1.206,0,0,0,.3742-1.09,8.6087,8.6087,0,0,1,.4168-3.5558,1.2306,1.2306,0,0,0,.0708-.363,17.67,17.67,0,0,1,.6323-4.944.8361.8361,0,0,0,.0287-.3713A8.53,8.53,0,0,1,92.05,44.699c.0595-.931.1284-1.8707.1306-2.8092.0018-.7744.0594-1.5491.0473-2.3229-.0146-.9405-.0768-1.88-.1175-2.82a5.1425,5.1425,0,0,0-.6775-3.09,1.1163,1.1163,0,0,1-.1089-.2785l.1172.0062c.0418-.3253.0911-.65.1226-.9761a4.2376,4.2376,0,0,0,.0214-.6717c-.0237-.37-.0561-.7416-.1165-1.1073-.0448-.27-.1669-.5282-.2083-.7986-.1771-1.16-.3132-2.3268-.5118-3.483a21.4381,21.4381,0,0,0-.5351-2.3306c-.3176-1.0959-.6894-2.1763-1.0433-3.2616a18.9037,18.9037,0,0,1-.6284-1.9153,21.1588,21.1588,0,0,0-1.5544-4.1218c-.6539-1.4834-1.54-2.8625-2.2564-4.3206a28.5551,28.5551,0,0,0-2.37-3.9851c-.6671-.9368-1.2536-1.9329-1.8466-2.92C80,2.6354,79.5185,1.7581,79.0383.8814A1.14,1.14,0,0,0,78.1515.2586Z"/><path class="cls-1" d="M17.0063,149.3845c-.8386-.6839-1.6754-1.37-2.5246-2.0427-.6118-.4849-1.2631-.93-1.8609-1.4285-.6651-.5548-1.2563-1.1851-1.9425-1.7167a3.1072,3.1072,0,0,1-1.057-1.48.4863.4863,0,0,0-.1536-.25.505.505,0,0,1-.1717-.6385c.12-.42.0516-.586-.343-.6927-.3827-.1035-.8042-.1328-1.205-.2034a.9077.9077,0,0,0-.4289.0469,3.0527,3.0527,0,0,1-1.0938.17,1.7258,1.7258,0,0,0-1.0164.3,1.8636,1.8636,0,0,0-.6521.7394,4.1457,4.1457,0,0,1-.3522.8323c-.0652.0842-.0426.2133-.0708.3218a2.1815,2.1815,0,0,1-.2154.73,4.5594,4.5594,0,0,0-.4747,1.1944l.2234-.1625a7.1082,7.1082,0,0,1-.4084,2.0167,3.5215,3.5215,0,0,0-.0983.8862,11.4,11.4,0,0,1-.2951,1.8272,5.2357,5.2357,0,0,0-.2178,1.7676,1.533,1.533,0,0,1-.2518,1.0641,1.606,1.606,0,0,0-.2378,1.282,3.377,3.377,0,0,1-.0345.9549c-.0713.4271-.1417.8541-.2173,1.2815-.1034.5852-.18,1.1707-.3278,1.7561a3.29,3.29,0,0,0-.183,1.31,1.0991,1.0991,0,0,1-.0254.42,7.8751,7.8751,0,0,0-.2711,2.4431,1.2532,1.2532,0,0,1-.0411.2837c-.0857.5194-.206,1.044-.25,1.5572a3.3638,3.3638,0,0,1-.6119,1.91.9861.9861,0,0,0-.0982.234c-.1874.4544-.1166.6567.3044.7658a.4079.4079,0,0,1,.3208.2571.5892.5892,0,0,0,.687.3883,1.0966,1.0966,0,0,1,.3167.05,1.2564,1.2564,0,0,1-.1073.4908,1.3145,1.3145,0,0,0-.1646.9138,6.74,6.74,0,0,0-.0623.8211,8.1879,8.1879,0,0,0,.22.9447c.1.446.4452.5648.9165.6235a14.8569,14.8569,0,0,1,2.1575.1851.8939.8939,0,0,0,.39.0094q1.906-.3509,3.8127-.7194a2.7658,2.7658,0,0,0,.7083-.2051,3.441,3.441,0,0,0,.5554-.4321c.3223.3474.3764.3539.82.09-.0433-.0646-.0866-.1291-.1582-.2356.1895-.0221.3555-.0866.4451-.044a1.5668,1.5668,0,0,0,1.029.0086c.7631-.1756,1.5267-.3642,2.2886-.5715a1.1549,1.1549,0,0,0,.7885-.52.8489.8489,0,0,1,.4376-.2964c.843-.2494,1.6882-.4742,2.5327-.7061.033-.0091.0668-.002.1005-.008q1.3165-.238,2.6332-.4767c.0995-.0179.2257-.0631.29-.03.0738.0377.0926.1493.14.2369l.9106-.1885-.2153-.1908a1.24,1.24,0,0,1,.92-.1636.3247.3247,0,0,0,.1961-.0657,1.5506,1.5506,0,0,1,.9956-.2567l-.5523.2586a13.0105,13.0105,0,0,0,2.8627-.6575,1.092,1.092,0,0,0,.2-.1275l-.0114-.0693-.862.1474a8.52,8.52,0,0,1,2.6173-.8125c-.0031.2068.1387.261.3529.2081.3392-.0837.6783-.1749,1.0172-.2651a1.2006,1.2006,0,0,0,.44-.1388c.0962-.0786.1123-.25.19-.4474a1.4433,1.4433,0,0,0,1.6536-.1308.8982.8982,0,0,1,.58-.8393,7.4036,7.4036,0,0,0,.0886-.8363,3.8294,3.8294,0,0,0-.0963-1.3026,1.7247,1.7247,0,0,0-1.066-1.1853c-.23-.0674-.3028-.2342-.2751-.488a.6289.6289,0,0,0-.2527-.6238q-.771-.5337-1.5369-1.0731c-1.3919-.9833-2.7885-1.9615-4.1709-2.9551-1.1935-.8578-2.367-1.7376-3.5561-2.6-.3875-.281-.8053-.529-1.1921-.8107a1.3165,1.3165,0,0,1-.1376-.1182A10.6788,10.6788,0,0,1,17.0063,149.3845ZM6.0629,162.159a1.4032,1.4032,0,0,0-.3565.8914,2.7538,2.7538,0,0,1-.0461.4219.5674.5674,0,0,1-.2224.2646c-.0522-.8791.1761-1.7865.1934-2.7821.5107.2743.6967.6945,1.0409.9526C6.4786,162.2292,6.2473,162.1285,6.0629,162.159Zm5.4824,3.4615c-.0733.03-.1991.054-.2288.0195a5.7539,5.7539,0,0,1-.3668-.5262c.41-.0181.51.204.6686.3491C11.6358,165.4789,11.5814,165.6055,11.5453,165.6205Zm-3.4425-9.6783a.9512.9512,0,0,0-.1685.9453.2819.2819,0,0,1-.0226.2219,2.7788,2.7788,0,0,0-.5019,1.3763c-.5295.0916-.6144.0444-.57-.3326.04-.3434.1185-.6915.1558-1.0344a6.7147,6.7147,0,0,0,.0079-.69c.0572-.0064.1037-.0155.1481-.0159.4413-.0035.55-.094.596-.5008.0141-.1237.0243-.247.044-.3712.0042-.0258.0427-.0544.0654-.0817C8.185,155.519,8.2859,155.6687,8.1028,155.9422Zm9.3407,7.7988a7.6538,7.6538,0,0,1-2.0812.8038,6.99,6.99,0,0,0,.5216-.9892,5.1536,5.1536,0,0,0,.1389-.9722A2.2245,2.2245,0,0,1,17.4435,163.741ZM8.544,146.4678l.2974.3556C8.5761,146.846,8.4914,146.7139,8.544,146.4678Zm11.3951,16.1751.3271-.5542.5311.2136A1.07,1.07,0,0,1,19.9391,162.6429Zm4.2221-3.975c.3316.2141.6516.4418.9717.6693.427.3035.8586.6023,1.2713.921.2107.1627.5309.3264.5416.5567.0178.3819.3037.5675.4394.9291a5.4061,5.4061,0,0,1-1.5774.4411.4139.4139,0,0,1-.4555-.4028,1.0452,1.0452,0,0,0-.6081-.79,1.0537,1.0537,0,0,1-.4825-.7343,1.26,1.26,0,0,0-.5815-.8713,1.0817,1.0817,0,0,1-.1906-.175c-.0925-.09-.227-.1929-.0838-.3453a1.1131,1.1131,0,0,1,.4456-.262A.4065.4065,0,0,1,24.1612,158.6679Z"/></svg>