<svg id="Layer_1" data-name="Layer 1" xmlns="http://www.w3.org/2000/svg" width="52.4614" height="35.0811" viewBox="0 0 52.4614 35.0811"><defs><style>.cls-1{fill:#00cd9f;}.cls-2{fill:#2d2d2d;}</style></defs><path class="cls-1" d="M48.5386,16.1168a2.3817,2.3817,0,0,1-1.6208-.2619,2.2374,2.2374,0,0,1-.9559-1.0226C43.6057,9.6616,53.712,15.0557,48.5386,16.1168Z"/><path class="cls-1" d="M17.9215,25.6433A21.3547,21.3547,0,0,0,26.26,32.539a7.1651,7.1651,0,0,0,5.0183.7528,10.5435,10.5435,0,0,0,3.1178-1.9726c1.8545-1.4215,3.9334-2.5507,5.6685-4.1156s3.1422-3.7213,3.0618-6.0557c-.0821-2.3855-1.6683-4.436-3.3191-6.1608A37.9616,37.9616,0,0,0,27.0655,6.0824,66.531,66.531,0,0,0,14.8269,2.7481c-1.9035-.39-3.7888-.9627-5.7058-1.2766a2.8534,2.8534,0,0,0-2.0661.3149c-.864.5882-1.0317,1.6832-1.47,2.5569C4.2016,7.1021,2.1317,9.7512,1.7617,12.8992a5.544,5.544,0,0,0,2.11,5.3256c1.553,1.0021,3.552.8381,5.367,1.1887A12.4219,12.4219,0,0,1,15.1743,22.65a37.0386,37.0386,0,0,1,4.4135,5.2222"/><path class="cls-2" d="M.1138,14.6625a1.4941,1.4941,0,0,0-.0678.8958,1.532,1.532,0,0,0,1.0532.8477,2.9238,2.9238,0,0,1,1.2041.6151c.1178.0852.2482.1529.3738.2271.0334.02.0737.0285.1054.05a5.7735,5.7735,0,0,0,2.7617.9543,3.2029,3.2029,0,0,0,.9538-.0636c.19-.04.3857-.0529.5757-.0926s.3747-.0952.5609-.1472.3711-.1224.5614-.1562a.3378.3378,0,0,1,.23.0908c.2166.1806.4306.3657.6316.5635q.8631.8495,1.7147,1.7109c.1766.1776.3525.3571.5151.5472s.16.2654.0377.4706c-.2091.35-.4107.7044-.6293,1.0478-.1666.262-.3562.5091-.5331.7645A2.1547,2.1547,0,0,0,9.78,24.25c-.0032.91-.46,1.79.4209,2.85a1.9324,1.9324,0,0,0,2.53.4444,2.7956,2.7956,0,0,1,.373-.159,3.77,3.77,0,0,1,.169.4069,2.2958,2.2958,0,0,0,.6905,1.093,2.2224,2.2224,0,0,0,.733.4613,5.284,5.284,0,0,0,1.0592.1949,1.5186,1.5186,0,0,0,1.0347-.328c.1031-.0683.2119-.1282.35-.2112.0445.1195.0749.2074.11.2935.1715.4225.3146.86.5249,1.2623a2.6946,2.6946,0,0,0,.8885,1.0264,3.1618,3.1618,0,0,0,2.1752.5723c.221-.0274.44-.0721.6591-.1141.1711-.0327.2247-.0174.2579.143a1.6532,1.6532,0,0,0,.9227,1.1c.261.1466.5407.26.8124.3875a7.3132,7.3132,0,0,0,1.7918.2559,17.8057,17.8057,0,0,1,2.11.67,5.1865,5.1865,0,0,0,4.1222.0805,3.1434,3.1434,0,0,0,.6948-.518c.6872-.6606.9915-1.222,2.0571-1.16a2.9784,2.9784,0,0,0,1.5807-.1282,8.61,8.61,0,0,0,1.7874-.9362c.9259-.707.765-1.587,1.67-2.0015A7.1286,7.1286,0,0,0,42.8793,26.24c.3466-.8307.5264-1.7242.8989-2.5444.2421-.5331.7577-.9741.7959-1.5883.096-1.62-.73-3.0532-1.322-4.5022a5.974,5.974,0,0,0-.6-1.5588A14.1322,14.1322,0,0,1,41.568,14.879a12.8184,12.8184,0,0,1-.9115-1.866l-.88-3.103a5.219,5.219,0,0,1-.3286-.7748c-.2-.5264-.3686-1.0665-.5961-1.58a4.1465,4.1465,0,0,1-.288-1.1227,3.4775,3.4775,0,0,0-.1335-.38,2.7822,2.7822,0,0,1-.2193-1.0144A1.4523,1.4523,0,0,0,37.9466,3.99a2.3993,2.3993,0,0,0-.2958-.3151c-.0989-.0916-.2207-.1595-.3144-.2556A2.3173,2.3173,0,0,0,36.724,2.99c-.5283-.2748-1.0733-.5087-1.6233-.7308-.17-.01-.34-.0175-.51-.0244-2.0585-.0828-3.8412-.627-5.85-.88-2.5725-.3244-4.539,1.8526-6.9073,1.7509a.1216.1216,0,0,0-.0575.0036,2.5832,2.5832,0,0,1-1.4428.0679,8.6467,8.6467,0,0,1-1.6238-.5354,13.2443,13.2443,0,0,0-1.9837-.2588,23.2047,23.2047,0,0,1-3.0714-.4147,12.6477,12.6477,0,0,1-2.8545-.7892l-.0239-.0118c-.0342-.0259-.07-.05-.1055-.0763a.2947.2947,0,0,1-.0745-.0306C9.68.4945,9.152-.2635,7.9627.0908,6.2949.5877,5.488,2.4329,4.71,3.8216,3.76,5.5194,2.886,7.259,2.0181,9c-.1775.3564-.3413.72-.501,1.0849-.1052.24-.2022.4855-.286.7342C.823,12.0325.5108,13.2727.1593,14.5039Zm7.74-.0243c.1266-.3965.2754-.7861.426-1.1744,1.1379-2.9341,2.1783-5.9262,3.2067-8.9047.1163-.3367.2505-.6675.3658-.9712,1.95.38,3.9726.9321,5.9242,1.4064a2.092,2.092,0,0,1-.0873.2788,8.4628,8.4628,0,0,1-.4.7782,1.099,1.099,0,0,0-.0941,1.03,1.5659,1.5659,0,0,1,.0913.2771c.0883.5071.1759,1.0146.2512,1.5235a3.4235,3.4235,0,0,1,.0465.665c-.0469.9322-.1168,1.8635-.162,2.7959-.0264.544-.04,1.09-.0227,1.634a1.69,1.69,0,0,0,.1756.67.9206.9206,0,0,0,.3867.417,4.0131,4.0131,0,0,0,1.4208.4067,2.3764,2.3764,0,0,0,1.4032-.281c.0746-.0425.1394-.1017.2121-.1482a8.1213,8.1213,0,0,0,1.765-1.3584,6.7934,6.7934,0,0,0,1.1893-2.03c.2739-.6943.3375-1.4557.6083-2.1394a2.5818,2.5818,0,0,1,.2094-.4484.6461.6461,0,0,0,.1308-.3426.2574.2574,0,0,1,.3541-.2343,6.0914,6.0914,0,0,1,.8853.2678,6.1569,6.1569,0,0,1,1.034.5879c.4252.3046.8177.6549,1.2215.9889.0818.068.1382.175.2281.2231a5.6412,5.6412,0,0,1,.9285.75,17.0926,17.0926,0,0,0,1.6308,1.4026,2.4329,2.4329,0,0,1,.1938.1769,3.9344,3.9344,0,0,0,.6617.516,6.011,6.011,0,0,1,.6645.4141,15.9208,15.9208,0,0,1,1.3615.9479c1.0186.8593,2.1691,1.5395,3.1068,2.4863a19.8789,19.8789,0,0,0,2.1973,1.9747c.7032.5247,1.6584.9987,1.9994,1.8655a.3336.3336,0,0,1-.1045.39,8.4737,8.4737,0,0,0-.7512.8123c-.1713.2288-.326.2107-.5044.0214-.4073-.4321-.9444-.712-1.3219-1.1838a15.63,15.63,0,0,0-3.2839-2.5359,10.4526,10.4526,0,0,0-3.41-1.7377,1.1986,1.1986,0,0,0-.7432.0633.34.34,0,0,0-.2047.4749c.2488.65,1.06,1.0286,1.5849,1.4432,1.3849,1.0952,2.7441,2.2182,4.142,3.2971a11.8689,11.8689,0,0,0,1.5584.9338,2.3194,2.3194,0,0,1,.6849.5345c.196.2412.2337.5712.5071.7438a1.385,1.385,0,0,1,.4215.4905c.14.23-.4617.8564-.6277.9708a2.9416,2.9416,0,0,1-1.4661.5249c-.2459.03-1.0305.0433-1.225-.1485-.2134-.21-.4349-.4125-.6414-.629-.26-.2721-.4964-.5665-.7633-.8306-1.0753-1.0627-2.1887-2.1221-3.32-3.1318a7.3949,7.3949,0,0,0-1.54-1.2349c-.4879-.2408-2.947-.4435-2.3638.6332a3.2843,3.2843,0,0,0,1.2355.9519,5.42,5.42,0,0,1,.9294.6362c1.0709.9005,2.0991,1.9563,3.0649,2.9113.1582.1564.3563.2766.4964.4461a8.3317,8.3317,0,0,0,.7494.7652c.1535.1437.3348.2572.4892.4.3121.2881.5981.6069.9255.8755a.642.642,0,0,1,.2377.8233,1.0993,1.0993,0,0,1-.5457.7176c-.3308.1355-.6761.2358-1.0159.3491a.3164.3164,0,0,1-.087-.0023,2.5727,2.5727,0,0,1-1.1982-.3112,1.0263,1.0263,0,0,0-.3522-.1315.8823.8823,0,0,1-.5782-.304A34.5559,34.5559,0,0,0,29.57,26.1463a2.8722,2.8722,0,0,0-1.749-.7812c-.5955.0142-1.5293.6922-1.0967,1.3711.1833.2877.7274.4944,1.0091.6842a5.4981,5.4981,0,0,1,.9289.75c.5331.56,1.9112,1.52,1.7845,2.3528-.0752.4937-.39,1.4225-1.0963,1.4367-.32.0065-.6387.0418-.9579.04a1.5838,1.5838,0,0,1-.6523-.087,6.5115,6.5115,0,0,1-.0635-.94,1.2809,1.2809,0,0,0-.4786-1.1571c-.2737-.23-.5224-.49-.7785-.7405a1.6238,1.6238,0,0,0-1.416-.5213c-.1058.0147-.2123.0278-.3187.0353-.2492.0176-.368-.1286-.3693-.3767a1.3824,1.3824,0,0,0-.2878-1.0117,10.293,10.293,0,0,0-1.126-1.096,2.0664,2.0664,0,0,0-1.6287-.5022,2.6452,2.6452,0,0,1-.3228.012.9668.9668,0,0,0-.3966-1.0423,5.9116,5.9116,0,0,0-1.371-1.0266,2.2565,2.2565,0,0,0-1.6688-.2205.4465.4465,0,0,1-.1415-.0094.4811.4811,0,0,1-.0154-.1281c.0484-.2579.0946-.5167.1538-.7723a2.6,2.6,0,0,0,.027-1.0968.9428.9428,0,0,0-.3422-.5623,2.9116,2.9116,0,0,0-.5646-.3611A3.6622,3.6622,0,0,1,16.0224,20a2.3952,2.3952,0,0,0-.5974-.35,5.7158,5.7158,0,0,0-1.8715-.2281,2.882,2.882,0,0,0-1.0647.29c-.2475.0935-.2423.1037-.3907-.109a.39.39,0,0,0-.0852-.0708,2.3917,2.3917,0,0,1-.2232-.1766c-.3562-.357-.7091-.7176-1.062-1.0779-.2779-.2839-.5525-.5709-.8317-.8535-.5605-.567-1.1148-1.1408-1.69-1.6926a.65.65,0,0,1-.1811-.26.5855.5855,0,0,1-.1307-.3864.2162.2162,0,0,0-.0582.0075A1.7627,1.7627,0,0,1,7.8536,14.6382Zm-2.5327-.2663.0009.0018a1.4147,1.4147,0,0,1-.0711,1.736,1.2123,1.2123,0,0,1-1.6395.1351,2.1877,2.1877,0,0,1-.4981-.7546C2.8069,14.5564,4.8108,13.345,5.3209,14.3719Z"/><path class="cls-2" d="M40.1984,11.6189c.1356.3116.2727.6228.3979.9387"/><path class="cls-2" d="M45.6176,17.3019a8.8936,8.8936,0,0,1-1.6534-3.2513c-.4723-1.23-1.0134-2.4277-1.4466-3.674C41.5989,7.7337,40.9267,5.014,40.0742,2.35,39.5444.6949,44.936.7871,45.7027,1.0526A1.4542,1.4542,0,0,1,46.76,2.1484a20.21,20.21,0,0,0,1.5289,3.0645c.4631,1.078.8692,2.18,1.33,3.2587A18.6806,18.6806,0,0,0,51.25,11.4164a8.6592,8.6592,0,0,1,1.1584,2.5574,2.0113,2.0113,0,0,1-.6347,1.8493c-1.0868,1.3489-3.6483,1.7906-5.2969,1.7855A1.1589,1.1589,0,0,1,45.6176,17.3019Zm1.5207-3.8471a.071.071,0,0,1-.0508.0257c-.3762-.0417-.4146.271-.4864.502a1.1463,1.1463,0,0,0,.2008,1.1048,3.0057,3.0057,0,0,0,.67.4979.2638.2638,0,0,0,.1946-.0132c.2818-.1027.5627-.2088.84-.3242a1.3593,1.3593,0,0,0,.3465-.1953.4024.4024,0,0,0,.1041-.3417c0-.2736-.1378-.51-.1616-.7793a.6333.6333,0,0,0-.3476-.5077.5091.5091,0,0,1-.126-.0715.4414.4414,0,0,0-.4242-.1332C47.591,13.2673,47.3237,13.2313,47.1383,13.4548Z"/></svg>