<svg id="Layer_1" data-name="Layer 1" xmlns="http://www.w3.org/2000/svg" width="97.3181" height="95.243" viewBox="0 0 97.3181 95.243"><defs><style>.cls-1{fill:#00cd9f;}</style></defs><path class="cls-1" d="M58.701,94.2421c-13.1888,2.11-29.27,1.2427-40.0662-6.0863-.8835-.6-1.7265-1.2573-2.5481-1.9395C9.3433,80.6174,2.9705,72.76.8123,64.1461a14.0729,14.0729,0,0,1-.3147-2.3047C.402,60.6313.37,59.4162.287,58.2049c-.0882-1.28-.2792-2.5577-.2865-3.8373a44.2066,44.2066,0,0,1,2.8021-15.339,83.4238,83.4238,0,0,1,4.1917-9.801c2.3054-4.2613,3.1162-6.65,5.01-9.8226.3675-.6155.8437-1.1627,1.2453-1.7587.3747-.5561.7285-1.1281,1.0679-1.7074.6433-1.0981,3.5318-3.3051,4.3042-4.2974C22.6772,6.4321,30.1862,3.6442,36.54,2.0307,42.9386.406,48.9815-.5745,55.4738.3681A58.3117,58.3117,0,0,1,70.2049,4.21c16.808,7.2342,27.7356,28.1179,27.0857,46a62.5612,62.5612,0,0,1-4.9562,21.2459c-2.2737,5.614-5.2075,9.9367-10.2208,13.3653a54.1222,54.1222,0,0,1-17.99,8.3521C62.39,93.5826,60.5749,93.9424,58.701,94.2421ZM47.6775,36.5628a2.4771,2.4771,0,0,0-.3178-1.27c-.7729-1.2708-4.2177.6887-5.1329,1.1169a21.6941,21.6941,0,0,1-7.55,2.0053,9.9473,9.9473,0,0,1-6.0082-1.54,4.8114,4.8114,0,0,1-2.0235-2.1632,4.5923,4.5923,0,0,1,.2135-2.89,43.4429,43.4429,0,0,1,2.0758-4.2844c.5066-1.0181,1.0907-2.0044,1.5057-3.06.591-1.5025,1.0713-3.0508,1.5765-4.5887.51-1.5517,1.0186-3.1038,1.5084-4.6628.1457-.4618,1.1352-1.8957.3281-2.2091a1.1625,1.1625,0,0,0-.7727.0644C28.45,14.61,24.7949,17.92,21.6253,21.5673a32.1385,32.1385,0,0,0-3.7426,5.2821c-1.1495,2.0433-3.5071,5.3229-4.81,7.2787C8.6733,40.7284,7.9142,47.1,7.229,54.7507c-.193,2.155.5476,3.9344,1.0657,5.9618.7464,2.9205,1.5419,5.8142,3.9425,7.879.05.0433.1174.1267.1062.1743-.295,1.2607.7869,1.8792,1.3594,2.6016a37.2437,37.2437,0,0,0,7.7906,7.2415,1.5136,1.5136,0,0,0,.3834.1374,1.417,1.417,0,0,0,.0957-.3875c-.0615-1.3969-.1661-2.7925-.1967-4.19a9.647,9.647,0,0,1,1.2526-5.6123,86.5713,86.5713,0,0,1,5.6987-7.5928c1.606-1.9261,3.48-3.62,5.2138-5.4375,1.17-1.2256,2.2274-2.5722,3.4692-3.714,2.8822-2.65,5.8913-5.1324,7.8277-8.698C45.9736,41.7594,47.7045,38.695,47.6775,36.5628Zm41.6126,8.54.045-.0025a2.69,2.69,0,0,0-.0246-.3222c-.053-.2745-.1163-.547-.1756-.82a5.9363,5.9363,0,0,0-.5661.4573,12.6335,12.6335,0,0,1-1.5385,1.59c-1.9594,1.3876-3.9267,2.7757-5.98,4.01-1.7271,1.0377-3.5779,1.8627-5.3765,2.7767a8.1974,8.1974,0,0,1-1.5735.7468c-2.7333.7044-4.8247,2.4347-6.8327,4.3113-1.8826,1.76-3.9893,4.4265-4.5279,7.0177-.2687,1.2927-.0429,2.5019,1.2206,3.1145.9887.4794,2.2881.369,3.3617.6,4.82,1.0359,8.4071,4.2575,12.2715,7.1392.1506.1123.54.1815.58.1173a54.7975,54.7975,0,0,0,2.9484-4.936c.7525-1.55,1.1665-3.266,1.8119-4.8747.421-1.0495,1.06-2.009,1.4749-3.06.7549-1.914,1.5212-3.8353,2.0847-5.812a26.446,26.446,0,0,0,1.1147-5.6421A55.6889,55.6889,0,0,0,89.29,45.1026Zm-26.0511-5.43c.4575-.2657.8692-.551,1.3162-.7567,2.754-1.2679,5.758-2.1344,7.5544-4.9181a9.136,9.136,0,0,0,.4257-.8275c-.2955.13-.5985.2457-.8831.3972-.1419.0755-.2371.2377-.3751.3255q-4.0633,2.5863-8.1278,5.1709c-.1188.0759-.17.2616-.2522.3962Zm6.868,33.9714a1.42,1.42,0,0,0-.1922-.251c-.76-.5157-1.5166-1.0364-2.2911-1.5282a.4786.4786,0,0,0-.4585.0216,19.9427,19.9427,0,0,0-1.3676,1.5864c-.0917.12.0021.3866.01.5857a4.2781,4.2781,0,0,0,.5309-.1608c1.1086-.4934,2.2165-.95,3.4238-.3039A1.32,1.32,0,0,0,70.107,73.6436ZM34.847,32.9355c.7839-.1792,1.4761-.3295,2.1628-.5016a1.26,1.26,0,0,0,.3464-.2319,1.7044,1.7044,0,0,0-.4231-.1814,3.3757,3.3757,0,0,0-.59.0141c0-.7408-.5585-.7738-1.0672-.873a4.9964,4.9964,0,0,0-.7723-.1568,8.1955,8.1955,0,0,0-.4269,1.6486A3.567,3.567,0,0,0,34.847,32.9355Zm32.4882-12.683c-.1661-.0947-.2575-.15-.3513-.2-.87-.4657-1.2621.0737-1.5643.779a3.217,3.217,0,0,0-.1262.493,1.1618,1.1618,0,0,0,.457-.0467c.46-.2687.9012-.5718,1.3491-.8626C67.1569,20.378,67.2124,20.3375,67.3352,20.2525Zm14.91,21.6662c-.0741-.1738-.1083-.3238-.1435-.324-.13-.0008-.3275.0038-.3785.0851-.3758.5987-.7275,1.2133-1.0718,1.8315-.0478.0858-.0137.2188-.0175.33.1059-.01.2678.0216.3092-.0362C81.3928,43.1777,81.8233,42.5363,82.2454,41.9187ZM52.4314,53.3228l-.2985-.4045-.8983.7125a4.1357,4.1357,0,0,0,.3033.3739C51.8344,53.8054,52.1117,53.5765,52.4314,53.3228ZM28.1756,75.6558a6.3758,6.3758,0,0,0,.5522-.9011c.0313-.0766-.1829-.2567-.2845-.3893-.2091.27-.4317.5311-.6123.82C27.8053,75.226,27.9835,75.3991,28.1756,75.6558Zm25.496-24.1445c-.4333.3449-.7779.617-1.1148.8986-.01.0085.0541.1655.0949.1713.2227.0314.5595.137.6516.0316a3.228,3.228,0,0,0,.4378-.8986C53.76,51.6682,53.7,51.588,53.6716,51.5113ZM73.9153,79.1784c.076-.2253.2132-.4244.1623-.5244a1.1333,1.1333,0,0,0-.485-.5031c-.0819-.0376-.2949.22-.4482.3433Zm-18.381-42.46-.2533-.0225c-.0388.2905-.0795.5808-.1083.8723a1.05,1.05,0,0,0,.18.0487ZM39.5,85.3l-.4351.4125c.0916.0544.2151.1764.2686.15a2.098,2.098,0,0,0,.3936-.3152ZM70.3078,51.4337l.4987-.4356a1.3608,1.3608,0,0,0-.1674-.1556,2.3292,2.3292,0,0,0-.3269.3219C70.284,51.1987,70.3078,51.2771,70.3078,51.4337ZM73.693,27.6131l.2692-.1843-.18-.2441c-.0692.0558-.1706.0994-.197.1714C73.5653,27.41,73.642,27.5007,73.693,27.6131Z"/></svg>