<svg id="Layer_1" data-name="Layer 1" xmlns="http://www.w3.org/2000/svg" width="47.3801" height="44.607" viewBox="0 0 47.3801 44.607"><defs><style>.cls-1{fill:#00cd9f;}.cls-2{fill:#2d2d2d;}</style></defs><path class="cls-1" d="M.3912,10.5284A14.0427,14.0427,0,0,0,7.007,25.9808c4.9511,2.6905,11.8577,2.2382,16.19-1.3184a12.3252,12.3252,0,0,0,4.4648-10.2312c-.3409-4.9926-4.6947-9.9783-9.2207-12.39-5.34-2.8459-12.093-.6015-15.678,3.7416A11.9579,11.9579,0,0,0,.3912,10.5284Z"/><path class="cls-1" d="M32.6861,21.3494A3.3194,3.3194,0,0,0,34.25,25.0021a3.5905,3.5905,0,0,0,3.8271-.3116,2.9134,2.9134,0,0,0,1.0555-2.4185,4.0533,4.0533,0,0,0-2.18-2.929,3.0945,3.0945,0,0,0-3.7061.8845A2.8264,2.8264,0,0,0,32.6861,21.3494Z"/><path class="cls-2" d="M10.2367,30.4447A2.9163,2.9163,0,0,0,10.18,32.14a6.4622,6.4622,0,0,1,.312,1.1672,4.7766,4.7766,0,0,0,1.0348,2.6508,11.4546,11.4546,0,0,0,1.2489,1.1072,6.8581,6.8581,0,0,1,.53.4783,13.7342,13.7342,0,0,0,1.1635,1.276,2.1674,2.1674,0,0,1,.7227,1.808c.002.1862.0172.3733.0044.5586a1.6582,1.6582,0,0,0,.1354.7335.7882.7882,0,0,1,.0019.8482.6.6,0,0,0,.0375.516,2.4408,2.4408,0,0,0,.4823.59.5666.5666,0,0,0,.357.1257c3.0865.0363,5.55.83,8.6262.5458a1.3143,1.3143,0,0,0,1.0443-1.4119c-.1678-.6584-.1863-2.0456.9031-2.12.4288-.0292.8571-.0662,1.286-.0933.1715-.0108.3441-.0026.5162-.0062a.2483.2483,0,0,1,.293.2687c.0128.2518.034.5039.0674.7538a3.111,3.111,0,0,1,.029,1.3505c-.1219.4181.3738.9458.8262.9549.2853.0058.5652.0384.8466.06a12.5008,12.5008,0,0,0,2.008.01c1.1968-.1023,2.3892-.2589,3.5809-.412.5557-.0714,1.1053-.1886,1.658-.2833,1.1427-.1957.6735-1.0109.5688-1.6991-.1028-.6759-.5268-3.7395.0327-4.1746a.92.92,0,0,0,.2641-.4239,1.3518,1.3518,0,0,1,.52-.6721,7.8407,7.8407,0,0,0,.7917-.6489,4.7168,4.7168,0,0,0,.7136-.7926c.4075-.6241.766-1.279,1.1518-1.9171A6.3662,6.3662,0,0,1,44.6948,30.57a4.4042,4.4042,0,0,1,1.4415-.5852c.4351-.0516,1.143.0993,1.2371-.5059a2.6321,2.6321,0,0,0-.1547-.7728c-.1182-.7771-.011-2.8144-.0073-3.8064a1.565,1.565,0,0,0-.0748-.82,1.2194,1.2194,0,0,0-.8586-.7623c-.6875-.0593-.94-.1586-1.4163-.1713-.542-.0145-.7077.1139-.8747-.39a16.2218,16.2218,0,0,0-1.1352-2.61A10.6672,10.6672,0,0,0,40.8424,17.34c-.5709-.5368-1.0915-1.125-1.6418-1.6833a1.0927,1.0927,0,0,1-.3163-.6168,3.28,3.28,0,0,1,.275-1.7307,1.9177,1.9177,0,0,1,.6718-.9926.9639.9639,0,0,0,.4606-1.0731c-.5446-1.0753-2.5419-.9015-3.6-.87-1.0847.0322-3.2719.6019-3.8407,1.6127-.1992.354-.2248.3542-.6125.2338a3.605,3.605,0,0,0-1.8524-.2927.5173.5173,0,0,1-.2834-.0936.2676.2676,0,0,0-.3583.0732c-.1657.1642-.4361.2587-.5345.4472a2.2782,2.2782,0,0,0-.0969.7317,1.046,1.046,0,0,1-.0813.3442c-.523,1.01.4664,2.5852.6416,3.6044.3556,2.07-.82,5.5789-1.9728,7.2668a9.8459,9.8459,0,0,1-5.7612,4.3727,23.5977,23.5977,0,0,1-7.46.963c-.2248-.0154-3.98-.772-3.98-.3341ZM37.5521,22.593a1.379,1.379,0,0,1-.6723.9748,1.4754,1.4754,0,0,1-2.2456-1.44,1.8475,1.8475,0,0,1,1.7945-1.5558C37.37,20.5368,37.7543,21.6838,37.5521,22.593Z"/><path class="cls-2" d="M25.2269,14.3389a10.9572,10.9572,0,0,0-.0647-1.4166c-.1083-.6383-.2939-1.2631-.4576-1.89-.0614-.235-.1595-.4592-.2316-.6914a12.86,12.86,0,0,0-1.21-2.53,14.8014,14.8014,0,0,0-2.8866-3.3331,8.7467,8.7467,0,0,0-3.6048-2.227,4.5711,4.5711,0,0,0-4.6331,1.0755,9.3677,9.3677,0,0,0-1.0424,1.3763,3.6959,3.6959,0,0,0-.3628.5677.6784.6784,0,0,1-.9113.3774,3.2226,3.2226,0,0,1-1.3972-.7523.9918.9918,0,0,1-.1992-1.04,5.4081,5.4081,0,0,1,.437-1.01A5.7609,5.7609,0,0,1,10.6889.6661a3.96,3.96,0,0,1,2.26-.6641A8.523,8.523,0,0,1,14.613.2548a11.1531,11.1531,0,0,1,3.35,1.3662c.4548.283.9351.5211,1.389.8056.2934.184.55.43.84.6225a17.5878,17.5878,0,0,1,3.8532,3.6354,20.7224,20.7224,0,0,1,1.5682,2.198,6.7272,6.7272,0,0,1,.94,2.226c.0907.46.2934.8942.4219,1.3473a2.9485,2.9485,0,0,1,.094.6739,3.9357,3.9357,0,0,0,.3563,1.7936,1.67,1.67,0,0,1,.154.8069c-.0261.96-.0721,1.92-.1442,2.8777a2.0277,2.0277,0,0,1-.3932,1.232.325.325,0,0,0-.0724.1765,8.9181,8.9181,0,0,1-.8586,2.233c-.1133.3326-.3206.6286-.4661.9508a3.8193,3.8193,0,0,1-1.3773,1.63,2.3375,2.3375,0,0,0-.8295.6841c-.2816.5473-.792.705-1.2316.96a8.931,8.931,0,0,1-1.48.5894c-.25.09-.5136.1389-.7687.2148a10.73,10.73,0,0,1-3.4823.3427c-.6243-.0223-1.2524.0269-1.8739-.0238-.6023-.0491-1.1989-.1814-1.7969-.2837-.46-.0787-.9183-.1643-1.3762-.2539a2.7642,2.7642,0,0,1-.4513-.1248c-.7487-.2845-1.5117-.5371-2.2371-.8768a8.4934,8.4934,0,0,1-1.62-.98c-.9885-.7717-1.9708-1.5609-2.8863-2.4233a10.35,10.35,0,0,1-2.7276-3.9325,9.3805,9.3805,0,0,1-.4261-2.4471,16.986,16.986,0,0,1,.2648-3.7A9.699,9.699,0,0,1,1.88,10.8077a10.53,10.53,0,0,1,.4955-1.3668,7.7879,7.7879,0,0,1,1.33-1.995,1.0192,1.0192,0,0,1,.8622-.422,2.801,2.801,0,0,1,.9911.41,7.0014,7.0014,0,0,1,.9.7817.7876.7876,0,0,1,.1874.2752.3948.3948,0,0,1-.2.5705,3.1745,3.1745,0,0,0-1.46,1.5838,13.2228,13.2228,0,0,0-1.3144,3.54,22.4755,22.4755,0,0,0-.406,2.4521,3.9888,3.9888,0,0,0,.0238.9243c.0679.6141.1275,1.2326.25,1.8364a4.9094,4.9094,0,0,0,1.929,2.9752c.5039.3867.9892.8065,1.5213,1.1454a10.6792,10.6792,0,0,0,3.7485,1.4993,25.4505,25.4505,0,0,0,2.9674.4711,26.219,26.219,0,0,0,3.1833-.0313,8.887,8.887,0,0,0,1.7072-.2862,10.4591,10.4591,0,0,0,2.057-.7678A7.3911,7.3911,0,0,0,23.23,22.19a9.6762,9.6762,0,0,0,1.3946-2.6976A12.8924,12.8924,0,0,0,25.2269,14.3389Z"/><path class="cls-2" d="M12.9451,17.5833a1.7321,1.7321,0,0,1,.0254-.4263,1.5486,1.5486,0,0,0,.0207-.9088,1.0091,1.0091,0,0,1,.083-.5149c.1693-.5437.1471-.6334-.3791-.833a9.3493,9.3493,0,0,1-2.6245-1.5756,2.266,2.266,0,0,1-.5381-2.553,2.029,2.029,0,0,1,1.1507-1.01,6.2913,6.2913,0,0,1,1.8237-.5326c.7906-.0923.855-.17.9147-.9629.0441-.5845.0375-1.1727.0746-1.758a2.7531,2.7531,0,0,1,.3125-1.2655A.4057.4057,0,0,1,14.33,5.02a2.51,2.51,0,0,1,1.341.831,5.2051,5.2051,0,0,1,.433.5925.8893.8893,0,0,1,.0961.7812,10.5694,10.5694,0,0,0-.2522,1.4844.2235.2235,0,0,0,.2168.2705,4.2007,4.2007,0,0,0,.4376.0487A3.8142,3.8142,0,0,1,18.99,10.0307a1.4585,1.4585,0,0,1,.517.9165c.0226.1481-.0327.22-.1774.22a.9629.9629,0,0,1-.3879-.0248,3.1526,3.1526,0,0,0-1.4914-.095c-.3588.0046-.7175.0177-1.0761.03-.51.0174-.5816.1-.5939.6018-.012.4891-.0412.9778-.0683,1.4663-.0218.3947.01.4545.378.4457a4.1836,4.1836,0,0,1,1.8015.4057,4.0757,4.0757,0,0,1,1.3367,1.194,3.9441,3.9441,0,0,1,.7281,1.4775,1.5908,1.5908,0,0,1-.1623,1.1819,2.9749,2.9749,0,0,1-1.8071,1.5482c-.6.2052-1.2195.3558-1.8364.5055-.6093.1478-.6005.1337-.5879.7871.0145.75.0045,1.5008.005,2.2512,0,.0164-.0008.0327-.0016.049-.0341.6618-.4158.671-.7927.3719-.5079-.403-1.0382-.7791-1.53-1.2a2.7538,2.7538,0,0,1-.4974-.66.58.58,0,0,1-.0211-.7172c.1795-.2576.0957-.3813-.1938-.5128a7.3076,7.3076,0,0,1-2.39-1.665,2.0094,2.0094,0,0,1-.3394-.5834A4.0876,4.0876,0,0,1,9.59,17.327c-.0274-.1216-.03-.3062.1586-.2838a1.4908,1.4908,0,0,1,.9614.2716,2.0817,2.0817,0,0,0,.7675.5108,8.0369,8.0369,0,0,0,1.3859.201c.04.0043.121-.1206.136-.195A.6737.6737,0,0,0,12.9451,17.5833Zm2.7165-.2874c-.0708.3495-.0214.4.285.2434.3873-.1982.7551-.4364,1.1217-.6724a1.1753,1.1753,0,0,0,.4608-.8307c.0678-.3368.034-.4158-.2965-.4777a7.91,7.91,0,0,0-1.0156-.1142c-.47-.0262-.5944.0673-.6133.5414C15.5864,16.421,15.64,16.859,15.6616,17.2959Zm-2.4045-4.9073c-.0059-.1172-.0069-.1657-.011-.214-.0232-.2675-.1038-.3214-.3249-.1905a1.4049,1.4049,0,0,0-.6453.8182c-.026.0863.02.2752.0691.2892a1.9629,1.9629,0,0,0,.6436.0886c.2036-.0124.2056-.2192.2267-.3777S13.248,12.4815,13.2571,12.3886Z"/></svg>