<svg id="Layer_1" data-name="Layer 1" xmlns="http://www.w3.org/2000/svg" width="44.2301" height="45.7116" viewBox="0 0 44.2301 45.7116"><defs><style>.cls-1{fill:#2d2d2d;}.cls-2{fill:#fff;}.cls-3{fill:#00cd9f;}</style></defs><path class="cls-1" d="M32.8364,35.4627a6.8569,6.8569,0,0,1-.9094.753,28.6316,28.6316,0,0,1-4.4256,2.1629,23.8777,23.8777,0,0,1-6.1105,1.4924,18.9674,18.9674,0,0,1-6.3239-.613,10.9449,10.9449,0,0,1-2.9836-1.48,11.7332,11.7332,0,0,1-2.7111-2.3622A12.3526,12.3526,0,0,1,7.5032,32.3a14.5046,14.5046,0,0,1-1.102-3.442c-.14-.8348-.232-1.6835-.42-2.5038a24.0775,24.0775,0,0,1-.2568-2.9985A5.8163,5.8163,0,0,1,5.8207,22.18c.05-.4669.1106-.9323.1673-1.3983.0261-.2142.0384-.4325.0836-.6413a28.9329,28.9329,0,0,1,1.59-5.1348c.2621-.6208.6165-1.1906.9312-1.782a2.41,2.41,0,0,0,.328-.9768,2.0641,2.0641,0,0,1,.3695-.8981,17.7363,17.7363,0,0,1,1.2245-1.688,12.7167,12.7167,0,0,1,1.2889-1.2827,2.5818,2.5818,0,0,1,2.206-.617,1.4728,1.4728,0,0,0,1.1359-.2234,3.218,3.218,0,0,1,1.3519-.5666c.2857-.0413.5552-.22.841-.2721A8.5583,8.5583,0,0,1,19.03,6.4772c1.2588.026,2.52.0826,3.7735.217a31.7881,31.7881,0,0,1,6.1347,1.05,15.25,15.25,0,0,1,2.6525.9834,11.92,11.92,0,0,1,2.8852,2.18,14.9688,14.9688,0,0,1,2.5034,3.9009,17.6946,17.6946,0,0,1,1.4159,3.7447,8.6324,8.6324,0,0,1,.1516,1.1055,8.1013,8.1013,0,0,0,.1761,1.5168c.1293.406.3283.7534.1456,1.1924a1.0231,1.0231,0,0,1,.1729.7074c-.0344.6887-.0512,1.3786-.1472,2.07l-.0564-1.0732a25.4177,25.4177,0,0,1-.9553,4.4735,20.4821,20.4821,0,0,1-1.9847,3.8812l.26-.2382.057.0335a1.4129,1.4129,0,0,1-.1417.3058A15.3051,15.3051,0,0,1,33.4361,35.19a3.2333,3.2333,0,0,1-.6165.2921l.4176-.5444L33.14,34.83l-.7477.7045Z"/><path class="cls-1" d="M40.4231,32.935a2.8025,2.8025,0,0,1,.9594-2.3475q.1174-.08.2356-.16c.26-.1761.5291-.3582.7868-.5555a3.349,3.349,0,0,0,1.2272-1.9144c.0987-.4168.1625-.8421.2244-1.2535.0388-.2594.0791-.5276.1273-.7868a5.5165,5.5165,0,0,0-.5845-3.3581,11.24,11.24,0,0,0-.57-1.0378c-.0619-.1038-.1245-.2089-.1871-.3163a10.3941,10.3941,0,0,0,1.4445-2.8373,2.27,2.27,0,0,0,.0179-1.5308A3.5923,3.5923,0,0,0,41.29,14.4342c-.1908-.0379-.3921-.0805-.581-.1363-.565-.1708-.5758-.1741-.5268-.85.013-.1775.0272-.3549.0416-.5321a10.692,10.692,0,0,0-.0964-3.4327,2.0639,2.0639,0,0,0-1.8929-1.8543c-.4508-.0625-.908-.0929-1.35-.1224-.2047-.0135-.4094-.0273-.6137-.0439a2.5993,2.5993,0,0,1-2.0637-1.01c-.0856-.1192-.1771-.2341-.2655-.3454a2.0241,2.0241,0,0,1-.6165-1.3309,3.2224,3.2224,0,0,0-.8355-2.1512A2.4074,2.4074,0,0,0,29.58,1.7084,5.7357,5.7357,0,0,0,27.7433,2.727c-.4345.3369-.7021.2409-.9071.1028-.106-.0717-.2128-.1426-.32-.2137a10.8469,10.8469,0,0,1-1.3736-1.02A6.9005,6.9005,0,0,0,22.9648.2376,3.1625,3.1625,0,0,0,18.99,1.6858a5.6321,5.6321,0,0,1-.6955.9482c-.3956.4375-.7113.3976-.9141.3281l-.2716-.0914c-.433-.1452-.8806-.2953-1.3045-.47a4.354,4.354,0,0,0-2.04-.4161c-.3641.03-.7378.0472-1.0992.0641-.2776.013-.5647.0264-.8485.0455A3.1722,3.1722,0,0,0,9.1106,4.6573c-.0248.1423-.0595.2844-.096.4346a5.6816,5.6816,0,0,0-.1258.6157A2.93,2.93,0,0,1,7.8861,7.6711a1.9,1.9,0,0,1-.9785.5385,3.2474,3.2474,0,0,1-.6745.0588,2.6771,2.6771,0,0,0-1.5021.4329,2.779,2.779,0,0,0-1.4452,2.586c.0232.2259.05.4514.0768.6768.0521.4384.1061.8917.13,1.3351A4.7967,4.7967,0,0,1,3.41,14.53c-.0753.36-.1763.7256-.274,1.0795-.105.3805-.2136.774-.2942,1.1714a.9418.9418,0,0,1-.5693.7144c-.1354.0678-.2746.1277-.4221.191s-.3028.13-.4545.206A1.5786,1.5786,0,0,0,.3942,19.4274a7.024,7.024,0,0,0,1.1729,3.7261,1.5067,1.5067,0,0,1,.2918,1.34,7.0543,7.0543,0,0,1-.4235,1.1177c-.2291.5054-.4718,1.0164-.7063,1.5106q-.2352.4949-.4676.9911a2.6552,2.6552,0,0,0,.4555,2.94,4.2593,4.2593,0,0,0,1.8068,1.2955c.4769.2081.58.3643.6024.4218a4.78,4.78,0,0,1,.3906,2.0447c-.0873,1.5372-.56,2.7286.5037,3.8156a5.1662,5.1662,0,0,0,3.51.9664,5.7012,5.7012,0,0,1,2.6185.6193,1.3549,1.3549,0,0,1,.3982.4563c.6222.9785.8039,1.1489,1.4366,2.1207a4.88,4.88,0,0,0,2.0484,1.6187,1.6651,1.6651,0,0,0,.282.11,1.4385,1.4385,0,0,0,.5659.0525q.228-.0281.4574-.0548c1.0464-.1241,1.8664-1.0822,2.8915-1.2873,1.1736-.2347,2.6567,1.52,3.6467,2.0753a4.0545,4.0545,0,0,0,2.0283.3972c.09.0015.1791.003.2687.0054,1.2773.0335,1.567-1.2276,2.136-2.0945.878-1.3376,2.5-1.249,3.85-.5632,1.2912.656,2.4977.764,3.5171-.4743a3.1989,3.1989,0,0,0,.8352-1.9769c.0229-.728-.9167-1.9575-.276-2.5953,1.3489-1.3408,3.9027.3086,5.2634-.9431C40.5409,36.1048,40.3427,34.4081,40.4231,32.935Z"/><path class="cls-2" d="M5.2638,24.7661c.2867,3.732.6614,7.6008,2.6269,10.89,5.5121,9.2253,21.4665,3.519,27.129-2.7863a9.3726,9.3726,0,0,0,2.06-3.0406c.9136-2.5176,1.7009-4.2887,1.7627-7.032a20.6444,20.6444,0,0,0-1.434-8.5314C35.352,9.408,31.3667,7.0438,26.342,6.26c-1.2982-.2026-2.6131-.276-3.9217-.3953A17.5172,17.5172,0,0,0,11.6559,9.039c-2.5873,1.87-3.6306,5.2617-4.798,8.0824A21.6272,21.6272,0,0,0,5.2638,24.7661Z"/><path class="cls-1" d="M7.949,24.5349c.0719.9646.1286,1.9311.2188,2.8934a16.1806,16.1806,0,0,0,1.4638,5.53,8.45,8.45,0,0,0,3.0176,3.8032,6.7225,6.7225,0,0,0,2.7792,1.0619,21.3673,21.3673,0,0,0,7.26-.4028c1.2415-.2949,2.3976-.8416,3.6023-1.2348a1.1435,1.1435,0,0,0,.222-.1464,1.7924,1.7924,0,0,1,.451-.2736,7.1768,7.1768,0,0,0,1.74-.8784,16.1576,16.1576,0,0,0,4.26-3.33,8.1391,8.1391,0,0,0,1.7316-2.6347c.2582-.7334.5714-1.441.8394-2.17A6.1928,6.1928,0,0,0,36,25.2557a15.17,15.17,0,0,0,.24-3.4734,13.3686,13.3686,0,0,0-.2463-2.52c-.1575-.4773-.2014-1.0025-.342-1.4889a20.2164,20.2164,0,0,0-.802-2.6184A14.29,14.29,0,0,0,33.3,12.4962a8.03,8.03,0,0,0-2.7843-2.5973,16.5367,16.5367,0,0,0-4.847-1.4c-1.0915-.1755-2.1971-.2391-3.2971-.3425a9.9733,9.9733,0,0,0-4.0041.41,2.803,2.803,0,0,0-1.4551.8635,1.4207,1.4207,0,0,1-.8687.5513,2.8009,2.8009,0,0,1-1.3613.1928.8464.8464,0,0,0-.65.27,15.7215,15.7215,0,0,0-1.2111,1.294,22.1883,22.1883,0,0,0-3.5327,6.1729A19.2336,19.2336,0,0,0,7.949,24.5349Z"/><path class="cls-1" d="M35.287,33.2176,35.1753,33.1l-.4219.4949.091.1041Z"/><path class="cls-1" d="M38.98,23.2944c-.0968.0765-.1456.098-.1451.118a.8631.8631,0,0,0,.0359.1718Z"/><path class="cls-3" d="M21.068,30.2093c-1.2117,1.2434-2.3609,2.4181-3.5042,3.5976a12.0232,12.0232,0,0,0-1.7886,2.169.83.83,0,0,1-1.1784.2716,5.0886,5.0886,0,0,1-.9379-.6658c-.35-.3091-.318-.4247-.0431-.7931a2.3281,2.3281,0,0,0,.5445-1.5049c-.0031-.0721-.0223-.1746.02-.2123.261-.2345.1689-.5383.2008-.8158a16.0874,16.0874,0,0,1,.7054-2.9321c.3376-1.0846.59-2.1923.8763-3.2908a.6393.6393,0,0,0-.31-.7571c-.79-.5573-1.54-1.1617-2.3188-1.7325a4.3757,4.3757,0,0,0-1.8311-.81c-.0758.09-.1505.1688-.2142.255a.6022.6022,0,0,1-.7249.2253A4.191,4.191,0,0,1,8.5045,22.18a1.25,1.25,0,0,1-.286-.4542c-.0542-.2138.0411-.3528.3288-.4129,1.0218-.2137,2.0287-.4853,3.0506-.6979,1.2337-.2566,2.4761-.48,3.7165-.7091.7544-.1394,1.51-.2789,2.27-.3862a.5218.5218,0,0,0,.4886-.4c.1215-.4037.2425-.8078.354-1.2141.1988-.724.3913-1.45.5845-2.1749a9.095,9.095,0,0,0,.2551-1.0088,12.99,12.99,0,0,1,.844-2.7835c.1054-.273.1853-.5546.273-.8333a1.0294,1.0294,0,0,1,.8549-.747,3.4326,3.4326,0,0,1,1.9222-.0625c.5974.2379.6783.3552.6006.9576a.9827.9827,0,0,0-.0018.3246q.4021,1.8843.817,3.7663c.1875.8426.3888,1.6827.5874,2.5233.0415.1754.0982.3479.1566.5519.1891-.0022.3432.0021.4963-.0068q2.3725-.1382,4.7447-.28a1.6756,1.6756,0,0,0,.8346-.2327,2.0478,2.0478,0,0,1,1.8023-.2042c.6287.2,1.2944.2963,1.9381.4583.4771.12.9491.2616,1.4157.4139a.7057.7057,0,0,1,.4849.5834.3853.3853,0,0,1-.3292.502,3.7876,3.7876,0,0,1-1.167.0779,4.7259,4.7259,0,0,0-3.7894.8507c-.077.0564-.1944.1085-.2144.1814-.1193.4364-.567.5805-.86.8613-.2121.2032-.3736.4516-.5883.652a2.2972,2.2972,0,0,1-.6347.4541c-.2842.1216-.5924.1784-.688.51a.42.42,0,0,1-.1439.1712c-.42.3518-.8373.706-1.266,1.0483a.9028.9028,0,0,0-.3994,1.04c.5956,2.3522,1.13,4.7169,1.7109,7.0723a5.7784,5.7784,0,0,0,.4882,1.1749,1.2136,1.2136,0,0,0,.3831.3355c.3261.2413.6582.4757.989.7115a.3488.3488,0,0,1,.0965.53.9235.9235,0,0,1-.6728.4878,10.7131,10.7131,0,0,1-1.2862.174,1.01,1.01,0,0,1-.5836-.22c-.828-.63-1.6356-1.2836-2.4545-1.9244-.2271-.1777-.4783-.33-.7014-.5113-1.1024-.8973-2.1984-1.8013-3.2987-2.7008C21.4681,30.5,21.2972,30.381,21.068,30.2093Zm-.39-3.3142a3.41,3.41,0,0,1,.4188-.6256c.8085-.7439,1.6333-1.4729,2.4607-2.1991a.5721.5721,0,0,0,.2121-.6365c-.0777-.28-.14-.5644-.1989-.8485-.1083-.52-.2046-1.0423-.3154-1.5619-.0594-.2783-.2376-.3942-.5588-.3507-.6264.0848-1.2551.1606-1.8857.2142a.6787.6787,0,0,0-.6966.54c-.3355,1.1793-.6884,2.3551-1.0749,3.5206a.6451.6451,0,0,0,.2608.81c.4037.3225.7791.6749,1.1708,1.01A1.3427,1.3427,0,0,0,20.6784,26.8951Zm3.9442.239-.162-.0434L22.798,28.6652l2.4094,2.1038ZM17.276,21.4747a9.5027,9.5027,0,0,0-2.8292.4419l2.3577,1.5666A7.61,7.61,0,0,0,17.276,21.4747Zm3.6249-2.5023,1.8562-.2124c-.1706-.5435-.319-1.0141-.466-1.485a5.9756,5.9756,0,0,0-.4377-1.3837A14.99,14.99,0,0,0,20.9009,18.9724ZM26.05,21.6316l.17.0712c.4845-.5906,1.2653-.8742,1.7444-1.47l-.0492-.1193-2.1721.2492ZM17.6084,30.04l.154.0868A11.4849,11.4849,0,0,0,19.24,28.5552l-.9715-.7929Z"/></svg>