<svg id="Layer_1" data-name="Layer 1" xmlns="http://www.w3.org/2000/svg" width="211.3352" height="174.6837" viewBox="0 0 211.3352 174.6837"><defs><style>.cls-1{fill:#ffc6d9;}.cls-2,.cls-3,.cls-4{fill:#2d2d2d;}.cls-3,.cls-4{stroke:#2d2d2d;stroke-miterlimit:10;}.cls-3{stroke-width:1.6383px;}.cls-4{stroke-width:1.3251px;}</style></defs><path class="cls-1" d="M11.0893,10.4477a2.7213,2.7213,0,0,0-1.2628,1.0568c-1.6878,2.7184.58,8.91.7951,11.7329,1.1214,14.7032.6159,29.8316,1.061,44.6034.543,18.0229,1.7441,36.4511,2.6948,54.4173.41,7.7545.4851,15.7716,1.2759,23.4213.37,3.58.1914,7.6333,4.1593,9.168,2.05.7929,4.2746.4634,6.349.2445,14.8975-1.5723,30.1574,1.01,45.0759,2.31,9.6716.8432,19.5824.3738,29.43-.0812,18.32-.8465,36.7542-.7435,55.0291-1.5936,8.272-.3848,16.7439-1.0372,24.5957-3.7211,5.796-1.9811,13.322-6.0036,13.1353-12.6369-1.1715-41.6264,3.5689-90.06,11.9336-132.846.7831-4.0054,2.0659-7.4063-2.8852-6.3183a456.3333,456.3333,0,0,1-67.6831,9.7235c-26.5442,1.7473-53.7385.8766-80.3555,1.3349-8.0182.1381-16.1284,0-24.176-.2862-3.9953-.1423-8.0146-.3626-12.0258-.5847C16.5537,10.3,13.1574,9.5422,11.0893,10.4477Z" transform="translate(0)"/><path class="cls-2" d="M98.4971,120.43a2.8358,2.8358,0,0,1-.8886-3.0024,23.512,23.512,0,0,0,.402-4.4051,15.04,15.04,0,0,1,.41-4.07,1.1665,1.1665,0,0,0,.0259-.4284,21.7137,21.7137,0,0,1,.044-4.6409,65.8337,65.8337,0,0,0,.32-6.68,15.8533,15.8533,0,0,1,.1754-2.5938,1.9129,1.9129,0,0,1,.7211-1.5912,1.0172,1.0172,0,0,0,.2822-.6648,3.854,3.854,0,0,0-.6067-3.1405.931.931,0,0,1-.1356-.5011,23.1488,23.1488,0,0,1-.14-3.1249,20.5518,20.5518,0,0,1,.213-3.001,31.0518,31.0518,0,0,0,.393-3.6575c.0246-.2512.0387-.5047.083-.7519.014-.0779.1291-.207.1661-.1954.1635.0513.3093.404.48.0779.0836-.1594-.0074-.4151.01-.6243.0421-.4991.1163-.9955.1433-1.4952.0061-.1138-.1269-.2368-.1959-.3556-.0493.117-.1041.2318-.1463.3518a2.5682,2.5682,0,0,1-.0886.3059.199.199,0,0,1-.163.0859.24.24,0,0,1-.1557-.108.6552.6552,0,0,1-.0559-.2063c-.2445-1.1031-.2452-1.1105-1.3423-.98-2.0519.2447-4.1028.467-6.14.863-1.8592.3613-6.33.532-8.2051.8108-1.9095.2839-3.8081.65-5.711.9827a2.8808,2.8808,0,0,1-.5948.1283c-1.8912-.0941-3.6886.5176-5.5285.802-1.9447.3006-3.8841.64-5.8239.9746-.8323.1436-1.6552.3539-2.49.4719-1.6105.2276-3.2277.4034-4.84.6162-.8066.1065-1.6088.2491-2.4135.372a.7908.7908,0,0,0-.7333.8656c-.0192.6146-.0461,1.23-.1046,1.8416-.0893.9325-.1613,1.8715-.3265,2.79a18.3744,18.3744,0,0,0,.0377,3.8863c.0255.8273.0014,1.6561.0057,2.4842.0059,1.1206.0314,2.2413.0226,3.3615-.0065.8308-.0479,1.6614-.0849,2.4915-.1209,2.71-.2413,5.419-.376,8.1276-.0249.5005-.1143.9972-.1771,1.4952-.0405.3217-.1046.6412-.1266.9642-.0418.6128-.0168,1.2345-.0994,1.84a9.9205,9.9205,0,0,0-.051,3.099,19.3753,19.3753,0,0,1,.031,3.6839c-.0226.8978-.1177,1.7929-.1665,2.69q-.2211,4.0615-.4284,8.124c-.0109.2128-.06.49.0395.6323.8123,1.1549.63,2.4122.448,3.7-.1308.9241-.1619,1.8654-.2227,2.8-.07,1.079-.1178,2.16-.1871,3.2387a2.5284,2.5284,0,0,1-2.6232,2.154,5.1969,5.1969,0,0,0-1.9-.0054,3.2574,3.2574,0,0,1-1.2738-.19c-1.2663-.3645-1.862-1.4828-2.4427-2.5911a1.5278,1.5278,0,0,1-.1086-.7343c.0733-1.7343.1547-3.4684.2559-5.201a5.3151,5.3151,0,0,1,.21-1.1635,9.2191,9.2191,0,0,0,.2669-3.4081,18.8361,18.8361,0,0,1,.11-4.7451c.1855-1.1265.0354-2.3165.2138-3.4453.3962-2.5066-.1476-5.0624.39-7.55.0735-.34.2543-.6513.3487-.9878a2.083,2.083,0,0,0,.1564-.93,3.1427,3.1427,0,0,1-.0617-1.9891,22.9955,22.9955,0,0,1,.0414-4.5339,6.6772,6.6772,0,0,1-.011-.7567,2.2221,2.2221,0,0,1,.2286-.9086,1.778,1.778,0,0,0,.2216-1.4336,13.9479,13.9479,0,0,1,.0305-5.6965,20.6271,20.6271,0,0,0,.3331-2.2428,3.2322,3.2322,0,0,0-.0613-.9668,6.7691,6.7691,0,0,1-.0943-3.6357,1.581,1.581,0,0,0-.0115-.4252c.0252-1.0106.0482-2.0214.0845-3.0315.0182-.5051.0966-1.01.085-1.5133-.0092-.397-.2062-.6886-.6431-.6677a8.3313,8.3313,0,0,0-.9136.0443c-2.0093.32-4.01.711-6.0265.9689-2.22.2839-4.4562.4267-6.6811.6736-2.3921.2653-4.7782.59-7.1688.87-1.4441.1691-2.8923.3-4.3381.4531-1.1131.1178-2.2235.2689-3.3385.3605-2.9731.2441-5.948.4638-8.9221.6938-1.1479.0887-2.2971.1632-3.4431.2738-.8171.0788-.8811.1658-1.0427,1.0193-.1363.72-.382.9-1.062.7024a5.641,5.641,0,0,1-.9346-.417c-.2758-.1389-.5286-.3376-.812-.4508C1.212,86.9454.279,85.247.0267,83.045A1.9738,1.9738,0,0,1,2.27,80.5572c1.7573.0618,3.5192-.0442,5.279-.08a5.86,5.86,0,0,1,.8119-.0307,18.9934,18.9934,0,0,0,4.9661-.2453,1.0382,1.0382,0,0,0,.3014-.0414c1.586-.7676,3.272-.3916,4.9174-.4833.5041-.0281,1.0043-.1277,1.5063-.195.7341-.0984,1.4658-.2434,2.203-.2854,1.181-.0674,2.3663-.0529,3.5486-.1018a1.4544,1.4544,0,0,1,1.2275.3474.504.504,0,0,0,.8127-.046,2.7969,2.7969,0,0,1,2.0791-.9836c1.3529-.1274,2.68-.3872,4.0155-.6167.4329-.0744.8787-.0649,1.3184-.0974.8082-.06,1.616-.1737,2.4243-.173a17.9972,17.9972,0,0,0,4.8671-.9613,13.4455,13.4455,0,0,1,3.2156-.4354,5.6454,5.6454,0,0,0,2.1427-.6112,1.0387,1.0387,0,0,0,.6346-1.0039c.054-1.0429.0973-2.0866.164-3.1285a2.4519,2.4519,0,0,1,.1689-.7276,2.574,2.574,0,0,0-.0542-2.275,2.2282,2.2282,0,0,1-.0712-1.0338c.0147-.3555.1984-.7393.1178-1.0564-.4032-1.5873-.0407-3.1719-.0778-4.755a19.316,19.316,0,0,1,.3541-3.5423,1.1191,1.1191,0,0,0-.0171-.62,3.2685,3.2685,0,0,1-.1906-1.9076,4.996,4.996,0,0,0,.0073-1.36,1.7127,1.7127,0,0,1,.3155-1.4315,1.0906,1.0906,0,0,0,.2433-.6853c-.0535-.9353-.1418-1.87-.26-2.7989-.0323-.2549-.14-.4689.0733-.6915a.5984.5984,0,0,0,.0319-.9393.3446.3446,0,0,1-.0435-.2467c.5371-.28.1917-.7069.1247-1.0438a23.8346,23.8346,0,0,1-.3521-6.8854,7.7344,7.7344,0,0,1,.3731-1.9973,3.1849,3.1849,0,0,0-.0012-2.2255,4.0938,4.0938,0,0,1-.1394-1.4933c.0636-1.588.1687-3.1739.2622-4.76a1.5774,1.5774,0,0,1,.0745-.3095c.3364-1.2415.6794-2.4811,1.0081-3.725A2.29,2.29,0,0,1,52.0191,23.12a5.7031,5.7031,0,0,1,1.8764-.3566,10.04,10.04,0,0,1,3.4748.75,1.383,1.383,0,0,1,.9865,1.4711,4.7918,4.7918,0,0,1-.4148,1.76,12.8167,12.8167,0,0,0-1.1331,4.58c-.1578,1.7275-.36,3.45-.5045,5.1789-.069.8257-.06,1.66-.0679,2.4908-.0123,1.2278.0192,2.4569-.0183,3.6835-.0609,1.9853-.1641,3.969-.2454,5.9535a2.6644,2.6644,0,0,0,.015.7567,14.2515,14.2515,0,0,1,.143,3.9918,2.1675,2.1675,0,0,0-.0154.433c.3191,1.7-.0947,3.3819-.08,5.0741.0134,1.5549.019,3.11.0012,4.6647-.0074.6434-.1167,1.2852-.1227,1.9286-.0091.9717.0259,1.9444.0537,2.9164a9.3926,9.3926,0,0,1,.066,1.5085,18.1863,18.1863,0,0,0,.0988,4.1118c.054.6143.12.6629.71.6006.8754-.0925,1.7477-.2168,2.6219-.3227a23.5257,23.5257,0,0,0,3.2076-.4091,31.4256,31.4256,0,0,0,5.0043-1.3235,2.18,2.18,0,0,1,1.3909-.1132,3.8286,3.8286,0,0,0,2.4061-.0739,30.3671,30.3671,0,0,1,4.6656-.8035,20.1964,20.1964,0,0,1,2.1217-.2258,1.9973,1.9973,0,0,0,1.3876-.547,1.47,1.47,0,0,1,.8232-.3746c1.1052-.1572,2.2185-.2494,3.3252-.3956,1.04-.1374,2.0724-.3363,3.113-.4654,1.611-.2,5.8054-.3585,7.4009-.6473a16.24,16.24,0,0,1,3.8443-.1341,1.6932,1.6932,0,0,0,1.8316-1.6793c.1293-1.8006.1853-3.6077.2651-5.4124.0159-.3609-.0376-.73.0118-1.0834a1.7314,1.7314,0,0,1,.2959-.7627c.6484-.8743.6764-.9555.1217-1.8664a.6125.6125,0,0,1-.03-.6839,4.7754,4.7754,0,0,0,.4539-3.17,9.0272,9.0272,0,0,1-.0707-1.514c-.0365-.9006-.1031-1.8013-.1027-2.7017a15.5656,15.5656,0,0,1,.15-1.8307,1.6487,1.6487,0,0,0-.4372-1.5731,2.0258,2.0258,0,0,1-.4168-1.6194c.1036-4.4849.2279-8.9692.3112-13.4546.0193-1.0423-.1012-2.0877-.1434-3.1323a3.9085,3.9085,0,0,1,.04-.97,10.9347,10.9347,0,0,0-.171-4.6212,1.6828,1.6828,0,0,1,.8039-2.1834,6.8428,6.8428,0,0,1,2.6609-.9935,2.2291,2.2291,0,0,1,.8926.1553,14.7958,14.7958,0,0,1,1.9719.4421,2.489,2.489,0,0,1,1.3928,2.3043c-.1162,1.6209-.3035,3.2355-.43,4.8556-.135,1.7276-.23,3.4589-.3512,5.1879-.04.5758-.0849,1.1534-.1687,1.7231a25.0121,25.0121,0,0,0-.2,5.7187A5.9078,5.9078,0,0,1,106.82,41a40.78,40.78,0,0,0-.1132,5.09c.0152.6847-.0276,1.3711-.0553,2.0562a39.8431,39.8431,0,0,0-.002,4.652c.1493,1.974.0084,3.9733-.0328,5.9609-.0443,2.1331-.1254,4.2652-.1735,6.3982A6.3026,6.3026,0,0,0,106.54,66.45c.0988.5269.2691.6107.7861.6045a3.1338,3.1338,0,0,1,.8871.086,2.817,2.817,0,0,0,2.5047-.3837.6164.6164,0,0,1,.4505-.1276,1.6647,1.6647,0,0,0,1.5345-.2852.7227.7227,0,0,1,1.0159.1106c.2411.3011.4143.1776.673-.03a1.7191,1.7191,0,0,1,1.9184-.1792c.5519.2714.9944.4177,1.4059-.2225.0807-.1255.3688-.112.5642-.1379,1.5066-.2.4538-.2792,1.9525-.5312a3.4888,3.4888,0,0,1,1.501.0134,1.6529,1.6529,0,0,0,1.7154-.4069c.6968-.853,1.5277-.6,2.3386-.5594.4657.0234.9205.2446,1.3882.3071a3.7572,3.7572,0,0,0,2.9307-.3766,4.35,4.35,0,0,1,2.7567-.5261c.3644.0151.7305.0274,1.0941.0078.5737-.0309,1.1456-.0936,1.7187-.1348a3.0173,3.0173,0,0,0,.7071-.028,4.8766,4.8766,0,0,1,3.0811.3354,7.1837,7.1837,0,0,0,1.4919.21c.0985.0089.3067-.1532.2975-.191-.1814-.7479.4061-.5676.6831-.576,1.6883-.0509,3.3445-.5364,5.0519-.3559.708.0748.8323-.1073.8427-.85a2.7753,2.7753,0,0,0-.0611-.7541,1.9078,1.9078,0,0,1-.0149-1.1562,2.989,2.989,0,0,0,.0063-.9667c-.0249-.718-.0795-1.4359-.0806-2.1537-.0018-1.2267.0248-2.4534.0476-3.68.0046-.2509.0648-.5008.0653-.7515a12.2225,12.2225,0,0,0-.0433-1.82,9.6313,9.6313,0,0,1-.0754-2.5781,3.8646,3.8646,0,0,0-.3206-2.1017,5.1315,5.1315,0,0,1-.2065-2.946c.0247-.43.0971-.857.1484-1.2853.0472-.393.1345-.7863-.2774-1.06a.5493.5493,0,0,1-.1259-.3969,7.8636,7.8636,0,0,1,.2037-2.8931,2.23,2.23,0,0,0,.1314-1.3637,12.148,12.148,0,0,1-.376-4.3918A41.9139,41.9139,0,0,0,146.7,27.48a1.9106,1.9106,0,0,1,1.0352-2.1233c.37-.1733.72-.3972,1.0775-.6005a.93.93,0,0,1,.9671-.08.7929.7929,0,0,0,.4891.0542,10.5716,10.5716,0,0,1,3.1125.2892,1.4188,1.4188,0,0,1,1.2441,1.2373,7.2342,7.2342,0,0,1,.0111,3.742,9.368,9.368,0,0,0-.2362,2.6843c.021,1.15-.1222,2.3025-.1921,3.4541a8.6546,8.6546,0,0,0-.0408.97c.1021,1.9487.2324,3.8959.32,5.8451a17.4926,17.4926,0,0,1-.0672,1.9422c-.0526.7892-.1825,1.5751-.193,2.3641-.0211,1.5854.0132,3.1721.0327,4.7581a4.0478,4.0478,0,0,0,.0805.6447,7.2208,7.2208,0,0,1,.1741,2.898.4282.4282,0,0,0,.0016.1083c.0676,1.6957.1161,3.3925.2111,5.0866.047.8377.0857.833.8376.8248,2.4039-.026,4.81-.0045,7.2113-.09,1.7544-.0626,3.5023-.2923,5.2559-.3947.943-.0551,1.892,0,2.8383.0073a2.3565,2.3565,0,0,0,.7022.0032,11.5933,11.5933,0,0,1,2.8134-.2914c1.569-.1079,3.106.24,4.6621.2051.203-.0046.4088.0413.6093.02a27.0612,27.0612,0,0,1,4.8746-.145,3.0885,3.0885,0,0,0,.5946-.1052,5.3835,5.3835,0,0,1,1.3-.1358,69.3378,69.3378,0,0,0,7.4223.178,21.2906,21.2906,0,0,1,4.0561.2648,15.5387,15.5387,0,0,0,1.9255.0715c.9768.0764,1.9512.1909,2.9256.3.5394.0606,1.0758.1517,1.6149.2159a7.6283,7.6283,0,0,1,4.636,2.2527,2.838,2.838,0,0,1,.37.51c.4866.7837.9963,1.5536,1.4423,2.363a3.7979,3.7979,0,0,1,.2356,3.3356,2.0912,2.0912,0,0,1-2.4093,1.3152,15.4386,15.4386,0,0,1-4.6947-1.2114,13.4111,13.4111,0,0,0-3.7788-.7773,34.0625,34.0625,0,0,0-4.5556-.2436c-1.7258-.0353-3.4529-.0265-5.1787.0009s-3.45.1215-5.1756.1489c-1.5895.0252-3.1816-.0453-4.7694.0141a16.5774,16.5774,0,0,1-3.1154-.1779.38.38,0,0,0-.1015.0035,31.8649,31.8649,0,0,1-5.2688.1618c-1.1769-.0531-2.3609.12-3.5428.1634-.4018.0147-.8063-.0728-1.21-.087a2.0186,2.0186,0,0,0-.896.0514,4.33,4.33,0,0,1-3.0355.1614,1.7662,1.7662,0,0,0-1.0728.1953,3.9014,3.9014,0,0,1-1.7823.2834c-1.591-.0218-3.1836.0164-4.7736.0816-.8041.033-.8984.1979-.8916,1.08a2.7683,2.7683,0,0,0,.0418.6491,21.1291,21.1291,0,0,1,.13,6.3518c-.0356.7144.0257,1.4342.0281,2.1516.0025.7537.0328,1.5121-.03,2.26a18.6746,18.6746,0,0,0,.2984,3.6666,7.6015,7.6015,0,0,1-.1537,3.6346,2.1492,2.1492,0,0,0,.0074,1.0575,21.8418,21.8418,0,0,1,.2594,5.8252,6.073,6.073,0,0,0,.1267,1.3934,10.6941,10.6941,0,0,1-.1754,4.2967,6.3393,6.3393,0,0,0-.0141,2.1464,5.3221,5.3221,0,0,1-.133,1.9255,3.186,3.186,0,0,0-.0738,1.2722,21.0269,21.0269,0,0,1,.189,5.503c-.159,1.6166-.1311,3.254-.255,4.8759-.0959,1.256-.3178,2.5-.4468,3.7538a14.1837,14.1837,0,0,0-.0924,2.1526,15.7674,15.7674,0,0,1-.1471,3.3491c-.2249,1.3846-.3534,2.788-.5057,4.1855a18.06,18.06,0,0,1-1.2306,4.5619,1.5538,1.5538,0,0,1-1.832.6355.73.73,0,0,0-.8271.0479,2.2376,2.2376,0,0,1-1.0625.2747,4.8113,4.8113,0,0,1-3.1126-1.83,3.16,3.16,0,0,1-.79-2.2638,3.59,3.59,0,0,1,.2454-1.019,9.1738,9.1738,0,0,0,1.025-3.4694c.1387-1.98.4751-3.9431.6695-5.92.0985-1.0011.0305-2.0206.1087-3.0252.0924-1.1873.2778-2.3656.3935-3.5512a34.6275,34.6275,0,0,0,.1773-5.6262c-.0838-1.2917-.0642-2.5939-.032-3.8895.0405-1.6244.1837-3.2376.1005-4.875-.08-1.5752.1146-3.1634.1513-4.7471.024-1.0393-.0377-2.081-.0263-3.121.0174-1.5868.0636-3.1731.102-4.76.0026-.1066.0626-.2124.0605-.318-.0294-1.5122-.0875-3.0243-.0914-4.5363-.0027-1.0812.0821-2.1618.0975-3.2434.02-1.4076.0668-2.8195-.015-4.2222-.0336-.5743-.3657-1.125-.1984-1.7485.0714-.2664.0548-.5591.1177-.8291a7.1118,7.1118,0,0,0-.0257-3.0017c-.1246-.6425-.2244-.7027-.8241-.7045a1.8694,1.8694,0,0,1-.2026.0158,10.07,10.07,0,0,0-4.0868.2875,10.2413,10.2413,0,0,1-2.0184.1137c-.944.0777-1.8836.2151-2.8279.2852-.569.0422-1.1437-.0041-1.7155.0067a13.312,13.312,0,0,0-1.52.0725,73.8573,73.8573,0,0,1-9.1278.63c-1.1468.0111-2.29.2506-3.4366.3587-1.0468.0986-2.0976.1491-3.145.2413-1.0455.092.4769.1332-.5677.2366-2.091.2072-4.183.4032-6.273.62-1.213.1259-2.4224.2894-3.6345.4246-.5389.06-1.08.0986-1.6212.1347-.3741.0251-.5111.2047-.5223.62-.0338,1.262-.1217,2.522-.1721,3.7836-.0215.5393.06,1.0909-.0138,1.6191-.204,1.4548.2643,2.9285-.1438,4.381a5.3634,5.3634,0,0,0-.1126,1.5086c.0179,1.1168.14,2.236.0994,3.3487-.046,1.2568-.2465,2.5056-.3345,3.7617-.0423.6023.0207,1.2133.0346,1.82.02.8654.0961,1.7349.0451,2.5953q-.17,2.87-.4563,5.73c-.0835.8212-.3249,1.6224-.474,2.4371a8.0743,8.0743,0,0,0-.1544,1.2805c-.0193.9372-.0159,1.8761.0156,2.813a9.7738,9.7738,0,0,0,.1859,1.1608,5.4057,5.4057,0,0,1,.17,1.268c-.0774.8591-.2624,1.706-.3789,2.5618a3.2421,3.2421,0,0,0-.0141.9586,16.9246,16.9246,0,0,1-.0239,4.8652,2.2447,2.2447,0,0,1-.1777.7305,6.2107,6.2107,0,0,0-.38,3.6874,20.1417,20.1417,0,0,1,.1931,3.0245c-.0472,1.5527-.2176,3.1005-.33,4.6508-.0208.2872.005.5789-.0219.865a9.1826,9.1826,0,0,1-.1922,1.4848,3.7475,3.7475,0,0,0-.1149,1.7043,4.3789,4.3789,0,0,1-.0946,2.1407,5.2459,5.2459,0,0,0-.1614,2.144c.07.6388-.0266,1.2958-.0115,1.9439.0191.8239.097,1.6465.1135,2.47.0341,1.7.3888-11.3132-.0914-9.6577a5.2262,5.2262,0,0,0-.1047,1.5025c.0131.865.0953,1.7294.1008,2.5941.0031.4954-.118.99-.1295,1.4868-.0176.7574.0481,1.5186.01,2.274-.0364.7148-.1886,1.4217-.24,2.1364-.0594.8235-.07,1.6516-.0891,2.4781-.0056.25.11.5319.0372.7481a7.2312,7.2312,0,0,0-.0595,2.6759c.0438,1.1848-.0707,2.3755-.1169,3.5638a6.0312,6.0312,0,0,0-.0337,1.1866,30.0031,30.0031,0,0,1-.023,5.2q-.0276,3.58-.0827,7.16c-.0163,1.1577-.0558,2.3149-.0746,3.4726-.0078.4851-.04.9427-.5017,1.2122a.5519.5519,0,0,0-.2022.2381c-.55,1.2087-1.5146,1.1232-2.5253.9354a3.6585,3.6585,0,0,0-.8874-.0542,2.4734,2.4734,0,0,1-2.3228-1.3661c-.8992-1.2838-.5367-2.61-.4764-3.9506.0274-.61.0608-1.22.12-1.8262a3.0667,3.0667,0,0,1,.2087-1.039c.1459-.2949.0993-.3641-.1112-.5828a1.0671,1.0671,0,0,1-.0843-.8165,8.76,8.76,0,0,0-.0169-3.019,12.1708,12.1708,0,0,1-.0907-1.7276c.0858-1.9468.2026-3.8921.32-5.837a12.3269,12.3269,0,0,0-.141-3.1321,3.5555,3.5555,0,0,1,.0589-1.48,4.1208,4.1208,0,0,0,.0673-1.928,4.1324,4.1324,0,0,1,.0537-1.5994c.1724-1.0988.2406-2.2174.3351-3.3295.1041-1.2244.1788-2.4518.2876-3.6756a7.4338,7.4338,0,0,0-.015-1.8225,6.6675,6.6675,0,0,1,.0148-1.9461c.1845-1.2583-.19,12.1924-.2231,10.93a1.312,1.312,0,0,1,.011-.325c.5509-2.3786.012-4.8179.338-7.2162a37.5352,37.5352,0,0,0,.2949-4.4234c.0173-1.0411-.1466-2.0859-.2172-3.13a3.9414,3.9414,0,0,1-.0179-1.2832c.38-1.325.2593-2.7152.53-4.0528.17-.84.2168-1.7093.3369-2.5625a.7671.7671,0,0,1,.2073-.4671c.2-.1527.6585-.24.6525-.3283a3.5115,3.5115,0,0,0-.3031-1.4319c-.2661-.4776.0143-.5547.2618-.7273a1.2074,1.2074,0,0,1-.0224-.1961,1.2221,1.2221,0,0,1,.0379-.1942l-.1131.0113c.01.0654.0165.1319.0324.1957S98.4756,120.3673,98.4971,120.43ZM48.6725,87.2321a.8847.8847,0,0,0,.104-.1206c.0078-.0127-.0258-.076-.033-.0746a.9263.9263,0,0,0-.1387.0473C48.6272,87.1334,48.65,87.1827,48.6725,87.2321Zm-.6559,19.91-.0646-.1763a1.2167,1.2167,0,0,0-.1015.2389c-.0059.0277.0654.0743.1014.1123Z" transform="translate(0)"/><path class="cls-3" d="M34.8043,40.1267a1.3853,1.3853,0,0,1-.8154.4182,1.36,1.36,0,0,1-1.1851-.3623,11.7614,11.7614,0,0,0-1.0367-.7735,15.1048,15.1048,0,0,0-1.3133-.7832,11.4661,11.4661,0,0,0-1.4291-.6364,4.4611,4.4611,0,0,0-1.3811-.28,4.2379,4.2379,0,0,0-1.7576.3588,4.5311,4.5311,0,0,0-1.61,1.1355,3.1112,3.1112,0,0,0-.9829,2.8432,4.9113,4.9113,0,0,0,1.8524,2.636q.9811.8007,2.1269,1.6371t2.2648,1.6415q1.1176.8055,2.1286,1.548,1.0094.7426,1.7733,1.3008a18.5256,18.5256,0,0,1,1.8494,1.5988,9.9164,9.9164,0,0,1,1.5089,1.9134,9.2605,9.2605,0,0,1,.9992,2.3719,10.4392,10.4392,0,0,1,.3178,2.9733,8.1664,8.1664,0,0,1-2.5369,5.1066,9.2681,9.2681,0,0,1-4.7469,2.31,9.4473,9.4473,0,0,1-4.5725-.3208,7.7757,7.7757,0,0,1-3.7416-2.6076,4.1271,4.1271,0,0,1-.6344-1.3223,1.4724,1.4724,0,0,1-.0275-1.1863,1.7966,1.7966,0,0,1,1.1825-.7037,1.5941,1.5941,0,0,1,1.2751.1281,7.692,7.692,0,0,0,2.9525,1.9008,6.3787,6.3787,0,0,0,3.6041.202,4.49,4.49,0,0,0,2.3621-1.2595,4.3784,4.3784,0,0,0,1.1622-2.1853,4.4752,4.4752,0,0,0-.2413-2.704,6.256,6.256,0,0,0-2.02-2.5821,48.7135,48.7135,0,0,0-4.7733-3.5873A60.9558,60.9558,0,0,1,22.2026,47.02a7.4521,7.4521,0,0,1-1.7963-2.6645,7.3357,7.3357,0,0,1-.5161-2.8013,6.66,6.66,0,0,1,.6184-2.6769,7.7284,7.7284,0,0,1,1.6085-2.26,8.1865,8.1865,0,0,1,2.3713-1.615,7.9351,7.9351,0,0,1,2.9582-.6778,8.0739,8.0739,0,0,1,4.249,1.112A10.6483,10.6483,0,0,1,34.96,38.2351a1.2927,1.2927,0,0,1,.2285.896A1.8951,1.8951,0,0,1,34.8043,40.1267Z" transform="translate(0)"/><path class="cls-3" d="M22.4124,108.24q1.552.0489,3.22-.017a10.4947,10.4947,0,0,1,3.1571.3354,4.4566,4.4566,0,0,1,2.8353,2.1639,4.3388,4.3388,0,0,1,.19,3.6808,12.4322,12.4322,0,0,1-1.4542,2.7981,17.132,17.132,0,0,1-2.086,2.483q-1.1657,1.1493-2.4387,2.1748-1.2738,1.0272-2.4616,1.9374a1.6362,1.6362,0,0,1-1.614.1578,2.87,2.87,0,0,1-1.2541-.9582q-1.0774-1.3975.3737-1.7069a43.0372,43.0372,0,0,0,4.9887-4.3176,16.09,16.09,0,0,0,3.1595-4.4348q.12-.41-.5983-.5515a8.57,8.57,0,0,0-1.8015-.1154q-1.0827.0241-2.3612.1031-1.28.0792-2.2809.1648a2.8489,2.8489,0,0,1-.8322-.0261,3.1669,3.1669,0,0,1-.9911-.3274,2.2188,2.2188,0,0,1-.8166-.7067,1.8872,1.8872,0,0,1-.3051-1.1652q.277-4.6716.9145-9.2753c.4242-3.0682.4465-3.4662.9152-6.0194a.7952.7952,0,0,1,.5439-.6942,1.3127,1.3127,0,0,1,.859.0861,3.5252,3.5252,0,0,1,1.3855,1.2584,1.9832,1.9832,0,0,1,.328,1.4032c-.167.7857.0077.19-.1419,1.0536-.1508.8648-.2018.7568-.3345,1.6611q3.0027-.2023,5.6387-.1492a32.9263,32.9263,0,0,1,4.7929.4171c.4784.095.9677.1984,1.4636.3123a11.51,11.51,0,0,1,1.5713.4943,1.3549,1.3549,0,0,1,.9257.7689.7813.7813,0,0,1-.1357,1.0335,11.6608,11.6608,0,0,1-1.5976.6315,4.3383,4.3383,0,0,1-.7543.1836,57.4119,57.4119,0,0,0-12.4407.2023q-.1444,1.36-.2854,2.6286Q22.547,107.1788,22.4124,108.24Z" transform="translate(0)"/><path class="cls-3" d="M65.017,115.4723a5.1376,5.1376,0,0,1-1.3907-2.2067,6.7475,6.7475,0,0,1-.4042-1.7018,76.3179,76.3179,0,0,1,1.165-18.6306q.3071-1.2354.664-2.2315t.69-.9856a1.8091,1.8091,0,0,1,.8262.2629,3.0388,3.0388,0,0,1,1.2715,1.4025,1.8491,1.8491,0,0,1,.176.7764,66.32,66.32,0,0,0-1.4685,11.54q-.22,5.77-.0243,11.5254a.632.632,0,0,1-.5162.6947.71.71,0,0,1-.5245-.105A4.0734,4.0734,0,0,1,65.017,115.4723Z" transform="translate(0)"/><path class="cls-3" d="M91.4388,99.4119a16.74,16.74,0,0,1-.4962,3.332,18.083,18.083,0,0,1-1.4539,3.9545,16.4854,16.4854,0,0,1-2.5595,3.7135,9.991,9.991,0,0,1-3.81,2.606,6.7175,6.7175,0,0,1-2.7621.5949,4.6218,4.6218,0,0,1-4.1876-2.5023,7.433,7.433,0,0,1-.812-3.1956,15.796,15.796,0,0,1,.4713-4.6374,16.2317,16.2317,0,0,1,4.6012-7.886,12.8547,12.8547,0,0,1,3.6669-2.4324.8.8,0,0,1,.8587.056,1.475,1.475,0,0,1,.5008,1.1123,8.2956,8.2956,0,0,1,4.4559,1.77A4.3226,4.3226,0,0,1,91.4388,99.4119ZM79.132,107.9144a2.1625,2.1625,0,0,0,.4157,1.1985,1.6462,1.6462,0,0,0,.7658.4983,2.2924,2.2924,0,0,0,1.0015-.0875,7.4006,7.4006,0,0,0,1.0926-.4094,6.9438,6.9438,0,0,0,.9852-.5619,5.24,5.24,0,0,0,.7359-.599,11.5075,11.5075,0,0,0,2.5855-3.6822,15.69,15.69,0,0,0,1.2818-4.8495.9725.9725,0,0,0-.4275-.724,3.3529,3.3529,0,0,0-1.124-.5983,10.89,10.89,0,0,0-1.5182-.3742,7.5449,7.5449,0,0,0-1.6065-.1086,24.3858,24.3858,0,0,0-1.6616,2.14,15.1642,15.1642,0,0,0-1.3909,2.4744,13.9638,13.9638,0,0,0-.8985,2.7577A11.0831,11.0831,0,0,0,79.132,107.9144Z" transform="translate(0)"/><path class="cls-4" d="M134.0188,90.5063q-1.6653,5.5715-3.1429,11.1135-1.4806,5.5437-2.8821,10.4025a2.56,2.56,0,0,1-1.0785,1.5677,1.4274,1.4274,0,0,1-1.4146.25,1.2369,1.2369,0,0,1-.5362-.6056,4.6049,4.6049,0,0,1-.3734-1.09,6.7287,6.7287,0,0,1-.1521-1.3117,8.4572,8.4572,0,0,1,.0619-1.2732q1.1376-4.0833,2.643-9.43,1.5065-5.3441,3.227-10.7834-1.4715.0861-3.0673.1987t-3.1275.1954q-1.5348.0846-2.8836.1709-1.3491.089-2.3316.1887a2.552,2.552,0,0,1-1.9033-1.106,3.3332,3.3332,0,0,1-.8361-2.1835.672.672,0,0,1,.32-.5462,1.5836,1.5836,0,0,1,.6184-.2742q1.5973-.21,3.622-.3441t4.1091-.2306q2.085-.0969,4.0767-.1653t3.5233-.0209a1.58,1.58,0,0,1,.8184.32,3.515,3.515,0,0,1,.8089.7772,4.94,4.94,0,0,1,.5883,1,2.23,2.23,0,0,1,.2238.9221Z" transform="translate(0)"/><path class="cls-3" d="M182.6906,101.4361a14.4111,14.4111,0,0,1-1.6141,2.4672,22.2673,22.2673,0,0,1-2.3638,2.5337,26.984,26.984,0,0,1-2.8308,2.2818,18.5628,18.5628,0,0,1-2.9552,1.7144,2.4558,2.4558,0,0,1-1.06.2331,1.4783,1.4783,0,0,1-.9927-.2973,2.0713,2.0713,0,0,1-.7079-1.7407,1.9313,1.9313,0,0,1,.9549-1.63,25.1342,25.1342,0,0,0,3.2932-1.9113,22.2126,22.2126,0,0,0,2.944-2.3676,13.2,13.2,0,0,0,2.0578-2.4828,3.842,3.842,0,0,0,.6933-2.3193,2.8979,2.8979,0,0,0-.8447-1.8048,3.5091,3.5091,0,0,0-1.7831-.8858,8.0183,8.0183,0,0,0-2.47-.0474,13.1441,13.1441,0,0,0-2.791.6526,2.4453,2.4453,0,0,1-.8351.0631.9244.9244,0,0,1-.6564-.406,4.4129,4.4129,0,0,1-.6036-1.4416,1.3076,1.3076,0,0,1,.3357-1.2924q.9582-.6213,2.086-1.3567a17.4737,17.4737,0,0,0,2.0925-1.5944,7.9884,7.9884,0,0,0,1.572-1.8761,3.4215,3.4215,0,0,0,.468-2.2074,1.0442,1.0442,0,0,0-.5083-.7864,3.6346,3.6346,0,0,0-1.1267-.48,4.0948,4.0948,0,0,0-1.3852-.1034,5.5425,5.5425,0,0,0-1.34.2845,1.9088,1.9088,0,0,1-.731.3915,2.6164,2.6164,0,0,1-.78.0941,1.4019,1.4019,0,0,1-.6623-.169.8512.8512,0,0,1-.3793-.397,1.993,1.993,0,0,1-.1737-.8648,1.3225,1.3225,0,0,1,.2716-.91,4.1757,4.1757,0,0,1,2.3661-1.4369,9.4811,9.4811,0,0,1,4.1117-.1379,4.3546,4.3546,0,0,1,2.79,1.7472,5.1442,5.1442,0,0,1,.87,3.1088,7.78,7.78,0,0,1-.7077,2.9117,10.1921,10.1921,0,0,1-1.9846,2.9294,4.9817,4.9817,0,0,1,2.7643.502,5.3576,5.3576,0,0,1,1.9572,1.7205,7.471,7.471,0,0,1,1.3043,3.5376A6.6027,6.6027,0,0,1,182.6906,101.4361Z" transform="translate(0)"/><path class="cls-3" d="M90.5181,62.0017q-.6105-.0195-1.2236-1.0454a4.1353,4.1353,0,0,1-.6475-1.976q-.363-3.448-.8907-8.0582-.5292-4.6078-1.4338-10.919-1.7439,3.3229-3.4319,6.5887t-3.3759,6.5309q-1.0484,2.0416-2.1024,2.008a2.7271,2.7271,0,0,1-2.4-1.7939q-1.8713-3.0808-3.8876-5.7814-2.0184-2.6982-4.1753-5.3747-.2074,3.9642-.1023,7.789t.5164,7.4538a1.8314,1.8314,0,0,1-.1659,1.15,1.2143,1.2143,0,0,1-.5416.6051,1.4919,1.4919,0,0,1-1.5453-.4034,2.6167,2.6167,0,0,1-.909-1.451,33.1826,33.1826,0,0,1-.6087-4.76q-.16-2.6126-.18-5.2809-.02-2.6661.0422-5.2717t.1682-4.7359q.0563-2.3673,1.4988-2.3232a1.9521,1.9521,0,0,1,1.4814.7271,3.0216,3.0216,0,0,1,.62,1.9461q2.7039,3.0493,5.0988,6.2346,2.3932,3.1863,4.6488,6.457,2.03-3.67,4.1211-7.5455A72.9987,72.9987,0,0,1,85.77,35.2452a3.1567,3.1567,0,0,1,.642-1.3138,2.5254,2.5254,0,0,1,1.1313-.8834q.6165-.2166,1.2637.5733a4.0134,4.0134,0,0,1,.8446,1.804q.8013,6.0111,1.3526,12.0137T92.078,59.4438a2.7431,2.7431,0,0,1-.4325,1.8525A1.3674,1.3674,0,0,1,90.5181,62.0017Z" transform="translate(0)"/><path class="cls-3" d="M121.6279,29.42q-.3286,2.0648-.6093,4.5728-.2822,2.5117-.565,5.079-.2831,2.57-.5356,4.9912-.251,2.4235-.4061,4.2542,1.8939-.2958,4.2087-.698,2.3125-.4009,4.7114-.83,2.3963-.4275,4.7091-.7407,2.3106-.3136,4.2017-.4317a.8675.8675,0,0,1,.3856.1307.8173.8173,0,0,1,.4262.7842,1.7253,1.7253,0,0,1-.9849,1.7176c-.2629.13-.5337.2491-.814.36a2.1869,2.1869,0,0,0-.7613.5082q-1.7313.4212-3.7968.8888t-4.2422.9331q-2.1762.466-4.3525.93-2.1762.4659-4.0753.9394a2.28,2.28,0,0,1-2.5916-.7333,5.4066,5.4066,0,0,1-.6344-3.6939q.3909-4.7884.8945-9.6018t1.1729-9.5935a3.0811,3.0811,0,0,1,.6771-1.638,2.0134,2.0134,0,0,1,1.3215-.7294q1.28-.1365,1.51.73A5.5957,5.5957,0,0,1,121.6279,29.42Z" transform="translate(0)"/><path class="cls-3" d="M184.5867,27.6376a48.0894,48.0894,0,0,0-4.3279,3.39q-2.41,2.0883-4.8541,4.5,1.593,3.0725,2.8893,5.7492,1.2952,2.6792,2.0383,4.1833a2.3751,2.3751,0,0,1,.019,1.5418,1.321,1.321,0,0,1-.9149,1.0968,1.7408,1.7408,0,0,1-1.2991-.2184,2.02,2.02,0,0,1-.9477-1.0378q-1.06-2.1657-2.117-4.3622t-2.2832-4.3685q-2.2761,2.3-4.1,4.3165-1.8261,2.0163-2.8,3.349-.8036,1.0408-1.4945.99a1.9056,1.9056,0,0,1-1.1287-.4209,1.1912,1.1912,0,0,1-.4541-.7546,2.04,2.04,0,0,1,.0493-.887,5.42,5.42,0,0,1,.3258-.8788,6.0448,6.0448,0,0,1,.4351-.7865q1.1473-1.5642,3.03-3.6978t4.2731-4.5478a106.9962,106.9962,0,0,0-5.94-9.3718,1.7233,1.7233,0,0,1-.2246-1.074,1.2106,1.2106,0,0,1,.2641-.5839,1.7051,1.7051,0,0,1,1.5369-.4256,4.634,4.634,0,0,1,1.4541.6972,28.6238,28.6238,0,0,1,2.7737,3.6131q1.42,2.1495,2.8067,4.5624Q175.9793,30.035,178.5,27.95a53.7821,53.7821,0,0,1,5.0576-3.7231,1.37,1.37,0,0,1,1.305-.0179,1.5713,1.5713,0,0,1,.9484.9782,1.6258,1.6258,0,0,1-.227,1.3848A3.7914,3.7914,0,0,1,184.5867,27.6376Z" transform="translate(0)"/><path class="cls-3" d="M192.602,26.823q-.3287,2.0648-.6093,4.5734-.282,2.5109-.5649,5.0791t-.5351,4.9905q-.2529,2.4235-.4066,4.2542,1.8938-.2958,4.2086-.6981,2.3125-.4008,4.712-.8291,2.3955-.4275,4.7085-.7415,2.3106-.3125,4.2024-.4316a.8706.8706,0,0,1,.3855.1307.8162.8162,0,0,1,.4249.7842,1.9573,1.9573,0,0,1-.3044,1.1457,1.9289,1.9289,0,0,1-.68.5719c-.2623.13-.5336.2491-.814.36a2.1924,2.1924,0,0,0-.7613.5082q-1.7311.4223-3.7968.8888-2.0654.47-4.2416.9331-2.1771.4659-4.3537.93-2.1753.4668-4.0747.9394a2.279,2.279,0,0,1-2.5923-.7333,5.4112,5.4112,0,0,1-.6337-3.694q.3909-4.7885.8945-9.6017t1.1729-9.5936a3.0844,3.0844,0,0,1,.6772-1.6379,2.0161,2.0161,0,0,1,1.322-.7294q1.28-.1365,1.51.73A5.5968,5.5968,0,0,1,192.602,26.823Z" transform="translate(0)"/></svg>