<svg id="Layer_1" data-name="Layer 1" xmlns="http://www.w3.org/2000/svg" width="196.3102" height="189.7044" viewBox="0 0 196.3102 189.7044"><defs><style>.cls-1{fill:#b6ddff;}.cls-2{fill:#fff;}.cls-3{fill:#2d2d2d;}</style></defs><path class="cls-1" d="M185.4306,69.3435a26.4414,26.4414,0,0,0-4.8235-8.1756c-5.8551-6.6859-13.1291-6.3368-20.6769-9.5625a66.9763,66.9763,0,0,1-18.1844-12.0595c-9.3028-8.3359-16.829-19.9333-28.08-25.8413-9.2044-4.8332-20.3821-5.8661-31.0168-4.99-46.88,3.86-58.6378,40.3327-78.0849,79.88C2.48,92.8331.5226,97.2434.0963,101.93c-1.3485,14.8279,11.7169,17.6405,23.25,18.9832,24.3673,2.837,16.7988,22.49,21.9962,39.5106,4.8541,15.8963,22.565,18.0154,37.2713,18.9441,7.1345.4506,56.226,4.89,51.9865-10.94-2.686-10.0292-7.0106-22.6513-2.5582-32.7945,5.4361-12.3841,23.5021-14.3333,33.7954-21.4381,10.8554-7.4926,20.7057-19.3391,21.415-33.0479A29.5993,29.5993,0,0,0,185.4306,69.3435Z"/><path class="cls-2" d="M56.2429,130.6107c-.2486-6.6049-.26-13.79,3.6395-19.0558,3.9541-5.34,10.8594-7.2425,17.2962-8.4371a171.7651,171.7651,0,0,1,32.0368-2.8818c7.5687.0314,16.3893,1.3111,20.1747,8.0269,1.9121,3.3923,2.0737,7.4914,2.1868,11.4071l1.4208,49.2217c.1422,4.9276.0814,10.4288-3.2451,13.99-2.8948,3.0993-7.4126,3.7761-11.5775,4.2137q-13.2814,1.3956-26.6321,1.9185c-7.1147.2787-15.777,1.6938-22.6876-.5825-10.6772-3.517-10.4454-17.02-11.0266-26.4728C57.1868,151.5166,56.6363,141.0663,56.2429,130.6107Z"/><path class="cls-3" d="M56.5918,27.8677c-1.2988,1.0186-2.6259,2.004-3.8831,3.0716-.5208.4423-1.17.8633-1.2123,1.6878-.0032.0645-.1265.1584-.2084.1777-.7793.1841-.9375.8426-1.1413,1.4685-.0216.0662-.0229.1529-.0669.1958a17.6333,17.6333,0,0,0-2.8181,4.3655c-.1709.3082-.4528.5527-.6442.8518A13.2348,13.2348,0,0,0,44.82,44.9318a17.95,17.95,0,0,1-.3542,2.3424,12.3947,12.3947,0,0,1-.9371,1.9524,21.634,21.634,0,0,0-1.4345,2.9468,6.2836,6.2836,0,0,0-.1982,2.5931,31.9278,31.9278,0,0,0,.8323,4.2225,21.7265,21.7265,0,0,0,1.3652,3.5581c.4187.9122,1.249,1.68,1.1663,2.8312a1.7209,1.7209,0,0,1-1.0546,1.6184,5.481,5.481,0,0,0-1.5271.8714,1.9524,1.9524,0,0,1-1.669.3,9.0943,9.0943,0,0,0-5.4637-.43,24.8552,24.8552,0,0,0-7.5812,2.3806,38.71,38.71,0,0,0-3.7889,2.4837c-1.0608.7332-2.1063,1.4921-3.1194,2.2893a10.9543,10.9543,0,0,0-1.61,1.533,20.5174,20.5174,0,0,0-2.909,4.172c-.7621,1.5641-1.8177,2.9825-2.6406,4.52-.5952,1.1125-1.03,2.3118-1.5183,3.48-.412.9869-.8408,1.97-1.1768,2.9838a12.0984,12.0984,0,0,0-.303,1.8039c-.0986.5869-.2149,1.1708-.3113,1.758a4.2273,4.2273,0,0,0-.126,1.0658,14.4854,14.4854,0,0,0,.4151,2.8821,36.0333,36.0333,0,0,0,1.4461,3.413,8.0742,8.0742,0,0,0,.7136,1.6559c.8263,1.1132,1.4659,2.4254,2.6709,3.1855a34.248,34.248,0,0,0,3.8466,2.0692,32.04,32.04,0,0,0,3.4892,1.3084c.5376.1771,1.1354.1619,1.69.2978a52.0567,52.0567,0,0,0,9.0992,1.2856,52.12,52.12,0,0,0,5.8754.2973c1.9465-.0972-1.0176.6619.9151.3348a2.3959,2.3959,0,0,0,.8616-.3544,2.7366,2.7366,0,0,1,3.4457.2757c.3964.3118.9185.5465.8257,1.2529-.0224.17.4559.6043.6464.5725,1.2052-.2012,1.5623.6751,2.0358,1.4522A5.4285,5.4285,0,0,1,48.78,119.9a1.6812,1.6812,0,0,1-1.3882,1.472c-3.8378.5872-2.776-.0069-6.6187.5457-2.0827.2995-4.1813.4953-6.2769.6945a8.8165,8.8165,0,0,1-1.6473-.1c-1.2872-.1229-2.5851-.19-3.8557-.4116a28.7256,28.7256,0,0,1-3.1865-.8566c-.8715-.258-1.7229-.584-2.5949-.84a25.0963,25.0963,0,0,1-6.9358-3.6881,16.1956,16.1956,0,0,1-4.7718-5.2963,19.2075,19.2075,0,0,1-2.2991-5.5534c-.1921-.862-.3771-1.7281-.63-2.5728-.1137-.3788-.434-.6913-.58-1.0654-.5334-1.3666-1.0752-2.733-1.5244-4.1282a10.4278,10.4278,0,0,1-.1808-1.783,23.3836,23.3836,0,0,1-.0629-6.9408,16.2084,16.2084,0,0,1,.9311-2.6913,10.6865,10.6865,0,0,0,.5878-1.6768A28.3777,28.3777,0,0,1,11.62,74.774c.825-1.3213,1.5632-2.6993,2.4319-3.99a27.9981,27.9981,0,0,1,5.0447-5.6872,16.2561,16.2561,0,0,1,5.9589-3.3878,46.6905,46.6905,0,0,1,9.2891-1.7933,24.6258,24.6258,0,0,1,2.5831.1305c.8244.0182.9417-.1412.8-.9247a30.1781,30.1781,0,0,0-.7793-3.7857,29.02,29.02,0,0,1-.8673-4.7974c-.1905-1.3963-.2938-2.8064-.3866-4.2137a15.0273,15.0273,0,0,1,1.1721-6.5409c1.2171-3.0752,2.5339-6.1138,3.9016-9.1256a18.4,18.4,0,0,1,5.4029-7.1763,15.8755,15.8755,0,0,1,5.32-3.0538,1.8322,1.8322,0,0,1,.2032-.072c1.4806-.2225,2.9693-.4008,4.4408-.6721a33.5668,33.5668,0,0,1,5.7374-.0755.9119.9119,0,0,0,.9442-.4855,1.1878,1.1878,0,0,1,.7937-.5136A2.214,2.214,0,0,0,65.3468,17.3c.5875-1.1265,1.0751-2.3111,1.7309-3.3948,1.2283-2.03,2.4169-4.1514,4.3251-5.6083A45.9483,45.9483,0,0,1,76.487,5.1865c.9327-.5358,1.9277-.9641,2.9007-1.4283A4.0621,4.0621,0,0,1,80.1334,3.5c1.2355-.3147,2.47-.6334,3.7123-.9207a14.6882,14.6882,0,0,0,1.7557-.3142c1.3769-.5066,2.8739-.3164,4.2378-.7789a6.8808,6.8808,0,0,1,2.7913-.3976c.147.0114.3-.141.4588-.1765A5.3851,5.3851,0,0,1,94.0946.7407C95.6484.6973,97.2029.68,98.7572.6511Q101.1131.6073,103.469.56a2.4505,2.4505,0,0,0,.573-.0177A26.97,26.97,0,0,1,110.761,0a13.9382,13.9382,0,0,1,1.911.2614c1.5209.1944,3.0535.3205,4.5609.5891a11.7865,11.7865,0,0,1,2.7319.8449c1.3716.6155,2.71,1.3157,4.0181,2.059a23.289,23.289,0,0,1,5.455,4.2823c1.08,1.1442,2.2092,2.2419,3.301,3.3753a4.4875,4.4875,0,0,1,.406.6672c1.3608,2.0544,2.757,4.0862,4.0771,6.1664.8463,1.3337,1.58,2.7386,2.3676,4.11,1.0257,1.7863,2.1159,3.5392,3.06,5.3676.6065,1.1745,1.6264,2.143,1.8,3.5409.0617.498.2148.9857.2607,1.4842.0524.5693-.0361,1.1555.614,1.4963.1284.0673.1712.39.171.5951a5.7393,5.7393,0,0,0,.7,3.158,2.7591,2.7591,0,0,1,.393,1.67,10.4206,10.4206,0,0,0,.4339,2.6086,9.2186,9.2186,0,0,1,.19,3.1785,11.7585,11.7585,0,0,0,.435,3.227c.0379.2336.1629.454.1935.6876a23,23,0,0,1,.3572,5.4112,4.0765,4.0765,0,0,0,.0962.9238c.1269.9666.3288,1.93.3605,2.9.0193.59.173.7906.7355.7219.547-.0668,1.0953-.1315,1.645-.1664a82.5731,82.5731,0,0,1,11.6856-.2019c1.5459.1209,3.0763.4561,4.61.716a8.2332,8.2332,0,0,0,4.6039-.1027,1.63,1.63,0,0,1,1.3605.2485,12.75,12.75,0,0,0,2.9183,1.2848c.8213.38,1.7445.5365,2.5768.8975a47.1559,47.1559,0,0,1,5.1739,2.4224,30.2671,30.2671,0,0,1,3.97,3.0227,50.3362,50.3362,0,0,1,4.3208,3.8888,9.72,9.72,0,0,1,2.2818,3.9581,47.8923,47.8923,0,0,1,1.4315,5.3806,12.7189,12.7189,0,0,1-.0067,5.8354,34.09,34.09,0,0,1-1.097,3.7037,54.3986,54.3986,0,0,1-4.0185,7.9857c-.9123,1.4222-1.83,2.848-2.8609,4.1829-.3226.4178-1.03.53-1.5469.8084a4.4806,4.4806,0,0,0-1.22.7541c-1.4518,1.5826-2.8266,3.2359-4.2811,4.816a36.8646,36.8646,0,0,1-3.057,3.006,13.7085,13.7085,0,0,1-2.1427,1.2663,3.5816,3.5816,0,0,0-.3587.23,6.2575,6.2575,0,0,1-2.1156.9679,15.81,15.81,0,0,0-3.4637,1.5479,6.2442,6.2442,0,0,1-2.6031,1.1016c-.15.012-.3979.1748-.4115.29-.056.472-.3859.4995-.7383.6243-1.8532.6566-3.6859,1.3709-5.5376,2.0318a33.6548,33.6548,0,0,0-3.5174,1.1923c-1.197.5852-2.4423.2334-3.6529.4773a25.8615,25.8615,0,0,1-4.3621.3238,1.9417,1.9417,0,0,1-2.0465-2.4,4.6108,4.6108,0,0,1,.0958-.71c.2048-.6408-.1826-.9315-.6575-1.1719-.19-.0964-.4073-.1392-.6-.2316a1.89,1.89,0,0,1-.9431-2.536.8325.8325,0,0,0,.0577-.5448,1.9368,1.9368,0,0,1,.281-1.774c.1687-.283.21-.6421.3808-.9237a6.84,6.84,0,0,1,.6913-.85c.0453-.0531.1484-.0754.1662-.1307.3076-.9512,1-.7146,1.72-.6357,1.5084.1654,3.0256.277,4.5419.3231.3713.0113.7418-.3481,1.1322-.4783.5592-.1864,1.1325-.3348,1.7064-.4716,3.1934-.7615,6.39-1.5079,9.5809-2.2807.3165-.0766.5843-.3409.8992-.4409.6767-.2147,1.2671-.6434,2.1114-.3566.4372.1484,1.0949-.2409,1.6149-.4726a18.0115,18.0115,0,0,0,2.8854-1.4416,5.0786,5.0786,0,0,0,2.0557-1.9614c.1328-.297.4357-.5137.6027-.8009a7.527,7.527,0,0,0,.3468-.8683,2.7749,2.7749,0,0,1,.3518-.72c.8594-1.02,1.7976-1.977,2.6065-3.034a14.0418,14.0418,0,0,0,2.5467-5.9053c.2666-1.3353.789-2.62,1.0442-3.9567a39.4764,39.4764,0,0,0,.854-5.888,10.4257,10.4257,0,0,0-1.7859-6.3763c-.3675-.5373-.6724-1.1221-1.0784-1.6267a4.6167,4.6167,0,0,0-1.13-1.0207,9.0631,9.0631,0,0,0-2.0812-1.0585c-1.5764-.4773-3.2071-.7749-4.7841-1.25-1.107-.3338-2.1389-.9181-3.2468-1.2477a19.5139,19.5139,0,0,0-3.64-.7712c-1.9673-.1915-3.9652-.1-5.9232-.3444a24.0588,24.0588,0,0,0-5.3721.0736q-3.4808.3415-6.94.8861a6.9246,6.9246,0,0,1-2.9154-.0762,9.8234,9.8234,0,0,0-2.5187.0047,3.0008,3.0008,0,0,1-2.3474-.8455,2.3623,2.3623,0,0,0-1.3468-.5887,2.5663,2.5663,0,0,1-2.3621-2.1266c-.1813-.6565-.4534-1.2927-.5808-1.9579a14.3057,14.3057,0,0,1-.2491-2.3571,4.6643,4.6643,0,0,1,.26-1.3858,9.4892,9.4892,0,0,0,.5584-1.5775c.326-3.22.6311-6.4436.8678-9.6715a68.1206,68.1206,0,0,0-.65-13.6294,26.2314,26.2314,0,0,0-1.8874-6.8134,37.0676,37.0676,0,0,0-1.6673-3.8788,9.9,9.9,0,0,0-2.0079-2.4c-1.4843-1.3523-3.1082-2.5515-4.5893-3.907a18.6865,18.6865,0,0,0-4.6936-3.0445,49.2415,49.2415,0,0,0-5.3007-2.2022c-2.3352-.7888-4.7289-1.4052-7.1016-2.0812a27.0644,27.0644,0,0,0-9.2114-.5414c-1.9375.12-3.8736.2635-5.8109.3863a9.7976,9.7976,0,0,0-4.298,1.5233c-1.3041.7532-2.676,1.3914-4.033,2.05a37.9973,37.9973,0,0,0-5.7015,2.8663,2.3049,2.3049,0,0,1-2.6985-.0035c-.2941-.1987-.4756-.197-.7164.101-1.0824,1.3394-2.2144,2.6391-3.2815,3.99a4.5592,4.5592,0,0,0-.9884,3.1417,8.8854,8.8854,0,0,1-.6026,2.9786A1.613,1.613,0,0,1,69.3793,27.44c-1.907-.281-3.8-.6987-5.715-.8679a12.9279,12.9279,0,0,0-3.4191.3007,26.4363,26.4363,0,0,0-2.8918.86q.6751-.4141,1.3494-.8286L58.6,26.723l-2.0292,1.1694Z"/><path class="cls-3" d="M134.9891,106.99a25.8671,25.8671,0,0,0-2.6979-3.9159,9.1509,9.1509,0,0,0-2.1511-2.3965,26.3932,26.3932,0,0,0-4.2553-1.9,5.7009,5.7009,0,0,0-3.0546-.1366c-.6949.1124-1.3875.2419-2.0837.3313-.355.0455-.7178.0028-1.0759.0308a7.0831,7.0831,0,0,1-.9238.1307c-1.473-.09-2.9437-.2049-4.4145-.3267-1.1172-.0923-2.2319-.2083-3.3485-.3137l.0235-.2093,7.8581.3212q-.0072-.1023-.0148-.2043c-.709-.0194-1.4185-.036-2.1274-.0587-3.78-.122-7.5955-.26-11.3475-.3531-6.391-.1586-12.9917-.7238-19.3284-.6227A192.53,192.53,0,0,0,65.0387,99.29a18.9829,18.9829,0,0,0-4.9817,1.0834c-10.1643,4.3145-5.7208,19.4955-6.8821,27.9372-.4644,3.3755-.2177,6.929-.274,10.3966-.03,1.861-.2534,3.713-.14,5.5744.0821,1.3533-.2832,2.7507.4551,4.0966a.4652.4652,0,0,1-.0378.4341c-.4395.4242-.1693.7569.1406,1.1534a.7432.7432,0,0,1,.0127.6c-.5234.1429-.4135.5878-.41.9606q.0206,2.2047.0819,4.4125c.0652,2.2278.1943,4.456.4614,6.6694a11.8271,11.8271,0,0,1-.2363,4.1035c-.13.7946-.4784,2.5366-.6587,3.3815a5.2265,5.2265,0,0,0,.1015,2.0372,8.0037,8.0037,0,0,0,2.65,4.2275,1.825,1.825,0,0,0,.55.4189,10.2411,10.2411,0,0,0,4.78.3389c.8743-.1084,1.014-.6022.7135-1.53a18.0786,18.0786,0,0,1-.75-7.1173c.2064-2.28,1.2071-4.4108,1.3544-6.701a42.1993,42.1993,0,0,0-.6721-7.1854,27.7765,27.7765,0,0,1-.36-5.7625,18.0943,18.0943,0,0,0-.1269-2.5692c-.03-.7313-.0507-1.4641-.0282-2.1915a18.4644,18.4644,0,0,0,.1443-1.87c-.0868-1.2093-.2906-2.4174-.422-3.6269a16.64,16.64,0,0,1-.1036-1.7941c0-1.346.0523-2.6886.0477-4.0349a20.457,20.457,0,0,1-.0713-2.866,14.4965,14.4965,0,0,1,.3112-1.4884,7.4041,7.4041,0,0,1-.7819-5.5435c1.8364-6.1659,3.1126-11.4962,9.5509-14.4531a41.4172,41.4172,0,0,1,20.1718-3.55c.1113.0019.2229-.0006.3342.0024,2.2342.06,4.4716.0927,6.6965.2495,1.6709.1178,3.3171.5168,4.9853.6,2.0136.1,4.0454-.0621,6.0627,0,2.2107.068,4.4112.2673,6.6147.4,1.7579.1052,3.5141.2231,5.2744.2822,1.1089.0371,2.15.0576,2.8456,1.0482.7207,1.0265,1.4412,1.0632,2.6119.2957.9492-.6222,1.31-.5488,1.734.3593.0768.1647.1411.3352.21.5037a6.69,6.69,0,0,1,.129,2.4234,22.4716,22.4716,0,0,0-.4836,3.2649c-.1283,3.7975-.2284,7.6175-.24,11.4123-.0264,8.935.1509,17.9089.3083,26.8595.0534,3.0386.414,6.1837.2994,9.2087-.0692,1.8285-.1063,3.6576-.1236,5.4824a2.4224,2.4224,0,0,1-.7907,1.8255,1.7023,1.7023,0,0,0-.4531.935,2.6357,2.6357,0,0,0,1.5822,2.7931,12.1924,12.1924,0,0,0,5.33.55,1.568,1.568,0,0,0,1.3078-2.0814,18.2788,18.2788,0,0,1-.3273-2.3615c-.0437-.3858-.037-.783-.05-1.1754-.0351-1.0383-.1525-2.0745-.0879-3.1155.1751-2.8229-.3529-5.598.1382-8.4338.3148-1.8179.9371-3.5846,1.3739-5.3832a64.35,64.35,0,0,0,1.5255-10.4157c.62-8.485.4065-17.1924.5012-25.7512.0079-.721.2655-1.4717.2189-2.1831C137.0225,110.3865,135.8562,108.7349,134.9891,106.99ZM104.17,98.415c-.0118,0-.0251-.0545-.0266-.0579l2.5527-.1177.0005.0629C105.8546,98.3411,105.0124,98.38,104.17,98.415Z"/><path class="cls-3" d="M88.8538,57.8959c-1.8663.0236-3.88-.0631-5.8713.11a40.2553,40.2553,0,0,0-4.6638.912,1.4455,1.4455,0,0,0-.5005.2308,2.8143,2.8143,0,0,1-4.0545-.4535c-.2114-.2276-.5092-.3724-.74-.5848a2.8612,2.8612,0,0,1-.9767-2.3279,2.5047,2.5047,0,0,0-.9074-1.9558c-.7262-.8155-.6747-1.2651.134-1.9617A8.2364,8.2364,0,0,0,72.18,50.68q1.3965-1.7547,2.81-3.4959c1.2358-1.5138,2.4878-3.0145,3.7259-4.5264,1.333-1.6277,2.6719-3.2511,3.9738-4.9035a1.8508,1.8508,0,0,0,.3939-1.0687,1.4146,1.4146,0,0,1,1.0987-1.46,1.3172,1.3172,0,0,0,1.0353-1.3538c.0011-.1709.1829-.3611.3191-.5075.8806-.9465,1.8123-1.8489,2.6453-2.835a3.3156,3.3156,0,0,1,2.1147-1.14,6.4015,6.4015,0,0,1,4.94,1.1379.6379.6379,0,0,1,.2433.2939c.1867.6736.4935,1.0084,1.1645.4749,1.4.2887,2.9283.0189,4.1749.9615a.8174.8174,0,0,1,.225.3126c1.0114,2.2327,1.9745,4.4884,3.0376,6.6961,1.0519,2.1846,2.2036,4.3211,3.3115,6.4787a1.1544,1.1544,0,0,1,.1057.2127,23.7228,23.7228,0,0,0,2.3849,5.1006c.6952,1.27,1.198,2.6346,1.89,3.9063a19.2637,19.2637,0,0,1,1.9857,3.5169.614.614,0,0,1-.5542.8108,19.6153,19.6153,0,0,1-2.88.3082,4.0266,4.0266,0,0,1-3.1921-1.3643l.241.2618a8.3678,8.3678,0,0,0-3.8153-.708,35.6313,35.6313,0,0,0-4.3594-.1826,9.8808,9.8808,0,0,1-1.4218-.1026c-.4464-.0334-.6726.1062-.6631.6247.0451,2.4452.0854,4.8912.0671,7.3365-.0107,1.4238-.1479,2.8462-.2023,4.27-.0209.5472.0424,1.0971.0459,1.6459q.0233,3.6848.03,7.37c0,.74-.1124,1.4868-.0475,2.2193.0923,1.0405.291,2.0723.4625,3.1048a5.621,5.621,0,0,1,.0262,2.9669,2.5962,2.5962,0,0,0-.0836.7864,2.5125,2.5125,0,0,1-2.0679,2.5573,4.8549,4.8549,0,0,1-3.9445-.41,1.5368,1.5368,0,0,1-.7113-1.8845,12.7356,12.7356,0,0,0,.5207-2.9357c.0291-1.8926-.0965-3.7884-.1872-5.6815-.0247-.5162-.3122-1.067-.1963-1.5313a8.8025,8.8025,0,0,0,.367-1.9454,5.2828,5.2828,0,0,0-.2461-2.9151,4.6241,4.6241,0,0,1-.0812-2.0329q.0447-3.8429.11-7.6856c.027-1.6081.0588-3.2162.1105-4.8236.0143-.443-.0282-.7154-.59-.6516A15.2633,15.2633,0,0,1,88.8538,57.8959Z"/><path class="cls-3" d="M73.3821,140.4987a7.8717,7.8717,0,0,1,.73-4.0919,1.2553,1.2553,0,0,1,1.6573-.6415,16.602,16.602,0,0,0,7.0509,1.1712c1.9251-.0575,3.8492-.1575,5.7746-.1941a7.4508,7.4508,0,0,1,2.3919.1692c1.152.3743,2.15-.2576,3.2409-.2439,1.815.0228,3.6328-.1288,5.4484-.2277,1.0865-.0592,2.17-.1927,3.2564-.2305,1.44-.05,2.8886.0363,4.3232-.0722,2.1727-.1642,4.3389-.4267,6.5034-.6851,1.1743-.14,1.763.3287,2.0527,1.5083a12.7144,12.7144,0,0,1-.0357,4.4057c-.2314,2.2633-2.7557,2.9714-4.31,2.4647a6.4648,6.4648,0,0,0-1.9317-.1639c-1.4-.008-2.8018-.0039-4.2.0557-.8139.0347-1.6209.2448-2.4345.2716-1.1329.0374-2.2695-.052-3.4035-.0327-.9462.0162-1.891.1589-2.8363.1586-1.1862,0-2.3727-.1337-3.5585-.1248-.7836.0059-1.5666.2372-2.3489.2315-1.2353-.0089-2.4713-.21-3.7044-.1872-1.5263.0278-3.05.2007-4.5749.3111a4.1083,4.1083,0,0,1-.55.038c-2.0215-.1284-4.0412-.2938-6.0642-.3894-1.869-.0884-1.8272-.6838-2.2662-2.016A7.1015,7.1015,0,0,1,73.3821,140.4987Z"/><path class="cls-3" d="M68.4555,122.8316c-.0169-.34-.0217-.6813-.0528-1.02-.1362-1.4831,1.3539-2.3491,2.7344-2.3212,1.232.025,2.464.0986,3.6956.09,2.7722-.02,13.7-.1137,16.4716-.1082,1.9429.0039,3.8859.1124,5.828.1926a3.0145,3.0145,0,0,1,2.7719,2.8386,10.9945,10.9945,0,0,1-.02,3.45,1.4454,1.4454,0,0,1-1.9342,1.1947c-.8925-.229-1.7772-.4894-2.6616-.7486-2.2-.6447-12.6169-.4875-14.8531-.4395-2.6665.0571-5.3294.289-7.9934.4514a5.5839,5.5839,0,0,0-.8636.12,2.2462,2.2462,0,0,1-2.81-1.5986c-.1965-.6771-.28-1.3869-.4146-2.0819Z"/><path class="cls-3" d="M70.7838,157.99c-.0169-.34-.0165-.6815-.0537-1.02-.163-1.4817,1.9848-2.38,3.9569-2.3818,1.76-.0013,3.519.0461,5.2792.0109,3.9619-.0791,19.5792-.4058,23.54-.4593,2.7763-.0375,5.5505.03,8.3242.0685,2.0767.0291,3.848,1.3089,3.9,2.7826.0409,1.15.3768,2.2848-.1018,3.4546-.4127,1.0091-1.3257,1.4794-2.7894,1.2372-1.27-.21-2.5291-.4521-3.7874-.6927-3.1295-.5985-18.0192-.2191-21.2157-.1234-3.8117.114-7.6219.4029-11.4324.6222a11.342,11.342,0,0,0-1.2365.1388c-1.8828.3189-3.4788-.2666-3.9823-1.54a16.9331,16.9331,0,0,1-.548-2.0753Z"/><path class="cls-3" d="M118.8948,127.2653a14.1579,14.1579,0,0,0,.0634-1.6c-.1186-.6919-.2-1.4843-.4034-2.2438-.1426-.5325-.244-1.1867-.9777-1.3034-1.0185-.1621-2.0352-.3461-3.0569-.4809l-.3231-.433c-1.3136-.0565-2.6272-.1274-3.9415-.1472-.6989-.01-1.4039-.0547-1.885.7a4.6266,4.6266,0,0,0-.0338,4.4184,2.0775,2.0775,0,0,0,2.165,1.1162,13.8336,13.8336,0,0,1,2.8459-.1753c1.8434.0619,3.6943.128,5.5227.3512"/><path class="cls-3" d="M51.7193,24.3538l.7757-.17c-.1982.3229-.3709.78-.7523.1432Z"/></svg>