<svg id="Layer_1" data-name="Layer 1" xmlns="http://www.w3.org/2000/svg" width="209.5827" height="183.5559" viewBox="0 0 209.5827 183.5559"><defs><style>.cls-1{fill:#fffd87;}.cls-2{fill:#2d2d2d;}</style></defs><path class="cls-1" d="M117.9618,179.8211A70.3421,70.3421,0,0,1,44.6857,114.2c-.5548-8.369-.065-17.9624-6.1856-23.6971-7.8251-7.3315-22.35-4.017-29.0415-12.396-3.126-3.9144-3.51-9.48-2.1764-14.3092s4.1647-9.0875,7.0225-13.2019Q24.6736,35.6673,36.27,21.6439c4.3241-5.2283,9.0363-10.5473,15.3657-12.9911,7.49-2.8919,15.8445-1.265,23.8726-1.1718,20.4255.237,40.3779-9.7256,60.6238-7.0123C150.1847,2.352,162.8718,10.293,172.8858,20.33s17.6747,22.1332,25.1405,34.1863c2.3825,3.8464,4.7872,7.7766,5.8957,12.1632s.74,9.3788-2.0418,12.9469c-3.8468,4.9339-10.8035,5.7554-16.8483,7.3685a49.5134,49.5134,0,0,0-36.2995,54.4785c.9684,7.157,3.4983,14.4078,1.8,21.4275-1.5934,6.5865-6.7555,11.8277-12.6156,15.2305a40.4762,40.4762,0,0,1-24.4219,5.2036"/><path class="cls-2" d="M81.27,165.251c-1.4363-.6167-2.8772-1.2226-4.3077-1.8524-2.3748-1.0454-4.74-2.112-7.1156-3.1566a12.7267,12.7267,0,0,0-2.119-.818,6.63,6.63,0,0,0-1.4328.1153,2.2483,2.2483,0,0,1-1.1035-.1864,1.2142,1.2142,0,0,0-1.9032.5707,3.02,3.02,0,0,1-2.8569,1.6621c-1.0507-.1721-2.0929-.3978-3.136-.6137-.1922-.04-.447-.0909-.5433-.2279-.643-.9142-1.7944-1.4549-1.9613-2.7218-.2482-1.8848-.5037-3.7693-.8009-5.6467-.2548-1.6093-.59-3.2057-.85-4.8142a8.019,8.019,0,0,1,.0545-1.1722,23.9339,23.9339,0,0,0-.9694-6.2907,16.1112,16.1112,0,0,1-.56-5.4258,18.677,18.677,0,0,0-.5284-5.2258,5.2339,5.2339,0,0,1-.1137-1.0673c.0053-.9527.0738-1.9058.0578-2.8577-.0146-.8617-.1-1.7226-.1678-2.5829-.081-1.0289-.19-2.0557-.2617-3.0852-.0715-1.0245-.0918-2.0526-.17-3.0765-.2412-3.1543-.485-6.3086-.7546-9.4606-.3635-4.25-.7889-8.4952-1.1182-12.7478-.26-3.3516-.4145-6.7113-.6149-10.0674-.28-4.6925-.572-9.3843-.833-14.0778-.1-1.796-.1483-3.5954-.1836-5.394A2.1787,2.1787,0,0,1,49.19,62.5871a24.7855,24.7855,0,0,1,4.8506.5508,2.3378,2.3378,0,0,1,1.7024,3.191,17.8193,17.8193,0,0,0-.9307,7.5788c.0824,1.6158-.1017,3.2451-.1664,4.8683a3.4256,3.4256,0,0,0-.0183.5q.3822,3.4875.7772,6.9735a7.0348,7.0348,0,0,1,.1459,1.0868,13.8034,13.8034,0,0,0,.3572,4.4232,17.4892,17.4892,0,0,1,.0687,3.4655c.1032,1.7364.29,3.4681.4508,5.2008.1136,1.2242.2576,2.4458.3525,3.6714a1.5975,1.5975,0,0,1-.1968.7495,1.49,1.49,0,0,0,.157,1.6766,3.3444,3.3444,0,0,1,.27,3.5044,1.2821,1.2821,0,0,0,.074,1.2528,10.5971,10.5971,0,0,1,.6674,2.3835c.1559.8116.2045,1.6438.2989,2.4672.0076.066.0355.157.004.1963-.8322,1.0375-.1434,2.0075.0873,3.02.25,1.0961.3851,2.2195.5407,3.3351.0634.4544.0443.92.0708,1.38a6.2814,6.2814,0,0,0,.1087,1.3751,13.7853,13.7853,0,0,1,.205,6.516c-.0847.4484-.1634.898-.2449,1.347-.0118.0649-.05.1785-.0323.1877,1.3929.7356.7171,2.2018,1.0672,3.286a33.46,33.46,0,0,1,1.1032,5.9678c.1615,1.2437.042,2.5212.129,3.7779.08,1.15.287,2.29.4013,3.4383.0918.9214.1272,1.8483.1911,2.7726.0147.212.0435.4231.0658.6347.1567-.1367.3662-.2438.4619-.4147a2.9505,2.9505,0,0,1,3.9048-1.6332,59.9312,59.9312,0,0,1,9.848,4.1327c2.1866,1.0484,4.3711,2.1015,6.5436,3.1786.593.294,1.1078.7565,1.7128,1.0137,1.8356.78,3.6753,1.5615,5.5542,2.2272,4.3014,1.5239,8.6079,3.0391,12.9528,4.4317,1.607.5152,3.3324.6533,4.994,1.0091.9768.2091,1.92.6033,2.9032.7475,2.3379.3431,4.7033.5072,7.034.8881a29.6881,29.6881,0,0,0,12.9869-.5914,36.8556,36.8556,0,0,0,9.23-4.4853c4.0546-2.4974,7.4654-5.8244,11.3829-8.485.7638-.5188,1.6768-.9017,1.9243-1.9289a3.0274,3.0274,0,0,0,.1191-.9775c-.1161-1.1768-.28-2.349-.4185-3.5237-.0272-.23.0562-.5122-.0493-.6875-1.0076-1.676-.91-3.5814-1.16-5.4129a37.5248,37.5248,0,0,1-.5109-4.2685,10.3081,10.3081,0,0,0-.4768-2.9233,5.7841,5.7841,0,0,1-.0883-3.4432,3.0449,3.0449,0,0,0-.2678-2.0457c-1.2166-2.3627-1.4771-4.9472-1.8308-7.4947-.2346-1.69-.1586-3.4223-.2289-5.1353a.8122.8122,0,0,0-.1081-.4748,2.4262,2.4262,0,0,1-.3813-2.4463,1.3845,1.3845,0,0,0-.1013-.6657c-.0549-.188-.2081-.3522-.2422-.5406-.3237-1.7863-.6947-3.5676-.9206-5.3668a35.35,35.35,0,0,1-.1057-3.5719c-.0046-.1978.0751-.4664-.0242-.5824-1.0105-1.18-.7605-2.7-1.1309-4.05a7.5128,7.5128,0,0,1-.2935-.9544,10.8436,10.8436,0,0,1-.08-1.5345c.0065-.6171.1241-1.2383.08-1.85q-.1816-2.5269-.4744-5.0453a8.0492,8.0492,0,0,0-.4654-1.3939,21.36,21.36,0,0,1-.8524-2.8854,4.3883,4.3883,0,0,1,.2609-1.9157.8476.8476,0,0,0-.1216-.9582,3.0964,3.0964,0,0,1-.5481-1.3792q-.9521-5.874-1.8344-11.7592c-.1473-.9872-.1248-1.9994-.2635-2.9884a5.494,5.494,0,0,0-.5134-1.6916,2.1148,2.1148,0,0,1,.8292-3.1667,4.3609,4.3609,0,0,1,5.53.7588c1.7552,1.6524,1.8588,3.6422,1.926,5.75.0211.663.1268,1.3246.1256,1.9867-.0021,1.1623-.1017,2.3257-.071,3.4862a12.5088,12.5088,0,0,0,.3423,1.7889c.1728.9781.3862,1.9538.4781,2.94.2175,2.3356.33,4.6814.574,7.0139.1136,1.0868.4854,2.1446.642,3.23.1316.9118.1125,1.8448.176,2.7673.0454.6615.0933,1.3252.2014,1.9778.0171.1032.4094.2684.5428.21q3.8384-1.68,7.6512-3.417a6.5448,6.5448,0,0,0,1.3908-.773,16.76,16.76,0,0,1,4.73-2.3057c.372-.1407.7153-.3559,1.0838-.5078.7334-.3023,1.5033-.5294,2.2059-.8894.8123-.4162,1.5759-.93,2.3451-1.4259.3315-.2136.588-.5743.94-.72,2.5253-1.0468,5.0742-2.0365,7.6-3.0827,1.7257-.7149,3.4158-1.5155,5.1412-2.2311.89-.3692,1.8572-.5622,2.7284-.9663,1.4768-.6849,2.8679-1.5618,4.3631-2.1977,1.9875-.8454,4.0385-1.5424,6.0658-2.2934,1.9272-.7141,1.9029-.7832.8392-2.5382-2.0725-3.4191-4.0589-6.89-6.0962-10.3308-1.17-1.9761-2.4089-3.9124-3.5468-5.9064-1.3366-2.342-2.5909-4.7308-3.8933-7.0924-.8354-1.5148-1.6532-3.0415-2.5508-4.5193-1.2283-2.0221-2.4755-4.0361-3.8032-5.9936-2.1879-3.2261-4.4292-6.4165-6.6889-9.5928a19.7721,19.7721,0,0,0-1.8122-2.0014,62.3929,62.3929,0,0,0-9.8562-9.0336,35.7188,35.7188,0,0,0-10.1175-4.9178,38.527,38.527,0,0,0-7.7773-1.2331,5.7746,5.7746,0,0,0-2.229.4219,20.4451,20.4451,0,0,0-2.6271,1.1481,2.0722,2.0722,0,0,0-.7748.7479c-.6822,1.1075-1.359,2.2221-1.9629,3.3733a27.2424,27.2424,0,0,1-3.7957,5.4966c-2.0594,2.3109-4.0261,4.7178-6.2306,6.882a55.2809,55.2809,0,0,1-5.9986,4.959c-1.8193,1.34-3.7939,2.4718-5.7238,3.6567a16.71,16.71,0,0,1-2.0653,1.0082c-1.9826.8669-3.945,1.7918-5.9708,2.5447-1.8953.7044-3.8647,1.208-5.7959,1.8177a26.1826,26.1826,0,0,1-7.42.9263,24.9645,24.9645,0,0,1-9.282-1.14c-1.124-.4139-2.3222-.6217-3.4652-.99-.9489-.3056-1.8763-.6853-2.7953-1.0744a23.4867,23.4867,0,0,1-3.4355-1.5741,29.3571,29.3571,0,0,1-3.2715-2.6136,26.87,26.87,0,0,1-2.49-2.3046,28.7025,28.7025,0,0,1-6.3968-10.7272c-1.1431-3.6552-2.2288-7.3285-3.3221-10.9991-.1321-.4435-.1414-.9222-.2292-1.38-.1854-.9687-.6022-1.16-1.4825-.6905a2.1927,2.1927,0,0,0-.4206.27c-1.5009,1.32-3.0279,2.6121-4.4869,3.977-1.8167,1.6994-3.6159,3.4215-5.3436,5.21-.8494.8794-1.4683,1.9776-2.2852,2.8932-1.15,1.2889-2.3587,2.53-3.5943,3.7377a23.3883,23.3883,0,0,0-4.4331,5.4673A31.1662,31.1662,0,0,1,31.86,35.502c-.3707.4668-.8354.86-1.199,1.3313-2.38,3.0865-4.7906,6.1514-7.0985,9.2914-1.6929,2.3032-3.2358,4.7163-4.8636,7.0679-.6063.876-1.334,1.6739-1.8855,2.5808-2.0428,3.3592-4.035,6.7491-6.0465,10.1273-.58.9744-1.1745,1.9407-1.7373,2.925-.4828.8444-.3741,1.1239.5292,1.5264.9113.406,1.8184.8226,2.74,1.2029a1.6363,1.6363,0,0,0,.8672.1448,1.7249,1.7249,0,0,1,1.4433.45,6.6886,6.6886,0,0,0,1.5771.4989,5.6852,5.6852,0,0,1,1.4724.6934,6.0757,6.0757,0,0,0,3.1779,1.4492,20.9428,20.9428,0,0,1,8.074,2.3957,16.0732,16.0732,0,0,0,3.1671,1.3546,30.452,30.452,0,0,0,3.47.6262,5.3386,5.3386,0,0,1,1.5654.29c1.9226,1.021,4.0591,1.2342,6.1151,1.7552a16.853,16.853,0,0,1,2.0812.7087,1.5669,1.5669,0,0,1,.9852,2.0319A8.5358,8.5358,0,0,1,43.3114,88.45a2.5592,2.5592,0,0,1-1.96.3956c-3.5521-1.0094-7.1964-1.6916-10.605-3.228-2.0889-.9416-4.3506-1.4939-6.5167-2.2714-3.045-1.0931-6.0672-2.25-9.11-3.3483-3.2941-1.189-6.606-2.3289-9.9-3.5179-1.2547-.4529-2.4971-.9482-3.7153-1.491-.6825-.304-1.3007-.6951-.9-1.6894a1.6924,1.6924,0,0,0-.1431-1.2529,3.6452,3.6452,0,0,1,.157-3.7987c.7488-1.258,1.5831-2.4648,2.3518-3.7114.5182-.84.9586-1.7293,1.4878-2.5622.4228-.6654.9149-1.2883,1.3977-1.9135.8311-1.0763,1.7373-2.1,2.5035-3.22a17.3312,17.3312,0,0,0,2.09-3.6055,19.1346,19.1346,0,0,1,1.0944-2.2724c1.0835-2.06,2.881-3.6074,3.9931-5.6009,1.366-2.4483,3.4429-4.31,4.9866-6.5928.7967-1.1781,1.5529-2.3839,2.3128-3.5863.5411-.8561.9993-1.7724,1.6109-2.573a4.9569,4.9569,0,0,1,1.3117-.8724,2.8529,2.8529,0,0,0,.6244-.4472c.11-.1263.102-.3559.1467-.5393a2.6579,2.6579,0,0,1-.4184.15,2.9586,2.9586,0,0,1-.4624.0183c.042-.2076.0171-.4714.1368-.6137.8372-.9945,1.6821-1.9846,2.5692-2.9344.6379-.6832,1.1252-1.5,2.3037-1.5768a1.5019,1.5019,0,0,0,1.12-1.573,1.7238,1.7238,0,0,1,.4167-1.0423c.8826-1.0414,1.8485-2.0124,2.729-3.0555,1.394-1.6514,2.6949-3.3835,4.13-4.9971.99-1.1126,2.1492-2.0733,3.2162-3.1189a16.0032,16.0032,0,0,0,3.4365-4.2254c.3388-.6835,1.229-1.0862,1.846-1.6414.736-.6623,1.4008-1.4147,2.19-2.0032a5.1218,5.1218,0,0,1,1.5841-.55,4.4934,4.4934,0,0,0,.7474-.1559c1.9173-.9879,2.9761-.8583,4.5829.5917.6435.5808,1.2969,1.1509,1.9322,1.74.4747.4405.8178.4813,1.1371-.1886.6259-1.3135.7093-1.3637,2.1423-.9569a98.4794,98.4794,0,0,0,19.54,3.0048c5.32.4054,10.6531.6437,15.9834.8919a34.1315,34.1315,0,0,0,3.5765-.2426,11.1581,11.1581,0,0,1,1.9911-.0233,48.4923,48.4923,0,0,0,10.9726-.1363c2.8069-.2969,5.59-.8263,8.38-1.2746a5.403,5.403,0,0,0,1.0157-.3778l-.0165.0145c1.3528-.4341,2.6982-.8942,4.0619-1.291.6329-.1842,1.3045-.2315,1.9532-.3669a3.2327,3.2327,0,0,0,1.3808-.3845,9.2008,9.2008,0,0,1,5.623-1.9572,14.5363,14.5363,0,0,0,2.1-.5295,3.3055,3.3055,0,0,1,.78.0084,4.6079,4.6079,0,0,1-.2511.69c-.2651.4827-.2372.8057.4058.7219.5872-.0766.4944.2583.44.6039-.01.0658-.0248.1311-.0406.1959-.4209,1.7356-.431,1.7919,1.3772,2.1149,1.5365.2743,3.1265.2778,4.6458.6137a59.2154,59.2154,0,0,1,10.9741,3.3792,39.6237,39.6237,0,0,1,4.0285,2.1866,47.1757,47.1757,0,0,1,4.9081,3.0243,41.9726,41.9726,0,0,1,3.792,3.6477c.1409.1386.2207.385.382.45,1.8124.7322,2.8254,2.3738,4.1158,3.6748a33.3586,33.3586,0,0,1,2.6405,3.3987,2.165,2.165,0,0,0,.29.403c2.139,1.7178,2.9721,4.4009,4.7377,6.3925a4.1947,4.1947,0,0,0,.9638.992,4.0043,4.0043,0,0,1,1.7224,2.1793,57.9636,57.9636,0,0,0,2.8027,5.1476c.7828,1.3689,1.61,2.7126,2.4273,4.0612a2.2547,2.2547,0,0,0,.5442.7044,4.5527,4.5527,0,0,1,1.6249,2.95,8.5128,8.5128,0,0,0,1.7064,3.3248c1.0339,1.2684,2.3947,2.312,2.9733,3.9357a2.2029,2.2029,0,0,0,.5038.7356,8.1582,8.1582,0,0,1,1.5618,3.4118c.2244.6949.3345,1.4325.613,2.1023a4.9655,4.9655,0,0,0,.87,1.1553,11.4445,11.4445,0,0,1,1.4648,1.739c.7651,1.4289,1.35,2.9535,2.1032,4.39a2.2721,2.2721,0,0,0,1.16.9834,6.6524,6.6524,0,0,1,3.7535,2.8077,12.0435,12.0435,0,0,1,.8236,2.22c.0639.186.0424.4.0955.591.3751,1.3525.3833,1.4113-1.0383,1.537-2.0814.1839-4.1712.2726-6.2575.4a1.393,1.393,0,0,0-.3978.0111q-3.5037,1.38-7.0008,2.7772l.0168-.0145a4.096,4.096,0,0,0-2.6435.9908,4.6262,4.6262,0,0,1-3.46,1.1643,2.1124,2.1124,0,0,0-.976.1422q-1.4594.523-2.89,1.1244c-.2561.1083-.9861.1556-.2691.6924-.1028.1321-.1776.3257-.3125.3869-1.4568.6607-2.9154,1.3189-4.39,1.9387a5.8968,5.8968,0,0,0-2.264,1.3047,3.2145,3.2145,0,0,1-1.6775.8183,7.4582,7.4582,0,0,0-3.9332,2.18,9.6659,9.6659,0,0,1-2.62,1.5442c-1.4382.7013-2.977,1.2172-4.3535,2.0174-1.2361.7187-2.6516,1.2-3.5222,2.5293a4.902,4.902,0,0,1-1.8047,1.1951c-2.16,1.1877-4.3408,2.3366-6.4993,3.5265a1.7157,1.7157,0,0,0-.5666,2.3c.83,1.6918.6148,3.5236.9374,5.2784.3458,1.8809.75,3.7512,1.1161,5.6284a6.7764,6.7764,0,0,1,.3312,2.159c-.2437,1.6231.3465,3.0718.6475,4.5922.4526,2.2857.7984,4.5924,1.1872,6.8906a.89.89,0,0,1,.01.2989c-.342,1.9107.3743,3.65.7977,5.4557a33.6145,33.6145,0,0,1,.874,5.7188,11.181,11.181,0,0,0,.3847,2.6636,27.5257,27.5257,0,0,1,.6264,4.0439,7.4193,7.4193,0,0,0,.9445,3.1044,3.2185,3.2185,0,0,1,.06,2.1873c-.178.7526-.4351,1.3826.2862,1.9886a1.3122,1.3122,0,0,1,.3414.8017q.2617,2.229.456,4.4657c.0878,1.0161-.2233,1.3216-1.1942,1.11-1.1386-.248-2.2645-.5612-3.3842-.8863-.58-.1683-.9358-.2049-1.2381.5071a2.4772,2.4772,0,0,1-1.2762,1.16,29.2253,29.2253,0,0,0-5.8782,3.54,4.743,4.743,0,0,1-2.8839,1.36c-.6277-.0077-1.2848.84-1.8946,1.3424-.658.5417-1.2615,1.15-1.9242,1.6855-.1354.1094-.4571-.0407-.6426.0419a2.9161,2.9161,0,0,0-1.18.6869,4.9339,4.9339,0,0,1-3.9665,2.2823,1.1377,1.1377,0,0,0-.5089.2427,12.12,12.12,0,0,1-1.7064,1.1087,20.2954,20.2954,0,0,1-2.759.892,3.4572,3.4572,0,0,1-2.889-.026,2.6826,2.6826,0,0,0-1.6675-.1111,9.2824,9.2824,0,0,1-3.96-.2167c-.064-.0164-.1515-.0828-.1838-.0609-.9789.6648-1.9589.0188-2.9367.0137a.9932.9932,0,0,0-.58.0971c-1.1635.9537-2.0644.3472-3.0758-.348a6.4835,6.4835,0,0,0-1.9147-.4845c-1.3994-.3822-2.7724-.8982-4.1931-1.1542a13.9184,13.9184,0,0,1-4.0447-.945,1.7225,1.7225,0,0,0-1.1777.0163c-2.0793.6754-3.8316-.3512-5.65-1.0326a.6926.6926,0,0,1-.3261-.36c-.1691-.392-.3363-.6888-.7906-.2892a.464.464,0,0,1-.264.0409c-.2345-1.0242-.7837-.3051-1.22-.2307a1.0892,1.0892,0,0,1-.4964-.0058c-1.3285-.4284-2.6647-.8384-3.9736-1.3213-1.4034-.5177-2.7954-1.0734-4.1643-1.676-1.793-.7893-3.5514-1.6571-5.3436-2.4482a2.5147,2.5147,0,0,0-.968.0009Zm-8.5483-154.72.0044-.1289c-1.5145-.2442-3.03-.4807-4.5431-.7343-2.4588-.4122-2.6757-.2193-2.5412,2.3094.0036.0666.0093.1332.0143.2.3914,5.1473,2.225,9.8765,4.4168,14.4544a25.721,25.721,0,0,0,7.96,9.5035,16.2911,16.2911,0,0,0,9.8854,3.2867,23.1028,23.1028,0,0,0,4.0765-.3678,39.9114,39.9114,0,0,0,6.8118-1.4656,50.2264,50.2264,0,0,0,6.47-3.3207,48.8241,48.8241,0,0,1,4.2712-2.3966,20.0355,20.0355,0,0,0,6.4426-4.5918c.59-.5894,1.2064-1.1518,1.7966-1.7407.7493-.7477,1.4945-1.5,2.2178-2.2728a2.7889,2.7889,0,0,0,.3494-.6718,4.0466,4.0466,0,0,0-.8422-.0551c-1.286.18-2.5681.3877-3.851.59-3.94.6207-7.8744.1628-11.7762-.2668-4.3724-.4814-8.7211-1.22-13.0564-1.9821-2.8213-.4959-5.61-1.193-8.395-1.8757-2.2981-.5634-4.5595-1.2757-6.8546-1.853-2.4586-.6183-4.9455-1.1239-7.4043-1.7411a1.9834,1.9834,0,0,1-1.5865-2.6487c.1126-.5276.4-.8963.95-.8256a21.9455,21.9455,0,0,1,3.2216.5578c2.206.6291,4.374,1.39,6.571,2.0521,1.7235.5194,3.4617.9931,5.2033,1.4487,3.096.81,6.1717,1.7345,9.3077,2.3446,3.3019.6423,6.6641.9751,10.0007,1.4384a34.7343,34.7343,0,0,0,13.01-.4859,22.1462,22.1462,0,0,0,7.86-3.3388q2.0733-1.4782,4.1117-3.0053a2.7541,2.7541,0,0,0,.732-.799.99.99,0,0,0,.1157-.8182c-.1017-.1612-.5311-.198-.7966-.159-.89.1308-1.7653.4074-2.6575.4718-3.6877.2659-7.3772.605-11.0705.6722-5.1.0929-10.2033-.0332-15.3052-.0727-.332-.0026-.6628-.0776-.9954-.1007-1.428-.0993-2.8557-.2071-4.2852-.28-.63-.0319-1.2653.0492-1.8949.0162-1.9962-.1048-3.9929-.213-5.9856-.3677C80.6931,11.2009,76.7079,10.86,72.7217,10.5312Z"/><path class="cls-2" d="M72.5721,161.8072c-.0431.033-.0852.0906-.1242.0886-.0491-.0026-.0956-.0539-.1433-.0842a.7444.7444,0,0,1,.16-.1256C72.48,161.68,72.535,161.7641,72.5721,161.8072Z"/><path class="cls-2" d="M123.3272,6.46a1.7114,1.7114,0,0,1-.063-.1825c-.0047-.02.0214-.0467.0334-.07.005.0885.01.1769.0141.2664Z"/><path class="cls-2" d="M194.6746,81.6077a1.492,1.492,0,0,1,.0611.1622c.0048.0182-.0178.0436-.0279.0657-.0059-.08-.0119-.16-.0171-.2415Z"/><path class="cls-2" d="M81.2533,165.258l.0813,0c-.0207-.0031-.0415-.0062-.0634-.0085Z"/></svg>