<svg id="Layer_1" data-name="Layer 1" xmlns="http://www.w3.org/2000/svg" width="49.0294" height="21.8567" viewBox="0 0 49.0294 21.8567"><defs><style>.cls-1{fill:#2d2d2d;}</style></defs><path class="cls-1" d="M16.1953,8.736c.013-.662.0275-1.3239.0313-1.9869.0027-.4778-.0287-.9594-.0141-1.4355.0163-.53.0968-1.0523.094-1.5835A1.9,1.9,0,0,1,16.62,2.6626a.2983.2983,0,0,0,.0623-.1682c-.0118-.1631.075-.2554.2427-.3236.2474-.1007.3018-.1963.2043-.4267-.0946-.2234-.2395-.4375-.3567-.6572A.5577.5577,0,0,0,16.5884.898a1.8658,1.8658,0,0,1-.4948-.4626,1.0559,1.0559,0,0,0-.528-.3764,1.1393,1.1393,0,0,0-.6022-.0351A2.5423,2.5423,0,0,1,14.43.1683c-.0651,0-.1188.06-.1817.0873a1.3388,1.3388,0,0,1-.433.1719A2.7917,2.7917,0,0,0,13.06.65l.1626.0463a4.3492,4.3492,0,0,1-1.1255.5643,2.1552,2.1552,0,0,0-.464.287,6.9746,6.9746,0,0,1-.9915.5474,3.2034,3.2034,0,0,0-.9337.5621.938.938,0,0,1-.6076.28.9825.9825,0,0,0-.7072.3693A2.0666,2.0666,0,0,1,7.92,3.65c-.2326.1268-.4648.254-.6992.3789-.3209.171-.6318.3551-.97.5048a2.0115,2.0115,0,0,0-.7.406.6747.6747,0,0,1-.2119.1463A4.8169,4.8169,0,0,0,4.06,5.877a.7592.7592,0,0,1-.1522.0873c-.2826.1547-.5806.2948-.8443.4674a2.059,2.059,0,0,1-1.151.4261.6021.6021,0,0,0-.15.041c-.29.0811-.36.1916-.254.4355a.25.25,0,0,1-.0028.2516.3606.3606,0,0,0,.0722.4774.6733.6733,0,0,1,.0954.1716c-.1017.0517-.1816.13-.277.1335-.2506.0077-.3535.1557-.5022.2655a4.1155,4.1155,0,0,0-.4191.28,5.0113,5.0113,0,0,0-.3719.4626c-.1772.2163-.1041.4276.0455.6767a9.0858,9.0858,0,0,1,.725,1.1092.5478.5478,0,0,0,.1425.1912q.8883.7858,1.7853,1.5652a1.6947,1.6947,0,0,0,.3661.2638,2.1087,2.1087,0,0,0,.4177.1045c-.0457.2863-.0284.3148.2661.4286l.0538-.1651c.0822.0829.1759.1385.1892.1978a.9589.9589,0,0,0,.3841.4989c.3726.3013.7516.598,1.1389.8867a.7065.7065,0,0,0,.5479.1838.52.52,0,0,1,.3079.0989c.4382.312.8654.6343,1.2959.9536.0168.0125.0261.0314.0417.0454q.6115.5443,1.2233,1.0885c.0462.0412.1155.0849.124.1287.01.05-.037.101-.0614.1568l.4345.3675.0106-.1758a.7594.7594,0,0,1,.426.3814c.0113.0278.0656.0558.1056.07a.9491.9491,0,0,1,.4994.3827l-.3331-.1684a7.9569,7.9569,0,0,0,1.397,1.1308.6749.6749,0,0,0,.137.0484l.0291-.0317-.3963-.36a5.214,5.214,0,0,1,1.379.9542c-.1007.0765-.0733.1653.033.2485.1683.1318.34.2607.5115.39a.7367.7367,0,0,0,.2328.16c.0742.0166.1626-.04.2873-.0772a.8832.8832,0,0,0,.687.7471.55.55,0,0,1,.6232-.0373,4.5267,4.5267,0,0,0,.4363-.2729,2.3406,2.3406,0,0,0,.5911-.5379,1.0555,1.0555,0,0,0,.1687-.9608c-.0544-.1363-.0014-.2342.1313-.3166a.3852.3852,0,0,0,.2051-.3572q-.0338-.5727-.0631-1.1453c-.0515-1.0415-.1073-2.0833-.15-3.1242-.0371-.8986-.0561-1.7959-.0894-2.6942-.0108-.2927-.049-.5875-.0592-.88a.7869.7869,0,0,1,.0049-.1108A6.535,6.535,0,0,1,16.1953,8.736ZM5.9122,8.285a.8589.8589,0,0,0-.5639.1647,1.6912,1.6912,0,0,1-.2206.137.3474.3474,0,0,1-.2114-.0073c.4038-.3569.927-.5893,1.4131-.9567a4.0226,4.0226,0,0,1-.0661.8609C6.0353,8.5118,5.9965,8.3624,5.9122,8.285Zm.4014,3.9472c-.0423-.0239-.1011-.0756-.0957-.1029a3.53,3.53,0,0,1,.1151-.3753.4659.4659,0,0,1,.0841.4538C6.416,12.2223,6.3345,12.2439,6.3136,12.2322Zm3.363-5.31a.5821.5821,0,0,0-.5189.2756.1723.1723,0,0,1-.1154.0728,1.7011,1.7011,0,0,0-.8524.2776c-.2439-.22-.2532-.2792-.0549-.4.1806-.11.3778-.2038.557-.3153a4.1177,4.1177,0,0,0,.3355-.2565c.0246.0251.0466.0441.0635.0653.1682.2112.2527.2292.4661.0981.0649-.04.1282-.0815.1955-.1189.0139-.0077.0423,0,.064.0007C9.9116,6.8016,9.8775,6.9067,9.6766,6.9217Zm-.2319,7.4424a4.684,4.684,0,0,1-1.1725-.6992,4.277,4.277,0,0,0,.6733-.1221,3.1492,3.1492,0,0,0,.5207-.3A1.3613,1.3613,0,0,1,9.4447,14.3641ZM14.407,3.559l-.0591.2775C14.2369,3.7172,14.2686,3.6266,14.407,3.559ZM10.9154,15.1518l.39-.0515.0975.3364A.654.654,0,0,1,10.9154,15.1518Z" transform="translate(0 0)"/><path class="cls-1" d="M48.99,10.6242a.4935.4935,0,0,0-.0166-.4188c-.0653-.1556-.1378-.3077-.1928-.4687a.6158.6158,0,0,0-.7126-.4571,11.314,11.314,0,0,1-1.5173.0465,3.3166,3.3166,0,0,0-1.5019.1434.61.61,0,0,1-.4636-.0629,2.1268,2.1268,0,0,0-.9844-.1007.1655.1655,0,0,0-.1368.0527c-.098.177-.2312.1374-.3647.1153-.1454-.024-.29-.0573-.4366-.07a1.4077,1.4077,0,0,0-1.007.0764,1.08,1.08,0,0,1-.72.13,2.6024,2.6024,0,0,0-.88.0213,3.2925,3.2925,0,0,1-.6211.0108c-.0855-.0013-.17-.0285-.2556-.0315-.418-.0153-.836-.0322-1.2544-.0368-.2448-.0027-.49.0178-.7354.0254a.8081.8081,0,0,1-.33-.0069.5206.5206,0,0,0-.3945.0014.7592.7592,0,0,1-.2578.0231.5264.5264,0,0,1-.1874-.0307c-.28-.008-.5641-.0122-.852-.0208a9.047,9.047,0,0,1-2.6137.09,1.592,1.592,0,0,1-.4612-.0674c-.0914-.0285-.1914-.0226-.2814-.0546-.2108-.0752-.4023.0661-.5985.0781-.4793.0293-.96.0028-1.44-.012-.3686-.0114-.7362-.0528-1.105-.0564-.5157-.0049-1.032.0136-1.5481.02-.036,0-.0714-.0261-.1077-.0276-.5406-.0235-1.0811-.0505-1.622-.065-.3546-.0095-.7105.0127-1.0647-.0023-.54-.0228-1.0792-.114-1.6173-.0862-.5593.0288-1.1079-.04-1.6614-.0648a11.6756,11.6756,0,0,0-1.3268-.0033,9.3131,9.3131,0,0,1-1.9168-.1014C17.4,9.1574,17,9.072,16.5958,9.0268c-.3417-.0382-.69-.0132-1.03-.06-.672-.0928-1.3377-.2469-2.0115-.3156a2.6294,2.6294,0,0,1-1.1718-.4586,1.009,1.009,0,0,0-.3448-.1107c-.3082-.0649-.5424.1409-.7808.3319a2.278,2.278,0,0,0-.6588,1.3385,1.1714,1.1714,0,0,0,.0819.4608.3863.3863,0,0,1,.0072.358.7638.7638,0,0,0,.1963.7954,5.11,5.11,0,0,0,1.5421.5523c.4749.0721.9521.1338,1.4218.2371a4.2429,4.2429,0,0,0,1.14.0783,3.8045,3.8045,0,0,1,.7331.05c.4262.0612.848.1627,1.2753.21.5517.0607,1.11.0558,1.66.1316a5.68,5.68,0,0,0,1.8788-.0576.8624.8624,0,0,1,.433.0375,1.4391,1.4391,0,0,0,.6552.066,1.7121,1.7121,0,0,1,.7319.0155,2.892,2.892,0,0,0,1.4634.0947,1.658,1.658,0,0,1,.4765-.0487,5.9115,5.9115,0,0,0,1.9895-.0867.5834.5834,0,0,1,.3608.0015,2.061,2.061,0,0,0,1.2378.0825,5.0753,5.0753,0,0,1,1.2538-.1131,6.9629,6.9629,0,0,0,.77.0229c.2446.0022.4908-.0212.734-.0027a5.7047,5.7047,0,0,0,2.1677-.0286.7538.7538,0,0,1,.2218-.0151.6944.6944,0,0,1,.224.0255,8.58,8.58,0,0,1,3.0928.1654c.0143-.1507.0648-.1646.2836-.1774.5788-.0336,1.1581-.0472,1.7371-.069a.1149.1149,0,0,1,.037,0,1.9651,1.9651,0,0,0,.99-.0626,1.1238,1.1238,0,0,1,.2208-.0321c.5411-.0014,1.0826-.0093,1.623.0068.269.008.5356.0676.8041.0938a4.7016,4.7016,0,0,0,.6616.0377c.6658-.03,1.3313-.0774,1.997-.113a2.3342,2.3342,0,0,1,.33.022c.392.0351.7835.1021,1.1759.0981a2.5322,2.5322,0,0,1,.9128.114,1.9654,1.9654,0,0,0,1.2763.0116.5769.5769,0,0,0,.4357-.5328,5.7748,5.7748,0,0,0,.1332-1.3452A.43.43,0,0,1,48.99,10.6242Z" transform="translate(0 0)"/></svg>