<svg id="Layer_1" data-name="Layer 1" xmlns="http://www.w3.org/2000/svg" width="114.7613" height="14.0508" viewBox="0 0 114.7613 14.0508"><defs><style>.cls-1{fill:#f6bb49;}</style></defs><path class="cls-1" d="M7.6505.2025,9.19,4.94a.2929.2929,0,0,0,.2787.2025H14.45a.2931.2931,0,0,1,.1723.53l-4.03,2.9279a.2933.2933,0,0,0-.1065.3277l1.5394,4.7375a.2931.2931,0,0,1-.4511.3277l-4.03-2.9279a.293.293,0,0,0-.3446,0L3.17,13.9935a.2931.2931,0,0,1-.451-.3277L4.2578,8.9283a.2933.2933,0,0,0-.1065-.3277L.1214,5.6727a.2931.2931,0,0,1,.1722-.53H5.2749A.2931.2931,0,0,0,5.5537,4.94L7.093.2025A.2931.2931,0,0,1,7.6505.2025Z"/><path class="cls-1" d="M32.6549.2025,34.1942,4.94a.2931.2931,0,0,0,.2788.2025h4.9813a.2931.2931,0,0,1,.1722.53l-4.03,2.9279a.2933.2933,0,0,0-.1065.3277l1.5393,4.7375a.2931.2931,0,0,1-.451.3277l-4.03-2.9279a.293.293,0,0,0-.3446,0l-4.03,2.9279a.2931.2931,0,0,1-.451-.3277l1.5393-4.7375a.2933.2933,0,0,0-.1065-.3277l-4.03-2.9279a.2931.2931,0,0,1,.1722-.53h4.9813a.2931.2931,0,0,0,.2788-.2025L32.0975.2025A.293.293,0,0,1,32.6549.2025Z"/><path class="cls-1" d="M57.6594.2025,59.1987,4.94a.293.293,0,0,0,.2788.2025h4.9812a.2931.2931,0,0,1,.1723.53l-4.03,2.9279a.2931.2931,0,0,0-.1065.3277l1.5393,4.7375a.2931.2931,0,0,1-.451.3277l-4.03-2.9279a.2928.2928,0,0,0-.3445,0l-4.03,2.9279a.2931.2931,0,0,1-.4511-.3277l1.5393-4.7375a.2931.2931,0,0,0-.1064-.3277L50.13,5.6727a.2931.2931,0,0,1,.1723-.53h4.9813a.2929.2929,0,0,0,.2787-.2025L57.1019.2025A.2931.2931,0,0,1,57.6594.2025Z"/><path class="cls-1" d="M82.6639.2025,84.2032,4.94a.293.293,0,0,0,.2787.2025h4.9813a.2931.2931,0,0,1,.1723.53l-4.03,2.9279a.2931.2931,0,0,0-.1064.3277l1.5393,4.7375a.2931.2931,0,0,1-.451.3277l-4.03-2.9279a.2928.2928,0,0,0-.3445,0l-4.03,2.9279a.2931.2931,0,0,1-.451-.3277l1.5393-4.7375a.293.293,0,0,0-.1065-.3277l-4.03-2.9279a.2931.2931,0,0,1,.1723-.53h4.9813a.293.293,0,0,0,.2787-.2025L82.1064.2025A.2931.2931,0,0,1,82.6639.2025Z"/><path class="cls-1" d="M107.6684.2025,109.2077,4.94a.2929.2929,0,0,0,.2787.2025h4.9813a.2931.2931,0,0,1,.1723.53l-4.03,2.9279a.2933.2933,0,0,0-.1065.3277l1.5393,4.7375a.2931.2931,0,0,1-.451.3277l-4.03-2.9279a.293.293,0,0,0-.3446,0l-4.03,2.9279a.2931.2931,0,0,1-.451-.3277l1.5393-4.7375a.2933.2933,0,0,0-.1065-.3277l-4.03-2.9279a.2931.2931,0,0,1,.1722-.53h4.9813a.2931.2931,0,0,0,.2788-.2025L107.1109.2025A.2931.2931,0,0,1,107.6684.2025Z"/></svg>