<svg id="Layer_1" data-name="Layer 1" xmlns="http://www.w3.org/2000/svg" width="180.5359" height="199.5368" viewBox="0 0 180.5359 199.5368"><defs><style>.cls-1{fill:#5c51ff;}</style></defs><path class="cls-1" d="M175.3668,1.7539A8.9769,8.9769,0,0,0,172.03.307c-.956-.0786-1.9638.1854-2.8926-.2911-.114-.0585-.33.0578-.4843.127-.5146.2309-1.0149.4974-1.5355.7119-.4956.2043-.6692.4373-.5275.9362.4411,1.5532.9391,3.09,1.346,4.6523.5486,2.106,1.1413,4.2095,1.5186,6.351.5129,2.9119.8526,5.8569,1.24,8.7916.12.9074.1423,1.8282.2244,2.7413a87.5338,87.5338,0,0,1,.3873,10.0214c-.0646,2.6291-.507,5.1907-.7666,7.7836-.0737.7352-.2073,1.4646-.33,2.1939-.1628.9705-.3419,1.9382-.5134,2.9074-.0551.3111-.0929.6265-.165.9333-.37,1.5732-.7317,3.1487-1.1308,4.714-.1906.7481-.4569,1.4758-.69,2.2124-.4555,1.44-.8775,2.8919-1.3769,4.3151-.5588,1.592-1.252,3.1356-1.7733,4.7394a79.387,79.387,0,0,1-4.2077,9.398c-.4348.9157-.9681,1.7824-1.4717,2.6621-.832,1.4533-1.6769,2.8988-2.5159,4.3479-.2962.5117-.583,1.0293-.888,1.5352-.5392.8943-1.076,1.7906-1.6378,2.67-.62.97-1.24,1.9412-1.91,2.8744-.4457.6212-1.0162,1.1473-1.46,1.77-.5046.7071-.8647,1.53-1.4039,2.204-1.3892,1.7351-2.8307,3.4266-4.28,5.1094a12.1076,12.1076,0,0,1-1.1153.9226,14.1177,14.1177,0,0,0-1.1587,1.1608c-.7732.8881-1.4831,1.8378-2.2881,2.6927a25.6016,25.6016,0,0,1-3.0581,2.9588,30.9482,30.9482,0,0,0-3.1781,2.7652q-.8052.8015-1.644,1.5665c-.4051.3682-.8369.7053-1.2595,1.0525a7.81,7.81,0,0,0-.6447.5153c-.7416.7546-1.8154,1.1527-2.2487,2.2468-.0518.1307-.2924.1712-.425.28-.6943.57-1.3924,1.1359-2.0676,1.73-.3851.3382-.7139.7442-1.0947,1.0882a17.9034,17.9034,0,0,1-1.5763,1.3267c-1.2853.9156-2.2812,2.1889-3.634,3.03a21.4524,21.4524,0,0,0-1.9677,1.6405c-.5108.4115-1.05.7867-1.5826,1.1681-.7512.5376-1.5123,1.0606-2.2623,1.6-.728.5235-1.4385,1.0736-2.1737,1.5859-.5947.4145-1.2348.761-1.8193,1.1892-1.3056.9567-2.61,1.9073-3.8627,2.95a46.202,46.202,0,0,1-4.8672,3.2857c-2.5007,1.5909-5.0281,3.137-7.5417,4.7064-1.4338.8951-2.8455,1.8293-4.2977,2.6909-2.3942,1.42-4.8167,2.79-7.22,4.1947a8.147,8.147,0,0,0-2.2217,1.456,4.0551,4.0551,0,0,1-1.7657,1.147c-.57.2291-1.16.4158-1.7068.6926-1.564.7912-3.1065,1.6278-4.6665,2.4273-.6084.3118-1.26.5358-1.86.8633-1.1779.6436-2.3188,1.36-3.5016,1.9936-1.2136.65-2.4738,1.2063-3.6861,1.858-1.1786.6335-2.3,1.3836-3.4878,1.9951-1.3756.708-2.81,1.2936-4.1949,1.9827-1.1652.58-2.2866,1.2527-3.4468,1.8435-.6708.3417-1.4038.555-2.0675.9085-2.1533,1.147-4.2764,2.354-6.4324,3.4953-1.6706.8843-3.3759,1.6986-5.06,2.5551q-3.591,1.8256-7.1746,3.6669c-.6745.3444-1.3664.6557-2.0246,1.03-1.5564.8858-3.1076,1.782-4.6412,2.709-1.2922.7811-2.5425,1.6362-3.8384,2.41-.7629.4555-.8156.3931-1.2225-.4111l-.0962-.19c1.03,3.4984,3.3006,6.2994,5.2888,9.1291-.142-.3336-.255-.6843-.39-1.02.2946-.189.4635-.3078.6415-.41,1.6987-.9732,3.4071-1.9287,5.0956-2.92.9766-.5736,1.9041-1.2372,2.8853-1.8015a21.8853,21.8853,0,0,1,5.0706-2.4521c.1832-.05.3192-.2628.4958-.3663.2281-.1336.4782-.2268.7131-.3492.3258-.17.653-.3388.9672-.53.3211-.1954.6105-.4522.9431-.62.6409-.3234,1.2973-.6163,1.9583-.8938a3.3659,3.3659,0,0,1,.7769-.1806c.6232-.0985,1.263-.0635,1.6158-.8328a1.1535,1.1535,0,0,1,.93-.55c.8182.09,1.2451-.3948,1.7031-.9224a2.0088,2.0088,0,0,1,.5493-.4567c1.9644-1.0483,3.9425-2.0693,5.9006-3.13a16.3845,16.3845,0,0,1,1.874-.7355,21.4126,21.4126,0,0,0,3.0047-1.73c.6156-.3694,1.1935-.8753,1.7753-.575.4881-.2224.7964-.3693,1.11-.5036.31-.1329.7689-.1609.9107-.3965a2.6519,2.6519,0,0,1,1.6535-1.2078,14.07,14.07,0,0,0,2.2305-1.2506c1.1439-.616,2.3045-1.1987,3.46-1.7921a.5843.5843,0,0,1,.2913-.0913,3.0587,3.0587,0,0,0,2.0367-.8567,15.6978,15.6978,0,0,1,3.4353-2.2639c.5217-.1885.934-.3493,1.3167.1933a15.1574,15.1574,0,0,1,1.3835-1.3637c.3986-.3048.943-.4053,1.3453-.7066a20.9529,20.9529,0,0,1,4.4935-2.4526,6.12,6.12,0,0,0,1.233-.75,14.8944,14.8944,0,0,1,5.8534-2.7744,1.4408,1.4408,0,0,0,.7993-.44,18.2213,18.2213,0,0,1,3.1062-2.5676,4.73,4.73,0,0,1,2.5355-1.2757c.2742-.0257.5221-.2922.7937-.4223.3042-.1458.6215-.2621,1.03-.4316.0156-.0476.0229-.34.1521-.4185a13.5852,13.5852,0,0,1,1.5331-.7707c.2083-.0929.5381-.0291.66-.1737a20.4079,20.4079,0,0,1,3.4981-2.8164,19.1627,19.1627,0,0,1,2.5784-1.4839c.3484-.1888.7341-.3023,1.0924-.4733q.8508-.4058,1.6843-.849c.0776-.0411.0994-.1822.1656-.26a6.2747,6.2747,0,0,1,.8776-.9881,22.872,22.872,0,0,1,2.3885-1.6347c.7844-.4529,1.4415-1.1788,2.4853-1.1354a.9753.9753,0,0,0,1.0111-.8827c.0629-.4988.4044-.6607.835-.7965.9607-.3031,1.8762-.6989,1.9506-1.8395.3277-.1166.6985-.134.775-.298.201-.43.5578-.4436.9012-.5909.4284-.1838,1.0231-.4056,1.1658-.77.6106-1.5572,2.0427-1.9466,3.2442-2.6805a1.8962,1.8962,0,0,0,.7208-.6577,3.6581,3.6581,0,0,1,1.6137-1.8087,5.8876,5.8876,0,0,0,1.3936-1.0661c1.5-1.4346,3.1073-2.7344,4.7309-4.01a20.0634,20.0634,0,0,0,1.9711-1.83,5.37,5.37,0,0,1,2.3573-1.5677,1.74,1.74,0,0,0,1.4327-1.6832,1.218,1.218,0,0,1,1.4035-1.1541,7.6807,7.6807,0,0,0,1.167-.14c-.0242-.3473-.0384-.55-.0516-.7406.2725-.097.5334-.1721.78-.2811.603-.2663.4824-1.15.9447-1.3853a2.1815,2.1815,0,0,0,1.2994-1.227,3.95,3.95,0,0,1,.63-1.08,3.519,3.519,0,0,1,1.4721-.8354c.4812-.2276.6095-1.0148,1.2617-1.1505a.77.77,0,0,0,.38-.1462c.216-.2145.5427-.4493.5686-.7036a3.3332,3.3332,0,0,1,1.1488-2.1918c.5379-.5147,1.0206-1.1019,1.58-1.62.61-.5641,1.4195-.9983,1.5894-1.9809.031-.1793.3567-.2916.52-.4618.4468-.4647.8972-.928,1.3134-1.4214.4428-.525.8183-1.1123,1.2762-1.6219a6.0629,6.0629,0,0,0,1.8792-2.839.7659.7659,0,0,1,.1884-.3685c.8983-.9295,1.3-2.1921,2.0958-3.2192a30.0076,30.0076,0,0,0,3.3429-5.5,1.0568,1.0568,0,0,1,.5337-.452,1.6919,1.6919,0,0,0,.9715-1.2772,12.3015,12.3015,0,0,1,2.1327-4.54,1.7461,1.7461,0,0,0,.2542-.45,25.2331,25.2331,0,0,1,3.0334-6.2882,1.1969,1.1969,0,0,0,.2036-.481,12.3223,12.3223,0,0,1,.6869-2.4055c.4944-1.2116,1.005-2.4306,1.4289-3.6788.35-1.03.7715-2.0346,1.1032-3.07.4032-1.2587.7446-2.5384,1.1139-3.8087.42-1.4447.9941-2.8692.5132-4.4275a1.6148,1.6148,0,0,1-.0154-.4212l.1482.0627c.2-.4138.4091-.8228.5961-1.2426a6.0972,6.0972,0,0,0,.3289-.8843c.1356-.5038.2605-1.0131.3466-1.5279.0635-.3806.0218-.78.09-1.16.2921-1.6262.64-3.2424.9028-4.8734a31.149,31.149,0,0,0,.3559-3.35c.0823-1.6059.0877-3.2163.1184-4.8249a27.4951,27.4951,0,0,1,.0492-2.8407,30.7776,30.7776,0,0,0-.1546-6.2068c-.1774-2.2775-.7006-4.5237-.97-6.7966a41.3914,41.3914,0,0,0-1.2678-6.4028c-.44-1.5561-.7489-3.1537-1.07-4.7427-.279-1.3788-.5055-2.7694-.7312-4.159A1.6034,1.6034,0,0,0,175.3668,1.7539Z"/><path class="cls-1" d="M29.6264,171.9346c-.7742-1.2989-1.5454-2.5994-2.3382-3.8887-.5711-.929-1.2112-1.8229-1.7581-2.7636-.6085-1.0467-1.0879-2.1595-1.734-3.1852a4.4818,4.4818,0,0,1-.699-2.4591.7047.7047,0,0,0-.0859-.4035.7289.7289,0,0,1,.065-.9294c.3428-.5031.33-.7562-.1313-1.0811-.447-.315-.9773-.5493-1.4622-.829a1.2089,1.2089,0,0,0-.5741-.1362,4.0508,4.0508,0,0,1-1.4867-.28,2.2856,2.2856,0,0,0-1.4448-.0718,2.5241,2.5241,0,0,0-1.1724.6822c-.2948.2907-.4359.6815-.8275.9448-.1219.0818-.1507.2641-.2357.3955a3.077,3.077,0,0,1-.6053.8723,6.37,6.37,0,0,0-1.148,1.37c.1856-.0581.2731-.0855.361-.1127a10.0962,10.0962,0,0,1-1.4315,2.4952,5.0437,5.0437,0,0,0-.5244,1.1342,16.2371,16.2371,0,0,1-1.2,2.2955,7.4812,7.4812,0,0,0-1.0739,2.252,2.1694,2.1694,0,0,1-.8021,1.3,2.282,2.282,0,0,0-.8817,1.5964,4.8513,4.8513,0,0,1-.473,1.2551c-.2835.5355-.5659,1.0713-.8551,1.6051-.3959.7311-.7572,1.4751-1.2105,2.1858a4.6927,4.6927,0,0,0-.8236,1.6587,1.5789,1.5789,0,0,1-.2212.5472,11.2642,11.2642,0,0,0-1.4457,3.1264,1.7847,1.7847,0,0,1-.18.3586c-.3436.6517-.734,1.2943-1.0205,1.9572A4.7327,4.7327,0,0,1,.56,186.0857a1.3747,1.3747,0,0,0-.2316.2659c-.4456.5181-.445.82.0488,1.16a.5769.5769,0,0,1,.2982.4908.823.823,0,0,0,.7115.8352,1.48,1.48,0,0,1,.3858.2135c-.1284.227-.1832.4793-.3585.6036-.461.3272-.4756.7421-.6223,1.14A9.6707,9.6707,0,0,0,.3429,191.86a11.8865,11.8865,0,0,0-.14,1.3595c-.0715.64.3206.9582.9019,1.2546a19.9557,19.9557,0,0,1,2.6984,1.246,1.2,1.2,0,0,0,.4982.193q2.6148.4158,5.2383.8087a3.6632,3.6632,0,0,0,1.0052.0551,4.5928,4.5928,0,0,0,.91-.3179c.26.6117.3265.6455,1.0165.499-.0268-.1061-.0537-.212-.0983-.3869.2542.0583.4972.0494.5936.1476a2.0985,2.0985,0,0,0,1.3227.4882c1.0627.12,2.1317.2224,3.207.2994a1.5392,1.5392,0,0,0,1.25-.3264,1.132,1.132,0,0,1,.6972-.1918c1.1987.0586,2.3892.151,3.5821.2335.0466.0032.0869.0283.1331.0358q1.8041.2933,3.6087.5854c.1362.0223.3192.0206.3879.0949.0782.0844.0524.2416.0738.38l1.2586.1709-.192-.3537a1.6478,1.6478,0,0,1,1.2594.2084.4308.4308,0,0,0,.2823.0035,2.0555,2.0555,0,0,1,1.3988.1194l-.8281.0885a17.2258,17.2258,0,0,0,3.9856.4509,1.4505,1.4505,0,0,0,.3154-.077l.0163-.0975-1.1775-.2031a11.2684,11.2684,0,0,1,3.7389.1309c-.0967.2738.0618.4117.3616.4405.475.0457.9529.0815,1.43.1184a1.5867,1.5867,0,0,0,.6292.019c.1592-.06.2567-.28.4461-.5074a1.9313,1.9313,0,0,0,2.19.5919,1.2308,1.2308,0,0,1,1.1244-.8484,10.6074,10.6074,0,0,0,.4893-1.0723,5.5324,5.5324,0,0,0,.46-1.7785,2.47,2.47,0,0,0-.8425-2.0717.56.56,0,0,1-.1357-.777.9112.9112,0,0,0-.0458-.9475q-.7546-1.0676-1.5-2.14c-1.3532-1.9537-2.7148-3.9028-4.0513-5.8659-1.1538-1.6948-2.2718-3.41-3.4179-5.1087-.3735-.5536-.8009-1.0772-1.1731-1.6315a1.8586,1.8586,0,0,1-.1244-.221C31.7918,175.4217,30.2515,173.9188,29.6264,171.9346Zm-19.84,11.9348a1.962,1.962,0,0,0-.8595,1.0215,3.9614,3.9614,0,0,1-.2487.54.7721.7721,0,0,1-.4055.2492c.3272-1.1945,1.0286-2.2965,1.4977-3.6139a9.3894,9.3894,0,0,1,.9145,1.75C10.2907,184.1555,10.0377,183.9143,9.7862,183.8694Zm5.515,7.1476c-.1081.0065-.2809-.02-.3038-.08a8.3643,8.3643,0,0,1-.2368-.87c.537.1659.5664.5079.7055.7744C15.4814,190.87,15.3545,191.0138,15.3012,191.017Zm-.0957-14.4779a1.3515,1.3515,0,0,0-.6413,1.18.4025.4025,0,0,1-.1287.2848,3.8946,3.8946,0,0,0-1.2646,1.6c-.7238-.1234-.8121-.2256-.5859-.707.206-.4384.4631-.8655.665-1.3047a9.6537,9.6537,0,0,0,.32-.9149c.0766.018.1407.0274.198.0474.5706.2.7508.1295.9931-.3905.0737-.1581.1421-.3176.2234-.4738.0168-.0323.0794-.0526.1209-.0784C15.5015,176.0138,15.5643,176.26,15.2055,176.5391Zm8.5432,14.7085a10.1235,10.1235,0,0,1-3.0439.1058,9.6607,9.6607,0,0,0,1.1163-1.0751,7.3491,7.3491,0,0,0,.6153-1.23A3.1516,3.1516,0,0,1,23.7487,191.2476Zm-3.7234-27.1159.2239.6111C19.897,164.65,19.8471,164.4349,20.0253,164.1317Zm7.4334,26.81c.2277-.1991.4248-.3714.67-.5862l.589.53A1.419,1.419,0,0,1,27.4587,190.942Zm7.2267-3.3353c.3315.4386.6419.89.9524,1.3411.4144.6018.8368,1.2,1.2259,1.815.1986.3141.538.68.4484.992-.1484.5165.1369.8961.15,1.44a7.1553,7.1553,0,0,1-2.2316-.1435.5859.5859,0,0,1-.4064-.7472,1.5025,1.5025,0,0,0-.43-1.3335,1.521,1.521,0,0,1-.2926-1.2011,1.818,1.818,0,0,0-.3587-1.4291,1.5314,1.5314,0,0,1-.1673-.3213c-.0786-.1632-.206-.3619.0469-.4984a1.4787,1.4787,0,0,1,.6921-.1424A.5519.5519,0,0,1,34.6854,187.6067Z"/></svg>