<svg id="Layer_1" data-name="Layer 1" xmlns="http://www.w3.org/2000/svg" width="4.6282in" height="4.0755in" viewBox="0 0 333.2336 293.4379"><defs><style>.cls-1{fill:#fff;}.cls-2{fill:#15c092;}</style></defs><path class="cls-1" d="M317.4352,18.2015H257.2609a10.0027,10.0027,0,0,0-9.5484,6.6967,46.6642,46.6642,0,0,1-88.8965-.0064,10.0056,10.0056,0,0,0-9.5484-6.69H89.1061A10.2779,10.2779,0,0,0,78.84,28.4548V82.1887a10.2725,10.2725,0,0,0,10.2662,10.247h25.7872a25.0041,25.0041,0,0,1,24.9668,24.98V224.5949a10.2779,10.2779,0,0,0,10.2662,10.2533h105.93A10.267,10.267,0,0,0,266.31,224.5949V117.4154a25.0042,25.0042,0,0,1,24.9669-24.98h26.1588a10.2615,10.2615,0,0,0,10.2534-10.247V28.4548A10.267,10.267,0,0,0,317.4352,18.2015Zm-69.76,131.3245H211.8338v35.8418H190.9266V149.526H155.0848V128.6188h35.8418V92.7769h20.9072v35.8419h35.8418Z" transform="translate(-9.1685 -3.4751)"/><path class="cls-2" d="M317.4352,3.4751H257.2609a24.5349,24.5349,0,0,0-23.57,16.9437,31.9475,31.9475,0,0,1-60.8535-.0065,24.5374,24.5374,0,0,0-23.57-16.9372H89.1061a25.0069,25.0069,0,0,0-24.98,24.98V65.5407H26.7818A17.6137,17.6137,0,0,0,9.1685,83.1556V136.89a17.6135,17.6135,0,0,0,17.6133,17.6141H52.577a17.6147,17.6147,0,0,1,17.6149,17.615V279.298a17.6141,17.6141,0,0,0,17.6149,17.615H193.7351a17.6139,17.6139,0,0,0,17.6133-17.615V249.5746h44.7078a25.0041,25.0041,0,0,0,24.9668-24.98V117.4154a10.267,10.267,0,0,1,10.2534-10.2534h26.1588a24.9987,24.9987,0,0,0,24.9669-24.9733V28.4548A25.0042,25.0042,0,0,0,317.4352,3.4751Zm10.2534,78.7136a10.2615,10.2615,0,0,1-10.2534,10.247H291.2764a25.0042,25.0042,0,0,0-24.9669,24.98V224.5949a10.267,10.267,0,0,1-10.2533,10.2533h-105.93A10.2779,10.2779,0,0,1,139.86,224.5949V117.4154a25.0041,25.0041,0,0,0-24.9668-24.98H89.1061A10.2725,10.2725,0,0,1,78.84,82.1887V28.4548A10.2779,10.2779,0,0,1,89.1061,18.2015h60.1615a10.0056,10.0056,0,0,1,9.5484,6.69,46.6642,46.6642,0,0,0,88.8965.0064,10.0027,10.0027,0,0,1,9.5484-6.6967h60.1743a10.267,10.267,0,0,1,10.2534,10.2533Z" transform="translate(-9.1685 -3.4751)"/><polygon class="cls-2" points="202.665 125.144 202.665 89.302 181.758 89.302 181.758 125.144 145.916 125.144 145.916 146.051 181.758 146.051 181.758 181.893 202.665 181.893 202.665 146.051 238.507 146.051 238.507 125.144 202.665 125.144"/></svg>