<svg id="Layer_1" data-name="Layer 1" xmlns="http://www.w3.org/2000/svg" width="4.7194in" height="4.1667in" viewBox="0 0 339.7958 300"><defs><style>.cls-1{fill:red;}.cls-2{fill:#fff;}</style></defs><path class="cls-1" d="M204.3665,282.36a11.1142,11.1142,0,0,1-10.625,7.9912h-17.52a6.5585,6.5585,0,0,0-6.5622,6.5606v.0016a6.5583,6.5583,0,0,0,6.5622,6.5621h17.52a24.31,24.31,0,0,0,23.2366-17.4627,6.5732,6.5732,0,0,0-4.4858-8.1322,6.1922,6.1922,0,0,0-1.1375-.0929A6.4849,6.4849,0,0,0,204.3665,282.36Z" transform="translate(-2.6063 -3.4751)"/><path class="cls-1" d="M93.15,286.8757h40.2348a6.5605,6.5605,0,0,1,6.5605,6.5605v.0016A6.5621,6.5621,0,0,1,133.3832,300H93.1516a6.5621,6.5621,0,0,1-6.5621-6.5621v-.0016A6.5605,6.5605,0,0,1,93.15,286.8757Z"/><path class="cls-1" d="M16.0126,80.6892A11.1435,11.1435,0,0,1,26.7914,72.102H43.3121A6.5583,6.5583,0,0,0,49.8742,65.54v-.0008a6.5577,6.5577,0,0,0-6.5621-6.5614H26.7914a24.0578,24.0578,0,0,0-23.57,18.7765,6.56,6.56,0,0,0,4.9345,7.863,6.1353,6.1353,0,0,0,1.0173.1162c.1474.01.3.05.4438.05A6.559,6.559,0,0,0,16.0126,80.6892Z" transform="translate(-2.6063 -3.4751)"/><path class="cls-1" d="M76.7636,194.2065v-22.09a24.3248,24.3248,0,0,0-11.7272-20.7246,6.5817,6.5817,0,0,0-9.01,2.2429,6.2571,6.2571,0,0,0-.5158,1.4579,6.4855,6.4855,0,0,0,2.7588,7.5522,10.9775,10.9775,0,0,1,5.37,9.4716v22.09a6.559,6.559,0,0,0,6.5589,6.5613l.0032.0009A6.5584,6.5584,0,0,0,76.7636,194.2065Z" transform="translate(-2.6063 -3.4751)"/><path class="cls-1" d="M23.7282,147.5154A11.0852,11.0852,0,0,1,15.7306,136.89V119.4212A6.5576,6.5576,0,0,0,9.1733,112.86l-.0048-.0008a6.5583,6.5583,0,0,0-6.5622,6.5621V136.89A24.2641,24.2641,0,0,0,20.14,160.14a6.7315,6.7315,0,0,0,1.7944.25,6.5578,6.5578,0,0,0,6.3058-4.7614,6.0736,6.0736,0,0,0,.09-1.1263A6.4732,6.4732,0,0,0,23.7282,147.5154Z" transform="translate(-2.6063 -3.4751)"/><path class="cls-1" d="M76.7636,274.676V234.4381a6.5583,6.5583,0,0,0-6.5621-6.5622l-.0032.0008a6.559,6.559,0,0,0-6.5589,6.5614V274.676a6.5584,6.5584,0,0,0,6.5621,6.5622c.1314,0,.2419-.0673.3717-.0753A6.5185,6.5185,0,0,0,76.7636,274.676Z" transform="translate(-2.6063 -3.4751)"/><path class="cls-2" d="M317.4352,18.2015H257.2737a10.0071,10.0071,0,0,0-9.5612,6.6967,46.6568,46.6568,0,0,1-88.8837,0,10.0071,10.0071,0,0,0-9.5612-6.6967H89.1061A10.2614,10.2614,0,0,0,78.8528,28.4484V82.1823A10.2669,10.2669,0,0,0,89.1061,92.4357h25.8a25.0042,25.0042,0,0,1,24.9669,24.98V224.5949a10.2669,10.2669,0,0,0,10.2533,10.2533h105.93A10.267,10.267,0,0,0,266.31,224.5949V117.4154a25.0069,25.0069,0,0,1,24.98-24.98h26.146a10.267,10.267,0,0,0,10.2534-10.2534V28.4484A10.2614,10.2614,0,0,0,317.4352,18.2015ZM226.73,179.1982,201.3866,153.854l-25.345,25.3442-14.784-14.7841,25.345-25.3441-25.345-25.3434,14.784-14.7841,25.345,25.3442L226.73,98.9425l14.784,14.7841L216.1706,139.07l25.3434,25.3441Z" transform="translate(-2.6063 -3.4751)"/><path class="cls-1" d="M214.6359,249.5746h41.42a25.0041,25.0041,0,0,0,24.9668-24.98V117.4154a10.278,10.278,0,0,1,10.2662-10.2534h26.146a25.0041,25.0041,0,0,0,24.9669-24.98V28.4484A24.9987,24.9987,0,0,0,317.4352,3.4751H257.2737A24.5416,24.5416,0,0,0,233.691,20.4123a31.9373,31.9373,0,0,1-60.8407,0A24.5415,24.5415,0,0,0,149.2676,3.4751H89.1061A24.9987,24.9987,0,0,0,64.1392,28.4484V82.1823a25.0041,25.0041,0,0,0,24.9669,24.98h25.8a10.267,10.267,0,0,1,10.2533,10.2534V224.5949a25.0042,25.0042,0,0,0,24.9669,24.98h64.51ZM327.6886,82.1823a10.267,10.267,0,0,1-10.2534,10.2534h-26.146a25.0069,25.0069,0,0,0-24.98,24.98V224.5949a10.267,10.267,0,0,1-10.2533,10.2533h-105.93a10.2669,10.2669,0,0,1-10.2533-10.2533V117.4154a25.0042,25.0042,0,0,0-24.9669-24.98h-25.8A10.2669,10.2669,0,0,1,78.8528,82.1823V28.4484A10.2614,10.2614,0,0,1,89.1061,18.2015h60.1615a10.0071,10.0071,0,0,1,9.5612,6.6967,46.6568,46.6568,0,0,0,88.8837,0,10.0071,10.0071,0,0,1,9.5612-6.6967h60.1615a10.2614,10.2614,0,0,1,10.2534,10.2469Z" transform="translate(-2.6063 -3.4751)"/><polygon class="cls-1" points="213.564 135.595 238.908 110.251 224.124 95.467 198.78 120.812 173.435 95.467 158.651 110.251 183.996 135.595 158.651 160.939 173.435 175.723 198.78 150.379 224.124 175.723 238.908 160.939 213.564 135.595"/></svg>
