<?xml version="1.0" encoding="UTF-8"?>
<svg id="Layer_2" data-name="Layer 2" xmlns="http://www.w3.org/2000/svg" viewBox="0 0 70.05 210.49">
  <defs>
    <style>
      .cls-1 {
        fill: #13c394;
      }
    </style>
  </defs>
  <g id="Layer_1-2" data-name="Layer 1">
    <g>
      <g>
        <path class="cls-1" d="m56.45,2.25c-1.32-1.53-4.51-1.04-7.47-.36-.74.39-1.46.8-2.19,1.17-1.47.75-2.87,1.55-4.42,2-.15.05-.27.2-.42.28-.19.11-.4.19-.6.29-.27.14-.54.28-.8.43-.26.16-.5.36-.77.5-.52.27-1.04.52-1.57.76-.19.09-.41.13-.62.17-.49.11-1.01.11-1.25.71-.09.22-.47.48-.71.47-.64-.02-.95.37-1.27.81-.11.15-.24.29-.39.39-1.44.94-2.84,1.9-4.16,2.94-.41.32-.86.51-1.28.77-.72.45-1.31,1.15-1.93,1.77-.39.39-.72.9-1.17.69-.31.25-.5.42-.7.57-.19.15-.51.23-.57.46-.18.66-.48,1.01-.94,1.32-.5.33-.86.99-1.29,1.48-.65.75-1.31,1.49-1.94,2.27-.05.06-.11.13-.17.14-.55.06-.83.66-1.14,1.2-.56.98-.96,2.19-1.68,2.96-.28.3-.5.56-.86.07-.19.63-.32,1.23-.53,1.72-.17.41-.48.64-.65,1.05-.58,1.43-1.3,2.61-2.05,3.76-.21.32-.37.73-.52,1.15-.67,1.93-1.46,3.61-2.54,4.8-.14.16-.28.44-.31.75-.14,1.49-.61,2.6-.9,3.9-.2.93-.43,1.85-.94,2.33-.14.13-.18.52-.28.76-.11.27-.24.52-.4.86,0,.06.11.39.06.52-.15.51-.34.98-.53,1.44-.08.18-.27.24-.28.45-.1,1.68-.5,3.01-.76,4.47-.17.97-.47,1.79-.72,2.65-.1.35-.25.63-.35.96-.17.52-.34,1.06-.49,1.6-.02.08.02.23.02.34,0,.47.03.98-.02,1.39-.13.92-.27,1.83-.46,2.66-.18.78-.18,1.77-.68,2.18-.21.17-.32.66-.08,1.27.19.49.1.78-.03,1.1-.3.69-.54,1.46-.06,2.46-.09.24-.25.42-.21.58.11.43-.05.59-.13.85-.11.33-.27.75-.16,1.1.44,1.49,0,2.39-.19,3.46-.04.24-.08.54,0,.81.18.75.3,1.42.14,2.06-.1.41-.11.91-.1,1.39.03,1.7-.05,3.33-.13,4.94-.03.7,0,1.42.04,2.14.04.76.03,1.53-.23,2.1-.24.53-.2,1.08.21,1.79.34.59.3,1.08-.02,1.39-.16.15-.26.38-.4.58.17.23.27.37.36.5-.06.18-.13.34-.18.52-.11.44.35,1,.28,1.35-.09.45-.15.83.07,1.38.13.32.21.68.26,1,.08.48-.09.8-.17,1.18-.08.35.24.95.06,1.31-.04.07-.08.16-.08.26.02.24,0,.53.12.72.4.66.55,1.26.6,1.97.04.57.14,1.17.18,1.76.04.64-.05,1.27.36,2.01.07.14,0,.35.03.53.06.5.12,1.01.2,1.52.09.54.24,1.1.32,1.65.14.91.19,1.8.71,2.75.06.1.1.23.11.34.14,1.03.62,2.08.85,3.15.39,1.75.94,3.56,1.63,5.41.07.18.08.41.05.57-.07.43.09.89.34,1.38.71,1.42,1.32,2.88,1.7,4.42.04.15.09.31.16.47.9,2.09,1.88,4.24,2.52,6.52.05.16.13.35.21.5.42.77.8,1.52,1.16,2.35.54,1.26,1.08,2.53,1.66,3.79.48,1.03.92,2.08,1.41,3.11.59,1.25,1.22,2.48,1.82,3.72.69,1.41,1.33,2.89,2.34,3.89.08.08.16.22.24.33-.03.01-.05.02-.08.03.18.45.35.89.53,1.34.12.3.26.61.4.9.24.48.49.96.76,1.43.2.34.43.64.62.98.83,1.47,1.64,2.97,2.47,4.42.57.99,1.16,1.95,1.77,2.87.87,1.32,1.76,2.6,2.65,3.88.52.75,1.08,1.45,1.56,2.25,1.09,1.78,2.3,3.23,3.48,4.71,1.31,1.64,2.69,3.01,4.02,4.55,1.27,1.47,2.56,2.78,3.88,3.93.98.85,1.94,1.81,2.91,2.74.84.81,1.67,1.65,2.5,2.48.34.35.66.44.91.28.58-.37,1.26-.49,1.66-1.34.29-.62.4-1.51.9-1.83.06-.04.05-.27.05-.43,0-.52-.02-1.05,0-1.55.01-.48-.07-.76-.39-1-.98-.75-1.96-1.46-2.93-2.26-1.31-1.08-2.63-2.16-3.91-3.43-1.74-1.73-3.45-3.64-5.17-5.54-.53-.59-1.04-1.25-1.57-1.87-1.91-2.27-3.79-4.67-5.61-7.26-1.43-2.03-2.72-4.25-4.08-6.41-.38-.61-.75-1.25-1.12-1.88-.49-.85-.97-1.7-1.46-2.55-.16-.27-.32-.54-.47-.82-.76-1.44-1.53-2.87-2.28-4.32-.36-.69-.68-1.41-1.02-2.12-.66-1.38-1.35-2.76-1.99-4.16-.72-1.56-1.37-3.16-2.1-4.71-1.5-3.2-2.66-6.47-3.83-9.52-.34-.9-.62-1.8-.92-2.69-.48-1.46-.93-2.9-1.38-4.31-.16-.5-.32-1-.47-1.49-.26-.87-.52-1.74-.75-2.6-.26-.95-.51-1.89-.73-2.82-.14-.62-.19-1.23-.33-1.84-.16-.7-.42-1.41-.54-2.1-.32-1.77-.58-3.51-.83-5.25-.05-.37,0-.72-.01-1.09-.02-.42-.05-.84-.1-1.26-.12-.92-.28-1.85-.36-2.77-.1-1.1-.22-2.23-.17-3.28.05-1.05.05-2.11,0-3.21-.03-.59-.05-1.18-.05-1.76,0-.42.02-.84.03-1.25,0-.21.04-.41.03-.63-.04-.83.22-1.56-.09-2.51-.04-.11.04-.24.05-.38.03-.69.07-1.39.08-2.09,0-.4-.03-.83-.02-1.24,0-.54.02-1.1.08-1.62.14-1.2,0-2.55.22-3.75.11-.63.08-1.37.14-2.05.04-.52.12-1.03.18-1.55.1-.72.21-1.44.31-2.17.1-.71.18-1.43.29-2.14.09-.57.23-1.11.32-1.69.19-1.3.39-2.65.56-4.08.2-1.72.63-3.35,1.04-5.02.61-2.53,1.32-5.07,2.08-7.6.43-1.44.87-2.92,1.36-4.32.82-2.31,1.73-4.54,2.68-6.73.3-.7.72-1.34.86-2.16.13-.78.4-1.22.71-1.68.27-.4.56-.75.81-1.18.71-1.23,1.43-2.47,2.19-3.64.3-.46.64-.84.94-1.29.58-.9,1.14-1.85,1.76-2.7.63-.88,1.33-1.65,2-2.49.65-.81,1.26-1.69,1.95-2.44.8-.87,1.68-1.62,2.54-2.42.72-.68,1.42-1.41,2.17-2.06.43-.38.93-.65,1.37-1.03,1.42-1.22,2.88-2.42,4.44-3.53,1.21-.86,2.48-1.65,3.78-2.46,1.85-1.14,3.78-2.26,5.8-3.37.57-.31,1.16-.6,1.74-.94,1.36-.78,2.76-1.57,4.19-2.39,1.04-.59,2.08-1.22,3.16-1.83-.1-.47-.22-.92-.49-1.23Z"/>
        <path class="cls-1" d="m49.03,192.69c-.42.05-.98-.06-1.58-.66l-.45-.45c-.68-.68-1.36-1.36-2.04-2.02l-.54-.52c-.76-.74-1.56-1.51-2.33-2.18-1.34-1.17-2.65-2.49-3.99-4.04-.51-.59-1.03-1.15-1.54-1.72-.83-.9-1.68-1.83-2.5-2.86l-.44-.55c-1.05-1.3-2.13-2.65-3.12-4.28-.29-.48-.62-.93-.96-1.41-.19-.26-.38-.52-.56-.79l-.51-.74c-.72-1.04-1.44-2.08-2.15-3.16-.61-.93-1.22-1.92-1.81-2.93-.52-.91-1.03-1.83-1.54-2.75-.31-.56-.62-1.12-.93-1.68-.08-.15-.18-.29-.27-.42-.12-.18-.24-.36-.35-.55-.27-.48-.53-.98-.79-1.48-.16-.32-.31-.65-.44-.98-.13-.32-.26-.64-.38-.96l-.2-.51c-.92-.96-1.55-2.26-2.16-3.52l-.81-1.65c-.43-.87-.86-1.74-1.28-2.61-.28-.58-.54-1.17-.8-1.76-.2-.45-.4-.91-.61-1.36-.53-1.14-1.02-2.3-1.51-3.45l-.16-.38c-.31-.72-.65-1.41-1.1-2.25-.14-.25-.25-.52-.32-.76-.55-1.96-1.37-3.86-2.17-5.69l-.29-.67c-.09-.22-.17-.45-.23-.67-.31-1.27-.82-2.59-1.6-4.16-.29-.59-.58-1.3-.46-2.12-.73-1.94-1.29-3.8-1.67-5.53-.09-.4-.22-.81-.36-1.24-.2-.62-.4-1.26-.5-1.94-.53-.99-.66-1.92-.77-2.74l-.06-.39c-.04-.27-.1-.54-.16-.82-.06-.27-.11-.54-.16-.81-.09-.52-.15-1.03-.21-1.54-.02-.14-.02-.26-.02-.37-.34-.75-.36-1.43-.37-1.94,0-.12,0-.23-.01-.35-.02-.28-.05-.57-.09-.85-.04-.3-.07-.6-.09-.89-.04-.57-.16-.96-.43-1.41-.25-.41-.27-.85-.28-1.15v-.12c-.03-.31.04-.57.11-.75,0-.03-.02-.07-.02-.1-.06-.29-.14-.68-.05-1.12.03-.13.06-.26.1-.38.06-.21.07-.25.06-.29-.05-.31-.11-.55-.19-.74-.32-.8-.26-1.44-.17-1.91-.01-.02-.02-.05-.03-.08-.14-.36-.34-.89-.2-1.52l-.51-.69.6-.92c.07-.12.16-.28.29-.43,0,0,0-.01,0-.02-.6-1.04-.68-2.04-.25-2.99.11-.25.15-.74.11-1.46-.04-.73-.08-1.51-.04-2.29.08-1.61.15-3.19.13-4.85,0-.54,0-1.16.14-1.74.09-.36-.02-.89-.14-1.41-.13-.52-.07-1.02,0-1.35.05-.27.11-.54.17-.8.17-.72.29-1.24.05-2.05-.21-.72.01-1.41.15-1.82.05-.14.08-.23.11-.3-.06-.33,0-.62.08-.84-.41-1.37.07-2.46.29-2.96-.4-1.13-.23-2.21.43-2.8.06-.14.12-.51.16-.76.04-.25.08-.5.14-.74.17-.74.3-1.55.44-2.55.03-.18.02-.47.02-.75,0-.15,0-.31,0-.46-.02-.1-.06-.38.03-.7.16-.56.33-1.12.51-1.66.06-.17.12-.34.19-.5.05-.13.11-.26.15-.41.07-.25.15-.49.22-.74.18-.6.36-1.16.47-1.78.08-.48.18-.94.28-1.4.2-.96.4-1.86.46-2.9.03-.53.29-.87.45-1.04.13-.32.25-.62.35-.92l-.09-.57.33-.71c.08-.16.15-.31.21-.46.01-.03.02-.08.04-.14.08-.3.2-.75.56-1.09.24-.23.46-1.21.55-1.63.11-.49.24-.96.37-1.43.22-.76.42-1.48.5-2.31.05-.56.3-1.13.65-1.52.84-.93,1.56-2.31,2.27-4.35.16-.46.36-.99.66-1.45.67-1.03,1.37-2.17,1.93-3.53.15-.36.34-.63.49-.82.07-.1.14-.19.16-.24.1-.25.2-.58.29-.93.06-.22.12-.44.19-.67l.68-2.22.84,1.12c.19-.32.37-.69.56-1.08s.37-.77.58-1.13l.09-.16c.28-.49.71-1.27,1.51-1.56.52-.62,1.04-1.22,1.57-1.83l.24-.28c.12-.14.24-.3.35-.45.31-.42.67-.9,1.18-1.24.26-.17.34-.28.41-.57.19-.7.73-1,.96-1.13l1.29-1.04.26.12s.02-.02.02-.03c.08-.09.16-.17.24-.25.13-.13.26-.27.4-.41.53-.55,1.07-1.12,1.76-1.54.17-.11.35-.2.53-.3.24-.13.47-.26.65-.4,1.2-.94,2.51-1.86,4.25-3,0,0,.03-.03.07-.08.32-.43.92-1.22,1.97-1.29.51-.89,1.37-1.04,1.8-1.12l.18-.03c.17-.04.32-.07.38-.1.51-.23,1.02-.47,1.52-.73.11-.06.21-.13.31-.2.13-.09.26-.18.4-.26.28-.16.57-.31.86-.46.1-.05.21-.1.31-.15.09-.04.17-.08.25-.12.11-.1.33-.29.65-.38,1.16-.34,2.26-.91,3.42-1.51l.8-.41c.42-.21.83-.44,1.25-.66.31-.17.62-.33.93-.5l.27-.1c3.43-.78,6.84-1.24,8.53.71h0c.46.53.64,1.2.76,1.79l.19.95-.81.46c-.58.33-1.15.66-1.71.99-.49.28-.97.57-1.45.84l-1.64.94c-.86.49-1.71.97-2.54,1.45-.36.21-.73.4-1.1.6-.22.12-.44.23-.66.35-2.08,1.14-3.96,2.23-5.75,3.34-1.24.77-2.53,1.56-3.72,2.41-1.62,1.16-3.11,2.4-4.36,3.47-.25.21-.51.39-.77.58-.2.14-.41.28-.59.44-.45.39-.88.82-1.31,1.24-.27.27-.54.53-.81.79-.25.24-.5.47-.75.7-.61.56-1.18,1.08-1.72,1.66-.42.45-.81.97-1.22,1.51-.22.29-.44.58-.67.86-.24.3-.48.59-.72.87-.44.53-.85,1.03-1.24,1.56-.41.57-.8,1.18-1.2,1.83-.17.27-.34.54-.52.81-.17.26-.35.5-.54.74-.14.18-.28.36-.4.56-.72,1.1-1.41,2.29-2.08,3.45l-.08.13c-.19.32-.39.61-.6.89-.09.12-.18.25-.27.37-.25.37-.41.63-.5,1.15-.14.79-.44,1.41-.71,1.96-.08.17-.17.34-.24.52-1.08,2.49-1.92,4.6-2.65,6.64-.44,1.24-.84,2.56-1.22,3.84l-.12.41c-.83,2.78-1.51,5.24-2.06,7.53l-.15.63c-.35,1.44-.69,2.81-.85,4.23-.15,1.27-.32,2.46-.49,3.62l-.07.5c-.05.34-.11.66-.18.98-.05.24-.1.48-.14.73-.07.44-.13.88-.18,1.32l-.24,1.71c-.06.42-.12.83-.18,1.25l-.03.2c-.06.42-.11.85-.15,1.28-.02.24-.03.48-.03.72-.02.47-.03.96-.12,1.45-.1.56-.11,1.2-.12,1.89,0,.58-.02,1.18-.09,1.78-.05.42-.06.89-.07,1.39v.1c0,.17,0,.35,0,.52,0,.24.02.49.01.72-.01.56-.04,1.11-.06,1.65l-.02.47c0,.08-.01.15-.02.22.18.74.13,1.36.09,1.88-.02.22-.04.44-.03.67,0,.19,0,.38-.02.56l-.02.47c-.01.3-.02.6-.02.9,0,.57.02,1.14.05,1.71.05,1.16.06,2.26,0,3.34-.04.86.05,1.84.14,2.8l.03.29c.05.56.13,1.12.22,1.69.05.34.1.69.14,1.03.06.46.09.92.11,1.37,0,.18,0,.36,0,.54,0,.14-.02.28,0,.42.28,2.03.54,3.68.82,5.2.06.32.16.68.27,1.06.09.33.19.66.26.98.07.33.13.66.18.99.04.28.09.56.15.85.21.92.47,1.87.72,2.77.23.85.49,1.71.75,2.57.1.35.22.7.33,1.05l.13.42c.44,1.41.9,2.84,1.37,4.3l.17.51c.23.7.46,1.41.73,2.12l.66,1.75c.95,2.52,1.93,5.13,3.13,7.68.41.86.79,1.74,1.17,2.61.31.71.61,1.41.94,2.11.46,1,.94,2,1.42,2.99l.87,1.81c.23.48.45.96.7,1.43.68,1.31,1.37,2.61,2.06,3.91l.21.4c.09.17.19.34.29.51l.52.91c.37.64.73,1.28,1.1,1.92l.16.27c.31.53.62,1.07.94,1.58.41.65.82,1.31,1.22,1.97.91,1.47,1.84,3,2.82,4.39,1.68,2.39,3.5,4.74,5.55,7.18.19.23.38.46.57.69.32.39.64.79.97,1.15l.18.2c1.62,1.79,3.29,3.64,4.95,5.29,1.18,1.18,2.44,2.21,3.65,3.22l.18.15c.69.57,1.4,1.11,2.09,1.62l.8.61c.79.6.87,1.44.85,2.01,0,.28,0,.58,0,.87,0,.22,0,.44,0,.66,0,.36,0,1.06-.58,1.49-.06.11-.15.37-.21.55-.09.27-.18.55-.29.79-.48,1.04-1.25,1.43-1.76,1.68-.12.06-.24.12-.36.19-.12.08-.37.21-.7.25Zm-26.83-37.47c.03.07.05.13.08.2.11.27.23.55.36.81.24.47.48.93.73,1.38.08.14.17.27.26.41.13.19.25.38.37.58.32.56.63,1.13.94,1.69.5.91,1.01,1.82,1.52,2.72.56.97,1.14,1.92,1.73,2.81.7,1.06,1.41,2.09,2.12,3.11l.51.74c.17.25.35.5.53.74.36.49.72,1,1.07,1.56.91,1.49,1.95,2.78,2.95,4.03l.45.56c.78.97,1.6,1.87,2.4,2.75.53.58,1.06,1.16,1.59,1.77,1.27,1.47,2.51,2.72,3.77,3.82.82.71,1.63,1.5,2.42,2.26l.54.52c.69.67,1.38,1.36,2.07,2.05l.37.37c.07-.03.13-.07.2-.1.42-.21.52-.28.61-.48.07-.15.12-.32.18-.49.14-.42.31-.94.65-1.38,0-.16,0-.3,0-.43,0-.33,0-.65,0-.97,0-.02,0-.03,0-.04l-.71-.54c-.71-.53-1.44-1.09-2.17-1.69l-.18-.15c-1.25-1.03-2.54-2.1-3.8-3.35-1.7-1.69-3.39-3.57-5.03-5.38l-.18-.2c-.35-.39-.7-.82-1.05-1.24-.18-.22-.36-.45-.55-.66-2.1-2.49-3.95-4.89-5.68-7.34-1.02-1.45-1.98-3.01-2.9-4.51-.4-.65-.8-1.3-1.21-1.94-.34-.54-.66-1.1-.99-1.66l-.15-.27c-.37-.64-.74-1.29-1.11-1.93l-.51-.89c-.11-.19-.23-.39-.33-.59l-.21-.4c-.7-1.31-1.39-2.61-2.08-3.93-.26-.49-.5-1-.74-1.51l-.86-1.79c-.49-1.01-.98-2.02-1.44-3.03-.33-.71-.64-1.43-.96-2.16-.37-.85-.74-1.71-1.14-2.55-1.24-2.64-2.24-5.3-3.21-7.87l-.65-1.73c-.29-.75-.53-1.5-.77-2.24l-.16-.5c-.48-1.47-.94-2.91-1.38-4.33l-.13-.41c-.12-.37-.23-.73-.34-1.09-.26-.88-.52-1.76-.76-2.63-.25-.92-.52-1.9-.74-2.87-.08-.35-.13-.69-.19-1.03-.04-.27-.08-.54-.15-.82-.06-.28-.14-.56-.23-.84-.12-.42-.25-.86-.33-1.31-.28-1.55-.55-3.24-.83-5.3-.05-.34-.04-.64-.03-.88,0-.11,0-.22,0-.33-.02-.38-.04-.77-.09-1.16-.04-.33-.09-.65-.14-.98-.09-.61-.18-1.23-.23-1.83l-.03-.29c-.1-1.04-.2-2.13-.15-3.17.05-1,.05-2.01,0-3.08-.03-.61-.05-1.21-.05-1.82,0-.35,0-.69.02-1.03v-.28c.01-.1.02-.19.03-.29,0-.08.01-.15.01-.23-.02-.37.01-.7.03-1,.04-.46.06-.79-.06-1.17-.13-.4-.05-.75,0-.93l.02-.38c.02-.53.05-1.06.06-1.59,0-.18,0-.37-.01-.55,0-.23-.02-.45-.01-.67v-.11c.01-.54.02-1.09.08-1.64.05-.46.06-.97.07-1.51.01-.76.02-1.54.16-2.32.05-.3.06-.67.08-1.07,0-.29.02-.58.04-.86.04-.48.1-.95.17-1.42l.03-.2c.06-.43.12-.85.18-1.28l.23-1.67c.06-.47.12-.94.19-1.4.05-.29.1-.57.16-.85.06-.27.11-.54.15-.82l.07-.5c.16-1.13.33-2.3.48-3.54.18-1.59.55-3.11.91-4.57l.15-.62c.57-2.34,1.26-4.85,2.1-7.67l.12-.41c.39-1.31.8-2.67,1.26-3.97.75-2.1,1.61-4.27,2.72-6.81.09-.21.19-.42.29-.63.21-.44.4-.82.47-1.22.18-1.05.55-1.66.92-2.21.1-.15.21-.3.31-.44.15-.21.31-.42.45-.66l.08-.13c.69-1.18,1.4-2.4,2.15-3.56.17-.26.34-.49.52-.72.14-.18.28-.37.41-.57.17-.26.33-.52.5-.79.41-.65.84-1.33,1.3-1.97.44-.61.9-1.16,1.35-1.7.23-.28.46-.55.69-.83.21-.27.42-.54.63-.81.43-.57.88-1.16,1.38-1.7.61-.66,1.25-1.25,1.87-1.81.24-.22.49-.44.73-.67.26-.24.52-.5.78-.75.47-.46.94-.91,1.43-1.34.25-.22.52-.41.8-.6.2-.14.39-.27.58-.43,1.29-1.1,2.83-2.39,4.52-3.6,1.26-.9,2.57-1.71,3.85-2.5,1.83-1.13,3.74-2.24,5.86-3.4.23-.13.46-.25.69-.37.34-.18.68-.36,1.02-.55.84-.48,1.69-.97,2.55-1.46l1.64-.93c.47-.27.95-.55,1.43-.83.24-.14.49-.28.73-.43-1.21-.96-4.62-.22-6.1.12-.26.14-.52.28-.77.42-.44.24-.87.47-1.31.69l-.78.4c-1.17.6-2.37,1.23-3.68,1.63-.12.1-.22.17-.33.23-.14.08-.28.14-.43.21-.07.03-.14.06-.21.1-.25.13-.49.25-.73.39-.09.05-.17.11-.26.17-.19.13-.37.26-.57.36-.54.28-1.08.53-1.62.78-.29.13-.57.19-.8.24l-.29.06c-.07.01-.15.03-.21.04-.33.65-1.1,1.13-1.78,1.11-.09.03-.23.22-.3.32-.22.29-.46.52-.72.69-1.68,1.09-2.94,1.98-4.08,2.87-.34.27-.68.45-.98.62-.14.08-.28.15-.41.23-.43.27-.84.7-1.28,1.16-.14.15-.29.3-.43.44-.06.06-.11.12-.17.18-.26.28-.74.81-1.47.91l-.33.27c-.08.06-.16.12-.25.17-.26.7-.68,1.23-1.34,1.67-.16.1-.36.38-.57.66-.16.21-.31.42-.48.61l-.24.28c-.56.65-1.13,1.29-1.67,1.96-.1.12-.38.45-.83.55-.07.1-.18.29-.26.43l-.1.18c-.17.3-.33.63-.48.96-.37.78-.76,1.59-1.37,2.25-.19.2-.47.51-.88.65-.08.26-.16.51-.26.76-.15.35-.34.61-.48.8-.07.1-.14.19-.16.24-.64,1.57-1.42,2.84-2.16,3.98-.14.22-.28.59-.37.86-.83,2.38-1.72,4.05-2.81,5.26-.08,1.06-.33,1.93-.56,2.78-.12.41-.24.83-.33,1.26-.23,1.07-.5,2.09-1.14,2.81,0,0,0,.02,0,.02-.04.17-.09.33-.15.47-.07.18-.15.35-.24.53.03.22.03.47-.05.73-.17.56-.37,1.06-.58,1.57-.06.15-.13.27-.2.36-.09,1.1-.29,2.04-.49,2.96-.09.43-.19.86-.26,1.3-.14.79-.35,1.46-.55,2.11-.07.23-.14.45-.21.68-.07.24-.16.46-.24.68-.04.11-.09.21-.13.33-.14.43-.28.87-.41,1.32,0,.08.01.15.01.21,0,.12,0,.25,0,.38,0,.38.01.78-.04,1.18-.15,1.06-.29,1.94-.48,2.77-.04.18-.07.37-.1.55-.1.66-.23,1.46-.74,2.07,0,.02.01.04.02.06.36.93.16,1.62-.06,2.11-.25.58-.3.87-.07,1.35l.25.51-.21.55c-.03.07-.06.13-.09.2.04.53-.12.9-.2,1.1l-.06.15c-.03.09-.08.23-.09.31.4,1.43.15,2.48-.05,3.33-.05.21-.1.42-.14.64-.03.19-.03.26-.03.27.21.84.37,1.76.13,2.69-.07.28-.06.79-.06,1.04.03,1.74-.05,3.37-.13,5.03-.03.61,0,1.24.04,2,.05.81.05,1.86-.35,2.74-.03.06-.08.17.16.58.6,1.05.45,1.98.06,2.6l.21.29-.3.85s-.02.04-.02.06c.01.04.03.08.05.12.13.33.3.78.19,1.33-.07.36-.08.43,0,.64.14.37.25.77.33,1.27.11.66-.04,1.16-.13,1.49,0,.03-.02.06-.02.09,0,.04.02.08.02.11.07.34.18.88-.03,1.45v.02c.42.74.63,1.48.7,2.4.02.26.05.52.08.78.04.33.08.66.1.99.01.15.01.31.02.46.01.47.02.72.19,1.02.22.41.2.82.18,1.01.05.49.11.96.19,1.43.04.23.09.47.14.7.07.32.14.65.19.97l.06.42c.1.7.18,1.3.51,1.91.13.24.22.51.26.78.06.47.23,1,.41,1.56.15.47.31.96.42,1.48.36,1.62.89,3.38,1.58,5.23.14.37.18.84.12,1.25,0,.01,0,.16.22.59.86,1.74,1.43,3.22,1.79,4.67.02.09.05.18.09.27l.29.66c.83,1.91,1.69,3.89,2.29,6.01.01.05.05.15.1.24.49.9.87,1.68,1.21,2.46l.16.38c.48,1.12.96,2.26,1.48,3.38.21.46.42.93.63,1.39.26.57.51,1.14.78,1.71.41.86.84,1.72,1.26,2.58l.82,1.67c.57,1.18,1.11,2.29,1.85,3.03.14.14.24.29.32.41l.93,1.3-.37.19Zm28.95,31.92h-.01s0,0,.01,0ZM6.08,123.95s0,0,0,.01c0,0,0,0,0-.01Zm-2.52-8.62s0,0,0,0c0,0,0,0,0,0Zm-.03-.1s0,0,0,0c0,0,0,0,0,0Zm-.31-13.25h0s0,0,0,0Zm-.02-.36v.04s0-.02,0-.04Zm-2.09-.66s0,0,0,.01c0,0,0,0,0-.01Zm1.66-5.67h0,0Zm5.51-8.23s0,0,0,0c0,0,0,0,0,0Zm-2.2.06h0s0,0,0,0Zm-3.94-21.86s0,0,0,0c0,0,0,0,0,0Zm3.38-16.19s0,0,0,0c0,0,0,0,0,0Zm.48-1.3s0,0,0,0c0,0,0,0,0,0Zm2.46-.88s0,0-.01,0c0,0,0,0,.01,0Zm11.29-25.87h0s0,0,0,0Zm15.55-13.32s0,0,0,.01c0,0,0,0,0-.01Zm.33-.3s.06,0,.09,0c-.03,0-.06,0-.09,0Z"/>
      </g>
      <path class="cls-1" d="m44.17,188.97c-.84,1.08-1.67,2.16-2.5,3.26-.59.79-1.14,1.63-1.75,2.4-.68.86-1.44,1.62-2.09,2.51-.48.66-1.07,1.1-1.78,1.37-.11.04-.24.1-.3.2-.18.29-.43.33-.76.23-.49-.15-.69-.06-.83.45-.13.49-.18,1.03-.28,1.55-.03.18,0,.34.04.55.11.46.22.97.17,1.4-.06.49.14.92.32,1.3.17.34.54.65.85.82.31.17.66.17.97.44.1.08.25.05.38.09.29.08.61.08.86.27.44.34.89.4,1.4.59-.1-.15-.14-.21-.19-.28.79.08,1.57.15,2.37.49.33.14.7.06,1.05.11.72.1,1.44.12,2.15.35.72.23,1.41.29,2.09.25.44-.02.86-.01,1.25.31.53.43,1.05.35,1.51.29.38-.05.74-.03,1.13.03.5.09,1.01.17,1.51.26.69.12,1.38.21,2.07.39.52.14,1.04.31,1.54.22.15-.03.33-.01.5.03.97.24,1.94.41,2.88.31.1-.01.22.03.33.05.61.1,1.23.25,1.84.3.77.06,1.52.16,2.24.76.08.07.18.08.27.12.53.23.77.14.92-.4.05-.21.13-.33.31-.41.32-.14.52-.41.48-.88-.01-.14.04-.27.07-.41.22.04.43.01.58.13.38.31.72.19,1.08.2.32,0,.66.11.97.07.39-.05.75-.2,1.13-.3.53-.13.68-.58.77-1.18.13-.91.04-1.9.29-2.76.04-.15.05-.33.02-.5-.24-1.62-.48-3.25-.73-4.87-.05-.3-.1-.62-.22-.9-.11-.26-.32-.47-.49-.7.42-.42.43-.49.13-1.05-.08.06-.16.11-.28.21-.02-.24-.09-.45-.04-.57.19-.4.13-.86.04-1.32-.18-.97-.38-1.95-.6-2.92-.09-.38-.2-.76-.59-1-.15-.09-.29-.36-.34-.56-.27-1.08-.51-2.15-.76-3.23,0-.04,0-.09,0-.13-.16-1.12-.32-2.24-.48-3.36-.02-.13-.07-.29-.03-.37.05-.09.18-.12.28-.18-.06-.38-.12-.73-.19-1.16-.11.13-.17.2-.23.28-.19-.41-.27-.79-.16-1.18.02-.06-.03-.18-.07-.25-.23-.4-.33-.88-.27-1.27.08.19.17.4.29.7.03-.56-.36-2.58-.69-3.65-.03-.09-.1-.17-.14-.25-.03,0-.05.01-.08.02.04.32.09.64.15,1.1-.35-.6-.76-2.21-.88-3.34.24,0,.31-.18.26-.45-.09-.43-.19-.87-.28-1.3-.04-.19-.05-.42-.15-.56-.09-.12-.29-.14-.52-.24.34-.65.39-1.33-.1-2.11-.44-.02-.81-.25-.98-.73-.37-.04-.69-.11-.99-.1-.52.01-1.1-.06-1.55.14-.6.26-1.2.59-1.44,1.38-.09.3-.29.39-.59.36-.3-.03-.57.06-.75.33-.44.66-.88,1.32-1.32,1.98-1.21,1.8-2.41,3.6-3.63,5.38-1.05,1.54-2.13,3.05-3.19,4.59-.34.5-.65,1.04-1,1.54-.04.06-.09.12-.14.18-.88,1.65-1.68,3.47-3.1,4.64Zm14.78,13.82c.34.34.69.41,1.04.44.17.02.33,0,.5.05.11.03.21.14.31.28-1.04.08-2.11-.2-3.29-.21.34-.66.84-.9,1.16-1.35.37.24.25.54.28.78Zm4.27-7.07c.03.09.06.25.02.29-.17.16-.37.29-.63.48,0-.52.26-.66.43-.86.02-.02.17.05.18.09Zm-11.57,4.54c.39.29.75.37,1.11.2.07-.03.19-.02.26.03.53.33,1.05.64,1.61.62.09.68.03.79-.41.73-.41-.05-.81-.14-1.22-.18-.27-.03-.53,0-.82,0,0-.07-.02-.13-.01-.19,0-.56-.09-.7-.57-.76-.15-.02-.29-.03-.44-.05-.03,0-.06-.05-.09-.08.08-.42.26-.55.58-.32Zm9.53-12.07c.48.83.64,1.69.89,2.65-.44-.26-.79-.53-1.15-.65-.37-.13-.76-.11-1.15-.16.13-.68.84-1.61,1.42-1.83Zm-20.73,11.64c.14-.13.29-.26.43-.39.02.34-.14.45-.43.39Zm19.51-14.81c-.22-.14-.41-.26-.65-.41.1-.25.17-.43.27-.68q.33.45.38,1.09Zm-4.57-5.35c.26-.43.54-.84.82-1.25.37-.55.74-1.11,1.13-1.64.2-.27.4-.68.68-.7.45-.03.68-.4,1.11-.58.29.72.41,1.37.47,2.01.04.35-.23.54-.49.59-.46.08-.74.37-.95.79-.19.36-.53.54-.88.63-.45.12-.81.33-1.05.76-.05.1-.14.17-.21.25-.11.12-.24.29-.41.11-.14-.14-.24-.37-.3-.57-.03-.12.02-.29.09-.4Z"/>
    </g>
  </g>
</svg>
