<?xml version="1.0" encoding="utf-8"?>
<!-- Generator: Adobe Illustrator 25.4.8, SVG Export Plug-In . SVG Version: 6.00 Build 0)  -->
<svg version="1.1" id="Layer_1" xmlns="http://www.w3.org/2000/svg" xmlns:xlink="http://www.w3.org/1999/xlink" x="0px" y="0px"
	 viewBox="0 0 54.1 55.4" style="enable-background:new 0 0 54.1 55.4;" xml:space="preserve">
<style type="text/css">
	.st0{fill:#FFFFFF;}
	.st1{fill:#C4BAFF;}
	.st2{fill:#2D2D2D;}
</style>
<g>
	<path class="st0" d="M34.2,4c-0.1,0-0.2,0.1-0.3,0.2C34,4.2,34,4.3,34.1,4.4c0.2,0.5,0.5,1,0.6,1.6c0,0.4-0.2,0.9-0.4,1.4
		C34.2,8,34,8.7,33.9,9.3c-0.1,0.8-0.2,1.5-0.3,2.3c-0.1,1.1-0.3,2.1-0.4,3.2c-0.1,1.3-0.1,2.6-0.2,3.9c0,0,0,0,0.1,0
		c0,0.3,0,0.5,0,0.8c0,0.7,0.1,0.8,0.8,0.9c1.4,0.2,2.8,0.4,4.2,0.6c1.1,0.1,2.2,0.2,3.3,0.3c1,0.1,2,0.1,3,0.1c0.5,0,1,0,1.4,0
		c0.1,0,0.2-0.1,0.4-0.1c-0.1-0.1-0.1-0.3-0.2-0.4c-0.2-0.2-0.3-0.3-0.5-0.5c-0.9-1-1.8-2-2.6-3c-0.9-1-1.6-2.2-2.3-3.4
		c-0.7-1.3-1.3-2.5-2-3.8c-0.5-0.8-0.9-1.7-1.4-2.5c-0.2-0.4-0.4-0.8-0.7-1.2c-0.2-0.3-0.4-0.7-0.6-1c-0.3-0.4-0.5-0.9-0.9-1.2
		C34.9,4,34.5,4,34.2,4z"/>
	<path class="st1" d="M24.9,34.4c0.1-0.2-0.1-0.5-0.4-0.7c-0.2,0.3-0.4,0.5-0.5,0.8c0,0,0.1,0.1,0.1,0.1
		C24.4,34.5,24.9,34.5,24.9,34.4z"/>
	<path class="st1" d="M17.7,43.5c-0.9,0.2-1.4-0.2-2.2-0.8c0,0,0,0-0.1,0c0,0.1-0.1,0.2-0.1,0.3c-0.1,0.4-0.1,0.5,0.4,0.5
		c0.2,0,0.4,0,0.7,0c0.7,0.1,1.4,0.2,2.1,0.3c0.1,0,0.3,0,0.5,0c0-0.4,0-0.8,0-1.2C18.6,42.7,17.9,43.4,17.7,43.5z"/>
	<path class="st1" d="M36.8,40.6c0.3-0.1,0.5-0.3,0.3-0.6c-0.2-0.3-0.4-0.6-0.6-0.9c-0.4,0.7-0.8,1.3-1.1,1.9c0,0,0,0,0.1,0.1
		C35.9,40.9,36.4,40.7,36.8,40.6z"/>
	<path class="st1" d="M7,51.4C7.1,51.4,7.1,51.4,7,51.4c1.2-0.3,2.3,0.1,3.4,0c1.8-0.1,1.3-0.1,3.1-0.2c1.4-0.1,2.7-0.1,4.1-0.2
		c1.6,0,3.1,0,4.7-0.1c1.2,0,2.4-0.1,3.6-0.1c1.2,0,2.5-0.1,3.7-0.1c1.3,0,2.7,0,4-0.1c0.7,0,1.3,0,2,0.1c1,0,2,0.1,3,0.1
		c0.8,0,1.6,0,2.3,0.1c1.5,0.1,2.9,0.1,4.4,0.2c0.8,0,1.2,0.1,2,0.2c0.5,0,0.5,0,0.5-0.5c0-2,0.1-3.9,0.1-5.9c0-1.5-0.1-2.9-0.1-4.4
		c0-0.8,0.1-1.6,0.1-2.4c0-0.8,0-1.5,0-2.3c0-1.2,0-2.5,0-3.7c-0.1-2.3-0.1-4.6-0.1-6.9c0-0.6,0-0.7-0.6-0.7
		c-0.8-0.1-1.6-0.1-2.4-0.1c-1.5-0.1-2.9-0.2-4.4-0.3c-2.4-0.1-4.8-0.6-7.2-0.9c-0.3,0-0.7,0.1-1,0.1c-0.3,0-0.7,0.1-0.9-0.1
		c-0.8-0.5-1.8-0.5-2.7-0.6c-0.5,0,0.1,0-0.4-0.1c-0.1,0-0.2-0.1-0.2-0.2c-0.3-0.5-0.6-0.9-0.9-1.4c-0.3-0.6,0.3-1.3,0.9-1.3
		c0.7,0.1,0.4-0.1,1.1,0c0.3,0,0.5,0,0.5-0.4c0-1.1,0-2.1,0.1-3.2c0-0.9,0-1.8,0.1-2.6c0.1-1.6,0.3-3.2,0.5-4.8c0.1-1,0.4-2,0.6-3
		c0.1-0.5,0-1,0.4-1.4c0.2-0.2,0.1-0.4-0.3-0.4c-0.3,0-0.7,0-1,0.1c-2.7,0.3-5.4,0.4-8.1,0.5c-1.6,0-3.2,0.1-4.7,0.1
		c-1.3,0-2.7-0.1-4-0.2c-1.5-0.1-3-0.2-4.6-0.3c-1,0-2.1,0-3.1,0C5.2,4,5,4.2,5,4.6C5,6,5,7.3,5,8.7c0,0.8-0.1,1.7-0.1,2.5
		c0,1.1,0,2.3,0,3.4c0,1.4,0.1,2.7,0.1,4c0,1.2,0,2.4,0.1,3.6c0,1.3,0,2.6,0,4c0,1.4,0,2.8-0.1,4.2c0,2.1-0.1,4.1-0.1,6.2
		c0,1.3,0.1,2.6,0.2,3.9c0,0.8,0,3.7,0.1,4.5c0.1,1,0.1,2.1,0.2,3.1c0.2,1.2-0.8,1.7-1.7,1.5c-0.2,0-0.3-0.1-0.4-0.2
		c0.2,0.5,0.3,1,0.4,1.5c0.2,0,0.5,0.1,0.7,0.1C5.3,51.3,6.2,51.3,7,51.4z M21.2,24.5c0.4-0.2,0.8-0.1,1.1,0
		c0.5,0.2,1.1,0.4,1.6,0.7c0.3,0.2,0.5,0.5,0.5,0.8c0,0.9,0.4,1.7,0.8,2.5c0.5,1,1.1,1.9,1.7,2.9c0.5,0.8,1,1.6,1.5,2.4
		c0.7,1,1.4,2,2.2,3c0.5,0.6,0.9,1.2,1.5,1.9c0.2-0.2,0.3-0.4,0.4-0.5c0.5-1.1,0.8-2.3,1.1-3.4c0.2-0.9,0.9-1.2,2-1
		c0.6,0.1,1.1,0.4,1.5,0.7c0.2,0.1,0.3,0.4,0.4,0.6c0.7,1,1.5,2,2.2,3c0.6,0.8,1.1,1.7,1.7,2.5c0.3,0.4,0.6,0.8,1,1.1
		c0.6,0.6,0.8,1.3,0.8,2c0,0.1-0.2,0.3-0.3,0.4c-0.1,0.1-0.2,0.2-0.4,0.3c0.4,0.4,0.8,0.8,0.6,1.3c-0.1,0.2-0.2,0.5-0.4,0.6
		c-0.7,0.3-1.2,0.9-2.1,0.9c-1.3,0-2.6,0.1-3.9,0.2c-1.6,0-3.2,0.1-4.7,0.1c-1.9,0-3.8,0-5.7,0c-1.4,0-2.8,0-4.2-0.1
		c-1,0-2-0.2-2.9-0.3c-1.2-0.1-2.4-0.3-3.7-0.4c-0.9-0.1-1.8-0.1-2.7,0.5c-0.7,0.5-1.8,0.3-2.2-0.4c-0.2-0.4-0.5-0.8-0.7-1.2
		c-0.3-0.7-0.1-1.1,0.7-1.6c0.3-0.2,0.5-0.4,0.6-0.7c0.7-1.4,1.5-2.9,2.2-4.3c0.5-1,0.8-2,1.2-3c0.6-1.4,1.2-2.8,1.7-4.2
		c0.6-1.5,1.1-3,1.7-4.5c0.4-0.9,0.9-1.7,1.9-2.3c0.1-0.1,0.3-0.1,0.4-0.2C20.6,24.7,20.9,24.6,21.2,24.5z M10.3,14.5
		c0.4-1.1,1.1-2.1,2-2.9c0.3-0.3,0.7-0.5,1-0.8c0.1-0.1,0.2-0.2,0.3-0.2c0.2-0.2,0.5-0.3,0.8-0.2c0.4,0.1,0.8,0.2,1.2,0.3
		c0.1,0,0.2,0.2,0.3,0.4c0,0.3,0.2,0.4,0.5,0.5c0.9,0.2,1.8,0.4,2.4,1.1c0.7,0.8,1.3,1.7,1.3,2.8c0,0.5-0.1,1-0.3,1.5
		c-0.3,0.8-0.9,1.6-1.6,2.2c-0.7,0.6-1.5,1.1-2.4,1.4c-0.4,0.1-0.8,0.1-1.2,0.1c-0.9,0-1.7-0.2-2.5-0.5c-0.9-0.5-1.5-1.2-1.9-2.1
		c-0.3-0.7-0.4-1.4-0.4-2.1C10,15.4,10.2,15,10.3,14.5z"/>
	<path class="st1" d="M19,34.5c0,0,0.1,0.1,0.1,0.1c0.2-0.1,0.4-0.3,0.6-0.4c0.5-0.4,0.4-0.6-0.2-0.8C19.2,33.7,19.1,34.1,19,34.5z"
		/>
	<path class="st2" d="M52.9,51.8c-0.5-0.2-0.4,0-1-0.1c-0.3,0-0.5-0.1-0.5-0.4c-0.1-0.7-0.2-1.4-0.2-2.2c0-1.2,0.1-2.4,0.1-3.7
		c0-1.7,0-3.5,0-5.2c0-1.8-0.1-3.6-0.1-5.4c-0.1-1.9,0.1-3.9,0-5.8c0-0.5,0-0.9,0-1.4c0-0.8,0.1-1.6,0.1-2.4c0-0.3,0.1-0.5,0.4-0.7
		c0.3-0.1,0.6-0.4,0.7-0.6c0.2-0.5,0.5-1.1,0-1.7c-0.2-0.2-0.3-0.6-0.7-0.7c-0.3-0.1-0.5-0.2-0.8-0.4c-1-0.5-2-1-2.8-1.8
		c-0.6-0.7-1.3-1.3-1.9-1.9c-0.3-0.3-0.7-0.7-0.9-1c-0.5-0.7-0.9-1.4-1.4-2.1c-0.4-0.7-0.8-1.3-1.2-2c-0.3-0.6-0.6-1.3-1-2
		c-0.8-1.6-1.6-3.1-2.4-4.7C39,4.8,38.5,3.9,38,3c-0.2-0.4-0.5-0.7-0.8-1c-0.6-0.8-1.5-1.2-2.3-1.8c-0.4-0.3-0.8-0.2-1.2-0.2
		c-0.6,0.1-1.1,0.3-1.7,0.4c-1.2,0.2-2.4,0.4-3.6,0.5c-2.2,0.2-4.3,0.3-6.5,0.5c-2.5,0.2-5,0.2-7.5,0.1c-1.1-0.1-2.2-0.1-3.3-0.2
		C10.1,1.1,9,1,7.9,0.9c-1.2,0-2.4-0.1-3.6,0C3.2,1.1,2,1,0.9,1.7c0,0-0.1,0-0.2,0C0.4,1.9,0.1,2.4,0.2,2.7C0.4,3,0.5,3.3,0.7,3.6
		c0.5,0.8,0.9,1.6,0.8,2.6c0,0.3,0,0.7,0,1c0,1.1,0.1,2.3,0.1,3.4c0,0.2-0.1,0.4-0.1,0.6c0,0.1,0,0.1,0,0.2c0,0.2,0.1,0.4,0.1,0.7
		c0,0.5,0,1,0,1.5c0,1.5,0.1,3,0.1,4.6c0,2.1,0.1,4.2,0.1,6.4c0,1.4,0,2.8,0,4.2c0,0.7-0.1,1.5-0.1,2.2c0,2.1,0,4.1,0,6.2
		c0,1.3,0,2.7,0.1,4c0,1.1,0.2,4.2,0.2,5.3c0,0.7,0,1.3,0.3,1.9c0.1,0.3,0.2,0.6,0.3,0.9c0,0.1,0.1,0.2,0.2,0.2
		c0.1,0.1,0.3,0.1,0.4,0.2c0.1,0.1,0.3,0.1,0.4,0.2c0.9,0.2,1.8-0.3,1.7-1.5c-0.1-1-0.2-2.1-0.2-3.1c0-0.8,0-3.7-0.1-4.5
		C5,39.3,4.9,38,4.9,36.7c0-2.1,0.1-4.1,0.1-6.2c0-1.4,0-2.8,0.1-4.2c0-1.3,0-2.6,0-4c0-1.2,0-2.4-0.1-3.6c0-1.4-0.1-2.7-0.1-4
		c0-1.1,0-2.3,0-3.4c0-0.8,0.1-1.7,0.1-2.5C5,7.3,5,6,5,4.6C5,4.2,5.2,4,5.6,4c1,0,2.1,0,3.1,0c1.5,0.1,3,0.2,4.6,0.3
		c1.3,0.1,2.7,0.2,4,0.2c1.6,0,3.1,0,4.7-0.1c2.7,0,5.4-0.2,8.1-0.5c0.3,0,0.7-0.1,1-0.1c0.3,0,0.5,0.2,0.3,0.4
		C31,4.7,31.1,5.2,31,5.7c-0.2,1-0.4,2-0.6,3c-0.2,1.6-0.4,3.2-0.5,4.8c-0.1,0.9-0.1,1.8-0.1,2.6c0,1.1,0,2.1-0.1,3.2
		c0,0.4-0.2,0.4-0.5,0.4c-0.7-0.1-0.4,0-1.1,0c-0.7,0-1.2,0.7-0.9,1.3c0.2,0.5,0.6,0.9,0.9,1.4c0,0.1,0.1,0.1,0.2,0.2
		c0.5,0.1-0.1,0.1,0.4,0.1c0.9,0,1.9,0,2.7,0.6c0.2,0.1,0.6,0.1,0.9,0.1c0.3,0,0.7-0.1,1-0.1c2.4,0.3,4.8,0.8,7.2,0.9
		c1.5,0.1,2.9,0.2,4.4,0.3c0.8,0,1.6,0,2.4,0.1c0.6,0,0.6,0.1,0.6,0.7c0,2.3,0.1,4.6,0.1,6.9c0,1.2-0.1,2.5,0,3.7c0,0.8,0,1.5,0,2.3
		c0,0.8-0.1,1.6-0.1,2.4c0,1.5,0,2.9,0.1,4.4c0,2-0.1,3.9-0.1,5.9c0,0.5,0,0.5-0.5,0.5c-0.8,0-1.2-0.1-2-0.2
		c-1.5-0.1-2.9-0.2-4.4-0.2c-0.8,0-1.6,0-2.3-0.1c-1,0-2-0.1-3-0.1c-0.7,0-1.3-0.1-2-0.1c-1.3,0-2.7,0-4,0.1c-1.2,0-2.5,0-3.7,0.1
		c-1.2,0-2.4,0.1-3.6,0.1c-1.6,0-3.1,0-4.7,0.1c-1.4,0-2.7,0.1-4.1,0.2c-1.8,0.1-1.3,0.1-3.1,0.2c-1.1,0.1-2.3-0.3-3.4,0
		c0,0,0,0,0,0c-0.9-0.1-1.7-0.1-2.6-0.2c-0.2,0-0.5,0-0.7-0.1c-0.2,0-0.5-0.1-0.7-0.1c-0.5,0-1.1,0-1.6,0c-0.3,0-0.7,0-0.9,0.2
		C0.3,51.4,0,51.7,0,51.9c0,0.5,0.2,0.9,0.4,1.4c0.1,0.2,0.3,0.3,0.3,0.4C1,54.6,1.6,54.9,2.4,55c0.3,0,0.6,0.1,0.9,0.2
		c0.1,0,0.2,0.1,0.2,0.1c0.3,0,0.6-0.1,0.9-0.1c0.2,0,0.5,0.1,0.7-0.1c0.5-0.4,1,0,1.5-0.4c0,0,0-0.1,0-0.1c0.9,0,1.7,0,2.5,0
		c1.1,0,2.2,0,3.3-0.1c2.2-0.1,2-0.1,4.1-0.2c2.8-0.1,5.6-0.2,8.4-0.3c1.3,0,2.7,0,4,0c1.4,0,2.7-0.1,4.1-0.1c2.2,0,4.5,0,6.7,0.1
		c1,0,2,0.1,3,0.2c1.2,0.1,2.3,0.2,3.5,0.3c0.9,0.1,1.4,0.2,2.2,0.3c0.5,0,0.9,0.1,1.4,0.2c0.7,0.1,1.4,0.2,2.1,0.3
		c0.3,0.1,0,0,0.3,0.1c0.4,0.1,0.5,0,0.9,0c0.9-0.2,0.7-0.4,0.8-1.4C54.2,52.9,53.8,52.1,52.9,51.8z M36.5,6.4
		c0.2,0.4,0.4,0.8,0.7,1.2c0.5,0.8,0.9,1.7,1.4,2.5c0.7,1.3,1.3,2.5,2,3.8c0.6,1.2,1.4,2.4,2.3,3.4c0.9,1,1.8,2,2.6,3
		c0.1,0.2,0.3,0.3,0.5,0.5c0.1,0.1,0.1,0.2,0.2,0.4c-0.1,0.1-0.2,0.1-0.4,0.1c-0.5,0-1,0-1.4,0c-1,0-2-0.1-3-0.1
		c-1.1-0.1-2.2-0.2-3.3-0.3c-1.4-0.2-2.8-0.4-4.2-0.6c-0.7-0.1-0.8-0.2-0.8-0.9c0-0.3,0-0.5,0-0.8c0,0,0,0-0.1,0
		c0.1-1.3,0.1-2.6,0.2-3.9c0.1-1.1,0.2-2.1,0.4-3.2c0.1-0.8,0.2-1.5,0.3-2.3C34,8.7,34.2,8,34.3,7.4c0.1-0.5,0.4-1,0.4-1.4
		c-0.1-0.5-0.4-1-0.6-1.6c0-0.1-0.1-0.2-0.2-0.3C34,4.1,34.1,4,34.2,4c0.3,0,0.6,0.1,0.8,0.2c0.4,0.4,0.6,0.8,0.9,1.2
		C36.1,5.8,36.3,6.1,36.5,6.4z"/>
	<path class="st2" d="M18,27.2c-0.6,1.5-1.1,3-1.7,4.5c-0.6,1.4-1.1,2.8-1.7,4.2c-0.4,1-0.8,2-1.2,3c-0.7,1.4-1.4,2.9-2.2,4.3
		c-0.1,0.3-0.4,0.5-0.6,0.7c-0.7,0.5-0.9,0.9-0.7,1.6c0.2,0.4,0.4,0.8,0.7,1.2c0.4,0.7,1.5,0.9,2.2,0.4c0.8-0.6,1.7-0.6,2.7-0.5
		c1.2,0.1,2.4,0.3,3.7,0.4c1,0.1,1.9,0.2,2.9,0.3c1.4,0.1,2.8,0.1,4.2,0.1c1.9,0,3.8,0,5.7,0c1.6,0,3.1,0,4.7-0.1
		c1.3,0,2.6-0.1,3.9-0.2c0.9,0,1.4-0.5,2.1-0.9c0.2-0.1,0.3-0.4,0.4-0.6c0.2-0.5-0.1-0.9-0.6-1.3c0.2-0.1,0.3-0.2,0.4-0.3
		c0.1-0.1,0.3-0.3,0.3-0.4c0.1-0.8-0.2-1.5-0.8-2c-0.4-0.3-0.7-0.7-1-1.1c-0.6-0.8-1.1-1.6-1.7-2.5c-0.7-1-1.5-2-2.2-3
		c-0.1-0.2-0.2-0.4-0.4-0.6c-0.5-0.3-1-0.6-1.5-0.7c-1.1-0.3-1.9,0-2,1c-0.2,1.2-0.6,2.3-1.1,3.4c-0.1,0.2-0.2,0.3-0.4,0.5
		c-0.5-0.7-1-1.3-1.5-1.9c-0.7-1-1.5-2-2.2-3c-0.5-0.8-1-1.6-1.5-2.4c-0.6-1-1.2-1.9-1.7-2.9c-0.4-0.8-0.8-1.6-0.8-2.5
		c0-0.3-0.2-0.7-0.5-0.8c-0.5-0.3-1-0.5-1.6-0.7c-0.4-0.2-0.7-0.2-1.1,0c-0.3,0.1-0.6,0.1-0.9,0.2c-0.1,0-0.3,0.1-0.4,0.2
		C18.9,25.5,18.4,26.3,18,27.2z M36.5,39c0.3,0.4,0.5,0.6,0.6,0.9c0.1,0.3,0,0.5-0.3,0.6c-0.5,0.2-0.9,0.3-1.4,0.5c0,0,0,0-0.1-0.1
		C35.7,40.4,36.1,39.8,36.5,39z M24.6,33.7c0.3,0.2,0.5,0.4,0.4,0.7c-0.1,0.1-0.5,0.2-0.8,0.2c0,0-0.1-0.1-0.1-0.1
		C24.2,34.2,24.4,34,24.6,33.7z M18.5,43.9c-0.7-0.1-1.4-0.2-2.1-0.3c-0.2,0-0.4,0-0.7,0c-0.5,0-0.6-0.1-0.4-0.5
		c0-0.1,0.1-0.2,0.1-0.3c0.1,0,0.1,0,0.1,0c0.8,0.6,1.3,1,2.2,0.8c0.3-0.1,0.9-0.7,1.3-0.7c0,0.4,0,0.7,0,1.2
		C18.8,43.9,18.6,43.9,18.5,43.9z M19.6,34.2c-0.2,0.1-0.4,0.3-0.6,0.4c0,0-0.1-0.1-0.1-0.1c0.1-0.4,0.3-0.8,0.4-1.2
		C20.1,33.6,20.1,33.8,19.6,34.2z"/>
	<path class="st2" d="M12.3,20.1c0.7,0.4,1.6,0.6,2.5,0.5c0.4,0,0.8,0,1.2-0.1c0.9-0.3,1.8-0.7,2.4-1.4c0.7-0.7,1.3-1.4,1.6-2.2
		c0.2-0.5,0.3-1,0.3-1.5c0-1.1-0.6-1.9-1.3-2.8c-0.6-0.7-1.5-0.9-2.4-1.1c-0.3-0.1-0.5-0.2-0.5-0.5c0-0.1-0.1-0.3-0.3-0.4
		c-0.4-0.1-0.8-0.2-1.2-0.3c-0.3-0.1-0.6,0-0.8,0.2c-0.1,0.1-0.2,0.2-0.3,0.2c-0.4,0.3-0.7,0.5-1,0.8c-1,0.8-1.6,1.8-2,2.9
		C10.2,15,10,15.4,10,15.9c0,0.7,0.1,1.5,0.4,2.1C10.8,18.8,11.4,19.6,12.3,20.1z"/>
</g>
</svg>
