<?xml version="1.0" encoding="UTF-8"?>
<svg id="Layer_1" data-name="Layer 1" xmlns="http://www.w3.org/2000/svg" version="1.1" viewBox="0 0 355.4 392.9">
  <defs>
    <style>
      .cls-1 {
        fill: #ffc6d9;
      }

      .cls-1, .cls-2, .cls-3, .cls-4, .cls-5 {
        stroke-width: 0px;
      }

      .cls-2 {
        fill: #fffd87;
      }

      .cls-3 {
        fill: #eaeaea;
      }

      .cls-4 {
        fill: #2d2d2d;
      }

      .cls-5 {
        fill: #b6ddff;
      }
    </style>
  </defs>
  <path class="cls-3" d="M107.8,373.9c-9-3.4-17.3-8.9-23.5-16-10.5-12-17.6-26.8-24.3-41.2-8-17.2-15.5-36.4-10.7-54.8,5.4-20.5,24.4-33.6,42-44.8,47.9-30.6,96.3-61.5,149.6-80.8,14.1-5.1,31.1-8.9,43,.4,10.6,8.3,12.5,23.6,12.9,37.2,1,36-3.2,72.9-18.9,105-8.7,17.9-20.7,33.8-32.6,49.6-9.7,12.9-20.6,28.5-37.4,34.9-16.2,6.2-34.1,5-50.8,9.3-16.6,4.2-33.3,7.4-49.4,1.2Z"/>
  <g>
    <path class="cls-5" d="M353.6,200.1c-.2-.4-.7-.5-1.1-.3l-3.6,2.2c-.4.2-.1-3.5-.3-3.9l-1.7-2.8c-.3-.6-1.2-.5-1.5,0-1.1,2.2-3.1,4-5.5,4.8-.6.2-1.1-.2-1.1-.8.1-2.1.3-4.2.5-6.3,0-1.6.3-3.1-1.8-3.1-.7,0-3.9,1.2-3.9,2.1,0,3.4-.5,6.2-3.1,8.4-.5.4-1.2.2-1.3-.4-.3-.9-.5-1.7-.8-2.6-.3-1.1-.8-2.2-.9-3.3,0-2.3-7.7,5.2-9.1,5.3-1.9,0-.5-5.7.1-7.5,1.2-3.9-2.9-5.7-4.4-3.8-2.6,3.4-7,7.5-10.3,10.3-4,3.3-8,6.8-10.3,11.6-4.6,10.1-13,28.9-19.9,27.2-11.3-2.8-13.6-23.7-18.5-34.3-6-13.1-18.3-23.1-32.3-26.5-8.4-2-18.7-2.7-22.8-10.3-4-7.4,1-16.6,7.1-22.4,6.1-5.8,8.7-17.2,18.8-22.6,4.4-2.3,0-7.2-2.9-10.5-2.8-3.2-6.8.7-8.2-9.4-.7-5.3-5.9-9.9-11.1-12-13.8-5.5-32.1-6.1-45.5.4-8,3.9-11.1,15.6-17.9,18.8-2.9,1.3-4.6,8.5-3.6,11.5.8,2.7,3,4.3,5.7,4.8,8.6,1.6,10.4,13.5,13.8,17.5,5.3,6.3,8.1,5.3,10.5,13.2,1.9,7.6-3.3,15.3-9.8,19.7-6.5,4.3-21,3.9-28,7.3-8.5,4.1-14.1,13.1-18.4,21.1-2.4,4.4-4.4,9-6.4,13.6-2.3,5.4-5.6,22.4-14.4,20.5-4.2-.9-8-7.5-9.2-11.6-2.3-8.2-5.1-14-8.8-18-4.3-4.8-9.7-7.2-16.6-8.3-12.1-1.9-6-15.9-11.4-18.1-4.7-1.9-5.6,1.2-6.3,5.8,0,.7-1,1-1.5.5-3.6-4-13.1-5.7-16.7-2.4-.3.3-.7.3-1,0l-.7-.5c-3.4-2.3-8.1-1.1-9.9,2.6l-.4.8c-.2.4-1.6,3.2-2,3.1-3.7-1.4-4.2-2.5-4.8,1.6,0,.3,1.4,1.9,4.4,6,1.2,1.6,4.9,2.8,6.6,4.5,2.1,2.1,2.5,4.5,5.9,3.7,11.7-2.9,27.3,1.6,36.3,9.5,0,0,0,0,0,0,11.1,9.9,7.8,26.8,11.1,40.1,1.9,7.5,6.6,14.7,12.5,19.7,17.3,14.7,32.5-.3,39.5-16.6,2.2-5.2,7.9-21.3,16.2-15.8,5.2,3.4,1,10.7,1.6,15.5,2.4,18.3,8.3,38.9,3.2,56.8-1,3.7-2.3,7.3-3.7,10.8-.2.5.1,1.1.6,1.1,21.3,3.7,43,5.1,64.6,4.1,8.7-.4,18.3-1.7,23.7-8.5,5.2-6.6,4.4-13.9,3.5-22.2-1.8-16.1.3-25.1-1.6-41.1-1-9.1,2.2-20.5,5.7-24,4.9-4.9,8.8,4.1,12.4,10,4.3,7.1,9.9,14.5,13.8,21.8,3.9,7.3,9.1,18.3,17.4,17.9,8.7-.5,16.9-12.7,20.6-20.6,4.7-9.9,7.4-20.7,12.3-30.6,4.9-9.8,12.7-19.1,23.4-21.8,6.2-1.5,11.6-1.5,17.5-3.8,5.7-2.2,8.5-4.4,5.4-9.4Z"/>
    <path class="cls-2" d="M212.4,100.1c-2-4.7-6.5-8-11.3-9.8s-10.1-2.3-15.2-2.7c-9.8-.9-21-2.1-30.1,1.7-10.2,4.2-14.6,18.6-22.6,22.7-3.5-2.4-4.9-6.9-4.6-11.1s1.9-8.1,3.5-12c4.9-11.8,10.3-24.2,20.7-32,12.3-9.2,30-9.9,44.1-3.7,14.1,6.2,24.8,18.6,31.2,32.4,1.9,4.2,3.6,8.7,3.1,13.3-.5,4.3-8.3,10.8-13.1,11.5-6.4.9-3.8-5.8-5.6-10.2Z"/>
    <path class="cls-1" d="M185.4,374.8c-10.8,10.3-27.3,15.1-42.4,12.2-4.8-.9-9.8-2.8-12.5-6.7-3-4.2-2.6-9.8-2.1-14.8,1.3-13.5,2.6-26.9,3.9-40.4,0-.8.2-1.6.6-2.2.8-1.1,2.6-1.2,3.9-.6s2,2.2,3.3,2.5c7.7,1.7,13.2,2.8,21.2,3.1,13.3.4,28.5,1.5,41.8.6,10.4-.7,20.9-2.6,30.1-7.4,0,17.5-.2,34.9-.9,52.4-.2,4.6-.5,9.5-3.2,13.3-3.4,4.7-10,6.6-16,5.9-9.6-1.1-24.2-9-27.7-17.9Z"/>
    <g>
      <path class="cls-4" d="M193,186.2c.2.9.8,1.4,1.8,1.7.4.1.9,0,1.1-.4,0-.2.2-.3.2-.5.2-1.1,1-1.8,2.2-2.1,1.6-.4,3.1-.9,4.8-1,2.2-.1,4.5-.5,6.7-.9,2.6-.5,5.2-1.1,7.9-1.7,1.1-.2,1-.7.5-1-.2-.2-.5-.3-.8-.4-1.4-.6-3-.8-4.6-.9-3.4-.2-6.8.5-10.2.9-.6,0-1.2,0-1.8.3-.9.2-1.7.4-2.6.5-3.5.5-5.6,2.9-5.1,5.7Z"/>
      <path class="cls-4" d="M354.6,200.5c-.4-.5-.9-1.1-1.6-1-.4,0-.7.3-.9.6,0,0-.2.2-.2.3-.6-.5-1.3-.9-1.9-1.4-.2-2.4-1-6.8-3.6-6.8-1.4,0-2.1,1.4-2.4,2.7-.6.3-1.1.5-1.7.5-.5,0-.8-.2-1.2-.4-.3-1.2-.8-2.3-1.4-3.3-.3-.6-.7-1-1.2-1.4-.7-.5-1.4-.9-2.2-.8-.9,0-1.7,0-2.4.5-.5.4-.8.8-.8,1.5,0,.6,0,1.3.1,1.9-.7.6-1.4,1.1-2.3.9,0,0,0,0,0,0,0-.9-.3-1.7-1.1-2.3-.8-.5-1.6-.6-2.4-.6-.7,0-1,.5-1.4.9-.1.1-.2.3-.3.4-1.8,2.7-4.6,4.6-7.7,5.6.4-.7.6-1.7,1-2.9.5-1.7.7-3.6.5-5.2-.2-1.9-1.4-3.8-3.2-4.1-2-.4-4.9,1.7-5.8,3.6-1,1.9-2.5,4.1-3.7,5.8-.9,1.2-3.5,3-5.7,4.2-.5.2-1.1.4-1.6.7-.4.2-.7.4-1.1.7,0,0,0,0,0,0,0,0,0,0,0,0-2.1,1.3-4.3,2.9-5.8,4.8-1,1.2-1.7,2.7-1.7,4.3,0,.2,0,.3,0,.5,0,.4-.1.7-.2,1.1-.4,2.7-1.2,5.3-2.2,7.8-1.2,2.8-3,5.1-5.5,7-3.1,2.3-5.9,5-8.1,8.2-.6.9-1.3,1.9-2,2.8-.2.2-.4.4-.6.6-.1.1-.5.1-.6,0-.3-.3-.6-.6-.8-1-1.4-2.1-2.5-4.3-3.4-6.7-.6-1.5-1.2-3.1-1.9-4.5-.7-1.6-1.4-3.2-1.8-4.8-.5-1.7-1.1-3.2-1.9-4.8-1-1.9-1.9-3.8-2.7-5.8-.9-2.2-2-4.4-3-6.7-.5-1-1-2-1.5-3.1-1.1-2.7-2.8-5-4.6-7.2-1.2-1.5-2.5-2.9-3.7-4.4-2-2.5-4.4-4.7-6.6-7-.9-.9-1.8-1.6-2.9-2.1-2.5-1.1-4.9-2.2-7.6-2.7-1.5-.3-3.1-.5-4.6-1-2-.6-4-1.4-6-2.2-1.6-.7-3-1.6-4.7-2.3-1.9-.8-3.9-1.7-5.7-2.7-3.7-2-7.2-4.3-10.5-7-.7-.6-1.5-1.1-2.3-.8-.6.3-.9,1-.8,1.6s.4,1.2.8,1.7c1.7,2.2,4.1,3.6,6.5,5,3.9,2.2,8,4.3,12,6.2,3.9,1.8,7.7,3.8,11.9,4.5,2.5.4,4.8,1.2,7.1,2.3,1.7.7,3.1,1.7,4.4,3,.5.6,1.1,1.1,1.7,1.7,1.7,1.7,3.4,3.5,4.9,5.4.9,1.2,1.9,2.3,2.9,3.5,1.6,1.9,3.1,4,4.1,6.2,4.7,9.9,8.4,20.6,12.9,30.6,1,2.3,2,4.7,3.4,6.9,1.1,1.8,2.6,1.5,1.6,3.5-1.8,3.6-3.5,7.2-5.2,10.8-.4.9-.7,1.9-1,2.8-.2.9-.2,1.7,0,2.5,0,.3.3.6.5.6.2,0,.4-.1.6-.2.5-.4.7-.9.9-1.4.5-1,.9-2.1,1.5-3.1.9-1.6,1.8-3.3,2.5-5,1.1-2.7,2.7-5,4.3-7.4.4-.6.9-1.3,1.3-1.9,1.1-1.5,2.1-3.1,3.2-4.6.9-1.2,1.9-2.3,3-3.3,1.1-1,2.2-1.9,3.3-2.7,2.2-1.6,4.1-3.6,5.5-6,1.5-2.5,2.5-5.2,3.2-7.9.2-.9,4.1-5.3,6-8.2,2.3-2.5,4.8-4.6,8.3-6,3.2-1.4,6.3-1.1,9.7-1.2,3.1-.1,5.7-1.4,8.1-3.4.5-.4,1-1,1.5-1.4.4-.4.8-.7,1.3-.8.2,0,.5.3.5.5,0,.1,0,.3,0,.4-.4,1.5-.9,3.1-1.6,4.4-.4.7-.7,1.4-1,2.1-.2.3,0,.8,0,1.2,0,.3.3.5.5.6,1.7.7,4.2-1.6,5.6-2.5,2.8-1.9,3.8-4.4,3.7-7.7,0-.5,0-.9,0-1.3,0-.3.2-.4.5-.4.2,0,.5,0,.7,0,.6.1,1.1.5,1.3,1.2.5,1.5.8,3,.4,4.5-.4,1.7-.2,1.8-.5,3.6-.3,2,0,2.6,1.9,2.3,2.9-.4,4.9-3.2,5.2-6,.1-1,.7-2.3,1.7-2.1.4,0,.7.3.9.6,0,.2.2.3.2.5.1.5.1,1,.1,1.5,0,2-.2,4.1-.7,6.1-.5,2-1.6,3.9-3.3,5-1.7,1.2-4,1.5-6.1,1.7-4.9.5-9.9.6-14.8,1.7-4.6,1.1-9.1,3.3-12,7.1-1,.8-1.5,2.1-1.9,3.3-4.8,12.4-13.5,23.5-16.9,36.2-.4,1.5-.7,2.6-1.5,4-.5.9-2.6,3.5-2.6,4.5-1.3,1.9-2.5,3.8-3.9,5.6-1.2,1.6-2.5,3.1-3.9,4.5-.5.5-.9.9-1.3,1.4-.6.7-1,1.4-.9,2.3,0,.3,0,.6-.2.8-1,1.1-2,2-3.4,2.6-1.4.5-2.8.5-3.9-.7-.7-.7-1.4-1.4-2.1-2.1-.8-.8-1.6-1.6-2.5-2.4-1.6-1.3-3-2.8-4.4-4.4-1.2-1.5-2.6-2.9-3.9-4.3-1.2-1.4-2.5-2.7-3.5-4.3-1.2-1.9-2.6-3.8-3.9-5.6-.5-.8-1-1.5-1.5-2.4-.8-1.6-1.6-3.2-2.3-4.8-1.7-3.9-3.4-7.9-5.1-11.8-.6-1.3-1.2-2.6-1.8-3.9-.9-1.7-1.7-3.5-2.7-5.1-.2-.4-.3-.8,0-1.2.1-.2.2-.4.3-.6,1.2-2,2.1-4.2,2.8-6.5.5-1.4.6-2.8.3-4.2-.2-.7-.6-1.1-1.1-1.5,0,0-.3,0-.4,0-.2.3-.4.6-.5.9-.7,1.6-1.3,3.2-2.1,4.7-.9,2.1-2,4.3-3.5,6-1.6,1.7-2.9,3.6-4.6,5.1-1.9,1.6-4,3.1-6.2,4.3-2.6,1.4-4.8,2.8-7.6,3.7-2.1.7-4.5,1.3-6.7,1.7-2,.4-3.6.3-5.6-.4-.2,0-.4-.1-.6-.1-.2,0-.4,0-.6.1-.2.1-.5.3-.7.5-1.2,1.1-1,2.8.3,3.6.1,0,.2.2.4.2,5.3,2.5,13.1-.4,17.9-3,.5-.3,1-.5,1.6-.7,1.1-.4,2.1-.9,3.1-1.5.6-.4,1.2-.7,1.9-1,0,0,.2,0,.2,0,0,.1.2.2.2.3,0,.6-.2,1.1-.3,1.7-1.3,5.2-2.1,10.5-3,15.8,0,.3,0,.6,0,.9,0,1.8-.4,3.6-.3,5.3,0,.4,0,.7,0,1.1,0,.8-.1,1.6-.2,2.3,0,.6,0,1.3,0,1.9-.3,3.3-.5,6.7-.9,10-.3,2.9-.5-1-.4,1.9,0,.9.1,1.9.1,2.8,0,3.1.1,6.3.8,9.4,0,.1,0,.3,0,.4.3,2.7.7,5.4,1.5,8,.4,1.3.7,2.6,1.1,3.9.8,2.7,1.3,5.4,1.8,8.2.2,1,.3,1.8.4,2.5-.2,0-.4.1-.6.2-1.4.4-2.8.7-4.1,1.2-2.4.7-4.8,1.2-7.3,1.8-2.5.6-5,1-7.6,1.3-3.4.4-6.8.9-10.2,1.1-2.1.1-4.3.2-6.4.5-.5,0-1,0-1.5,0-1.2,0-2.4,0-3.6.1-.7,0-1.4,0-2.1,0-1.1,0-2.3,0-3.4,0-3.8,0-7.3,0-11-.5-4.9-.7-10.2-.4-14.9-1.8-3.3-.9-6.6-1.8-10-2.5-1.5-.3-3-.8-4.6-1.1-.2,0-.4-.2-.5-.4-.5,0-.9.1-1.3.2,0-.1,0-.2,0-.4.6-4.1,1.9-8.1,3.6-11.9.9-2,1.7-3.9,2.5-5.9,1.1-2.7.3-15.1-.8-18.5-1.5-4.5-1.8-9.9-2.2-14.7-.5-4.9-1.1-9-2-13.8-.4-2.2-.9-4.4-.9-6.6,0-.4,0-.7,0-1.1,0-.4.4-.7.7-.5.5.3,1,.5,1.5.9,2,1.3,4.2,2.2,6.5,2.7,2.3.5,4.6.9,7,1.1,1.9.2,3.7.5,5.5,1,1,.3,1.9.5,2.9.7.6.1,1.1.2,1.7.2.8,0,1.5-.4,1.9-1.1,0-.1,0-.4,0-.6,0-.1-.2-.2-.3-.3-2.7-1.3-5.5-2.3-8.5-2.7-1.8-.2-3.5-.5-5.3-.8-1.5-.3-3.1-.6-4.6-1-3.2-.9-5.6-2.8-7.5-5.4-1.7-2.4-3.1-4.9-4.4-7.6-1.3-2.8-2.2-5.7-2.5-8.8-.2-1.4-.2-2.9,0-4.3.1-.7.3-1.4.3-2.1,0-.3,0-.6-.2-.8-.9-1.2-2.9-1.1-3.6.3-.5.9-.8,1.9-.8,2.9,0,1.7-.1,3.4.1,5.1.3,1.8.7,3.6,1.3,5.4.4,1.1.9,2.3,1.4,3.4.8,1.7.8,1.8-.6,3.3-1.2,1.2-2.3,2.5-3.2,4-2.8,4.2-5.6,8.5-8.3,12.7-1.4,2.2-2.8,4.5-4.5,6.5-2,2.5-4.1,4.9-6.2,7.4-1.5,1.8-3.1,3.3-4.9,4.8-.8.6-1.5,1.3-2.3,1.9-1.2,1-2.4,2-3.7,2.9-1.9,1.3-4,2.2-6,3.3-.2.1-.5.2-.8.3-.7.4-1.5.4-2.3.3-1.1,0-4.2-1.4-5.1-2.1-.5-.4-.9-.9-1.4-1.3-.4-.4-.7-.7-1-1.1-2.7-2.9-5.1-6-6.7-9.6-.4-.8-.8-1.7-1.3-2.5-1.3-2.2-2.3-4.6-3.3-7-1.8-4.4-2.7-8.9-3.1-13.5,0-.3,0-.6,0-.9-.4-2.5-.8-4.9-1.3-7.4,0,0,0-.1,0-.2,0-.3.2-.6.5-.5.3.1.5.2.8.4.6.3,1.1.2,1.6,0,.4-.2.8-.6,1.2-.9.2-.2.2-.6,0-.8-.7-.7-1.3-1.5-2-2.2-2-2-3.6-4.2-5-6.6-.7-1.2-1.2-2.4-1.6-3.7-.5-1.8-1-3.6-1.6-5.3-.1-.4-.2-.7-.4-1.1-.2-.6-.5-1.2-.7-1.7-.5-1.1-1.3-1.9-2.3-2.5-1.7-.9-3.5-1.7-5.2-2.5-1.2-.2-2.3-.7-3.5-.9-1.7-.2-3.4-.6-5-1.1-2.2-.5-4.3-.9-6.6-.6-1,.1-2,0-2.9-.5-1.4-.7-2.9-1.2-4.4-1.7-2.2-.7-4.5-1.3-6.9-1.2-1.5,0-3-.4-4.2-1.4-1.5-1.2-2.8-2.4-3.8-4-.6-.9-1.2-1.8-2-2.5-.3-1.6-.5-3-.6-4.6,0-.3,0-.5,0-.8.3-.7,1-.3,1.2.2.7,1.4,1.4,2.6,2.3,3.8.3.4.5.8.8,1.3.3.6.8,1,1.3,1.4.1,0,.3.1.4.1.8.2,1.7-.8,1.5-1.6-.3-1.3-.7-2.6-1-3.9-.2-.7-1.3-4.7.4-4.4.8.1,1.3,2,1.7,2.7.8,1.3,1.6,2.6,2.6,3.7.3.4.7.7,1,1.1.4.4.8.6,1.4.5.9,0,1.7,0,2.5.2.1,0,.3,0,.4,0,.7,0,1.4-.8,1.2-1.5-.1-.5-.4-1.1-.6-1.6-.4-.8-2.7-5.6-1.4-6,.9-.2,3.7,3.3,4.5,4,3.4,2.8,7.3,4.8,11.5,5.9,5.7,1.5,11.9,1.4,17.4,3.8,4.4,2,7.9,5.6,10.6,9.6.2.3.4.6.6.9,2.4,3.8,4.3,7.8,6.3,11.8,6.4,12.7,14.3,24.6,23.4,35.4.6.7,1.3,1.4,2.2,1.5,1.5.2,2.6-1.7,2.2-3.2-.3-1.5-1.5-2.6-2.6-3.6-5.4-5.1-10.1-11-13.8-17.4-3.9-6.8-6.8-14.1-10.6-20.9-1.4-2.6-3.1-5.1-4.9-7.4-3-3.8-6.6-7.2-11-9.4-4.5-2.3-9.9-3.6-12.6-7.8-1.4-2.2-1.8-4.9-2.9-7.2-1.1-2.4-3.3-4.6-5.8-4.4-2.3.2-4,2.4-4.4,4.7-.4,2.3.2,4.6.7,6.8-2.5-2.1-5.1-4.2-7.6-6.4-1.4-1.2-3-2.5-4.9-2.5-.7,0-1.4.2-2,.6-.5.4-.8,1.1-1.6,1.1-1.4,0-1.5-2-3-2.4-1.3-.3-2.8.1-3.8,1-1.5,1.3-3.9-.9-5.6.2-1.3.9-2.4,3.3-2.3,4.9.1,1.3.2,2.6.4,3.9-.8-.5-1.7-1.2-2.4-1.3-.8,0-1.7.7-2.3,1.1-1.1.9-1,2.1-.7,3.5,0,.6.3,1.1.8,1.5.4.4.7.9,1.1,1.3.6.9,1.3,1.6,2,2.4,1.2,1.3,2.6,2.3,4.2,3.2.7.4,1.5.7,2.3.9.3.6.5,1.3.9,1.7.7,1,1.7,2.3,2.9,2.5,1.4.3,2.8.2,4.1.3,1.7.2,3.3.1,5,.5,1.7.4,3.3.9,4.9,1.6,1.9.8,3.8,1.5,5.8,1.8,2.1.4,4.2.1,6.3.6,2.1.5,4.2,1.3,6.4,1.6,1.8.2,3.3,1,4.8,1.7.5.3.9.7,1.2,1.2,0,0,0,0,0,0,1.8,3.1,3,6.5,4,10,.9,3.3,1.8,6.8,2.5,10.1.4,1.9,1.1,3.7,1.1,5.7,0,.4.1.8.2,1.3.1.7.2,1.4.3,2.1,0,.7.1,1.4.3,2.1.1.5.1,1,.2,1.5.3,1.5.4,3,.8,4.4.9,3.5,2,6.8,3.5,10.1.7,1.5,1.6,2.9,2.2,4.4,1.8,3.9,4,7.6,6.7,10.9,1.6,2,3.3,3.7,5.3,5.3,1.5,1.2,3.2,2.1,5.2,2.5.7.1,1.4.3,2.1.5,1.7.5,3.2.4,4.8-.5.6-.3,1.1-.6,1.7-.9,1.1-.6,2.3-1.2,3.4-1.8,1.4-.8,2.7-1.6,3.9-2.6,1-.9,2-1.8,3.1-2.7,1-.9,2-1.9,3-2.7,1.1-1,2.1-2.1,3.1-3.3.5-.6,1-1.1,1.4-1.6.5-.5.9-1.1,1.4-1.6.7-.9,1.4-1.8,2.2-2.7,1.7-1.8,3-3.9,4.3-5.9,1.8-2.7,3.5-5.6,5.2-8.4.3-.4.5-.9.7-1.3.9-1.9,2.1-3.6,3.2-5.3,1.3-2,2.5-4,3.1-6.3,0-.3.5-.3.7-.1.1.2.3.3.4.5.8,1.2,1.5,2.4,2.3,3.6.1.2,0,.5-.3.7,0,0-.1,0-.2,0-.7.2-1.1.7-1.1,1.4,0,2.6,0,5.1.5,7.7.3,1.3.5,2.7.7,4,.2,1.4.4,2.8.5,4.3.1,2.4.2,4.9.3,7.3.1,2.6.2,5.3.8,7.9.3,1.4.7,2.8.9,4.2.8,4.6,2.1,9.3,2.4,14,.2,4.7-1.5,9.1-3.2,13.3-1.8,4.4-2.7,7-3.2,11.7,0,.3,0,.6,0,.9-.3,0-.7.1-1,.2-.3.4-.5.8-.6,1.2,0,0,0,.3.2.4.3.3.7.4,1.1.5,3.7,1.1,7.4,2.2,11.1,3.3,3.4,1,6.9,2,10.3,2.8,1.7.4,3.3.7,5.1.9,1.5.2,3,.3,4.5.5,3,.4,6,.5,9,.5.8,0,1.6,0,2.4,0,1.7.2,3.4.1,5.1.1.9,0,1.9,0,2.8,0,11.4.2,23.4-1.5,34.5-3.9,1.8-.4,3.6-.8,5.4-1.5,1.6-.6,3.3-1.7,5.1-1.6,2.6.1,1.3,1.9,1,3.5-.3,1.4-.2,2.7-.2,4.1,0,1.8-.1,3.6,0,5.5.5,11.2,1.2,22.4,2.2,33.6.1,1.2.4,2.7,1.6,3,1,.3,2.1-.5,2.5-1.5.4-1,.2-2.1,0-3.1-.2-1.7-.5-3.4-.7-5.1-.9-7.5-1.4-15-1.6-22.5,0-3.8,0-7.5,0-11.3,0-1.9.1-3.8.2-5.8,0-1.2.9-2.8-.1-3.8-.6-.6-1.1-1.7-2-2-.1,0-.3,0-.4,0-.1-.8-.3-1.5-.6-2.9-.7-3.4-1.5-6.8-2.5-10.2-.3-.9-.5-1.8-.7-2.7-.6-3-.9-6.1-1.3-9.1-.4-3.4-.3-.2-.3-3.6,0-2.7,0-5.4.3-8.1.3-2.3.2-4.7.6-7,0-.3,0-.6,0-.9,0-2.1.1-4.3.3-6.4.2-3.1.4-6.3.9-9.4.4-2.1.8-4.2,1.2-6.3.6-2.9,1.3-5.9,1.9-8.8.2-1,0-2.2.5-3.2.5-1.2,2-2.2,2.9-3.2.3-.3.7-.2.9.2.2.4.4.7.6,1.1,1.1,2.2,2.2,4.3,3.2,6.6.4.9.8,1.9,1.1,2.8,1.2,3,2.5,5.9,3.7,8.9,1.2,2.9,2.5,5.8,4.3,8.4,1.6,2.3,3.1,4.6,4.7,6.9.5.7,1,1.4,1.6,2,1.2,1.3,2.5,2.5,3.6,3.9,1.9,2.4,3.9,4.5,6.2,6.5.8.7,1.5,1.5,2.3,2.3.6.7,1.2,1.4,1.9,2.1.5.6,1.2,1,2,1.1,1.6.2,3.2.2,4.6-.6,1.4-.8,2.9-1.5,4.2-2.5,1.3-1.1,2.6-2.2,3.7-3.5.5-.6,1.1-1.2,1.6-1.7,1.7-1.7,3.2-3.5,4.5-5.4,3-4.3,5.6-9,7.5-13.9,5.4-13.8,12.5-27.1,19.1-40.5,3-2.9,7.2-4.5,11.3-5.3,4.6-.9,9.4-.9,14.1-1.3,1.8-.2,3.7-.4,5.2-1.5,1.4-.9,2.2-2.4,2.8-4,.4-.1.9-.2,1.3-.5,1.3-.7,2.5-1.5,3.8-2.1,1.1-.5,1.7-1.6,1.9-2.8.3-1.4,0-3-.7-4ZM310.1,197.8c.3-.6.6-1.2,1-1.8.7-1.2,1.4-2.4,2.1-3.5.4-.8.2-1.2,1-1.7,1.3-.8,2.4-.6,2.5.6.2,1.8-.7,3.5-1,5.2-.1.5-.4.9-.9,1.1-1,.4-2.1.8-3.2.6-.4,0-.8,0-1.2,0-.2,0-.4-.3-.3-.5ZM38.6,185.1c0-.5.2-1.9.5-2.7.3-.6,1.3-.9,2-.2,1.1,1,1.4,2.7,2,4,.7,1.5,1.5,2.9,2.3,4.3.4.7.8,1.5,1.1,2.3.1.3,0,.6-.4.6-.5,0-1-.2-1.5-.1-1.5,0-2.8-.5-4.1-1.1-.6-.3-1-.8-1.1-1.5-.2-1.9-1.1-3.7-.9-5.6ZM131.1,238.1c0,0,0-.1,0-.2.1-.1.2,0,.2.1,0,0,0,0-.1,0Z"/>
      <path class="cls-4" d="M92.2,240.1c.3.2.7.2,1,0,1.1-.6,2.2-1.3,2.7-2.6.4-.9.8-1.8,1.2-2.7.7-1.6,1.4-3.1,2-4.7.7-1.6,1.5-3.1,2.1-4.7.6-1.6,1.4-3.1,2.2-4.6,1.3-2.9,2.7-5.7,4.3-8.4,2.5-4.3,4.9-8.5,7.3-12.8.8-1.5,1.8-2.9,2.8-4.3,1.6-2.2,3.5-3.9,5.8-5.3,2.5-1.5,5.1-2.9,7.8-4.1,1.2-.5,2.4-.9,3.6-1.3,2.8-.7,5.5-1.4,8.2-2.5,3.1-1.2,6.1-2.4,9.1-3.8,1.2-1.3,3.4-2.4,4.8-3.6,1.8-1.6,3.6-3.2,5.4-4.8,1.8-1.6,3.7-3,4.4-5.3.1-.5.2-1,.3-1.4-.2-.7-.3-1.4-.5-2,0-.4-.3-.6-.6-.8-.3-.2-.6-.4-.9-.5-.1,0-.3,0-.4,0-.6.4-1.1.9-1.3,1.6-.1.8-.3,1.6-.7,2.2-4.1,5.8-11.6,11.5-18.2,13.9-1.5.6-3.1,1-4.7,1.6-2.2.8-4.5,1.4-6.8,1.9-1.6.3-3.2.8-4.7,1.5-1.9.9-3.7,1.8-5.6,2.8-1.7.9-3.3,1.9-4.9,3-.3.2-.6.4-.8.7-1.4,1.4-2.8,2.9-3.7,4.7-.5.9-1,1.9-1.5,2.8-1.3,2.5-2.6,4.9-4,7.3-1.9,3.3-3.9,6.7-5.6,10.1-1.3,2.7-2.6,5.4-3.8,8.2-1.6,3.7-3.2,7.5-4.8,11.2-.6,1.4-1.3,2.7-2.3,3.9-1.2,1.5-.5,1.9.6,2.7Z"/>
      <path class="cls-4" d="M269,75.3c0,0,.1-.1.2-.2.2-.2.5-.4.7-.6.2-.2.3-.5.4-.7,0-.6,0-1.1-.2-1.6-.2-.3-.3-.6-.5-1,0-.1,0-.2-.1-.3,0,0,0,0,0,0,0,0,0,0,0,0h0c-1.6,0-2.9.7-4.1,2.2-.3.3-.5.7-.7,1.1-.7,1.6-1.5,3.5-.6,5.4,0,.1,0,.3.1.5,0,0,0,.1,0,.2.2.8.6,1.6,1,2.2,1,1.5,2.5,2.4,4.6,2.5.6,0,1.2,0,1.8,0,.2,0,.5,0,.7,0,1.3,0,2.5-.5,3.8-1.4,1-.8,1.7-1.6,2.1-2.6.4-1,.6-2,.7-2.9,0-1.7-.4-3.3-1.2-5.2-.6-1.4-1.6-2.6-3.1-3.8-1.2-.9-2.7-1.5-4.5-1.6-.1,0-.3,0-.4.1-.5.3-1.1.8-1.3,1.5,0,.3,0,.7,0,1,0,.2.3.3.5.4,0,0,0,0,.1,0,.2,0,.3.2.4.3,0,0,0,0,0,0,0,0,0,0,0,0,0,0,0,0,0,0,0,0,0,0,0,0,.2,0,.4,0,.5,0,.1,0,.3,0,.4.1,0,0,0,0,.1,0,1.4.5,2.6,1.9,3.3,3.6.6,1.4.6,2.9.1,3.9-.2.5-.5.9-1,1.3-1.3,1-2.9,1.4-4.5,1.3-.7,0-1.4-.6-1.6-1.1-.2-.8-.2-1.5.2-2.2.5-1,1.1-1.8,1.9-2.4Z"/>
      <path class="cls-4" d="M258,81.5c-.7-.8-2.1-1.3-3.1-.1-.3.3-.4.6-.7.9-.3.3-.9,0-1.2.2-.4.2-.8.3-1.1.6-1.2,1.1-2.1,2.4-2.5,4.1-.4,1.8-.4,2.3.2,4,.5,1.4,1.3,2.7,2.5,3.6.4.4,1,.6,1.5.7.4.1.8.2,1.3.3,2.6.5,5.2-1.2,5.7-3.8.2-1,.4-2.1.3-3.1,0-2-.6-3.7-1.4-5.4-.3-.7-.8-1.4-1.4-2ZM256.1,91.8c-.2,0-.3.2-.5.2-.6,0-1.2,0-1.8,0-.5,0-.9-.3-1.2-.7-1.2-1.6-.8-3.3.3-4.6.2-.2.5-.4.7-.6.2-.2.4-.3.6-.4.6-.5,1-1.1.7-1.9,0-.2,0-.4.2-.5.2,0,.4,0,.5,0,.1,0,.2,0,.3.2.4.2.7.6.8,1,.5,1.3,1,2.7,1,4.1,0,.3,0,.6,0,.8,0,1.2-.6,2-1.6,2.5Z"/>
      <path class="cls-4" d="M175.3,182c-2.3-1.4-4.8-2.5-7.5-3-1.2-.2-2.4-.5-3.6-.6-1.6-.2-3.1-.2-4.7-.4-.5,0-1,.1-1.4.4-.4.2-.9.5-1.3.7-.9.5-1.2,1.3-1.3,2.3,0,.1.1.3.2.4.4.3.9.5,1.4.5,1.4,0,2.8,0,4.3.2,2.8.4,5.6.8,8.3,1.8,1.1.4,2.1.8,3.1,1.4.9.5,1.6,1.2,1.6,2.4,0,1.3.7,2.1,1.7,2.8.5.3,1.2.2,1.5-.3.6-.9,1-1.9.8-3,0-.6-.2-1.3-.4-1.9-.5-1.5-1.3-2.6-2.7-3.5Z"/>
      <path class="cls-4" d="M183.9,225.1c-.4-2.7-.5-5.4-.5-8.1,0-1.7,0-3.4-.2-5.1-.2-1-.7-1.9-1.4-2.6-.5-.5-1.5-.3-1.8.3-.4.7-.5,1.5-.4,2.3.1,3.8.3,7.6.4,11.3,0,0,0,0,0,0,.1,3.2.2,6.4.3,9.6,0,.9,0,1.7.1,2.6,0,.5.2,1,.5,1.4.1.2.3.3.5.3,2.2,0,2.8.1,2.6-2.4,0-.1,0-.3,0-.4,0-2.3-.1-4.6,0-6.8,0-.8,0-1.6-.1-2.3Z"/>
      <path class="cls-4" d="M180.2,300c-.2.8.1,1.4.6,2,0,0,.1.1.2.1.6.2,1.3.2,1.8-.2.4-.3.7-.7.9-1.2.6-1.2,1-2.4.9-3.5,0-.4,0-.6,0-.8,0-1-.6-1.9-1.2-2.7-.6-.7-1.3-.8-2-1-.3,0-.6-.1-.8-.1-.3,0-.6,0-.8.1-.2,0-.3.3-.3.5,0,.4.2.8.3,1.2.2.5.5,1,.8,1.5.5.9.5,1.9.2,2.9-.1.4-.3.8-.4,1.2Z"/>
      <path class="cls-4" d="M246.2,47c.8,3.1,2.8,5.4,5.1,7.4,1.9,1.7,4.2,3,6.5,3.9,2.9,1.1,5.7,2.3,8.7,3.1,1.9.5,3.9,1.1,5.8,1.5,1.5.3,3,.6,4.5.8,2,.3,3.9.7,6,.6.4,0,.8,0,1.2,0,2.2.3,4.5.3,6.7.2,1.8,0,3.7-.2,5.5-.5,1.5-.2,3-.5,4.4-1,7.1-1.3,13.8-4.4,19.3-9.1.4-.2.7-.5,1-.8,0,0,0,0,0,0,0,0,0,0,0,0,0,0,0,0,0,0,0,0,0,0,0,0,0,0,0,0,0,0,0,0,0,0,0,0,0,0,0,0,0,0,0,0,0,0,0,0,0,0,3.3-2.7,3.6-3,2.4-2.5,4.4-5.6,5.7-8.8,1.3-3.2,2.2-6.5,2.7-9.9.2-1.5.3-2.9.3-4.4,0-.4,0-.8,0-1.2,0-2.5-.6-5-1.4-7.3-.5-1.5-1.2-2.9-2-4.2-1-1.5-2.2-2.8-3.6-3.9-2.6-2-5.3-3.8-8.3-5.1-2.8-1.2-5.7-2.4-8.7-3.1-1.7-.4-3.3-.7-5-1-3.6-.8-7.3-.9-11-1.1-.2,0-.5,0-.7,0-.7.1-1.6.1-2,1-.5,0-.9.2-1.3.3-.1,0-.2.2-.3.3,0,0,.1.1.2.1.9,0,1.8,0,2.8,0,.2,0,.3,0,.3.2,0,0-.1.1-.2.1-.5.2-1,.4-1.5.6,0,0,0,.2,0,.2.3,0,.6.1.9.2,4.7.3,9.4.9,13.9,1.9.2,0,.3,0,.4.1,4,.7,7.8,1.9,11.5,3.5,2.8,1.2,5.4,2.6,7.8,4.6,2.3,1.9,3.8,4.3,4.5,7.2.7,3,.8,6,.5,9.1-.5,4-1.6,7.8-3.3,11.4-1.7,3.6-4,6.6-7.2,9-2.6,2-5.3,3.7-8.3,5.1-3,1.4-6.1,2.6-9.3,3.6-2.7.8-5.3,1.6-8.1,1.8-3.8.3-7.5.7-11.3.1-.4,0-.8,0-1.2,0-.6,0-1.2-.1-1.8-.2-1.1-.2-2.1-.4-3.2-.5-3.2-.4-6.3-1.3-9.4-2.2-2.9-.9-5.7-2-8.4-3.2-1.8-.8-3.4-1.8-5-2.9-2.3-1.6-3.8-3.8-4.5-6.6-.3-1.1-.6-2.3-.8-3.4-.6-4.5,0-8.9,1.8-13.1,3.2-7.6,8.7-13.2,16-16.9,3.2-1.6,6.5-2.9,9.9-3.8,2.3-.6,4.5-1.5,7-1.5.3,0,.6-.2.9-.3.7-.4,1.3-1.7.8-2.7-.3-.5-.5-1-.8-1.4-.5-.6-1.1-.9-1.8-.8-1.3.3-2.6.4-3.8.8-2.7.8-5.4,1.7-8.1,2.8-4.3,1.8-8.3,4-12,7-3,2.4-5.5,5.2-7.6,8.5-2.5,3.9-4.1,8.2-5,12.8-.2,1.1-.3,2.2-.4,3.2-.1,2.4,0,4.8.3,7.3.2,1.3.5,2.6.8,3.9ZM285.4,63.5c.1,0,.3,0,.4,0,0,0-.1,0-.2,0-.1,0-.3,0-.4,0,0,0,.1,0,.2,0Z"/>
      <path class="cls-4" d="M174.4,142.9c0,.3,0,.6.2.9,0,.2.3.4.4.5.2.1.4,0,.6-.3.3-.5.6-1.1.9-1.6.2-.2.4-.5.6-.7.7-.4,1.5-.8,2.3-.9,1.6-.3,3.2,0,5,.2.3,0,.8.2,1.4.3.4,0,.7.2,1.1.2,2.1.3,3.7-1.8,2.3-3-2.7-2.3-17.1-2.4-14.8,4.4Z"/>
      <path class="cls-4" d="M169.2,93.6c-.4.1-.8.3-1.2.3-2.3.3-4.3,1.3-6.2,2.4-.8.5-1.5,1.1-2.1,1.7-.8.8-1.6,1.7-2.3,2.6-.5.7-.9,1.4-1.3,2.1-.3.6-.2,1.1.2,1.6.1.2.3.4.4.6.6.6,1.5.5,1.9-.2.6-1.3,1.5-2.2,2.5-3,1.6-1.3,3.4-2.3,5.4-3,1.1-.4,2.2-.8,3.2-.6.8,0,1.4,0,2,0,.7,0,1.2-.7,1.2-1.4.1-1.7-1.5-3.6-3.6-3Z"/>
      <path class="cls-4" d="M207.5,102.8c-2-1.6-4.1-2.9-6.4-3.8-2-.7-4-1.6-6-2.5-.5-.2-1.1-.5-1.6-.7-.5-.3-1.1-.3-1.7-.2-1.2,0-1.7,1.6-1.2,2.5.5.8,1.1,1.4,2.1,1.7.5.1,1,.3,1.4.5,2.4,1.4,5,2.2,7.6,3.2.9.3,1.7.5,2.7.5.4,0,.8,0,1.2,0,0,0,0,0,0,0,.7,0,1.3,0,2,0,.2,0,.4-.4.3-.6-.1-.2-.2-.5-.4-.6Z"/>
      <path class="cls-4" d="M200,109.6c-.7-.9-1.7-1.3-2.8-1.2-1.3,0-2.3.7-2.9,2-.5,1.1-.3,2.3,0,3.4.2.8.8,1.2,1.4,1.7.1.1.3.2.4.3,1.5,1,3.5.8,4.8-.4.9-.8,1.2-2.1.7-3.1-.4-.9-1-1.7-1.6-2.5Z"/>
      <path class="cls-4" d="M180.1,126.8c0,.8.5,1.4,1.2,1.8.9.5,1.8.8,2.8.1,0,0,.2,0,.2,0,.4-.2.6-.5.6-1,0-1.7,0-3.4.2-5.2.3-1.6-.5-2.6-2.1-3.3-1.1-.5-2.3,0-2.5,1.2-.4,1.4-.6,2.9-.5,4.1,0,1,0,1.6,0,2.3Z"/>
      <path class="cls-4" d="M166.8,109c-.8-.6-1.6-1.2-2.4-1.7-1.8-1-3.8.2-3.9,2.3,0,1.1.3,2.1.7,3.1.4.9,1.2,1.5,2.2,2,.7.3,1.3,0,1.9,0,.3,0,.6-.2.9-.3.7-.3,1.2-.9,1.4-1.6.1-.5.1-1,.2-1.1,0-1.2-.3-2-1-2.5Z"/>
      <path class="cls-4" d="M216.6,330.7h0s0,0,0,0c0,0,0,0,0,0Z"/>
      <path class="cls-4" d="M233.1,377.4c-.4,0-.8.3-1,.7-.2.4-.3.8-.5,1.2-.3.8-.6,1.6-1.2,2.3-.9,1-1.7,2-2.6,2.8-1.7,1.5-3.6,2.5-5.9,3-1.6.3-3.1.3-4.7.4-2.4.2-4.9,0-7.3-.5-2.4-.5-4.8-.9-7.1-1.8-.9-.3-1.8-.6-2.7-.8-1.7-.3-3.3-.8-5-1.3-1.2-.3-2.4-.8-3.5-1.5-.5-.3-.9-.7-1.2-1.2-.8-1.4-1.3-2.8-1.2-4.5,0-.4,0-.9,0-1.3,0-.4,0-.7-.2-1.1-.2-.8-.9-1.3-1.7-1.3-.8,0-1.6.1-2.3.3-.7.2-1.4.2-2.1.3-.9,0-1.7,0-2.6.2-.9.1-1.6.8-1.7,1.7-.1.8-.1,1.6-.2,2.3-.1.9-.2,1.8-.4,2.8,0,.3-.3.5-.5.6-.3.1-.5.3-.8.3-2.7.8-5.4,1.9-8,2.9-1.5.6-2.9,1.2-4.5,1.5-3.5.8-7.1.8-10.7.2-1.7-.3-3.4-.6-5.1-.8-.8,0-1.6-.1-2.3-.3-2.5-.4-4.9-.9-7.4-1.4-.6-.1-1.2-.4-1.9-.5-.7-.2-1.2-.5-1.5-1.1-.3-.6-.7-1.1-1.3-1.4-.4-.3-.6-.6-.6-1.1,0-.9,0-1.7,0-2.6.5-3.9,1-7.8,1.5-11.7.1-.9.3-1.8.4-2.8.2-2.1.3-4.1.3-6.2,0-1,0-2,.1-3,0-.6,0-1.3,0-1.9-.1-4.2-.2-8.4-.7-12.6-.4-3.3-.5-6.5.3-9.8.3-1.2-.3-2.1-1.1-2.9-.8-.8-2.1-.4-2.4.6,0,.1-.1.3-.1.4-.1,1.2-.3,2.4-.3,3.6,0,2.5.1,5,.4,7.5.2,1.8.4,3.7.5,5.6.1,3.1.4,6.1,0,9.2,0,.1,0,.3,0,.4.1,2.3-.1,4.6-.2,6.9,0,.7,0,1.4,0,2.1-.3,2.8-.7,5.5-1.1,8.3-.3,2.1-.6,4.1-.8,6.2-.4,3.7,0,5.5,1.5,8.5,0,0,0,.1,0,.2.3.6.7,1,1.4,1.3,3.1,1.2,6.3,1.9,9.5,2.4,3.2.4,6.4.7,9.5,1.3,1.5.3,3,.5,4.5.6,4.2.2,8.3-.4,12.1-2.1,1.4-.6,2.9-1.2,4.4-1.8,1.6-.6,3.2-1.2,4.7-2.1.5-.3,1-.5,1.6-.3.1,0,.4-.1.5-.3.2-.3.4-.6.5-.9.5-1.1.9-2.3,1.1-3.5.2-1.2.4-1.4,1.6-1.6.5,0,1-.1,1.5-.1.4,0,.9.3,1,.7,0,.3.2.7.2,1,.2,1.6.9,3.2,1.6,4.6.2.5.6.8,1,1.1,1.7,1,3.7,1.6,5.5,2.3,1.7.6,3.4,1,5.2,1.4.5.1,1,.2,1.4.4,2.5,1,5.2,1.5,7.8,2.2,1.3.3,2.6.6,4,.7,2.7.2,5.4,0,8.1-.1,2-.1,4-.7,5.7-1.7,2.7-1.5,4.9-3.6,6.6-6.3.8-1.3,1.4-2.8,1.6-4.4,0-.7-.1-1.3-.4-1.9-.2-.4-.8-.7-1.3-.6Z"/>
      <path class="cls-4" d="M204.7,346.7c-2,1.8-4.1,3.4-6,5.2-3.4,3.2-8.2,8-11.7,11.2-1.2,1.1-1.7,2.4-1.6,3.6,0,.8.1,1.3.2,1.7.2.9,1.1,1.6,2,1.5.5,0,.9-.2,1-.6.4-1.1,1.2-1.9,2-2.7,2.4-2.4,6.1-6.5,8.5-8.9,4.2-4.1,8.7-8,13.2-11.9.5-.4.9-.9,1.5-1.3,2.1-1.5,4-3.2,5.9-5,1.4-1.3,2.8-2.6,4.2-4,.1-.1.3-.3.2-.6,0,0-.3,0-.4,0-.2,0-.4,0-.4-.4,0-.1.1-.3.1-.4.2-.7-.4-1.3-1-1.2q-1.8.4-3.4,1.6c-.7.5-1.3,1.1-2,1.7-1.3,1.1-2.6,2.2-3.9,3.3-2.9,2.3-5.8,4.7-8.5,7.2Z"/>
      <path class="cls-4" d="M179.2,335.6c-.4-.5-1.4-.6-1.9-.1-.3.3-.5.5-.7.8-.8,1-1.6,2-2.5,2.9-4,4.4-8,8.8-12,13.1-2.3,2.5-4.6,4.9-6.9,7.3-2.2,2.3-7.3,7.6-9.2,10.1,0,.1-.2.2-.3.3-1.2.9-2.1,2.2-2.9,3.4-.6.9-1.1,1.8-1.6,2.8-.2.4-.2.8-.3,1.1.1.8.2,1.6.6,2.2.3.4.7.5,1.1.4.3,0,.6-.2.7-.5.5-1.2,1.1-2.3,1.9-3.4,1.3-1.8,2.7-3.5,4.4-5,.7-.6,1.3-1.3,2-2,1.8-1.8,6.3-6.9,8.2-8.8,2.5-2.5,5-4.9,7.3-7.5,2.8-3,5.6-5.9,8.6-8.7,1.2-1.1,2.3-2.3,3.4-3.5.4-.5.8-1,1.1-1.5.2-.4.3-.8.2-1.2-.2-.8-.6-1.6-1.1-2.3Z"/>
      <path class="cls-4" d="M168.1,335.5c-.3-.5-1.3-.6-1.8-.2-.4.2-.7.5-1,.8-1,1.1-2,2.2-3,3.3-4.3,4.9-8.6,9.7-13.1,14.4-.8.9-1.8,1.7-2.6,2.6-2.3,2.6-4.6,5.1-6.8,7.7-.3.4-.7.8-.9,1.2-.3.4-.4.9-.3,1.4.1.5.2,1,.4,1.4.4.8,1.3.9,1.7.3,2-2.7,4.4-5,6.7-7.5.5-.5,1-1,1.5-1.5,2.3-2.3,4.6-4.7,6.9-7,1.4-1.4,2.8-2.9,4.2-4.3.9-.9,1.8-1.8,2.7-2.7.7-.7,1.4-1.5,2.1-2.2,1.2-1.2,2.5-2.4,3.7-3.6.2-.2.5-.5.6-.9.1-.2.2-.5.2-.7,0-.2,0-.3,0-.4-.2-.9-.8-1.5-1.3-2.2Z"/>
      <path class="cls-4" d="M190.3,333.8c-.2.1-.4.2-.5.4-.9.8-1.8,1.7-2.6,2.6-2.7,2.9-15.3,17-18,19.9-2.3,2.5-4.5,4.9-7,7.2-2.4,2.3-4.7,4.6-6.9,7.1-.6.7-.9,1.4-1.1,2.3-.1.8.1,1.4.5,2,0,.1.4.1.6.2.1,0,.3,0,.4-.2,1.5-1.2,2.9-2.5,4.4-3.7.2-.1.3-.3.4-.5,1.1-1.2,2.1-2.3,3.4-3.3.3-.2.5-.5.8-.7,1.5-1.5,3.1-3,4.6-4.5,2.8-2.7,15.6-16.6,18.1-19.5,1.2-1.4,2.5-2.8,3.9-3.9.4-.4.9-.8,1.2-1.2.2-.3.3-.8.4-1-.1-1.2-.6-2.1-1.2-2.9-.3-.4-1.1-.5-1.6-.2Z"/>
      <path class="cls-4" d="M207.1,333.5c-.2-.3-.4-.6-.6-.8-.4-.4-1-.5-1.6-.4-.5.1-.7.4-1,.8-1.1,1.7-24.4,24.9-25.8,26.4-.9,1-1.9,2.1-2.8,3.2-2.1,2.4-4.2,4.9-6.5,7.2-2.2,2.2-4.2,4.6-6.1,6.9-.7.8-1.2,1.7-1,2.7,0,.8.3,1.3.8,1.8.2.2.6.2.8,0,0,0,.2-.2.3-.3,1.3-1.9,2.9-3.4,4.5-5,2.9-2.8,5.8-5.8,8.6-8.7,1.2-1.3,2.4-2.5,3.7-3.8,1.6-1.5,24.9-24.8,26.4-26.4.3-.3.5-.7.7-1,.2-.4.3-.9.1-1.4-.2-.4-.3-.8-.5-1.1Z"/>
      <path class="cls-4" d="M223.7,348.2s0,0,0,0c0,0,0,0,0,0,0,0,0,0,0,0Z"/>
      <path class="cls-4" d="M225.8,344.5s0,0,0,0c0,0,0,0,0,0h0Z"/>
      <path class="cls-4" d="M225.8,344.5c-.5,0-1,.2-1.4-.2,0,0-.3-.1-.4,0-1.6.8-3.2,1.7-4.6,2.8-3.2,2.5-6.1,5.1-9,8-2.7,2.7-9.4,9-12,11.9-.3.4-.6.8-.9,1.2-.1.2-.2.4-.2.6,0,1.1,0,2.1.9,3,.7.8,1.7.8,2.4,0,0-.1.2-.2.3-.3,1.8-2.2,7.9-7.8,9.7-9.9,1.3-1.5,2.6-2.9,3.9-4.3,2.6-2.8,5.4-5.5,8.4-7.9.2-.1.3-.3.5-.4.1-.2.2-.4.2-.5-.2,0-.5,0-.7.1,0-.2,0-.4.2-.5.9-1.1,1.6-2.3,2.6-3.3ZM222.2,348.8c.1-.3.4-.4.7-.4-.2.3-.4.4-.7.4Z"/>
      <path class="cls-4" d="M228,353.7c-.5-.4-1.1-.7-1.8-.4-1.2.4-2.1,1.1-3,2-.6.5-1.1,1.1-1.7,1.7-2.4,2.3-4.7,4.6-7.1,6.8-2.1,1.9-7.6,7.1-9.8,8.9-.7.6-1.3,1.3-2,2-.1.1-.3.3-.3.5-.2,1.1,0,2.1.9,2.9.6.6,1.3.6,1.9.2,1.7-1.1,3.1-2.5,4.5-4,2.4-2.5,8.5-8,11-10.5,2.6-2.6,5.1-5.4,7.7-8.1,0-.1.2-.2.2-.4,0-.2,0-.4-.2-.5-.1,0-.2-.1-.3-.2,0-.2.1-.4.1-.6,0-.1,0-.3,0-.4Z"/>
      <path class="cls-4" d="M157.1,332.8c-.2.1-.3.3-.5.4-1.7,1.6-3.4,3.2-5.2,4.8-1.5,1.4-3,2.7-4.4,4-2,1.9-4,3.9-6,5.8-.5.5-1,1-1.5,1.5-.4.4-.6,1-.5,1.6,0,.7.3,1.4.8,2,.2.2.5.3.7.2.5-.4,1-.8,1.5-1.2,3.5-3.1,7-6.3,10.7-9.2,2.1-1.6,4-3.5,6-5.2.3-.3.6-.6.9-.9.2-.2.2-.5.3-.7-.2-1-.4-1.9-1-2.7-.4-.5-1.2-.7-1.7-.3Z"/>
      <path class="cls-4" d="M226.9,368.8c0,0,0-.1,0-.2,0,0-.1-.1-.2-.1-.3,0-.7.3-1,0-.3-.2-.6-.2-1,0-.9.4-1.8.9-2.6,1.5-.8.6-1.6,1.3-2.3,1.9-2.4,2.1-4.9,4.2-7.5,6-.3.2-.7.6-.9.9-.3.4-.3.8-.2,1.2.4.9.9,1.6,1.8,2.1.4.2.8.2,1.2,0,.3-.1.6-.3.9-.5,1.2-1,2.5-1.9,3.7-2.9,2.4-2,4.6-4.3,6.8-6.5.5-.6,1-1.2,1.5-1.8,0,0,0-.2,0-.4,0,0-.1,0-.2,0-.1,0-.3,0-.4.1,0-.1,0-.3,0-.4.1-.3.3-.6.5-1Z"/>
      <path class="cls-4" d="M147.7,330c-.2,0-.5.1-.7.3-1,.7-2,1.4-2.9,2.2-1.6,1.3-3,2.9-4.6,4.1-.5.3-.8.8-1.2,1.2-.8.8-.9,1.7-.6,2.8.3.9,1,1.2,1.8.7.2-.1.3-.3.5-.4,3-1.8,5.6-4.1,8.3-6.4.4-.3.7-.7,1-1.1.1-.2.2-.6.2-.8-.1-.9-.5-1.7-1.1-2.3-.1-.1-.4-.2-.6-.3Z"/>
      <path class="cls-4" d="M281.2,15.9c-.5.3-.9.7-1.3,1.1-.5.5-1.1,1.1-1.5,1.7-.5.6-1.1,1.1-1.3,1.9-.2.5-.4,1-.4,1.5,0,0,0,.2,0,.3,0,.4,0,.9.2,1.4.2.5.8.8,1.1,1.3,0,0,.2,0,.4.1,0,0,.1,0,.2.1.4.4.7,1,1.3.9,0,0,.2,0,.3.1.2,0,.4,0,.5-.1.1-.3.3-.6.3-.9,0-.9.6-1.5,1.1-2.1.3-.3.6-.6.9-.9.3-.3.4-.6.7-.8.6-.5,1.2-1,1.8-1.4.5-.4,1.1-.8,1.7-1.2.2-.2.5-.3.8-.5.2-.1.3-.2.5-.3.3-.1.7-.2,1-.4.2,0,.3-.1.5-.1.1,0,.2,0,.3-.1.1,0,.2-.1.4-.2.2,0,.4,0,.6-.1.4,0,.7,0,1.1,0,.4,0,.8,0,1.2,0,.6,0,1.2,0,1.8,0,.3,0,.7.2,1.1.3.8.2,1.5.5,2,1.2.4.5.5.9.4,1.3-.2.7-.5,1.4-1,1.9-.5.6-1,1.2-1.6,1.8-.3.3-.7.6-1,.9-.4.3-.9.5-1.2.8-.5.5-1.1.8-1.7,1.2-.5.3-1.1.6-1.6.9-.4.3-.8.5-1.2.8-.5.4-1.1.7-1.6,1.1-.3.2-.6.4-1,.7-.2.2-.4.4-.6.5-.8.4-1.2,1.1-1.8,1.8,0,0,0,0,0,0-.3.5-.5,1.1-.5,1.7,0,0,0,0,0,0-.3.6,0,1.3,0,2,0,.1,0,.2.2.4.1.3.3.6.5.8.4.8,1,1.6,1.8,2.2.5.4.9.7,1.4,1,.6.4,1.2.8,1.9.7,0,0,.1,0,.2,0,.2,0,.4,0,.6,0,0,0,.2,0,.3,0,.4,0,.6-.2.3-.6,0-.2,0-.2,0-.3.2-.1.2-.3,0-.6-.1-.1-.2-.2-.2-.4,0-.1,0-.3,0-.4-.3-.4-.5-.8-.6-1.2,0,0,0-.1,0-.2-.4-.5-.8-.9-1.3-1.2-.4-.2-.5-.4-.3-.7.3-.5.6-.9.9-1.3.2-.2.4-.4.6-.6.5-.4,1-.7,1.5-1.1.2-.2.4-.3.7-.5.4-.3.8-.6,1.2-.9.6-.4,1.1-.7,1.7-1.1.4-.2.7-.5,1.1-.7.4-.3.8-.6,1.3-.9.4-.3.6-.6,1.1-.7.3,0,.6,0,.5-.4,0,0,0,0,0,0,.2-.2.3-.3.5-.5.6-.4,1.1-.8,1.7-1.2,0,0,.2-.1.2-.2.3-.5.6-1,.9-1.4,0,0,.1-.2.2-.2.4-.2.5-.6.6-1.1,0-.5,0-1.1-.2-1.6-.1-.7-.3-1.3-.6-2-.1-.3-.3-.6-.4-.9-.3-.8-.7-1.5-1.3-2.2-.4-.4-.7-.9-1.2-1.2-.4-.3-.7-.6-1.1-.9-.1,0-.3-.1-.4-.2-.3,0-.6-.1-.9-.3-1-.4-2.1-.7-3.1-.9-.7-.2-1.4-.4-2-.3-.4,0-.8,0-1.1,0,0,0-.1,0-.2,0-.3,0-.6,0-.9,0-1,.1-1.9.2-2.9.4-.6.1-1.2.3-1.7.6-.9.5-1.9.8-2.6,1.5-.5.4-1.1.6-1.6,1Z"/>
      <path class="cls-4" d="M292.1,47.1c-.2-.2-.5-.3-.7-.4-.9-.4-1.8-.4-2.7-.6,0,0-.2,0-.2,0-.7,0-1.2.2-1.7.4-.6.2-1.1.4-1.4.9,0,0-.1.1-.2.2-.3.2-.4.6-.6,1-.1.3-.2.7-.2,1,0,.2,0,.3,0,.5,0,.3.3.7.5,1,.1.2.3.5.5.7.3.3.6.6.8.9.3.3.6.7,1,.9.3.1.6.2,1,.3.4.2.7.3,1.1.2,0,0,.2,0,.3,0,.3.2.6.1.9.2.8.2,1.3,0,1.9-.2.6-.1,1-.4,1.2-1,.2-.5.7-.8.5-1.4,0-.1,0-.3,0-.5,0-.2,0-.5-.2-.7-.3-.7-.6-1.4-.9-2.1-.2-.5-.5-.9-.9-1.3Z"/>
      <path class="cls-4" d="M131.8,105.8c.6.4.8,1,1.1,1.6,1,2,1.9,4.1,4.2,5.1.3.1.5.6.2.9-1.9,1.9-3,4.1-2.5,6.9.5,3.5,4.3,6,7.4,4.6,1-.5,1.7-1.3,2.2-2.3.2-.5,0-1.5-.5-1.2-3.1,1.7-5.1.3-5.6-1.4-.2-.9.7-2.5,1.3-3,.8-.7,1.6-1.4,2.5-2.1,0,0,.3,0,.4,0,.5.4.9,1,1.1,1.6,1,2.4,1.7,4.4,3.1,6.7,1.2,1.9,2.4,4.2,2.9,6.4.6,2.4.6,4.8,1.2,7.1.4,1.5.5,3.1.8,4.7,0,.2.1.5.2.7.6,2.1,1.5,4.1,2.7,5.9.9,1.5,2,2.8,3.7,3.7,1.2.6,2.3,1.4,3.2,2.3,1.6,1.5,3.4,2.6,5.4,3.4,3.5,1.5,6.8,3,9.9,5.4,2.9,2.2,5.1.8,8.3-.1,1.5-.5,3-1.1,4.3-1.9,1.4-.8,2.8-1.8,4.2-2.7,1.6-1,3-2.1,4.4-3.3,1.8-1.7,3.6-3.4,5.5-5.1,1-.9,1.9-1.9,2.9-2.8.7-.6,1.3-1.3,2-1.9.8-.8,1.8-1.5,2.5-2.4,2.2-2.7,3.9-5.6,4.6-9.1.1-.6.2-1.1.3-1.7.5-3.4,1.1-6.7,1.6-10.1.1-.8.2-1.6.4-2.5.4-2.1.3-4.3.4-6.5,0-.2,0-.5,0-.7,0-.5.5-.6.9-.8.3-.2.7,0,.9.2.6.9,1.5,1.6,2.5,2.1,1.3.6,1.9,1.8,2.1,3.2.1.9,0,1.6-.6,2.4-1.8,2.7-3.5.1-4.6,1.6-.8,1.2,0,1.8,1.2,2.4,2.7,1.6,6.4-.4,7.3-3.1,1-3.1,1.7-5.5-.8-7.7-.3-.3-.7-.5-1-.8-.6-.5-1.2-.9-1.8-1.4-.6-.5-.7-1,0-1.7.4-.3.8-.6,1.2-.8,2.8-1.2,4.4-3.4,5.7-6.1,1-2.1.9-4.2-.5-6.2-.5-.7-.9-1.4-1.4-2.1-.3-.4-.4-.9-.3-1.4.1-.7.3-1.3.4-1.9.6-3.8-.1-7.1-3.2-9.7-.1-.1-.2-.2-.4-.3-.9-.6-1.3-1.5-1.3-2.5,0-.3,0-.7,0-1-.3-2.6-1.1-5-2.9-7-1.3-1.4-2.7-2.5-4.4-3.1-1.5-.5-2.4-1.5-3-2.8-.3-.6-.5-1.2-.8-1.8-.9-2-2.2-3.7-3.8-5.2-1.1-1.1-2.5-1.7-4-1.8-2.2-.1-4.5-.2-6.6,1-.8.5-1.6.2-2.3-.3-.5-.4-.9-.7-1.3-1.1-1.2-1.1-2.6-1.9-4-2.4-1.1-.4-2.2-.7-3.4-1-.5-.1-1-.2-1.4-.4-1.2-.6-2.4-.7-3.7-.5-.8.1-1.6,0-2.4-.3-.7-.3-1.4-.5-2.1-.8-2.5-.9-5.1-.8-7.7-.4-.6,0-1.1.3-1.7.5-1.5.6-2.8,1.6-3,3.3,0,.2,0,.5-.2.7-.2.5-.5.8-1,1-.9.3-1.8.5-2.7.4-1.3,0-2.5,0-3.7.3-1.7.4-3.1,1.2-3.8,2.9-.4.8-.7,1.7-1,2.6-.2.4-.6.7-1,.6-1.1-.3-2.3-.4-3.5-.2-1.6.2-2.8,1-3.5,2.5-.7,1.4-1.2,2.9-1,4.6.1,1.2-.2,2.3-.5,3.5-.2,1-.8,1.8-1.8,2.3-.7.3-1.3.7-2,1-1.9,1.1-3.3,2.6-4,4.6-.5,1.3-.7,2.6-.7,3.9,0,1.1.1,2.2.1,3.2,0,.8-.2,1.5-.8,2.1-.2.2-.5.5-.7.7-3.2,3.3-4.4,7.4-4.5,11.8,0,.4,0,.8,0,1.2.3,1.5.7,2.9,2.1,3.8ZM215.9,112.2c-1.3,1.9-1.8,4.1-2.1,6.3-.3,2.6-.9,5.3-1.3,7.9-.3,2-.6,3.9-1,5.9-.6,2.9-1.9,5.3-3.8,7.5-.3.4-.7.7-1,1.1-1.2,1.1-2.2,2.2-3.3,3.4-1.2,1.3-2.6,2.5-4,3.8-1.4,1.3-2.8,2.6-4.2,3.9-2.1,1.9-4.6,3.3-7,4.8-1.5.9-3.1,1.5-4.8,2.1-.7.2-1.4.2-2.2-.2-.9-.5-2-.8-3-1.1-.9-.2-1.8-.5-2.5-1-1.8-1.1-3.7-1.9-5.6-2.8-1-.5-2.1-1.1-3-1.8-1.6-1.2-3.2-2.4-4.9-3.5-1.5-.9-2.5-2.1-3.3-3.6,0,0,0-.1-.1-.2q-2.2-3.9-3-8.4c-.2-1.4-.5-2.8-.7-4.2-.6-3.6-1.8-6.9-3.5-10.1-.5-1-.9-1.9-1.2-3-.4-1.3-.9-2.7-1.5-4-.2-.4-3.4-5.2-3.5-5.1.6-.4,1.1-1,1.4-1.5.8-1.2,1.2-2.6,1.2-4.1,0-.8-.1-1.7-.2-2.5,0-.4.2-.6.5-.8,1.3-.6,2.6-1.1,4-1.5,1.6-.5,2.4-1.7,2.4-3.4,0-.7-.2-1.5-.3-2.2-.1-.7.1-1,.7-1,.2,0,.3,0,.7,0,1.2,0,2.6-.5,3.8-1.2,1.1-.6,2.1-1.3,3.1-2,.6-.4,1.1-.4,1.6,0,.6.3,1.2.7,1.8.9,1.2.6,2.5.8,3.9.6,1.8-.3,3.6-.7,5.2-1.7.6-.4,1.2-.5,1.8,0,.9.6,1.9,1,2.8,1.6,1.7,1,3.6,1.2,5.5.8,1.7-.4,3.2-.8,4.6-1.9.4-.3,1-.3,1.4,0,.6.4,1.1.8,1.6,1.2,2.3,1.7,4.9,2.3,7.8,2.3,1.1,0,2.2,0,3.2,0,.5,0,1,.1,1.3.6,1.3,1.7,3.2,2.7,5.1,3.4.2,0,.5.2.7.2.4.2.7.6.6,1-.3,1.7,0,3.5,0,5.2,0,2.9,1.2,5.3,3.4,7.2.2.2.4.3.5.5.2.2.2.5,0,.7ZM134.2,98.2c.7-1.3,1.5-2.6,2.4-3.8.6-.9,1.4-1.3,2.6-1.3,1.2,0,1.8-.6,2.1-1.7,0-.4.2-.8.2-1.2.1-.8.2-1.7.4-2.5.2-1.3.2-2.5-.3-3.7,0-.2,0-.3-.2-.5-1-1.6-.3-2.8.7-4.1,1.1-1.3,2.3-1.9,4-1.3.6.2,1.3.3,2,.2.7-.1,1.1-.7,1.3-1.4.2-.8.2-1.7-.2-2.5-.6-1.1-.5-2.3-.4-3.4,0-1.2.2-2.5.3-3.7,0-.6.2-1.2.7-1.6.6-.5,1.3-.8,2.1-.6.8.2,1.6.5,2.2,1.1.7.7,1.5,1.1,2.3,1.5.2,0,.3.2.5.2.8.2,1.5.3,2.1-.3.6-.6.7-1.3.5-2.1-.1-.5-.3-.9-.5-1.4-.4-1.1-.1-2.1.6-3,1.1-1.4,2.4-2,4.1-1.9,1.1,0,2.2,0,3.2.4.6.2,1.3.3,2,.4,1.2.1,2.3-.8,2.4-2,0-.5,0-1,0-1.5,0-.4,0-.8.2-1.2.2-.8.7-1.3,1.5-1.6.2,0,.5-.1.7-.2,1.7-.3,3.5-.2,5.2.2,1.4.3,2.5,1.1,3,2.4.7,1.5,1.9,2.3,3.4,2.8.3,0,.6.1,1,.2.8,0,1.5-.2,1.9-1,.2-.4.4-.9.6-1.4.3-.6.8-.9,1.4-.7.5.1,1,.3,1.4.5.4.2.8.3,1.1.6,1.9,1.4,2.1,1.4,2.5,3.8.2,1.1.6,1.9,1.3,2.6.4.3.7.7,1.1,1,.7.6,1.4.8,2.3.6.2,0,.5-.1.7-.2.6-.2,1-.6,1.3-1.1.2-.6.4-1.3.6-1.9.3-1.3,1.2-2,2.4-2.2,2.4-.4,2.8-.2,4,1.6.5.8.8,1.6,1,2.5.4,1.5.7,2.9,1.5,4.2.1.2.2.5.3.7.8,1.1,1.8,1.9,3.3,2,.8,0,1.6.1,2.5.4.7.2,1.4.6,1.9,1.2.3.4.6.8.7,1.3.3,1.2.4,2.5-.2,3.7,0,0,0,.2-.1.2-.7,1.1-.6,2.2,0,3.3.7,1.2,1.7,2,3.1,2.2.5,0,1,.1,1.5.3.6.2,1,.5,1.3,1.1.5.9.6,1.8.3,2.7-.4,1.5-.8,3.1-1.6,4.4-.4.6-.6,1.2-.7,1.8-.2,1.3.3,2.3,1.4,2.9.6.3,1.2.5,1.9.7.2,0,.5.2.7.2.4.1.6.7.4,1-.7,1.8-1.7,3.5-3.3,4.6-.3.2-.8.4-1.2.4-.7,0-1.5,0-2.2,0-.8-.1-1.5.2-1.9.9-.2.4-.4.7-.5,1.1-.3,1-1,1.5-1.9,1.9-.6.3-1,0-1.2-.5,0-.5-.1-1-.2-1.5,0-.3,0-.7.1-1.3-.3-2.1.4-4.3,1.5-6.4.9-1.7.6-3.4-.3-5-.5-.9-1.4-1.4-2.5-1.3-.4,0-.8.1-1.1.5-.2.2-.4.5-.7.7-.9.9-2,1.1-3.2.6-.7-.3-1.1-.7-1.2-1.4,0-.4-.2-.8-.2-1.2,0-1.6-.8-2.7-1.8-3.7-.2-.2-.4-.3-.6-.4-.4-.2-.8-.2-1.2,0-.7.4-1.2.9-1.5,1.6-.3.8-1,1.1-1.8,1.2-2,.2-4,.1-5.9-.6-.8-.3-1.5-.7-1.9-1.5-.3-.5-.6-1-.8-1.5-.4-.9-1.2-1.4-2.1-1.7-.7-.3-1.3-.2-1.9.3-.3.3-.6.6-.8,1-.3.4-.4.9-.7,1.3-.3.4-.7.8-1.2.9-1,.3-1.9.6-2.9.6-1.2,0-2.3-.2-3.4-.8-.8-.4-1.4-.9-1.9-1.6-.5-.7-.9-1.4-1.4-2-1.2-1.4-3-.5-3.4.6,0,.2,0,.3-.1.5-.1,1-.8,1.6-1.7,1.9-.9.3-1.9.5-2.9.8-.2,0-.5,0-.7,0-1.4-.4-2.7-1-3.5-2.3-.3-.5-.7-.9-1.1-1.4-.2-.2-.4-.4-.6-.5-1.2-.9-2.1-.3-2.5.9-.2.5-.1,1.2,0,1.7,0,.8-.3,1.3-1,1.6-.6.3-1.2.6-1.8.9-1.2.6-2.4.7-3.6.1-.4-.2-.8-.3-1.2-.4-.9-.2-1.7,0-2.2.7-.6.7-.7,1.5-.3,2.3.3.6.7,1.2,1,1.7.3.5.5,1.1.5,1.7,0,.5-.2,1-.6,1.3-1.1,1-2.4,1.4-3.8,1.7-.5.1-1,0-1.5.2-1.3.2-2.1,1.5-1.7,2.7.2.5.4.9.6,1.4.7,1.4.2,3.3-.9,4.3-1.4,1.2-3,2.1-4.8,2.5-.3,0-.7,0-.9-.2-.7-.6-1.4-1.2-1.3-2.3,0-.4,0-.8,0-1.2,0-.6-.3-.9-.7-1.2-.2-.1-.4-.2-.7-.3-.7-.4-1-1-1.1-1.9,0-1,.2-2,.7-2.9Z"/>
    </g>
  </g>
</svg>