<svg id="Layer_1" data-name="Layer 1" xmlns="http://www.w3.org/2000/svg" width="1.5297in" height="1.0178in" viewBox="0 0 110.1383 73.2817"><defs><style>.cls-1{fill:#2d2d2d;}</style></defs><path class="cls-1" d="M109.591,59.5434h-4.8055a3.2179,3.2179,0,0,0-.6973-1.6738,3.6134,3.6134,0,0,0-2.602-.7789,3.8833,3.8833,0,0,0-2.4841.5963,1.5422,1.5422,0,0,0-.5316,1.2263c0,.7281,1.0123,1.3092,3.0157,1.7567a47.69,47.69,0,0,1,4.9392,1.2753c.2655.1.4971.1826.6634.2648a4.6436,4.6436,0,0,1,3.0495,4.3763,5.5448,5.5448,0,0,1-2.9667,5.22c-.2491.1336-.4807.2491-.7462.3652a11.218,11.218,0,0,1-4.44.8279,12.1835,12.1835,0,0,1-6.0658-1.3262,5.7259,5.7259,0,0,1-2.1763-2.1255,5.9792,5.9792,0,0,1-.7239-2.9945h5.0372a2.3834,2.3834,0,0,0,.9282,2.0052,5.1741,5.1741,0,0,0,3.1318.73,3.7782,3.7782,0,0,0,2.4865-.6966,1.5538,1.5538,0,0,0,.6295-1.227c0-.7788-.9923-1.3908-2.9666-1.8225a32.2718,32.2718,0,0,1-5.5675-1.5094,4.6189,4.6189,0,0,1-3.0157-4.4252,5.7841,5.7841,0,0,1,1.5741-4.1247c1.3261-1.4089,3.3137-2.1055,5.95-2.1055a12.4359,12.4359,0,0,1,5.22.9282,1.8254,1.8254,0,0,1,.3157.1669,5.2513,5.2513,0,0,1,2.1334,2.039A6.0745,6.0745,0,0,1,109.591,59.5434Z"/><path class="cls-1" d="M107.0222,47.81a.3936.3936,0,0,0-.0665-.2492.3574.3574,0,0,0-.214-.1645,2.397,2.397,0,0,0-.3163-.0514h-.7613v.9283h.7613a.7066.7066,0,0,0,.4475-.1319A.4176.4176,0,0,0,107.0222,47.81Zm.3985-.4983a.7281.7281,0,0,1,.1488.4475.8074.8074,0,0,1-.2491.5962.9562.9562,0,0,1-.6453.2824.8354.8354,0,0,1,.2649.1651l.4632.6144.3646.6119h-.5968l-.2824-.4964a2.8146,2.8146,0,0,0-.4632-.6628.2165.2165,0,0,0-.0665-.05l-.3961-.1155h-.2987V50.03h-.4983V46.9154h1.077c.0671,0,.1336.0157.1826.0157a1.7873,1.7873,0,0,1,.5968.0829A.723.723,0,0,1,107.4207,47.3121Z"/><path class="cls-1" d="M108.83,48.4405a2.4045,2.4045,0,0,0-.3156-1.2106,2.3357,2.3357,0,0,0-.895-.895,2.5613,2.5613,0,0,0-1.178-.3145h-.0157a2.5489,2.5489,0,0,0-1.1749.3145,2.3233,2.3233,0,0,0-.8968.895,2.352,2.352,0,0,0,0,2.4036,2.2441,2.2441,0,0,0,.8786.8769,2.3738,2.3738,0,0,0,1.1931.3162h.0157a2.3875,2.3875,0,0,0,1.1955-.3162,2.2289,2.2289,0,0,0,.8775-.8769A2.389,2.389,0,0,0,108.83,48.4405Zm.4808,0a2.8344,2.8344,0,0,1-.3828,1.4247,2.5086,2.5086,0,0,1-1.0595,1.0594,2.7751,2.7751,0,0,1-1.4271.3828h-.0157a2.7664,2.7664,0,0,1-1.4241-.3828,2.51,2.51,0,0,1-1.0618-1.0594,2.83,2.83,0,0,1-.38-1.4247,2.8718,2.8718,0,0,1,.38-1.46,2.6688,2.6688,0,0,1,1.0776-1.06,3.132,3.132,0,0,1,1.4083-.38h.0157a2.9433,2.9433,0,0,1,1.409.38,2.5525,2.5525,0,0,1,1.0776,1.06A2.8753,2.8753,0,0,1,109.3105,48.4405Z"/><polygon class="cls-1" points="81.119 25.024 94.726 47.695 81.119 47.695 72.868 47.695 59.875 26.035 50.032 9.645 59.875 3.728 66.072 0 81.119 25.024"/><path class="cls-1" d="M90.9976,63.4365v9.2979h-4.525v-1.028A9.68,9.68,0,0,1,81.17,73.2817h-.0508a9.8441,9.8441,0,0,1,0-19.6879H81.17a9.6984,9.6984,0,0,1,5.3026,1.5734V54.09h4.525Zm-4.525,1.0286V62.41A5.4211,5.4211,0,0,0,81.17,58.0341h-.0508a5.4113,5.4113,0,0,0,0,10.8223H81.17A5.4345,5.4345,0,0,0,86.4726,64.4651Z"/><path class="cls-1" d="M69.7514,63.4365v9.2979H65.2282v-1.028a9.7239,9.7239,0,0,1-5.3041,1.5753h-.049a9.8441,9.8441,0,0,1,0-19.6879h.049a9.7416,9.7416,0,0,1,5.3041,1.5734V47.6949h4.5232Zm-4.5232,1.0286V62.41a5.4233,5.4233,0,0,0-5.3041-4.3762h-.049a5.4113,5.4113,0,0,0,0,10.8223h.049A5.4367,5.4367,0,0,0,65.2282,64.4651Z"/><polygon class="cls-1" points="59.875 38.777 65.211 47.695 59.875 47.695 43.368 47.695 31.238 27.51 30.709 26.631 31.238 26.317 46.767 16.968 59.875 38.777"/><rect class="cls-1" x="43.3855" y="53.5931" width="4.9215" height="19.1413"/><rect class="cls-1" x="43.3855" y="47.7928" width="4.9215" height="4.3248"/><path class="cls-1" d="M41.1307,63.4365v9.2979H36.6075v-1.028a9.7711,9.7711,0,0,1-5.32,1.5753h-.0491a9.8441,9.8441,0,0,1,0-19.6879h.0491a9.79,9.79,0,0,1,5.32,1.5734V47.6949h4.5232Zm-4.5232,1.0286V62.41a5.4259,5.4259,0,0,0-5.32-4.3762h-.0491a5.4113,5.4113,0,0,0,0,10.8223h.0491A5.4392,5.4392,0,0,0,36.6075,64.4651Z"/><polygon class="cls-1" points="31.238 40.236 35.713 47.695 31.238 47.695 13.854 47.695 11.401 43.601 27.459 33.956 31.238 40.236"/><path class="cls-1" d="M19.6705,63.4365v9.2979H15.1473v-1.028a9.7813,9.7813,0,0,1-5.32,1.5753H9.7764a9.8442,9.8442,0,0,1,0-19.6879h.0511a9.8,9.8,0,0,1,5.32,1.5734V54.09h4.5232Zm-4.5232,1.0286V62.41a5.426,5.426,0,0,0-5.32-4.3762H9.7764a5.4115,5.4115,0,0,0,0,10.8223h.0511A5.4393,5.4393,0,0,0,15.1473,64.4651Z"/></svg>