<svg id="Layer_1" data-name="Layer 1" xmlns="http://www.w3.org/2000/svg" width="1.4797in" height="0.8637in" viewBox="0 0 106.5391 62.1889"><defs><style>.cls-1{fill:#2d2d2d;}</style></defs><path class="cls-1" d="M78.182,23.2537C86.83,19.4493,92.4765,13.7361,92.7842,7.398c0,0-2.283-1.7588-9.6544-4.4711A53.7523,53.7523,0,0,0,71.7186,0l.0227,14.1216a9.681,9.681,0,0,1-2.4463,6.171,68.5023,68.5023,0,0,0-15.9716-1.8462H53.32a68.54,68.54,0,0,0-15.9868,1.85,9.6892,9.6892,0,0,1-2.4482-6.1748L34.9054,0A53.8094,53.8094,0,0,0,23.4942,2.9269C16.1228,5.6392,13.8436,7.398,13.8436,7.398c.3058,6.34,5.9544,12.0551,14.6117,15.86-8.65,3.8044-14.2964,9.5176-14.6022,15.8538,0,0,2.2811,1.7607,9.6525,4.4711a53.78,53.78,0,0,0,11.4112,2.9269L34.894,32.3876a9.6694,9.6694,0,0,1,2.4483-6.1709,68.2851,68.2851,0,0,0,15.97,1.8442h.0019a68.2292,68.2292,0,0,0,15.9887-1.85,9.6953,9.6953,0,0,1,2.4463,6.1766L71.73,46.5093a53.7816,53.7816,0,0,0,11.4112-2.9269c7.3714-2.71,9.6525-4.4711,9.6525-4.4711-.3077-6.34-5.9564-12.0551-14.6117-15.8576M53.3158,26.4313H53.31l-.1614-.0038a23.179,23.179,0,0,1-12.3572-3.17A23.1612,23.1612,0,0,1,53.16,20.0818l.1576-.0019h.0076l.1614.0019a23.1732,23.1732,0,0,1,12.3572,3.17,23.177,23.177,0,0,1-12.3667,3.1757"/><path class="cls-1" d="M2.5243,62.1551A2.2827,2.2827,0,0,1,0,59.534V56.0923c0-.2089-.0171-.4862.4254-.4862H1.7076c.416,0,.3894.2963.3894.4862V59.534a.8288.8288,0,0,0,.9477.9021h2.15a.828.828,0,0,0,.9364-.9021V56.0923c0-.19-.0247-.4862.3893-.4862H7.8121c.4691,0,.4273.2963.4273.4862V59.534a2.2855,2.2855,0,0,1-2.5337,2.6211"/><path class="cls-1" d="M14.4045,61.74c-.8756-1.18-2.1254-2.6648-3.4-4.2337v4.19c0,.1823.0456.46-.3893.46H9.4187c-.4331,0-.3818-.2773-.3818-.46V56.0928c0-.19-.019-.4862.3818-.4862h2.3324c.6591,0,1.5973,1.3276,2.2127,2.2032.4749.6686,1.3524,1.6733,1.9412,2.4274V56.0928c0-.19-.0266-.4862.4083-.4862h1.2992c.4178,0,.3912.2963.3912.4862v6.0627H15.6106a1.31,1.31,0,0,1-1.2061-.416"/><path class="cls-1" d="M24.264,60.4327c1.0484,0,.9724-1.0067.9724-1.4663,0-1.5442-.4349-1.605-1.1282-1.605H20.8128v3.0713ZM18.79,62.1573V55.6178h5.78a2.41,2.41,0,0,1,2.72,2.4445c0,2.5432.2773,4.095-2.6686,4.095H21.5061l-.6762-1.37v1.37"/><path class="cls-1" d="M29.5536,55.66h5.3239c.452,0,.3913.2944.3913.8414,0,.509.0683.7958-.3913.7958H30.67c-.112,0-.4919-.0607-.4919.3381s-.0779.5565.3457.5565H34.245s.5375,1.0238.5983,1.1966c.0874.1558.0779.3039-.2507.3039H30.7407L30.1424,58.53v1.717c0,.3989.3571.321.46.321h4.37c.4349,0,.3988.302.3988.7958,0,.5319.0361.8244-.3988.8244H29.44c-.46,0-1.36-.1387-1.36-1.5765V57.0025A1.3282,1.3282,0,0,1,29.5536,55.66"/><path class="cls-1" d="M41.3443,57.343H38.7517c-.4311,0-.4159.1482-.4159.2792v1.17h2.67c1.2935,0,1.2935-.3229,1.2935-.6609,0-.6762-.0513-.7883-.9554-.7883m-4.6382-1.7265h5.8272c.7806,0,1.9146-.0076,1.9146,2.0988,0,1.3789-.2925,1.4473-.9174,1.8728,1.05.1823.9117,1.5251.9117,2.22,0,.3552-.1292.3476-.2356.3476H42.4991c-.3571,0-.27-.5641-.27-.8585,0-.8073-.45-.7712-.6249-.7712H39.09c-.2412-.4178-.71-1.3542-.71-1.3542v2.7142c0,.2355-.2355.27-.3209.27H36.3433c.0931,0-.1766.0171-.1766-.2185V56.1806a.52.52,0,0,1,.5394-.5641"/><path class="cls-1" d="M53.7881,57.4709l-1.075,1.96.0949.095h2.0039l.1044-.095c-.07-.1481-.9364-1.7949-1.0237-1.97l-.1045.01m.6933-1.81c.4254,0,.84.19,1.2915,1.0655.3058.623,2.4217,4.4464,2.8623,5.246v.2166H56.432l-.6344-1.1454H53.12s-.45-1.0313-.5793-1.3162c-.1652.2678-1.05,1.9506-1.3561,2.4616H48.9752V62.05c.45-.849,3.5289-6.3894,3.5289-6.3894"/><path class="cls-1" d="M64.4136,57.343H61.821c-.433,0-.416.1482-.416.2792v1.17h2.6705c1.2935,0,1.2935-.3229,1.2935-.6609,0-.6762-.0513-.7883-.9554-.7883m-4.6382-1.7265h5.8272c.7806,0,1.9164-.0076,1.9164,2.0988,0,1.3789-.2925,1.4473-.9192,1.8728,1.0484.1823.91,1.5251.91,2.22,0,.3552-.1291.3476-.2336.3476H65.5684c-.3571,0-.27-.5641-.27-.8585,0-.8073-.45-.7712-.6249-.7712H62.1591c-.2431-.4178-.7123-1.3542-.7123-1.3542v2.7142c0,.2355-.2317.27-.3191.27h-1.717c.095,0-.1728.0171-.1728-.2185V56.1806a.52.52,0,0,1,.5375-.5641"/><path class="cls-1" d="M72.61,62.1551c-.4349-.8149-1.641-3.0618-2.4558-4.5338v4.0741c0,.1823.0247.46-.3875.46H68.5853c-.4425,0-.4083-.2774-.4083-.46V56.0923c0-.19-.0247-.4767.4083-.4767h2.038c.3039,0,.7351-.07,1.2232.9022.3647.7787,1.1377,2.3951,1.6657,3.2517a36.2172,36.2172,0,0,0,1.7-3.2517c.4768-.9725.9-.9022,1.2384-.9022H78.479c.4179,0,.3742.2868.3742.4767v5.6031c0,.1823.0589.46-.3742.46H77.2919c-.433,0-.3988-.2774-.3988-.46V57.6213c-.8225,1.472-2.021,3.7189-2.473,4.5338"/><path class="cls-1" d="M85.3557,60.49c.9819,0,.9458-1.0124.9458-1.69,0-.6078.1387-1.5613-1.1358-1.5613H83.0043c-1.265,0-1.1168.9535-1.1168,1.5613,0,.678-.0608,1.69.9192,1.69Zm-3.8842,1.6828c-1.9335,0-1.8481-2.0741-1.8481-3.415,0-1.2327-.1386-3.1567,2.2812-3.1757H86.199c2.4273,0,2.27,1.9506,2.27,3.1757,0,1.3409.0969,3.415-1.8652,3.415"/><path class="cls-1" d="M91.7018,62.1551a2.2818,2.2818,0,0,1-2.5242-2.6211V56.0923c0-.2089-.0171-.4862.4255-.4862H90.887c.4141,0,.3894.2963.3894.4862V59.534a.8272.8272,0,0,0,.9459.9021h2.15a.828.828,0,0,0,.9364-.9021V56.0923c0-.19-.0266-.4862.3894-.4862H96.99c.4692,0,.4274.2963.4274.4862V59.534a2.2856,2.2856,0,0,1-2.5337,2.6211"/><path class="cls-1" d="M103.4318,57.343h-2.5926c-.433,0-.4159.1482-.4159.2792v1.17h2.67c1.2935,0,1.2935-.3229,1.2935-.6609,0-.6762-.0513-.7883-.9554-.7883m-4.64-1.7265h5.8291c.7806,0,1.9183-.0076,1.9183,2.0988,0,1.3789-.2963,1.4473-.9211,1.8728,1.05.1823.9116,1.5251.9116,2.22,0,.3552-.1291.3476-.2355.3476h-1.7075c-.3552,0-.27-.5641-.27-.8585,0-.8073-.45-.7712-.623-.7712h-2.5166c-.2412-.4178-.71-1.3542-.71-1.3542v2.7142c0,.2355-.2355.27-.321.27H98.4308c.0931,0-.1747.0171-.1747-.2185V56.1806a.5193.5193,0,0,1,.5356-.5641"/></svg>