<svg id="Layer_1" data-name="Layer 1" xmlns="http://www.w3.org/2000/svg" width="1.4314in" height="0.5152in" viewBox="0 0 103.0632 37.0915"><defs><style>.cls-1{fill:#2d2d2d;}</style></defs><path class="cls-1" d="M13.2038,1.6454C6.4942,9.5214.0681,19.2874.0006,26.5883A8.631,8.631,0,0,0,2.9571,33.549a14.3259,14.3259,0,0,0,9.68,3.5424c4.8465.0068,9.6661-1.9494,13.4326-3.4587,6.3586-2.538,76.56-33.0241,76.56-33.0241.6751-.34.5535-.7628-.297-.5522-.351.0864-76.4245,20.7052-76.4245,20.7052a16.7833,16.7833,0,0,1-4.428.6332c-5.8456.0351-11.0567-3.21-11.0027-10.0495a22.2935,22.2935,0,0,1,2.7271-9.7"/></svg>