<svg id="Layer_1" data-name="Layer 1" xmlns="http://www.w3.org/2000/svg" width="1.8639in" height="0.9751in" viewBox="0 0 134.1989 70.2088"><defs><style>.cls-1,.cls-2{fill:#2d2d2d;}.cls-1{fill-rule:evenodd;}</style></defs><path class="cls-1" d="M130.9327,16.0609v30.06H112.6485s-22.6636-.2957-22.6636-23.0184c0,0-.4141-8.3435,7.3374-16.0952S113.0624.025,113.0624.025a24.5507,24.5507,0,0,1,11.0655,2.13s6.3314,3.1361,6.3314,8.4616c0,0-.1182,5.0892-4.97,5.0892s-5.03-4.8524-5.03-4.8524.0591-5.0889,5.03-5.0889a4.3112,4.3112,0,0,1,1.0647.1184s-.8876-1.42-4.3786-1.42c-2.663,0-7.9294,2.2485-7.9294,8.8166,0,0,.1775,8.2249,8.9353,8.2249,0,0,5.3255.4143,7.7515-5.4439Z"/><path class="cls-2" d="M131.6788,53.7822a2.2328,2.2328,0,0,0,1.5833-.6554l0,0a2.24,2.24,0,0,0,0-3.1666l0,0a2.239,2.239,0,0,0-3.1667,3.1662h.0007a2.2313,2.2313,0,0,0,1.5831.6556Zm1.7814-.4567a2.52,2.52,0,0,1-3.5636,0l0,0a2.52,2.52,0,1,1,3.5638-3.564v.0006a2.52,2.52,0,0,1,0,3.5636Z"/><path class="cls-1" d="M130.93,50.3677h.9206a.698.698,0,0,1,.4738.1334.4351.4351,0,0,1,.15.3392.4721.4721,0,0,1-.0778.261.4377.4377,0,0,1-.2259.1745,1.2318,1.2318,0,0,1-.4126.0549H130.93v-.963Zm0,2.5883V51.6638h.4466a1.11,1.11,0,0,1,.2142.0143.55.55,0,0,1,.1751.0773.8456.8456,0,0,1,.1959.1944c.073.0928.1656.226.2777.4009l.3853.6053h.4842l-.5058-.7919a2.01,2.01,0,0,0-.32-.3869,1.01,1.01,0,0,0-.2323-.145,1.0151,1.0151,0,0,0,.6193-.27.7317.7317,0,0,0,.2-.522.83.83,0,0,0-.121-.4386.65.65,0,0,0-.3236-.2771,1.7254,1.7254,0,0,0-.5915-.0781h-1.29v2.91Z"/><path class="cls-1" d="M13.3894,70.1976H4.9372C4.9372,70.3049,0,69.7669,0,62.8612S4.9249,56.17,4.9249,56.17l8.4169-.0444s1.0078.0584,1.0078,1.4132c0,1.5522-1.0126,1.55-1.0126,1.55H5.5894S3.258,58.9547,3.287,62.4916c.0182,2.1787,0,1.1134,0,1.1134s.2781,3.44,2.4959,3.59h7.6065s.96.032.96,1.5292c0,1.4727-.96,1.4736-.96,1.4736Z"/><path class="cls-1" d="M18.8643,59.0571H29.6621a.5474.5474,0,0,1,.6.708v6.5013c0,.9751-1.2126.9574-1.2126.9574h-8.006A1.6732,1.6732,0,0,1,19.25,65.59a1.5948,1.5948,0,0,1,1.7933-1.6337h7.4123s.9114-.0016.9114-1.4375c0-1.5192-.9114-1.548-.9114-1.548s-5.9084-.013-9.0134.0045c-4.1673.0229-4.17,4.5558-4.17,4.5558A4.2987,4.2987,0,0,0,19.405,70.208s10.91-.0124,12.7839-.0128a1.62,1.62,0,0,0,1.6864-1.7666v-9.797A2.1708,2.1708,0,0,0,31.6,56.17l-12.7643-.0056s-1.1113.032-1.121,1.4508c-.01,1.48,1.15,1.4424,1.15,1.4424Z"/><path class="cls-1" d="M36.4389,57.3292s.1071-1.2123,1.7664-1.2123,1.7672,1.1584,1.7672,1.1584V68.751s-.0074,1.3918-1.7167,1.3918c-1.7831,0-1.8169-1.3918-1.8169-1.3918V57.3292Z"/><path class="cls-1" d="M40.8,56.8753a.11.11,0,0,1,.0643-.1167,11.2206,11.2206,0,0,1,4.0327-.643c2.5162,0,5.5142.8028,5.5675,4.6575a6.7928,6.7928,0,0,1-.6472,2.7288s-.0333.0873-.0933.0782a20.1277,20.1277,0,0,1-2.7974-.96c-.0851-.0415-.0485-.1054-.0489-.1342a3.291,3.291,0,0,0-.2677-3.0515c-.9756-1.232-4.4425-.9487-5.1591-.5392a.0951.0951,0,0,1-.1258-.0638A14.7335,14.7335,0,0,1,40.8,56.8753Z"/><path class="cls-1" d="M52.746,54.1868s.0174-1.1939,1.8267-1.192c1.7395.0024,1.7839,1.192,1.7839,1.192V68.9376s-.0266,1.258-1.7811,1.258c-1.8061,0-1.8295-1.23-1.8295-1.23V54.1868Z"/><path class="cls-1" d="M56.9371,57.1151s-.02-.0467.2267-.1982c0,0,.7751-.5836,4.1763-.7221,3.4548.0032,6.7964,1.1608,6.7964,6.5413a25.1012,25.1012,0,0,1-1.529,6.9539.5692.5692,0,0,1-.5946.4244H63.1244s-.7076.1416-.4249-.4816,1.869-4.3484,1.869-6.4437c0-2.02-.5667-4.3326-4.5872-4.3326a6.0483,6.0483,0,0,0-2.3223.4813s-.4245.2269-.51-.1415a7.99,7.99,0,0,1-.2122-2.0812Z"/><path class="cls-1" d="M108.9269,54.361a1.4224,1.4224,0,0,1,1.5714-1.3662,1.4562,1.4562,0,0,1,1.5857,1.3662v1.8033h4.0777s.93.0192.93,1.4532c0,1.4119-.9015,1.4394-.9015,1.4394H112.084v9.7158a1.4992,1.4992,0,0,1-1.5857,1.4294,1.4707,1.4707,0,0,1-1.5855-1.4294V59.071h-1.7593s-.8887-.0169-.8887-1.4535c0-1.434.8636-1.4865.8636-1.4865l1.7985.0333V54.361Z"/><path class="cls-1" d="M121.9529,54.361a1.4221,1.4221,0,0,1,1.5716-1.3662A1.4565,1.4565,0,0,1,125.11,54.361v1.7851h4.4764S130.81,56.1223,130.81,57.6a1.295,1.295,0,0,1-1.1959,1.4595H125.11v9.7132a1.5,1.5,0,0,1-1.5857,1.4294,1.47,1.47,0,0,1-1.5855-1.4294V59.0734H120.18s-.8886-.0193-.8886-1.486c0-1.4156.8634-1.4564.8634-1.4564l1.7986.0333V54.361Z"/><path class="cls-1" d="M90.5483,57.3292s.107-1.2123,1.7667-1.2123,1.7665,1.1584,1.7665,1.1584V68.751s-.007,1.3918-1.7161,1.3918c-1.7833,0-1.8171-1.3918-1.8171-1.3918V57.3292Z"/><path class="cls-1" d="M94.9089,56.8753a.11.11,0,0,1,.0643-.1167,11.2193,11.2193,0,0,1,4.0327-.643c2.5158,0,5.5143.8028,5.5677,4.6575a6.7957,6.7957,0,0,1-.6471,2.7288s-.0334.0873-.0931.0782a20.1429,20.1429,0,0,1-2.7978-.96c-.0855-.0415-.0487-.1054-.0487-.1342a3.2918,3.2918,0,0,0-.2678-3.0515c-.9751-1.232-4.4428-.9487-5.1595-.5392a.0951.0951,0,0,1-.1258-.0638,14.7486,14.7486,0,0,1-.5249-1.9563Z"/><path class="cls-1" d="M72.9447,59.0571h10.798a.5474.5474,0,0,1,.6.708v6.5013c0,.9751-1.2125.9574-1.2125.9574H75.1237A1.6729,1.6729,0,0,1,73.33,65.59a1.5948,1.5948,0,0,1,1.7933-1.6337h7.4125s.9115-.0016.9115-1.4375c0-1.5192-.9115-1.548-.9115-1.548s-5.9086-.013-9.0134.0045c-4.1673.0229-4.17,4.5558-4.17,4.5558A4.3387,4.3387,0,0,0,73.4893,70.2s10.9065-.0042,12.78-.0046a1.62,1.62,0,0,0,1.6868-1.7666v-9.797A2.1708,2.1708,0,0,0,85.6808,56.17l-12.7647-.0056s-1.111.032-1.121,1.4508c-.01,1.48,1.15,1.4424,1.15,1.4424Z"/></svg>