<svg id="Layer_1" data-name="Layer 1" xmlns="http://www.w3.org/2000/svg" width="0.6143in" height="0.8538in" viewBox="0 0 44.2292 61.4736"><defs><style>.cls-1{fill:#00cd9f;}.cls-2{fill:#2d2d2d;}</style></defs><path class="cls-1" d="M32.058,34.6906c.0052-.06-.1024-.1982-.1254-.1884-.4956.214-.984.4524-1.4789.6685a22.0491,22.0491,0,0,1-2.0647.8623c-.9959.3182-2.0067.5784-3.02.8052-.8242.1847-1.66.2963-2.4927.4165a18.0331,18.0331,0,0,1-1.93.2113c-1.0042.0353-2.01.0236-3.0143.0052-.6587-.012-1.318-.0521-1.9742-.1154-.5-.0484-.9963-.15-1.4934-.2332-.8145-.1357-1.6321-.25-2.4415-.42-.8752-.1838-1.7447-.4093-2.611-.6465a.6551.6551,0,0,1-.33-.3656.9735.9735,0,0,1,.0274-.4506l.0046-.032c-.0709.0069-.1428.016-.2146.02l.0374.1932c-.1651-.1046-.324-.2051-.4827-.3055l-.0527.0985.15.0856c-.0163.046-.0325.0922-.0489.1382-.3146-.0324-.63-.0607-.9433-.1055-.0227-.0033-.0333-.1271-.0567-.2245-.0351.0053-.1369-.0166-.1737.0324-.2173.2894-.4787.1583-.7217.1264-1.0108-.1331-2.02-.28-3.0193-.42-.07.1554-.0193.41-.184.48.1013,1.0459.2067,2.0912.31,3.1368.1155,1.17.2367,2.34.3406,3.5116.085.956.1644,1.9135.2172,2.873q.1307,2.3805.2212,4.7645c.0591,1.5648.0908,3.1311.1465,4.6961.004.1161.1074.2236.1554.3407a.8262.8262,0,0,1,.1141.3556c-.0438.3123-.1348.615-.1962.9245a.6744.6744,0,0,0,.3329.81c.3015.1566.6116.2888.9165.4358a10.1677,10.1677,0,0,0,3.0794.9825c1.4211.1863,2.8447.3791,4.2718.4585,1.0061.056,2.02-.0736,3.0309-.1175a19.6816,19.6816,0,0,0,5.2908-1.0464,20.651,20.651,0,0,0,4.0067-1.86c.9554-.5626,1.9066-1.14,2.8337-1.7675a11.8578,11.8578,0,0,0,1.2633-1.1216.7946.7946,0,0,0,.3354-.6261.4019.4019,0,0,1,.0391-.1157l.0723.1235a.6218.6218,0,0,0,.0034-.2877,1.309,1.309,0,0,1,.0347-.2515l.0188-.004.1036-.5447.0338.0072q.1209-.4918.2417-.9835l-.0787-.0285-.0785.243a.4638.4638,0,0,1-.0469-.2912q.2364-1.3893.48-2.777c.1579-.8938.34-1.7825.4772-2.6806.182-1.1872.3321-2.3813.4943-3.5727.1636-1.2.3289-2.3988.484-3.6.0269-.2071.081-.4984-.0047-.62A4.9292,4.9292,0,0,1,32.058,34.6906Zm-6.681,8.8481a13.7754,13.7754,0,0,1-2.085,4.7477c-1.1038,1.4339-2.2826,2.4678-3.414,3.82-.2343.28-1.3514.9757-1.5612,1.2739a2.8282,2.8282,0,0,1-.4353.569.6421.6421,0,0,1-.4633.0221,2.7387,2.7387,0,0,1-1.1838-.9054c-.3838-.3682-.8156-.6937-1.2027-1.0592-.3289-.3105-.6057-.6684-.9388-.9748-.4938-.4541-1.0272-.8715-1.5248-1.3225a4.1515,4.1515,0,0,1-1.1144-2c-.317-1.0594-.7132-2.1035-.9471-3.1776a15.0051,15.0051,0,0,1-.1939-2.4526.5062.5062,0,0,1,.2151-.3479A8.1441,8.1441,0,0,1,12.0823,40.67a3.9222,3.9222,0,0,1,.7-.21c1.9179.0022,4.1738,2.1479,5.0361,3.6267.2013.3452.2915.4479.48.0777.4408-.8634.7311-1.1159,1.0274-1.7435a3.457,3.457,0,0,1,1.3862-1.5316,7.209,7.209,0,0,1,1.0965-.5468,4.1875,4.1875,0,0,0,.6491-.0329,7.0871,7.0871,0,0,1,1.2349-.04,1.7394,1.7394,0,0,1,.801.3779A2.5558,2.5558,0,0,1,25.377,43.5387Z"/><path class="cls-1" d="M29.19,25.1153a8.0616,8.0616,0,0,0-2.6068-.5588l-.0124.0108A22.1012,22.1012,0,0,1,29.19,25.1153Z"/><path class="cls-1" d="M30.3723,29.2535a14.7648,14.7648,0,0,0-4.2453-1.21A14.0882,14.0882,0,0,0,24.26,27.91c-1.0329-.018-2.0684.0128-3.1016,0a6.439,6.439,0,0,1-.8514-.1346.2155.2155,0,0,0-.1282.0487c-.067.0432-.1311.134-.1963.14-.4062.0377-.8126.0349-1.218.0892-.4811.0642-.9611.1758-1.4418.2592-.138.0238-.2778.0059-.4154.0337-.3235.0655-.6454.1674-.969.214-.1806.0261-.3645-.065-.5449-.037-.1732.0268-.3425.1775-.516.2058-.3712.061-.7508-.0371-1.1084.2456-.0262.0207-.0658.0066-.0991.0094a8.7184,8.7184,0,0,0-1.0184.097c-.74.1539-1.4778.3461-2.2167.52-.8085.1909-1.6184.3664-2.4255.5733-.5793.1484-1.155.3363-1.7321.5083-.605.18-1.2139.3351-1.8132.5551a5.8218,5.8218,0,0,0-.786.396c-.0917-.03-.1791-.06-.27-.09-.041.0147-.0784.0272-.12.0429.0488.0526.0944.14.1562.1613a4.6523,4.6523,0,0,0,.6771.1925c.9643.1772,1.9278.3624,2.8958.5058.7618.1128,1.5294.1775,2.2955.2466.501.0452,1.0042.0593,1.5061.0892.4784.0284.9567.0591,1.4351.0889l.0118.1309-.5011.2129-.0267.1063c.0552.0226.1105.045.1656.0678.1941-.05.388-.0812.5825-.14.0073.0093.0084.02.0174.0292a.5272.5272,0,0,0,.4708.1265c.141-.0062.2806.02.4215.0236a.5239.5239,0,0,0,.2129-.0455c.5574.1082,1.1161.2072,1.676.2921.6892.1045,1.3881.1206,2.0826.1754.2255.0179.4514.03.6766.0509.2.0185.3993.0619.5992.0649.3562.0054.7128-.0082,1.069-.02.2343-.008.4686-.0259.7025-.0423.4824-.0335.9644-.074,1.4468-.1018.3264-.0188.6548-.0011.98-.036a4.4668,4.4668,0,0,0,1.0149-.1885c.3653-.1288.7307.031,1.11-.1444a4.346,4.346,0,0,1,1.2638-.1971l.0326.1079-.6714.4093.0325.1014c.7327-.1748,1.47-.3271,2.1965-.5325.5112-.1442,1.0108-.3524,1.5118-.5471.5979-.2324,1.1958-.4662,1.7856-.7272.468-.2071.916-.4824,1.3867-.6791l.02-.0094c.0479-.1837.0977-.3667.1416-.5517a.3827.3827,0,0,0-.0985-.2988C31.84,30.0757,31.1211,29.6136,30.3723,29.2535Z"/><path class="cls-1" d="M25.43,33.8411c-.0684-.0407-.137-.1164-.2048-.1147a.7736.7736,0,0,0-.4488.0851c-.17.1308-.2989.2828-.4914.0648-.0235-.0265-.1121.0172-.1646.0454-.0639.0346-.1235.1273-.181.1228-.1012-.0078-.2-.1091-.2979-.1031a1.8906,1.8906,0,0,0-1.4692.4256l3.2723-.4389Z"/><path class="cls-1" d="M20.531,34.195c-.2755-.0043-.5508-.0248-.8259-.0209-.0718.0008-.1409.08-.2155.1a.8244.8244,0,0,1-.2728.0307c-.0535-.0038-.1036-.075-.1575-.079q-.5219-.04-1.0449-.06c-.06-.0024-.1216.0435-.1838.0541a2.3433,2.3433,0,0,1-.427.0544c-.0971-.0017-.1966-.093-.2891-.08a1.7269,1.7269,0,0,0-.3767.1362,18.1842,18.1842,0,0,0,4.33.0383l-.2945-.1435.0161-.0621A1.8578,1.8578,0,0,1,20.531,34.195Z"/><path class="cls-1" d="M16.4915,34.2051c-.0291-.0345-.06-.1006-.0872-.0986-.2794.02-.5586.0513-.8378.0794l.0033.0824c.2589.0242.5176.0558.777.0661C16.3936,34.3363,16.4431,34.2505,16.4915,34.2051Z"/><path class="cls-2" d="M43.91,30.1048c-.4612-.0723-.5555-.48-.6314-.9008-.0693-.3826-.199-.5657-.525-.6333-.0578-.012-.1028-.0954-.1612-.1233-.0991-.0471-.221-.1351-.3031-.1a3.6559,3.6559,0,0,0-.4475.3183c-.5627.3562-1.1363.6885-1.6926,1.0592-.6858.4572-.8745.31-1.537.8139a10.8034,10.8034,0,0,1-2.6656,1.3421,1.6986,1.6986,0,0,0-.0916-.6713,12.4362,12.4362,0,0,0-.08-1.4581,4.29,4.29,0,0,0-1.39-2.6092,3.4108,3.4108,0,0,0-.3347-.2239,3.73,3.73,0,0,0,.5437.7376c.1889.2233.3686.461.5522.6923a13.9372,13.9372,0,0,0-5.957-3.2329,22.1012,22.1012,0,0,0-2.6192-.548l.0124-.0108c.0675-.0674.1308-.1177.1866-.11.204.03.405.0813.6074.123.0188.0038.0491.0053.0579-.01.1738-.2932.2944-.0054.4349.035.1581.0456.309.13.4685.1638.0671.0144.1484-.0562.2232-.0883-.0573-.0674-.1071-.18-.173-.1946-.358-.0768-.72-.1279-1.08-.19-.2454-.0424-.49-.0884-.7351-.133l.0088-.07.3371.0285.0063-.1411-3.0383.0325c.0289-.0367.0608-.077.1563-.1984a2.5933,2.5933,0,0,0-.396-.03,4.8053,4.8053,0,0,1-.7838.09,1.8263,1.8263,0,0,0-1.3771.1833.1512.1512,0,0,1-.1169.0091,1.4773,1.4773,0,0,0-.4449-.0933q-1.0982.1329-2.1962.3106c-.4847.0776-.9681.19-1.4524.2777-.4234.0765-.8474.1319-1.27.2114-.3787.0711-.756.1736-1.1347.2425-.5841.1064-1.1708.17-1.753.2991-.7662.169-1.5288.3861-2.2933.5771-.8818.2205-1.7661.4135-2.6455.6587-.8211.2291-1.6388.4987-2.455.7734a14.2137,14.2137,0,0,0-1.7088.6482c-.8288.4024-1.6491.853-2.46,1.3311A3.5381,3.5381,0,0,0,.3,30.4921c.136.0476.2788.0957.4163.1434a.6277.6277,0,0,1-.378.1617c-.3262.0036-.3574.01-.3315.4328.0305.4948.0523.9905.0835,1.4853a5.7592,5.7592,0,0,0,.0739.7751c.043.212.1863.399.2109.61.13,1.1189.2418,2.2414.3477,3.3644l.0013.029.019.0009c.0169.1667.032.3336.049.5l.0767-.0114.0057-.3308A115.7755,115.7755,0,0,1,1.9879,53.59a1.5779,1.5779,0,0,1-.1595.0224c-.5434.0314-.7189.361-.5464.976.135.4818.2385.9767.3533,1.4666a.85.85,0,0,1,.0076.1705c.0068.2786-.1242.596.1524.8.014.01.0116.06.0107.0918-.0179.6668.12.8834.6228,1.122.6917.3284,1.3844.66,2.0548,1.0443a12.4234,12.4234,0,0,0,3.18,1.3616c.7.1726,1.3967.3718,2.1034.4891.7668.1271,1.5427.1815,2.3157.2517.5048.0458,1.0117.088,1.5178.0874.66-.0008,1.3215-.0362,1.9817-.074.6643-.0382,1.3286-.0846,1.9914-.1527.4866-.05.9707-.1411,1.456-.2135.4727-.0706.95-.1109,1.4173-.22a11.6785,11.6785,0,0,0,1.1682-.4021c.4524-.1589.9093-.3011,1.3566-.479.505-.2009,1.0045-.4246,1.5015-.6544.4708-.2179.9388-.4464,1.4013-.689.5182-.2716,1.0346-.5506,1.5417-.8516.56-.3324,1.1081-.6948,1.6626-1.0411.2585-.1614.4588-.4057.8228-.1364a17.2021,17.2021,0,0,0,1.7462.9989c.2854.1637.5755.0173.6438-.3549.1537-.8362.31-1.6716.4551-2.51.2212-1.2785.4322-2.5593.65-3.8386.1106-.6492.1152-.6324.644-.75,1.3491-.3007,2.6939-.6327,4.0458-.9136.2406-.05.5343-.311.7653.0175a10.4157,10.4157,0,0,1,1.0986-.3551,10.2876,10.2876,0,0,1,1.0824-.2251c.0168-.3194.1735-.4225.5489-.3739.4986.0645.8309-.2211.9024-.8268.1616-1.365.3152-2.7315.4531-4.1.1163-1.1571.2216-2.3164.3031-3.4775.0736-1.0492.1065-2.102.1613-3.1531q.0559-1.07.1247-2.1386.0471-.7294.114-1.457a7.8313,7.8313,0,0,0,.1009-.7894,2.8309,2.8309,0,0,1,.3986-1.51C44.32,30.4959,44.2206,30.1534,43.91,30.1048Zm-11.5571,7.21c-.1551,1.2011-.32,2.4-.484,3.6-.1622,1.1914-.3123,2.3855-.4943,3.5727-.1377.8981-.3193,1.7868-.4772,2.6806q-.2449,1.3874-.48,2.777a.4638.4638,0,0,0,.0469.2912l.0785-.243.0787.0285q-.1208.4916-.2417.9835l-.0338-.0072-.1036.5447-.0188.004a1.309,1.309,0,0,0-.0347.2515.6218.6218,0,0,1-.0034.2877l-.0723-.1235a.4019.4019,0,0,0-.0391.1157.7946.7946,0,0,1-.3354.6261,11.8578,11.8578,0,0,1-1.2633,1.1216c-.9271.6276-1.8783,1.2049-2.8337,1.7675a20.651,20.651,0,0,1-4.0067,1.86,19.6816,19.6816,0,0,1-5.2908,1.0464c-1.0105.0439-2.0248.1735-3.0309.1175-1.4271-.0794-2.8507-.2722-4.2718-.4585a10.1677,10.1677,0,0,1-3.0794-.9825c-.3049-.147-.615-.2792-.9165-.4358a.6744.6744,0,0,1-.3329-.81c.0614-.3095.1524-.6122.1962-.9245a.8262.8262,0,0,0-.1141-.3556c-.048-.1171-.1514-.2246-.1554-.3407-.0557-1.565-.0874-3.1313-.1465-4.6961q-.09-2.3836-.2212-4.7645c-.0528-.9595-.1322-1.917-.2172-2.873-.1039-1.1719-.2251-2.3413-.3406-3.5116-.1031-1.0456-.2085-2.0909-.31-3.1368.1647-.07.1142-.325.184-.48.9993.14,2.0085.2874,3.0193.42.243.0319.5044.163.7217-.1264.0368-.049.1386-.0271.1737-.0324.0234.0974.034.2212.0567.2245.3135.0448.6287.0731.9433.1055.0164-.046.0326-.0922.0489-.1382l-.15-.0856.0527-.0985c.1587.1.3176.2009.4827.3055l-.0374-.1932c.0718-.0037.1437-.0128.2146-.02l-.0046.032a.9735.9735,0,0,0-.0274.4506.6551.6551,0,0,0,.33.3656c.8663.2372,1.7358.4627,2.611.6465.8094.17,1.627.284,2.4415.42.4971.0828.9934.1848,1.4934.2332.6562.0633,1.3155.1034,1.9742.1154,1.0045.0184,2.01.03,3.0143-.0052a18.0331,18.0331,0,0,0,1.93-.2113c.8328-.12,1.6685-.2318,2.4927-.4165,1.0129-.2268,2.0237-.487,3.02-.8052a22.0491,22.0491,0,0,0,2.0647-.8623c.4949-.2161.9833-.4545,1.4789-.6685.023-.01.1306.1283.1254.1884a4.9292,4.9292,0,0,0,.29,2.0042C32.4341,36.816,32.38,37.1073,32.3531,37.3144ZM15.5665,34.1859c.2792-.0281.5584-.0594.8378-.0794.0275-.002.0581.0641.0872.0986-.0484.0454-.0979.1312-.1447.1293-.2594-.01-.5181-.0419-.777-.0661Zm5.5014.183a18.1842,18.1842,0,0,1-4.33-.0383,1.7269,1.7269,0,0,1,.3767-.1362c.0925-.013.192.0783.2891.08a2.3433,2.3433,0,0,0,.427-.0544c.0622-.0106.1233-.0565.1838-.0541q.5228.02,1.0449.06c.0539.004.104.0752.1575.079a.8244.8244,0,0,0,.2728-.0307c.0746-.02.1437-.1.2155-.1.2751-.0039.55.0166.8259.0209a1.8578,1.8578,0,0,0,.2585-.0317l-.0161.0621Zm1.1041-.0019a1.8906,1.8906,0,0,1,1.4692-.4256c.0976-.006.1967.0953.2979.1031.0575.0045.1171-.0882.181-.1228.0525-.0282.1411-.0719.1646-.0454.1925.218.321.066.4914-.0648a.7736.7736,0,0,1,.4488-.0851c.0678-.0017.1364.074.2048.1147l.0146.087Zm10.3509-3.0081-.02.0094c-.4707.1967-.9187.472-1.3867.6791-.59.261-1.1877.4948-1.7856.7272-.501.1947-1.0006.4029-1.5118.5471-.727.2054-1.4638.3577-2.1965.5325l-.0325-.1014.6714-.4093-.0326-.1079a4.346,4.346,0,0,0-1.2638.1971c-.3789.1754-.7443.0156-1.11.1444a4.4668,4.4668,0,0,1-1.0149.1885c-.3249.0349-.6533.0172-.98.036-.4824.0278-.9644.0683-1.4468.1018-.2339.0164-.4682.0343-.7025.0423-.3562.0123-.7128.0259-1.069.02-.2-.003-.3991-.0464-.5992-.0649-.2252-.0209-.4511-.033-.6766-.0509-.6945-.0548-1.3934-.0709-2.0826-.1754-.56-.0849-1.1186-.1839-1.676-.2921a.5239.5239,0,0,1-.2129.0455c-.1409-.0035-.28-.03-.4215-.0236a.5272.5272,0,0,1-.4708-.1265c-.009-.0087-.01-.02-.0174-.0292-.1945.0589-.3884.09-.5825.14-.0551-.0228-.11-.0452-.1656-.0678l.0267-.1063.5011-.2129-.0118-.1309c-.4784-.03-.9567-.06-1.4351-.0889-.5019-.03-1.0051-.044-1.5061-.0892-.7661-.0691-1.5337-.1338-2.2955-.2466-.968-.1434-1.9315-.3286-2.8958-.5058a4.6523,4.6523,0,0,1-.6771-.1925c-.0618-.0213-.1074-.1087-.1562-.1613.0419-.0157.0793-.0282.12-.0429.0911.03.1785.06.27.09a5.8218,5.8218,0,0,1,.786-.396c.5993-.22,1.2082-.3746,1.8132-.5551.5771-.172,1.1528-.36,1.7321-.5083.8071-.2069,1.617-.3824,2.4255-.5733.7389-.1743,1.4766-.3665,2.2167-.52a8.7184,8.7184,0,0,1,1.0184-.097c.0333-.0028.0729.0113.0991-.0094.3576-.2827.7372-.1846,1.1084-.2456.1735-.0283.3428-.179.516-.2058.18-.028.3643.0631.5449.037.3236-.0466.6455-.1485.969-.214.1376-.0278.2774-.01.4154-.0337.4807-.0834.9607-.195,1.4418-.2592.4054-.0543.8118-.0515,1.218-.0892.0652-.0062.1293-.097.1963-.14a.2155.2155,0,0,1,.1282-.0487,6.439,6.439,0,0,0,.8514.1346c1.0332.0128,2.0687-.018,3.1016,0a14.0882,14.0882,0,0,1,1.8671.1336,14.7648,14.7648,0,0,1,4.2453,1.21c.7488.36,1.4674.8222,2.1937,1.2549a.3827.3827,0,0,1,.0985.2988C32.6206,30.9922,32.5708,31.1752,32.5229,31.3589Zm7.8814,2.8345c-.0689,1.3182-.139,2.6363-.2213,3.9536-.067,1.0728-.1144,2.1505-.2392,3.2149-.1326,1.1341-.3439,2.2553-.5261,3.3809a3.8311,3.8311,0,0,1-.1191.4309c-.3314-.0463-.4746.0756-.5381.4478-.0458.2689-.0891.5385-.1437.87-1.1078.28-1.7591-.0391-2.9151.2532.0595-.1731.1027-.2979.1457-.4226l-.0564-.0365.2183-.13-.0137-.0727-1.8105.1436c.0686-.3872.1535-.7653.1994-1.15.0636-.535.1055-1.0743.1387-1.6132a1.1394,1.1394,0,0,0-.1194-.3595l.1256-.0787c.0508-.3668.0889-.6992.1437-1.0278.136-.8152.29-1.6263.4152-2.444.0611-.4.0837-.81.1047-1.2168.0157-.3048-.0194-.6143.0087-.9165a1.6778,1.6778,0,0,1,.1838-.4252.7593.7593,0,0,0,.0566-.2268c.034-.4471.0754-.8946.0873-1.3426a.4562.4562,0,0,1,.3353-.4833c.354-.1012.7161-.16,1.0732-.2467a2.3069,2.3069,0,0,0,.4054-.1449,16.578,16.578,0,0,0,1.6594-.7787c.6294-.3733.7261-.2283,1.3349-.6528.0223-.0155.047-.0254.0879-.0472C40.4189,33.4588,40.4235,33.8269,40.4043,34.1934Z"/><path class="cls-2" d="M15.5691,10.5367c.3713.6876.7712,1.3657,1.19,2.0344a5.3632,5.3632,0,0,1,.772,2.0234,2.299,2.299,0,0,1-.95,2.3267,2.069,2.069,0,0,0-.3877.41c-.0979.1313.1281.489.3013.5394.1567.0456.3024.1171.4535.1761.1777.0692.3558.1371.5674.2186a3.0429,3.0429,0,0,0,.77-.27,3.48,3.48,0,0,0,.7355-.7351,2.8639,2.8639,0,0,0,.5361-2.4621,10.83,10.83,0,0,0-.4085-1.3056,9.5721,9.5721,0,0,0-.5014-1.1715c-.154-.2932-.3945-.5545-.5709-.8408a7.5469,7.5469,0,0,1-.4157-.7916,14.1833,14.1833,0,0,1-.8524-1.94,10.1077,10.1077,0,0,1-.2225-1.8723,1.88,1.88,0,0,1,.0046-.67,2.9831,2.9831,0,0,0,.2464-1.3774.4086.4086,0,0,1,.04-.3222c.35-.4026.2349-.8907.3552-1.3324a8.7753,8.7753,0,0,1,.3432-1.7489c.1038-.2134-.0968-.53-.16-.8C17.4131.6145,17.4.6039,17.3884.5966a5.6731,5.6731,0,0,0-.575-.3555,2.2842,2.2842,0,0,0-.634-.21,1.4292,1.4292,0,0,0-.6919.0212.6332.6332,0,0,0-.2766.4393c-.1042.4881-.1764.9816-.2456,1.4746-.1323.9445-.2627,1.8894-.3774,2.8356a15.9044,15.9044,0,0,0-.177,1.9254,6.27,6.27,0,0,0,.5742,2.4888C15.1769,9.6575,15.3386,10.11,15.5691,10.5367Z"/><path class="cls-2" d="M2.3342,10.153c.52.9788,1.096,1.9379,1.68,2.8923.3864.6314.8269,1.24,1.236,1.8623.2715.4124.5508.8224.7906,1.2474a5.05,5.05,0,0,1,.9782,2.0322,2.6915,2.6915,0,0,1-.6232,1.9657.4559.4559,0,0,0-.09.5746.53.53,0,0,0,.5358.2573.2488.2488,0,0,1,.1549.0559,1.3672,1.3672,0,0,0,1.3447.1322c.5544-.1434.6512-.6049.7819-.9926a12.5372,12.5372,0,0,0,.3109-1.3748c-.1713-.5626-.3173-1.0857-.4942-1.6016a2.3919,2.3919,0,0,0-.3323-.6357c-.27-.3676-.6118-.7016-.8555-1.08-.2136-.3316-.3012-.7177-.5017-1.0565C6.7883,13.65,6.2863,12.885,5.81,12.1091a17.7464,17.7464,0,0,1-1.0657-1.8138,2.8724,2.8724,0,0,1-.2447-1.8625,2.0863,2.0863,0,0,1,.8417-1.4686c.1738-.1122.0959-.2266-.0581-.3291a2.2847,2.2847,0,0,0-1.2151-.2836,1.7455,1.7455,0,0,0-.8712.15A2.1168,2.1168,0,0,0,2.15,8.2449a4.7489,4.7489,0,0,0,.0152.899A2.6692,2.6692,0,0,0,2.3342,10.153Z"/><path class="cls-2" d="M28.4968,14.8079a1.21,1.21,0,0,1,.3136,1.4579,2.2272,2.2272,0,0,1-1.1371,1c-.2188.1026-.4751.2126-.3972.4825a2.4194,2.4194,0,0,0,1.2437.78c.0073,0,.0147-.0009.0221-.0014l.0151.035a3.9593,3.9593,0,0,0,.6738-.2013,5.2039,5.2039,0,0,0,1.4228-1.0594,1.8427,1.8427,0,0,0,.0621-2.4049A10.0536,10.0536,0,0,0,29.62,13.6309,7.4751,7.4751,0,0,1,28.38,11.9624a2.5028,2.5028,0,0,1-.2917-2.0632,11.02,11.02,0,0,1,.57-1.6054c.3277-.6751.7381-1.3227,1.1269-1.9763.1226-.2062.1412-.36-.0931-.5311a2.5244,2.5244,0,0,0-1.1335-.641.964.964,0,0,0-.7674.0954,2.64,2.64,0,0,0-.7786.8905c-.2018.32-.4554.6179-.6607.9369a6.3848,6.3848,0,0,0-.7725,2.0548,3.8972,3.8972,0,0,0,.6421,3.0836A19.1781,19.1781,0,0,0,28.4968,14.8079Z"/><path class="cls-2" d="M24.4944,40.6476a1.7394,1.7394,0,0,0-.801-.3779,7.0871,7.0871,0,0,0-1.2349.04,4.1875,4.1875,0,0,1-.6491.0329,7.209,7.209,0,0,0-1.0965.5468,3.457,3.457,0,0,0-1.3862,1.5316c-.2963.6276-.5866.88-1.0274,1.7435-.189.37-.2792.2675-.48-.0777-.8623-1.4788-3.1182-3.6245-5.0361-3.6267a3.9222,3.9222,0,0,0-.7.21,8.1441,8.1441,0,0,0-1.5545,1.0612.5062.5062,0,0,0-.2151.3479,15.0051,15.0051,0,0,0,.1939,2.4526c.2339,1.0741.63,2.1182.9471,3.1776a4.1515,4.1515,0,0,0,1.1144,2c.4976.451,1.031.8684,1.5248,1.3225.3331.3064.61.6643.9388.9748.3871.3655.8189.691,1.2027,1.0592a2.7387,2.7387,0,0,0,1.1838.9054.6421.6421,0,0,0,.4633-.0221,2.8282,2.8282,0,0,0,.4353-.569c.21-.2982,1.3269-.9938,1.5612-1.2739,1.1314-1.3525,2.31-2.3864,3.414-3.82a13.7754,13.7754,0,0,0,2.085-4.7477A2.5558,2.5558,0,0,0,24.4944,40.6476Z"/></svg>