<svg id="Layer_1" data-name="Layer 1" xmlns="http://www.w3.org/2000/svg" width="0.8537in" height="0.8015in" viewBox="0 0 61.4658 57.7057"><defs><style>.cls-1{fill:#00cd9f;}.cls-2{fill:#2d2d2d;}.cls-3{fill:#fff;}</style></defs><path class="cls-1" d="M24.1366,4.61c.0615.019.1232.0367.1855.0527.0282.0073.0567.014.0851.0208.5921.1418,1.1994.2819,1.7967.4027a2.5143,2.5143,0,0,0,.37.0487c.0651.0033.13.0024.1954,0,.402-.0176,1.3776-.0758,1.7818-.11.0209-.0018.0418-.0032.0627-.0056.0286-.0031.0574-.007.0858-.0119a1.3769,1.3769,0,0,0,.1863-.048l.068-.0225a5.7307,5.7307,0,0,0,.7164-.1562c.3158-.0232.6311-.0543.9438-.0861a2.1192,2.1192,0,0,0,.3789-.0722c.6079-.1775,1.21-.3863,1.8025-.6214a1.6034,1.6034,0,0,0,.1925-.0914c.0278-.0156.055-.0323.0819-.0493.4212-.2655,1.0615-.6932,1.4741-.9778.02-.0138.04-.0273.06-.0417.1686-.0924.3331-.1847.4972-.2769.42-.236.8321-.4907,1.2347-.76a3.3815,3.3815,0,0,0,.4237-.3636c-3.4562.7826-6.7178,2.5585-10.2627,2.7208a20.2836,20.2836,0,0,1-4.0358-.323c.2963.1627.5945.3217.9005.4653A6.0072,6.0072,0,0,0,24.1366,4.61Z"/><path class="cls-1" d="M22.4433,54.2636a6.491,6.491,0,0,0-2.63.4019,3.3581,3.3581,0,0,1-.3994.163,2.7189,2.7189,0,0,1-.489.0745c-1.2487.1253-3.45,1.4113-4.3-.183a4.6526,4.6526,0,0,1-.4349-1.6146c-.6157-.23-1.9269-.6658-2.3019-1.3961.0065.1614.0072.323.0145.4844a6.7639,6.7639,0,0,0,1.124,4.1082c1.46,1.756,4.2142,1.64,6.3638.8692s4.1882-2.0482,6.47-2.1347L31.2974,52.4c-.1274.0262-.2563.0468-.3834.0738C28.1053,53.07,25.3421,54.276,22.4433,54.2636Z"/><path class="cls-1" d="M44.1033,44.4551c.0514.4023.1809.5922.3583.6847,2.2175-4.0516.3353-8.6546-.3365-13.0075-.1039-.6728-.26-4.4067-.3812-6.8155-.1563,2.5219-.3745,5.045-.375,7.5724A91.2332,91.2332,0,0,0,44.1033,44.4551Z"/><path class="cls-1" d="M40.347,48.2691a15.1756,15.1756,0,0,0-2.1582.3987c-.9016.2521-1.8529.465-2.7445.7809a10.873,10.873,0,0,0,3.4462-.42c.5543-.1018,1.112-.2049,1.6662-.2986.2241-.0379.45-.0688.6735-.1052.2847-.1965.5648-.4.83-.6216C41.4932,48.1149,40.92,48.1959,40.347,48.2691Z"/><path class="cls-1" d="M12.126,42.48l0,.031.0173-.0043c.0028-.0038,0-.0124,0-.0189Z"/><path class="cls-1" d="M58.4758,11.3059a5.289,5.289,0,0,0-.4848-.4193c-.7624-.5541-1.53-1.1007-2.2926-1.653-.5652-.4093-1.1255-.8253-1.6925-1.2312-.3049-.2183-.6178-.4258-.9337-.6272a6.7645,6.7645,0,0,0-.6691-.3816c-.6-.2922-1.2011-.5818-1.8095-.8555-.4823-.217-.968-.4306-1.4671-.6054-.6309-.2209-1.273-.4133-1.917-.5959-.9275-.2629-1.861-.5063-2.7917-.7586-.0711-.0193-.1437-.034-.2144-.0542q-1.0091-.2878-2.0172-.5777A5.3433,5.3433,0,0,0,40.9243,3.33a4.33,4.33,0,0,0-1.33.0039.4467.4467,0,0,1-.2168-.02c-.0923-.0242-.1793-.0668-.27-.0969-.1919-.0637-.2624-.013-.2168.189a1.0966,1.0966,0,0,1-.1543.842c-.0843.14-.1569.288-.25.4217-.222.32-.4529.6328-.6784.95-.4327.6085-.843,1.235-1.2977,1.8244a9.3412,9.3412,0,0,1-1.5745,1.665c-.1983.1564-.3946.3161-.5986.4635-.3842.2774-.763.5653-1.1627.8147a5.65,5.65,0,0,1-.9753.4912,17.5147,17.5147,0,0,1-1.71.5673c-.6378.1694-1.2873.2864-1.9336.412-.2184.0424-.45.0089-.6638.0649a3.118,3.118,0,0,1-1.1511.0205,6.127,6.127,0,0,1-1.9349-.4693,9.3475,9.3475,0,0,1-1.3855-.6486c-.3127-.2127-.6415-.4-.958-.6064A12.7473,12.7473,0,0,1,20.84,9.0513c-.3824-.3456-.7536-.7044-1.1312-1.0555-.2619-.2437-.5439-.4661-.7867-.7291-.3549-.3844-.6814-.7978-1.021-1.1973a3.1416,3.1416,0,0,0-.4172-.4614.8688.8688,0,0,1-.3246-.6972.97.97,0,0,0-.0678-.2625,2.48,2.48,0,0,1-.2512-1c.0113-.17-.0564-.2213-.2223-.1782a4.6277,4.6277,0,0,0-1.373.548c-.2529.1623-.53.2855-.7676.47-.5335.4136-1.0532.848-1.5681,1.2874-.4385.3741-.8717.7563-1.2909,1.1541-.4134.392-.8133.8006-1.2062,1.2155-.41.4324-.8149.87-1.2009,1.3259s-.7461.9349-1.1163,1.4044c-.4774.6055-.9565,1.2091-1.427,1.82q-.4531.588-.8878,1.1919c-.3855.537-.7722,1.0735-1.136,1.6264-.3077.4676-.5861.9568-.8739,1.4385-.0932.156-.1783.3173-.2686.4752a.2392.2392,0,0,0,.0335.3036c.1407.1609.2738.33.4212.4835.2688.28.5483.5491.82.8269.4577.4686.9127.9406,1.3709,1.4095.1919.1964.3976.3791.577.5879.3986.4638.7806.9445,1.18,1.4087.3738.4349.7651.8528,1.14,1.2869q.527.61,1.0349,1.2388c.2367.2925.4547.6022.6867.8995.1139.146.2147.1254.2773-.0494.0476-.1329.0813-.272.1344-.4021.1425-.3491.288-.697.4416-1.0409.1793-.4012.3461-.8116.5589-1.1929.3959-.71.8222-1.4014,1.24-2.099a.3759.3759,0,0,0-.02-.5132.7176.7176,0,0,0-.1254-.132.2043.2043,0,0,1-.045-.32c.16-.24.31-.4875.4539-.7383a1.0281,1.0281,0,0,1,.964-.5349,2.3844,2.3844,0,0,1,.4443.0294,1.6,1.6,0,0,1,.3937.1353,1.727,1.727,0,0,1,.3173.2115c.2282.1829.4563.3665.6749.562.287.2565.5556.5372.85.7833a.8538.8538,0,0,1,.3534.6445,5.5726,5.5726,0,0,1-.082,1.408c-.1214.567-.1551,1.1542-.2245,1.7328-.0272.2269-.0524.454-.0806.6807-.0552.4451-.1114.89-.1654,1.3351a.7167.7167,0,0,0-.0081.1651c.0393.3416-.04.6789-.0224,1.023a5.5884,5.5884,0,0,1-.0965.9134c-.03.2578-.058.5158-.0892.7733-.0539.4452-.1133.8894-.1607,1.3352-.05.4686-.0816.9394-.133,1.4076-.0387.3514-.1.7-.1463,1.05-.0973.74-.1847,1.4812-.2824,2.2207-.0791.5986-.17,1.1951-.2547,1.7927-.07.4964-.1423.9922-.2088,1.4891-.0532.3972-.1.7954-.15,1.1929-.0969.763-.1861,1.5272-.2884,2.2887-.0613.4571-.0786.92-.1808,1.3728a9.2652,9.2652,0,0,0-.1255,1.1936,5.45,5.45,0,0,1-.0443.5621,12.7528,12.7528,0,0,0-.1949,2.1043c-.0089.3066.0206.6173-.0037.9212a2.9674,2.9674,0,0,0,.1156,1.0765c.0564.1955.0727.4021.115.6021a.4611.4611,0,0,0,.0864.2257.4351.4351,0,0,1,.1155.453,2.5379,2.5379,0,0,0-.0327.4176c-.0152.3278-.0191.6569-.0425.9834-.0122.1744.0125.2241.1738.2.1824-.027.363-.0645.543-.104q.4644-.1017.9267-.2117c.4053-.0961.8114-.19,1.2138-.2956a9.5873,9.5873,0,0,0,.9276-.2806.8186.8186,0,0,1,.4208-.0926.7514.7514,0,0,0,.3218-.0627c.1451-.0485.2851-.1119.4263-.1718.0469-.02.09-.0487.1352-.0725.13-.0688.26-.1361.39-.2058a1.4261,1.4261,0,0,0,.1674-.1,1.5546,1.5546,0,0,1,.388-.2813,5.616,5.616,0,0,1,.8739-.287,15.4142,15.4142,0,0,0,1.6156-.3817c.3932-.1.7841-.2082,1.1751-.3156.41-.1127.8232-.2179,1.2283-.3472.6075-.2274,1.1913-.4147,1.79-.6506a28.1067,28.1067,0,0,1,4.11-1.29c.6482-.1786,1.29-.3442,1.9293-.4965a45.6338,45.6338,0,0,1,5.8529-1.0078c.4921-.0728.962-.17,1.4542-.2656s-.0855-.975-.0934-1.45c-.0572-.255-.1166-.51-.1669-.766a1.9227,1.9227,0,0,1-.0247-1.0434,1.6176,1.6176,0,0,0,.026-.5679c-.0079-.2069-.0413-.4133-.0589-.62-.02-.23-.0274-.4617-.0516-.6916-.05-.4764-.1144-.9516-.1574-1.4285-.106-1.1764-.1862-2.3547-.2913-3.5308a23.509,23.509,0,0,1-.1141-2.9263c.0091-.2541-.0074-.5093,0-.7635.0168-.57.05-1.14.0647-1.71.0169-.6772.0184-1.3549.0341-2.0323.0106-.4622.0347-.9242.0455-1.3865.0114-.4932.017-.9867.02-1.48.0008-.1534-.0269-.3065-.0315-.46-.0118-.392-.0305-.7843-.0215-1.1761q.0179-.7971.0777-1.5933c.0309-.4153.0854-.8335.1363-1.2431a7.0608,7.0608,0,0,1,.633-2.4049.9983.9983,0,0,1,.5092-.5153c.253-.107.4913-.1013.6246.1874a.2328.2328,0,0,0,.25.1463c.2-.0111.2358-.0659.323-.2542a1.2711,1.2711,0,0,1,.339-.4731c.0824-.0629.2674-.0017.3982.0328a.9091.9091,0,0,1,.2412.15.8455.8455,0,0,0,.1811.1242,1.6171,1.6171,0,0,1,.7765.4922,1.969,1.969,0,0,0,.7.61.673.673,0,0,1,.1509.1319,2.465,2.465,0,0,0,.2664.237.4949.4949,0,0,1,.2209.3275A3.1941,3.1941,0,0,0,46.55,20.18a.4621.4621,0,0,1,.045.1288c.148.6064.2958,1.2129.4482,1.8184a1.1818,1.1818,0,0,0,.0851.2353.132.132,0,0,0,.2229.0514q.3417-.297.67-.61c.1094-.104.201-.2276.3076-.3351.2188-.2207.4436-.4354.6644-.6543q1.0917-1.0814,2.1894-2.1589a5.8949,5.8949,0,0,0,.4783-.4523,5.0794,5.0794,0,0,1,.7415-.737c.311-.2528.61-.5231.8979-.8039.3576-.3492.697-.7185,1.0477-1.0758.1382-.1407.2847-.2728.4255-.4111.1835-.18.3637-.3643.5485-.5434.1958-.19.3944-.3766.5935-.5629.131-.1226.2622-.2455.3985-.362.0741-.0634.1648-.1067.2373-.1717.1231-.1107.2336-.236.3569-.3465.1525-.1368.32-.2565.4681-.398.3621-.3463.7128-.7055,1.0779-1.0488a.8316.8316,0,0,0,.11-.12c.0072-.0616.0118-.1233.0171-.185A.4906.4906,0,0,0,58.4758,11.3059ZM29.0306,41.9594a1.22,1.22,0,0,1-.5012.5347,3.15,3.15,0,0,0-.4284.2786,1.3763,1.3763,0,0,1-.8963.3568.3056.3056,0,0,0-.1113.0185,1.1986,1.1986,0,0,1-1.0443-.0947,3.1626,3.1626,0,0,0-.3957-.1621,1.2465,1.2465,0,0,1-.6375-.46.6134.6134,0,0,0-.15-.16,2.38,2.38,0,0,1-.6907-.8634,1.5149,1.5149,0,0,1-.1157-1.1831,2.9127,2.9127,0,0,1,.634-1.1006,4.7208,4.7208,0,0,1,.6072-.5119c.1025-.0838.209-.1632.3132-.2451a.4924.4924,0,0,1,.6032-.0422c.3615.2079.7211.4186,1.0843.6235a6.7,6.7,0,0,1,.6066.3287c.3736.266.7334.55,1.0893.8372.2277.1838.2385.2484.2308.7642A3.229,3.229,0,0,1,29.0306,41.9594Zm5.38-19.072a7.2246,7.2246,0,0,0-.2,1.353,3.6721,3.6721,0,0,1-.1081.653,7.2829,7.2829,0,0,0-.1776,1.0291,2.16,2.16,0,0,1-.4348.9526,1.4875,1.4875,0,0,0-.2226.3885,1.937,1.937,0,0,1-.5962.8921,4.6976,4.6976,0,0,0-.5013.517,4.1747,4.1747,0,0,1-.9222.72c-.3051.198-.6139.3908-.92.587a.2461.2461,0,0,0-.0837.0714c-.2268.397-.6839.549-1.01.8411-.2834.2539-.5966.4782-.888.7245a1.4525,1.4525,0,0,0-.52.9008.3684.3684,0,0,0,.0009.1688,5.7459,5.7459,0,0,0,.4142,1.3571.6352.6352,0,0,1,.05.2493c.0266.1889.0448.379.0755.5672a.4516.4516,0,0,1-.5145.4255,6.5231,6.5231,0,0,1-.6409-.31,1.0908,1.0908,0,0,0-.2184-.1072,1.1138,1.1138,0,0,1-.7726-.5118.5226.5226,0,0,0-.143-.1648,2.3651,2.3651,0,0,1-.704-.9826A6.5688,6.5688,0,0,1,24.8,30.9962a1.7929,1.7929,0,0,1,.7432-1.5365c.0974-.0881.1845-.1863.2763-.28a.9476.9476,0,0,1,.1394-.1395c.4091-.2705.8157-.5447,1.2338-.8022.4112-.2532.8481-.4707,1.25-.7358.47-.31.9287-.6387,1.3648-.9895a3.6437,3.6437,0,0,0,.8935-1.1214,5.8918,5.8918,0,0,0,.6191-1.6193,9.745,9.745,0,0,0,.19-1.48,4.2221,4.2221,0,0,0-.1721-1.523,4.0533,4.0533,0,0,0-.2669-.5875.3093.3093,0,0,0-.313-.1773,2.2874,2.2874,0,0,0-.6406.1118,2.8736,2.8736,0,0,0-.7289.4287A11.0734,11.0734,0,0,0,27.8576,22.06,8.4089,8.4089,0,0,0,26.85,23.4259a5.8212,5.8212,0,0,0-.3965.6907c-.1137.3252-.3626.4071-.6663.4558a1.3962,1.3962,0,0,1-.871-.1507c-.3664-.1825-.7454-.3432-1.1221-.5067A1.448,1.448,0,0,1,23.26,23.47a.5949.5949,0,0,1-.0564-.8132c.1213-.1782.175-.3963.29-.5791a6.31,6.31,0,0,1,.5-.6827c.4911-.5866.9907-1.1671,1.4925-1.7457.2194-.2531.4526-.4958.6994-.7647-.1485-.0641-.1233-.1565-.03-.2338a1.9355,1.9355,0,0,1,.4131-.2949,4.49,4.49,0,0,1,2.3532-.43,11.03,11.03,0,0,1,1.1875.1713,7.2113,7.2113,0,0,1,1.4214.4852,1.6852,1.6852,0,0,0,.1692.0623A3.63,3.63,0,0,1,33.5671,20.07a7.9176,7.9176,0,0,1,.5688.8464,7.8464,7.8464,0,0,1,.3191.8613A1.655,1.655,0,0,1,34.41,22.8874Z"/><path class="cls-1" d="M44.2344,21.8759a2.4906,2.4906,0,0,0-.2124-.3276.4812.4812,0,0,0-.13.374c-.0078.4924-.0368.9848-.0572,1.4772a4.6991,4.6991,0,0,0,1.4947.72c-.2169-.426-.4334-.8453-.6651-1.2384A9.5473,9.5473,0,0,1,44.2344,21.8759Z"/><path class="cls-1" d="M11.8717,43.4371q-.06,1.6959-.0666,3.3928a16.4193,16.4193,0,0,0,.1272-2.0775C11.925,44.314,11.8977,43.8755,11.8717,43.4371Z"/><path class="cls-1" d="M11.9088,42.3057a.0948.0948,0,0,0,.0048-.0805C11.9124,42.2521,11.91,42.2788,11.9088,42.3057Z"/><path class="cls-1" d="M56.6368,7.2061c.3175.2486.8912.8795,1.4643,1.3918-1.0884-2.3741-3.7462-3.7659-6.3732-4.7615.2382.1258.4818.24.7144.3778A39.7041,39.7041,0,0,1,56.6368,7.2061Z"/><path class="cls-1" d="M7.4655,25.3929c-.2278-.3118-.4537-.6252-.6883-.9307a5.3891,5.3891,0,0,0-.3811-.4311c-.2589-.2712-.5328-.5266-.78-.8086-.2322-.2643-.4369-.5557-.6564-.8327-.1907-.2409-.3815-.482-.5791-.7162-.286-.3389-.5725-.6775-.8684-1.0059-.27-.2995-.5534-.585-.835-.8819-.0362.0294-.0694.0427-.0806.0673a.6867.6867,0,0,1-.0821.1259,13.0117,13.0117,0,0,0,3.79,4.73,21.4761,21.4761,0,0,0,1.6771,1.3949l-.0151-.0185C7.7888,25.864,7.6335,25.6227,7.4655,25.3929Z"/><path class="cls-1" d="M12.3689,36.1174c.2378-1.7787.4731-3.5573.691-5.3393C12.7888,32.5524,12.5524,34.3318,12.3689,36.1174Z"/><path class="cls-1" d="M21.54,5.9242A5.45,5.45,0,0,1,20.256,5.19a13.1749,13.1749,0,0,0-1.0811-.8133,1.9017,1.9017,0,0,1-.23-.1751c-.1553-.138-.3238-.2687-.3174-.523a.156.156,0,0,0-.0378-.1059c-.0434-.0413-.11-.1056-.1474-.0917a.24.24,0,0,0-.104.1606.3024.3024,0,0,0,.0271.2034,5.8835,5.8835,0,0,0,.4191.5756c.0954.1123.2352.1814.3361.29A12.0192,12.0192,0,0,0,20.8185,6.151a14.2514,14.2514,0,0,0,1.9071,1.22,5.6429,5.6429,0,0,0,.8287.3678c.5593.1828,1.1288.3352,1.6945.4986a.7128.7128,0,0,0,.1313.0208c.31.0288.62.0539.9292.086a.72.72,0,0,1,.2794.062c.2277.13.4668-.0094.6969.0234.0235.0033.0544-.0248.079-.0427a.5457.5457,0,0,1,.549-.0768.7192.7192,0,0,0,.3247.0228A9.4036,9.4036,0,0,0,30.379,7.82c.39-.1436.7761-.2982,1.1623-.4532a2.8191,2.8191,0,0,0,.3675-.1809c.3894-.2269.7759-.46,1.1639-.6892.0451-.0266.0914-.0507.1371-.076l-.0432-.0764c-.2683.0866-.5377.17-.8045.2618-.1356.0468-.2633.1248-.4.1616-.164.0443-.3387.0407-.5.0916-.3729.1173-.7384.2627-1.1105.3828a11.0214,11.0214,0,0,1-1.1262.3278,7.2,7.2,0,0,1-1.1525.1416,10.4637,10.4637,0,0,1-1.1785-.0367,5.89,5.89,0,0,1-.769-.1119c-.4122-.0845-.8258-.1681-1.2288-.2853-.445-.1294-.8842-.2822-1.3161-.45-.535-.2084-1.0611-.44-1.5881-.6687C21.8367,6.0908,21.6953,5.9908,21.54,5.9242Z"/><path class="cls-2" d="M61.4552,13.4147c-.0364-.2284-.0182-.4666-.0343-.7a.72.72,0,0,0-.0672-.2093c-.0386-.0963-.0943-.1863-.1231-.2853-.1291-.4446-.2377-.8961-.3768-1.3367a1.87,1.87,0,0,0-.7608-1.085,1.5635,1.5635,0,0,1-.2448-.2188.73.73,0,0,0-.522-.2459,2.4391,2.4391,0,0,1-1.2251-.7363c-.5731-.5123-1.1468-1.1432-1.4643-1.3918a39.7041,39.7041,0,0,0-4.1945-2.9919c-.2326-.1374-.4762-.252-.7144-.3778q-.7977-.4213-1.63-.7683c-.0292.0823-.0487.0846-.1761-.0273l.1146.0011a30.1834,30.1834,0,0,0-3.6126-1.2126C44.4756,1.3016,42.1486.394,40.1011.379a.8627.8627,0,0,1-.129-.03A7.5573,7.5573,0,0,0,38.3312.1255a2.2463,2.2463,0,0,0-.3994.0169.3753.3753,0,0,1-.3933-.0559A.1721.1721,0,0,0,37.38.0832c-.024.0115-.026.0945-.0262.1447-.0008.192.007.3835.0049.5756a.3265.3265,0,0,1-.1807.2791,2.6366,2.6366,0,0,0-.301.249c-.04.035-.0785.0726-.1175.1093a3.3815,3.3815,0,0,1-.4237.3636c-.4026.2689-.8147.5236-1.2347.76-.1641.0922-.3286.1845-.4972.2769-.02.0144-.04.0279-.06.0417-.4126.2846-1.0529.7123-1.4741.9778-.0269.017-.0541.0337-.0819.0493a1.6034,1.6034,0,0,1-.1925.0914c-.5923.2351-1.1946.4439-1.8025.6214a2.1192,2.1192,0,0,1-.3789.0722c-.3127.0318-.628.0629-.9438.0861a5.7307,5.7307,0,0,1-.7164.1562l-.068.0225a1.3769,1.3769,0,0,1-.1863.048c-.0284.0049-.0572.0088-.0858.0119-.0209.0024-.0418.0038-.0627.0056-.4042.0339-1.38.0921-1.7818.11-.0654.0028-.13.0037-.1954,0a2.5143,2.5143,0,0,1-.37-.0487c-.5973-.1208-1.2046-.2609-1.7967-.4027-.0284-.0068-.0569-.0135-.0851-.0208-.0623-.016-.124-.0337-.1855-.0527a6.0072,6.0072,0,0,1-.7753-.3063c-.306-.1436-.6042-.3026-.9005-.4653-.3658-.2008-.728-.4088-1.0889-.619l-.0245-.0134c-.5872-.323-1.2112-.648-1.7923-1.0083-.0948-.0588-.1879-.1207-.278-.187a1.1689,1.1689,0,0,1-.3013-.0349.5636.5636,0,0,0-.6352.2422c-.0773.1246-.1571.13-.23.0212a1.7339,1.7339,0,0,1-.2521-.4529,2.2408,2.2408,0,0,0-.4734-.8418,2.55,2.55,0,0,1-.3885-.5462.6067.6067,0,0,0-.5286-.38,1.237,1.237,0,0,0-.3094-.0116,6.6172,6.6172,0,0,0-.6617.1405,3.208,3.208,0,0,0-1.4105.6268.3643.3643,0,0,1-.1.0567,5.8744,5.8744,0,0,0-1.7737,1.2489c-.2666.2643-.5732.4822-.8547.73a4.0107,4.0107,0,0,0-.6416.6142,4.3956,4.3956,0,0,1-.8191.905,4.4321,4.4321,0,0,0-.4174.4132c-.2671.2769-.5294.559-.7973.8349-.2451.2528-.5085.4871-.739.7538-.22.2552-.4112.54-.61.8149a4.7257,4.7257,0,0,1-.5454.5407,7.9934,7.9934,0,0,0-.8242.9694c-.3421.4735-.6463.9771-.971,1.4642-.1051.1578-.2271.3033-.343.453-.4479.5788-.8813,1.1711-1.348,1.7311a5.6984,5.6984,0,0,0-.4661.6737c-.182.2957-.3436.6053-.5205.9043-.0682.1153-.1632.2124-.2323.3272-.1467.2441-.2823.4956-.4255.742-.0876.1506-.1771.3-.2738.4442a.13.13,0,0,1-.2276.0231q-.0925-.0957-.1856-.1912a2.0289,2.0289,0,0,1-.3658.1154,3.9711,3.9711,0,0,0-.23.3823c-.142.3163-.26.6436-.3737.9722a5.7588,5.7588,0,0,1,.2372.7287.9331.9331,0,0,1,.315.5289,6.6464,6.6464,0,0,0,.2749.902c.1384.33.3194.6366.4628.9686a.7293.7293,0,0,0,1.2242.1538.6867.6867,0,0,0,.0821-.1259c.0112-.0246.0444-.0379.0806-.0673.2816.2969.565.5824.835.8819.2959.3284.5824.667.8684,1.0059.1976.2342.3884.4753.5791.7162.22.277.4242.5684.6564.8327.2476.282.5215.5374.78.8086a5.3891,5.3891,0,0,1,.3811.4311c.2346.3055.4605.6189.6883.9307.168.23.3233.4711.5009.6921l.0151.0185c.4546.5648.9266,1.1143,1.3782,1.6826a2.7081,2.7081,0,0,0,1.1738.8611c.3276.1253.664.2237.9976.3309a.3542.3542,0,0,0,.13.009c.1019-.0072.2032-.0243.3052-.0285a.2917.2917,0,0,0,.2969-.3521c-.0134-.1334-.0466-.2643-.0691-.3968-.03-.1767.0022-.2522.17-.2548a.8806.8806,0,0,0,.7326-.4987c.0421-.0649.0688-.1417.1141-.2034.0263-.0356.0755-.0521.1665-.1108-.0115.4712.0006.8881-.0345,1.3-.047.55-.13,1.0965-.195,1.6447-.0274.2307-.06.46-.0879.6911-.2179,1.782-.4532,3.5606-.691,5.3393-.0861.6444-.1731,1.2884-.2571,1.9334a27.7244,27.7244,0,0,0-.3085,3.7077c.0027.56.0353,1.1191.0684,1.6786.026.4384.0533.8769.0606,1.3153a16.4193,16.4193,0,0,1-.1272,2.0775,12.5915,12.5915,0,0,0-.0024,4.6942.95.95,0,0,0,.0857.1852c.375.73,1.6862,1.1659,2.3019,1.3961a4.6526,4.6526,0,0,0,.4349,1.6146c.85,1.5943,3.0509.3083,4.3.183a2.7189,2.7189,0,0,0,.489-.0745,3.3581,3.3581,0,0,0,.3994-.163,6.491,6.491,0,0,1,2.63-.4019c2.8988.0124,5.662-1.1941,8.4707-1.79.1271-.027.256-.0476.3834-.0738a82.7142,82.7142,0,0,1,9.4044-1.3329c.7268-.0639,1.4681-.1206,2.2081-.1452s1.4859-.0216,2.2335.0062a.937.937,0,0,0,.842-.6382,1.4827,1.4827,0,0,0-.1265-1.6156c-.09-.1184.0425-.3438.0192-.5288-.0228-.0929-.1348-.12-.2023-.1687a.1831.1831,0,0,1-.0227-.0929c.3578-.01.8537.2841,1.0064.0146a1.9419,1.9419,0,0,0-1.009-2.5941c-.442-.136-.8859-.0065-1.1889-.1644-.1774-.0925-.3069-.2824-.3583-.6847a91.2332,91.2332,0,0,1-.7344-11.5659c.0005-2.5274.2187-5.0505.375-7.5724.04-.6391.0647-1.2783.0912-1.9173.02-.4924.0494-.9848.0572-1.4772a.4812.4812,0,0,1,.13-.374,2.4906,2.4906,0,0,1,.2124.3276,9.5473,9.5473,0,0,0,.43,1.0056c.2317.3931.4482.8124.6651,1.2384a10.31,10.31,0,0,0,2.4391,3.5514c3.8767-4.9239,8.8474-9.2881,13.3641-13.4737A.8449.8449,0,0,0,61.4552,13.4147ZM23.58,6.8268c.4319.1682.8711.321,1.3161.45.403.1172.8166.2008,1.2288.2853a5.89,5.89,0,0,0,.769.1119,10.4637,10.4637,0,0,0,1.1785.0367A7.2,7.2,0,0,0,29.2249,7.57a11.0214,11.0214,0,0,0,1.1262-.3278c.3721-.12.7376-.2655,1.1105-.3828.1616-.0509.3363-.0473.5-.0916.1369-.0368.2646-.1148.4-.1616.2668-.0921.5362-.1752.8045-.2618L33.21,6.42c-.0457.0253-.092.0494-.1371.076-.388.23-.7745.4623-1.1639.6892a2.8191,2.8191,0,0,1-.3675.1809c-.3862.155-.7726.31-1.1623.4532a9.4036,9.4036,0,0,1-2.1407.5133.7192.7192,0,0,1-.3247-.0228.5457.5457,0,0,0-.549.0768c-.0246.0179-.0555.046-.079.0427-.23-.0328-.4692.1068-.6969-.0234a.72.72,0,0,0-.2794-.062C26,8.3121,25.69,8.287,25.38,8.2582a.7128.7128,0,0,1-.1313-.0208c-.5657-.1634-1.1352-.3158-1.6945-.4986a5.6429,5.6429,0,0,1-.8287-.3678,14.2514,14.2514,0,0,1-1.9071-1.22,12.0192,12.0192,0,0,1-1.6975-1.44c-.1009-.1083-.2407-.1774-.3361-.29a5.8835,5.8835,0,0,1-.4191-.5756.3024.3024,0,0,1-.0271-.2034.24.24,0,0,1,.104-.1606c.0371-.0139.104.05.1474.0917a.156.156,0,0,1,.0378.1059c-.0064.2543.1621.385.3174.523a1.9017,1.9017,0,0,0,.23.1751A13.1749,13.1749,0,0,1,20.256,5.19a5.45,5.45,0,0,0,1.2838.734c.1555.0666.2969.1666.4521.2339C22.5189,6.3867,23.045,6.6184,23.58,6.8268ZM11.9088,42.3057a.3207.3207,0,0,1-.0579.0778l.0178-.2368a.28.28,0,0,1,.0449.0785A.0948.0948,0,0,1,11.9088,42.3057Zm.2176.2056,0-.031.0176.0078c0,.0065.0029.0151,0,.0189ZM41.23,48.6246c-.224.0364-.4494.0673-.6735.1052-.5542.0937-1.1119.1968-1.6662.2986a10.873,10.873,0,0,1-3.4462.42c.8916-.3159,1.8429-.5288,2.7445-.7809a15.1756,15.1756,0,0,1,2.1582-.3987c.5733-.0732,1.1462-.1542,1.7134-.2661.154-.03.31-.0515.4624-.0892a.6173.6173,0,0,1,.4735-.0136,1.6262,1.6262,0,0,1,.8919.3093C42.9968,48.342,42.1141,48.4811,41.23,48.6246ZM58.5643,11.6215a.8316.8316,0,0,1-.11.12c-.3651.3433-.7158.7025-1.0779,1.0488-.148.1415-.3156.2612-.4681.398-.1233.1105-.2338.2358-.3569.3465-.0725.065-.1632.1083-.2373.1717-.1363.1165-.2675.2394-.3985.362-.1991.1863-.3977.3731-.5935.5629-.1848.1791-.365.3632-.5485.5434-.1408.1383-.2873.27-.4255.4111-.3507.3573-.69.7266-1.0477,1.0758-.2877.2808-.5869.5511-.8979.8039a5.0794,5.0794,0,0,0-.7415.737,5.8949,5.8949,0,0,1-.4783.4523q-1.0995,1.0755-2.1894,2.1589c-.2208.2189-.4456.4336-.6644.6543-.1066.1075-.1982.2311-.3076.3351q-.3285.3128-.67.61a.132.132,0,0,1-.2229-.0514,1.1818,1.1818,0,0,1-.0851-.2353c-.1524-.6055-.3-1.212-.4482-1.8184a.4621.4621,0,0,0-.045-.1288,3.1941,3.1941,0,0,1-.3869-1.0415.4949.4949,0,0,0-.2209-.3275,2.465,2.465,0,0,1-.2664-.237.673.673,0,0,0-.1509-.1319,1.969,1.969,0,0,1-.7-.61,1.6171,1.6171,0,0,0-.7765-.4922.8455.8455,0,0,1-.1811-.1242.9091.9091,0,0,0-.2412-.15c-.1308-.0345-.3158-.0957-.3982-.0328a1.2711,1.2711,0,0,0-.339.4731c-.0872.1883-.1234.2431-.323.2542a.2328.2328,0,0,1-.25-.1463c-.1333-.2887-.3716-.2944-.6246-.1874a.9983.9983,0,0,0-.5092.5153,7.0608,7.0608,0,0,0-.633,2.4049c-.0509.41-.1054.8278-.1363,1.2431q-.0591.7954-.0777,1.5933c-.009.3918.01.7841.0215,1.1761.0046.1536.0323.3067.0315.46-.0025.4933-.0081.9868-.02,1.48-.0108.4623-.0349.9243-.0455,1.3865-.0157.6774-.0172,1.3551-.0341,2.0323-.0143.57-.0479,1.14-.0647,1.71-.0075.2542.009.5094,0,.7635a23.509,23.509,0,0,0,.1141,2.9263c.1051,1.1761.1853,2.3544.2913,3.5308.043.4769.1075.9521.1574,1.4285.0242.23.0321.4612.0516.6916.0176.2069.051.4133.0589.62a1.6176,1.6176,0,0,1-.026.5679A1.9227,1.9227,0,0,0,40.8962,43c.05.2563.11.511.1669.766.0079.4754.5857,1.3546.0934,1.45s-.9621.1928-1.4542.2656A45.6338,45.6338,0,0,0,33.8494,46.49c-.64.1523-1.2811.3179-1.9293.4965a28.1067,28.1067,0,0,0-4.11,1.29c-.5989.2359-1.1827.4232-1.79.6506-.4051.1293-.818.2345-1.2283.3472-.391.1074-.7819.2157-1.1751.3156a15.4142,15.4142,0,0,1-1.6156.3817,5.616,5.616,0,0,0-.8739.287,1.5546,1.5546,0,0,0-.388.2813,1.4261,1.4261,0,0,1-.1674.1c-.1293.07-.26.137-.39.2058-.0452.0238-.0883.0527-.1352.0725-.1412.06-.2812.1233-.4263.1718a.7514.7514,0,0,1-.3218.0627.8186.8186,0,0,0-.4208.0926,9.5873,9.5873,0,0,1-.9276.2806c-.4024.106-.8085.2-1.2138.2956q-.4625.11-.9267.2117c-.18.04-.3606.077-.543.104-.1613.0239-.186-.0258-.1738-.2.0234-.3265.0273-.6556.0425-.9834a2.5379,2.5379,0,0,1,.0327-.4176.4351.4351,0,0,0-.1155-.453.4611.4611,0,0,1-.0864-.2257c-.0423-.2-.0586-.4066-.115-.6021a2.9674,2.9674,0,0,1-.1156-1.0765c.0243-.3039-.0052-.6146.0037-.9212a12.7528,12.7528,0,0,1,.1949-2.1043,5.45,5.45,0,0,0,.0443-.5621,9.2652,9.2652,0,0,1,.1255-1.1936c.1022-.4532.12-.9157.1808-1.3728.1023-.7615.1915-1.5257.2884-2.2887.05-.3975.097-.7957.15-1.1929.0665-.4969.1387-.9927.2088-1.4891.0845-.5976.1756-1.1941.2547-1.7927.0977-.7395.1851-1.4808.2824-2.2207.0462-.3505.1076-.6988.1463-1.05.0514-.4682.0833-.939.133-1.4076.0474-.4458.1068-.89.1607-1.3352.0312-.2575.0593-.5155.0892-.7733a5.5884,5.5884,0,0,0,.0965-.9134c-.0178-.3441.0617-.6814.0224-1.023a.7167.7167,0,0,1,.0081-.1651c.054-.4447.11-.89.1654-1.3351.0282-.2267.0534-.4538.0806-.6807.0694-.5786.1031-1.1658.2245-1.7328a5.5726,5.5726,0,0,0,.082-1.408.8538.8538,0,0,0-.3534-.6445c-.2948-.2461-.5634-.5268-.85-.7833-.2186-.1955-.4467-.3791-.6749-.562a1.727,1.727,0,0,0-.3173-.2115,1.6,1.6,0,0,0-.3937-.1353,2.3844,2.3844,0,0,0-.4443-.0294,1.0281,1.0281,0,0,0-.964.5349c-.1442.2508-.2941.4987-.4539.7383a.2043.2043,0,0,0,.045.32.7176.7176,0,0,1,.1254.132.3759.3759,0,0,1,.02.5132c-.4174.6976-.8437,1.389-1.24,2.099-.2128.3813-.38.7917-.5589,1.1929-.1536.3439-.2991.6918-.4416,1.0409-.0531.13-.0868.2692-.1344.4021-.0626.1748-.1634.1954-.2773.0494-.232-.2973-.45-.607-.6867-.8995q-.5085-.6284-1.0349-1.2388c-.3753-.4341-.7666-.852-1.14-1.2869-.3991-.4642-.7811-.9449-1.18-1.4087-.1794-.2088-.3851-.3915-.577-.5879-.4582-.4689-.9132-.9409-1.3709-1.4095-.2713-.2778-.5508-.5466-.82-.8269-.1474-.1535-.28-.3226-.4212-.4835a.2392.2392,0,0,1-.0335-.3036c.09-.1579.1754-.3192.2686-.4752.2878-.4817.5662-.9709.8739-1.4385.3638-.5529.75-1.0894,1.136-1.6264q.4336-.604.8878-1.1919c.4705-.61.95-1.2141,1.427-1.82.37-.4695.73-.9491,1.1163-1.4044s.7913-.8935,1.2009-1.3259c.3929-.4149.7928-.8235,1.2062-1.2155.4192-.3978.8524-.78,1.2909-1.1541.5149-.4394,1.0346-.8738,1.5681-1.2874.2375-.184.5147-.3072.7676-.4695a4.6277,4.6277,0,0,1,1.373-.548c.1659-.0431.2336.0081.2223.1782a2.48,2.48,0,0,0,.2512,1,.97.97,0,0,1,.0678.2625.8688.8688,0,0,0,.3246.6972,3.1416,3.1416,0,0,1,.4172.4614c.34.3995.6661.8129,1.021,1.1973.2428.263.5248.4854.7867.7291.3776.3511.7488.71,1.1312,1.0555a12.7473,12.7473,0,0,0,1.6232,1.1674c.3165.2068.6453.3937.958.6064a9.3475,9.3475,0,0,0,1.3855.6486,6.127,6.127,0,0,0,1.9349.4693,3.118,3.118,0,0,0,1.1511-.0205c.214-.056.4454-.0225.6638-.0649.6463-.1256,1.2958-.2426,1.9336-.412a17.5147,17.5147,0,0,0,1.71-.5673,5.65,5.65,0,0,0,.9753-.4912c.4-.2494.7785-.5373,1.1627-.8147.204-.1474.4-.3071.5986-.4635a9.3412,9.3412,0,0,0,1.5745-1.665c.4547-.5894.865-1.2159,1.2977-1.8244.2255-.317.4564-.63.6784-.95.0927-.1337.1653-.2817.25-.4217a1.0966,1.0966,0,0,0,.1543-.842c-.0456-.202.0249-.2527.2168-.189.0907.03.1777.0727.27.0969a.4467.4467,0,0,0,.2168.02,4.33,4.33,0,0,1,1.33-.0039,5.3433,5.3433,0,0,1,1.2619.2167q1.0084.2887,2.0172.5777c.0707.02.1433.0349.2144.0542.9307.2523,1.8642.4957,2.7917.7586.644.1826,1.2861.375,1.917.5959.4991.1748.9848.3884,1.4671.6054.6084.2737,1.21.5633,1.81.8555a6.7645,6.7645,0,0,1,.6691.3816c.3159.2014.6288.4089.9337.6272.567.4059,1.1273.8219,1.6925,1.2312.7628.5523,1.53,1.0989,2.2926,1.653a5.289,5.289,0,0,1,.4848.4193.4906.4906,0,0,1,.1056.1306A.1609.1609,0,0,1,58.5643,11.6215Z"/><path class="cls-2" d="M50.113,3.0427l-.0762-.0008.0615.0262C50.1028,3.0555,50.1077,3.06,50.113,3.0427Z"/><path class="cls-3" d="M34.1359,20.9165a7.9176,7.9176,0,0,0-.5688-.8464,3.63,3.63,0,0,0-1.8665-1.4255,1.6852,1.6852,0,0,1-.1692-.0623,7.2113,7.2113,0,0,0-1.4214-.4852,11.03,11.03,0,0,0-1.1875-.1713,4.49,4.49,0,0,0-2.3532.43,1.9355,1.9355,0,0,0-.4131.2949c-.0937.0773-.1189.17.03.2338-.2468.2689-.48.5116-.6994.7647-.5018.5786-1.0014,1.1591-1.4925,1.7457a6.31,6.31,0,0,0-.5.6827c-.1152.1828-.1689.4009-.29.5791a.5949.5949,0,0,0,.0564.8132,1.448,1.448,0,0,0,.5343.4451c.3767.1635.7557.3242,1.1221.5067a1.3962,1.3962,0,0,0,.871.1507c.3037-.0487.5526-.1306.6663-.4558a5.8212,5.8212,0,0,1,.3965-.6907A8.4089,8.4089,0,0,1,27.8576,22.06a11.0734,11.0734,0,0,1,1.5313-1.5145,2.8736,2.8736,0,0,1,.7289-.4287,2.2874,2.2874,0,0,1,.6406-.1118.3093.3093,0,0,1,.313.1773,4.0533,4.0533,0,0,1,.2669.5875,4.2221,4.2221,0,0,1,.1721,1.523,9.745,9.745,0,0,1-.19,1.48,5.8918,5.8918,0,0,1-.6191,1.6193,3.6437,3.6437,0,0,1-.8935,1.1214c-.4361.3508-.8949.6794-1.3648.9895-.4018.2651-.8387.4826-1.25.7358-.4181.2575-.8247.5317-1.2338.8022a.9476.9476,0,0,0-.1394.1395c-.0918.0934-.1789.1916-.2763.28A1.7929,1.7929,0,0,0,24.8,30.9962a6.5688,6.5688,0,0,0,.5715,2.2127,2.3651,2.3651,0,0,0,.704.9826.5226.5226,0,0,1,.143.1648,1.1138,1.1138,0,0,0,.7726.5118,1.0908,1.0908,0,0,1,.2184.1072,6.5231,6.5231,0,0,0,.6409.31.4516.4516,0,0,0,.5145-.4255c-.0307-.1882-.0489-.3783-.0755-.5672a.6352.6352,0,0,0-.05-.2493,5.7459,5.7459,0,0,1-.4142-1.3571.3684.3684,0,0,1-.0009-.1688,1.4525,1.4525,0,0,1,.52-.9008c.2914-.2463.6046-.4706.888-.7245.3259-.2921.783-.4441,1.01-.8411a.2461.2461,0,0,1,.0837-.0714c.3065-.1962.6153-.389.92-.587a4.1747,4.1747,0,0,0,.9222-.72,4.6976,4.6976,0,0,1,.5013-.517,1.937,1.937,0,0,0,.5962-.8921,1.4875,1.4875,0,0,1,.2226-.3885,2.16,2.16,0,0,0,.4348-.9526,7.2829,7.2829,0,0,1,.1776-1.0291,3.6721,3.6721,0,0,0,.1081-.653,7.2246,7.2246,0,0,1,.2-1.353,1.655,1.655,0,0,0,.0449-1.11A7.8464,7.8464,0,0,0,34.1359,20.9165Z"/><path class="cls-3" d="M28.9975,40.1143c-.3559-.2872-.7157-.5712-1.0893-.8372a6.7,6.7,0,0,0-.6066-.3287c-.3632-.2049-.7228-.4156-1.0843-.6235a.4924.4924,0,0,0-.6032.0422c-.1042.0819-.2107.1613-.3132.2451a4.7208,4.7208,0,0,0-.6072.5119,2.9127,2.9127,0,0,0-.634,1.1006,1.5149,1.5149,0,0,0,.1157,1.1831,2.38,2.38,0,0,0,.6907.8634.6134.6134,0,0,1,.15.16,1.2465,1.2465,0,0,0,.6375.46,3.1626,3.1626,0,0,1,.3957.1621,1.1986,1.1986,0,0,0,1.0443.0947.3056.3056,0,0,1,.1113-.0185,1.3763,1.3763,0,0,0,.8963-.3568,3.15,3.15,0,0,1,.4284-.2786,1.22,1.22,0,0,0,.5012-.5347,3.229,3.229,0,0,0,.1977-1.0809C29.236,40.3627,29.2252,40.2981,28.9975,40.1143Z"/></svg>