<svg id="Layer_1" data-name="Layer 1" xmlns="http://www.w3.org/2000/svg" width="0.714in" height="0.7952in" viewBox="0 0 51.4055 57.2511"><defs><style>.cls-1{fill:#fff;}.cls-2{fill:#00cd9f;}.cls-3{fill:#2d2d2d;}</style></defs><path class="cls-1" d="M11.7442,20.8455c1.0558-.0913,2.1111-.1876,3.167-.2774,1.5808-.1344,3.16-.29,4.7437-.3893,1.453-.0916,2.91-.1382,4.3676-.1675.3742-.0076.4875-.2081.5016-.5723.01-.2487.0042-.5-.0054-.7493-.0544-1.4168-.1056-2.8337-.17-4.25-.0943-2.071-.2078-4.1417-.2906-6.2127-.0152-.38-.0839-.5492-.438-.5189-.364.0314-.7367-.0236-1.1.0094a.8565.8565,0,0,0-.591.2237c-.879,1.1622-1.7121,2.372-2.5906,3.5346-.8571,1.1342-1.7411,2.2413-2.6324,3.3391-.5691.7008-1.1744,1.3614-1.7607,2.0433-.5791.6735-1.1377,1.3723-1.737,2.02-.5775.6245-1.1956,1.1983-1.7959,1.7944l.1251.1619A1.473,1.473,0,0,0,11.7442,20.8455Z"/><path class="cls-2" d="M29.5812,32.4448a2.1843,2.1843,0,0,0,1.007-1.3676c.036-.1441-.0573-.46-.1408-.4833a3.35,3.35,0,0,0-1.0837-.1481c-.3391.0208-.3242.3663-.3456.6314-.0215.267-.0267.5363-.0338.6916.02.1958.0261.277.0373.3577C29.0838,32.5737,29.2232,32.6637,29.5812,32.4448Z"/><path class="cls-2" d="M21.8279,24.7174a2.5979,2.5979,0,0,0-.3036.9544c-.0838.563-.02.6951.5375.7986a13.4593,13.4593,0,0,0,1.7076.1909c.7871.0437.9875-.1126.9775-.9049-.0043-.3383-.0371-.6778-.0753-1.0174-.0248-.0005-.05-.0023-.0746-.0026C23.6737,24.7227,22.7489,24.6953,21.8279,24.7174Z"/><path class="cls-2" d="M43.9714,38.1706c-.0037-.5815-.0828-1.166-.0914-1.748-.0129-.8741.0178-1.7468.0092-2.6209-.0131-1.3346-.0521-2.67-.0648-4.0048-.01-1.0217,0-2.0428.0084-3.0638.011-1.3733.0367-2.7457.0417-4.1192.0074-2.08-.0026-4.1609.005-6.2409.003-.8459.0442-1.69.0482-2.5358.0064-1.3283-.0081-2.6577-.0056-3.9862.0015-.8148.0244-1.6286.0187-2.4436a.3485.3485,0,0,0-.2037-.247,25.4823,25.4823,0,0,0-2.5743-.3523c-1.0362-.0552-2.0741-.0209-3.1087.0153-1.3036.0457-2.6052.1258-3.9066.2035q-1.5236.0907-3.0444.2132c-.696.0549-1.3905.1263-2.0835.2075-.0593.007-.1478.1423-.1459.2193.0087.3531.03.7084.0736,1.06.1221.9937.2985,1.9837.3755,2.98.0815,1.0534.0641,2.1118.1067,3.1679.0371.9187.1064,1.8372.1446,2.7559.0139.334.0176.6681.0209,1.0023a13.0673,13.0673,0,0,1,4.0543,2.7409,3.5985,3.5985,0,0,1,.6184.9752,7.17,7.17,0,0,1,.414,1.1658c.0565.2033.0775.5119-.24.4744a2.5909,2.5909,0,0,1-1.6308-.454,3.7336,3.7336,0,0,0-1.3275-.8537,9.9647,9.9647,0,0,0-1.8143-.2856c-.0166.1566-.0336.3133-.0541.4683a5.1656,5.1656,0,0,1-.2658,1.4207.6355.6355,0,0,1-.3942.275,2.5832,2.5832,0,0,0,.1362.7581,1.6564,1.6564,0,0,1-.0937.8607c-.2354.9088-.19,1.0588.7066,1.3922a16.7347,16.7347,0,0,1,4.5247,2.6337,3.9061,3.9061,0,0,1,1.1231,4.2674,3.1489,3.1489,0,0,1-1.8349,1.6876,10.082,10.082,0,0,1-3.0016.89c-1.3133.1543-1.4141.2846-1.4446,1.6095-.0225.977.04,1.96.0294,2.9385a4.454,4.454,0,0,1-.4116,2.1152.6473.6473,0,0,1-.8522.3728,4.49,4.49,0,0,1-2.3143-1.389,9.3791,9.3791,0,0,1-.7757-.99,1.519,1.519,0,0,1-.229-1.3057,17.33,17.33,0,0,0,.2916-2.4812.3964.3964,0,0,0-.3862-.4522,7.15,7.15,0,0,0-.7358-.0813A6.7255,6.7255,0,0,1,19.609,35.71a2.6035,2.6035,0,0,1-.9445-1.5318c-.0508-.2476.0355-.3684.2774-.3677a1.6255,1.6255,0,0,1,.6505.0413,5.319,5.319,0,0,0,2.5012.1588c.5992-.0076,1.1977-.0295,1.796-.05.8513-.029.9634-.1676.94-1.0059-.0228-.8174-.0168-1.6343-.0144-2.4509.0019-.66-.0568-.7595-.6708-.7448a7.2288,7.2288,0,0,1-3.0467-.6782,7.3535,7.3535,0,0,1-2.3388-1.9958,6.3577,6.3577,0,0,1-1.1937-2.07c-.4682.0415-.9363.0841-1.4049.1217-.9134.0731-1.8294.12-2.7421.1989-1.2948.1123-2.5929.204-3.8795.3785a10.8366,10.8366,0,0,0-3.4411.5278.5813.5813,0,0,0-.2793.4344c.0653,1.0787.1746,2.1558.26,3.2341.116,1.4625.2188,2.9258.3352,4.3884.1485,1.8657.3073,3.731.457,5.5967.0563.7021.1428,1.4074.1392,2.1069-.0063,1.2356-.1071,2.4663-.102,3.702.0056,1.401.0841,2.8052.1305,4.194-.133.5927.1272.5567.4831.4783a12.1152,12.1152,0,0,1,2.4223-.436,5.8331,5.8331,0,0,0,2.0885-.4736c.1668-.0652.3058-.25.4731-.2757a9.227,9.227,0,0,1,2.4963-.3606c.0773.009.1552-.1155.2411-.1324a3.7786,3.7786,0,0,1,.5218-.0489c.065-.0037.1442.0433.1956.0161a1.8846,1.8846,0,0,1,.9139-.2824,15.3854,15.3854,0,0,0,2.4718-.3361c.3991-.07.7863-.2113,1.18-.3163a6.5909,6.5909,0,0,1,.84-.2052c.2951-.038.5993-.0031.8971-.0264.3219-.0253.64-.0874.9615-.1213.22-.0232.4448-.0067.6625-.0408.64-.1005,1.2746-.25,1.9183-.32.9377-.1011,1.8835-.1305,2.822-.2256.6684-.0678,1.3281-.2128,1.9959-.2876.6114-.0685,1.229-.083,1.8428-.1324.7681-.0617,1.534-.149,2.303-.1984.6983-.0449,1.4008-.04,2.0993-.0832.49-.0306.9757-.1237,1.466-.157.7923-.0537,1.5879-.0678,2.38-.1231.96-.067,1.9192-.1547,2.8772-.2469.1141-.0109.3076-.09.3145-.1645.0558-.5958.1-1.1966.1-1.7983,0-.7743-.0605-1.5516-.0636-2.3263C43.9382,40.2385,43.9779,39.2056,43.9714,38.1706Z"/><path class="cls-2" d="M2.2859,50.4947c.0227-1.2022.0514-2.404.07-3.6066.0121-.7674.0312-1.5355.01-2.3038-.0215-.7656-.0893-1.5318-.1379-2.2977-.0324-.51-.0684-1.0206-.1-1.531-.1086-1.7459-.208-3.492-.3267-5.2375-.0473-.6962-.11-1.3918-.1693-2.0875-.5812,3.0079-1.069,6.04-1.435,9.0965-.3194,2.6668-.4577,5.6952,1.2688,7.831a5.4259,5.4259,0,0,0,.416.4223c.0072.0013.0133-.0027.02-.0011C2.12,50.8267,2.28,50.8106,2.2859,50.4947Z"/><path class="cls-2" d="M48.8849,10.7351c-.0014.8285-.0171,1.6562-.012,2.4848.0074,1.2014.0339,2.4035.0416,3.6048.0081,1.27,0,2.54.0062,3.8105.0048.903.0374,1.8074.03,2.7094-.0067.82-.0633,1.6365-.0742,2.4562-.01.7242.0319,1.4522.0148,2.1755-.0112.4729-.1182.9389-.12,1.4114-.0007.2249.2021.4574.2121.6873.024.555-.0266,1.11-.02,1.6662.0085.6807.026,1.3618.0407,2.0429,1.3191-6.7956,3.3268-13.5107,1.9225-20.3618A10.3919,10.3919,0,0,0,48.865,8.7239c0,.2054,0,.4111.005.6157Q48.887,10.0376,48.8849,10.7351Z"/><path class="cls-3" d="M49.1585,39.1941c-.0576-.4578-.1912-.9057-.28-1.3605a1.8657,1.8657,0,0,1-.0432-.5468,13.978,13.978,0,0,0,.1936-1.4595c.0027-.6805-.0092-1.3618-.0239-2.0432s-.0322-1.3622-.0407-2.0429c-.0069-.5561.0437-1.1112.02-1.6662-.01-.23-.2128-.4624-.2121-.6873.0015-.4725.1085-.9385.12-1.4114.0171-.7233-.0245-1.4513-.0148-2.1755.0109-.82.0675-1.6363.0742-2.4562.0073-.902-.0253-1.8064-.03-2.7094-.0065-1.27.0019-2.54-.0062-3.8105-.0077-1.2013-.0342-2.4034-.0416-3.6048-.0051-.8286.0106-1.6563.012-2.4848q.001-.6973-.0149-1.3955c-.005-.2046-.0046-.41-.005-.6157a18.4443,18.4443,0,0,0-.1268-2.8668,2.7256,2.7256,0,0,0-1.3146-1.963c-.5325-.29-1.0958-.4963-1.6367-.7658a.7915.7915,0,0,1-.3451-.36c-.1813-.4159-.3094-.8612-.4892-1.2781a.4868.4868,0,0,0-.3162-.2739c-.5506-.0281-1.1014-.0162-1.6519-.013-.2562.0015-.5124.04-.7676.0189-1.0144-.0831-2.0286-.2262-3.0422-.2649C38.0359.9138,36.8958.9268,35.76.9745c-1.0972.0461-2.1881.1816-3.2838.252-1.1045.0708-2.2115.1132-3.3178.1607-.3436.0147-.6889.0052-1.1388.0072a.64.64,0,0,1-.2929.1375,26.2039,26.2039,0,0,1-2.62.1331c-1.0194-.029-2.0768.22-3.0275-.5919C21.7312.7761,21.308.6053,20.946.3274c-.6644-.51-.9972-.4427-1.37.333-.037.0769-.0983.1366-.1415.21-.4281.7276-.8673,1.447-1.2732,2.1918-.1022.1875-.0449.4994-.15.6821-.35.6078-.7411,1.1818-1.1144,1.7706-.41.6471-.8258,1.29-1.2227,1.9483a5.83,5.83,0,0,0-.311.7087c-.0736.0258-.2265.0226-.2829.108-.4031.6092-.7889,1.2343-1.1736,1.86-.0617.1-.0931.3325-.1341.3291-.6348-.0533-.4351.81-.8637,1.0475-.2994.1662-.4321.69-.6715,1.022-.4432.6151-.9016,1.216-1.3692,1.8061-.5976.754-1.2147,1.4868-1.8151,2.2379-.2553.3193-.4895.6615-.7334.9933l0,0-.0022.0006c.0221.0461.0632.1137.0542.1244-.2769.3291-.5594.6518-.841.9755l-.077-.0782.1859-.31-.07-.0708-.5574.663.1013.1178a5.9517,5.9517,0,0,1-.4448.6632c-.4886.5554-.9928,1.0923-1.4978,1.6279a.2354.2354,0,0,1-.2179.0559,19.2519,19.2519,0,0,1-2.148-.8125c-.827-.4135-1.7507-.1293-1.8589.8086a19.4115,19.4115,0,0,0-.024,3.0716c.0624,1.3776.1872,2.7548.2965,4.1315.0962,1.2115.21,2.422.3122,3.6332.0352.4177.066.8356.1016,1.2533.0592.6957.122,1.3913.1693,2.0875.1187,1.7455.2181,3.4916.3267,5.2375.0317.51.0677,1.0206.1,1.531.0486.7659.1164,1.5321.1379,2.2977.0216.7683.0025,1.5364-.01,2.3038-.0189,1.2026-.0476,2.4044-.07,3.6066-.006.3159-.1663.332-.3838.2846-.0072-.0016-.0133.0024-.02.0011-.4336-.0788-.81.3218-.7984.8442.0091.4182-.0155.8375.0165,1.2541A10.82,10.82,0,0,0,1.71,56.501c.189.4332.4393.6785.7862.7047a12.183,12.183,0,0,0,2.0589.0031c.9987-.0944,1.9891-.2691,2.982-.416.2631-.0389.5251-.0911.7837-.1552.6666-.1652,1.3327-.334,1.996-.5136.76-.2055,1.5149-.43,2.2746-.6355.5918-.16,1.1833-.3248,1.7825-.4465.9885-.2006,1.9832-.368,2.9531-.5453l-.0223-.0387.6431-.0518-.0468-.0768,1.1091-.1283-.0065-.0362.9061-.129c-.0286.0132.0472-.048.128-.0539a6.4786,6.4786,0,0,0,.8116-.0347c.7556-.1537,1.5049-.3414,2.2567-.516a.8022.8022,0,0,1,.1245-.03c.6672-.0425,1.34-.0418,2-.1352.7423-.105,1.47-.3112,2.21-.4411.4776-.0839.9641-.1181,1.4481-.1587.2751-.0231.5534-.0142.8507-.02.0367-.0276.1047-.1218.183-.1306.4366-.0486.875-.0861,1.3143-.1083.28-.0142.5645.0234.8439.0038.3229-.0227.641-.1.964-.1208.2624-.0165.5307.0386.7932.0229.5831-.0349,1.1641-.0963,1.7463-.1432.4941-.04.9927-.047,1.4822-.118.6751-.0979,1.3389-.2836,2.0164-.3529.48-.0491.9758.0635,1.4612.0478.7146-.023,1.4254-.1057,2.1392-.1448.7042-.0385,1.4094-.07,2.1154-.0755a19.4718,19.4718,0,0,1,2.1153.0557,2.8112,2.8112,0,0,0,1.5274-.0572,1.1092,1.1092,0,0,0,.5749-1.1067A4.6374,4.6374,0,0,1,48.94,47.92a5.8383,5.8383,0,0,0,.17-2.1439c-.0113-1.0275-.1163-2.058-.142-3.0866a6.3233,6.3233,0,0,0,.064-1.4949,2.85,2.85,0,0,1-.0035-1.3461A2.7383,2.7383,0,0,0,49.1585,39.1941ZM24.7469,25.7564c.01.7923-.19.9486-.9775.9049a13.4593,13.4593,0,0,1-1.7076-.1909c-.5579-.1035-.6213-.2356-.5375-.7986a2.5979,2.5979,0,0,1,.3036-.9544c.921-.0221,1.8458.0053,2.7691.019.0249,0,.05.0021.0746.0026C24.71,25.0786,24.7426,25.4181,24.7469,25.7564ZM13.208,18.8784c.5993-.6482,1.1579-1.347,1.737-2.02.5863-.6819,1.1916-1.3425,1.7607-2.0433.8913-1.0978,1.7753-2.2049,2.6324-3.3391.8785-1.1626,1.7116-2.3724,2.5906-3.5346a.8565.8565,0,0,1,.591-.2237c.3637-.033.7364.022,1.1-.0094.3541-.03.4228.1384.438.5189.0828,2.071.1963,4.1417.2906,6.2127.0644,1.4166.1156,2.8335.17,4.25.01.25.0151.5006.0054.7493-.0141.3642-.1274.5647-.5016.5723-1.4573.0293-2.9146.0759-4.3676.1675-1.5837.1-3.1629.2549-4.7437.3893-1.0559.09-2.1112.1861-3.167.2774a1.473,1.473,0,0,1-.207-.0108l-.1251-.1619C12.0124,20.0767,12.6305,19.5029,13.208,18.8784ZM8.675,17.2147l.06.09L8.6,17.4161,8.55,17.3489ZM43.906,45.3981c-.0069.0741-.2.1536-.3145.1645-.958.0922-1.9168.18-2.8772.2469-.7921.0553-1.5877.0694-2.38.1231-.49.0333-.9756.1264-1.466.157-.6985.0434-1.401.0383-2.0993.0832-.769.0494-1.5349.1367-2.303.1984-.6138.0494-1.2314.0639-1.8428.1324-.6678.0748-1.3275.22-1.9959.2876-.9385.0951-1.8843.1245-2.822.2256-.6437.0695-1.2779.2194-1.9183.32-.2177.0341-.4427.0176-.6625.0408-.3213.0339-.64.096-.9615.1213-.2978.0233-.602-.0116-.8971.0264a6.5909,6.5909,0,0,0-.84.2052c-.3934.105-.7806.2465-1.18.3163a15.3854,15.3854,0,0,1-2.4718.3361,1.8846,1.8846,0,0,0-.9139.2824c-.0514.0272-.1306-.02-.1956-.0161a3.7786,3.7786,0,0,0-.5218.0489c-.0859.0169-.1638.1414-.2411.1324a9.227,9.227,0,0,0-2.4963.3606c-.1673.0257-.3063.21-.4731.2757a5.8331,5.8331,0,0,1-2.0885.4736,12.1152,12.1152,0,0,0-2.4223.436c-.3559.0784-.6161.1144-.4831-.4783-.0464-1.3888-.1249-2.793-.1305-4.194-.0051-1.2357.0957-2.4664.102-3.702.0036-.7-.0829-1.4048-.1392-2.1069-.15-1.8657-.3085-3.731-.457-5.5967-.1164-1.4626-.2192-2.9259-.3352-4.3884-.0856-1.0783-.1949-2.1554-.26-3.2341a.5813.5813,0,0,1,.2793-.4344,10.8366,10.8366,0,0,1,3.4411-.5278c1.2866-.1745,2.5847-.2662,3.88-.3785.9127-.0791,1.8287-.1258,2.7421-.1989.4686-.0376.9367-.08,1.4049-.1217a6.3577,6.3577,0,0,0,1.1937,2.07,7.3535,7.3535,0,0,0,2.3388,1.9958,7.2288,7.2288,0,0,0,3.0467.6782c.614-.0147.6727.0852.6708.7448-.0024.8166-.0084,1.6335.0144,2.4509.0234.8383-.0887.9769-.94,1.0059-.5983.02-1.1968.0424-1.796.05a5.319,5.319,0,0,1-2.5012-.1588,1.6255,1.6255,0,0,0-.6505-.0413c-.2419-.0007-.3282.12-.2774.3677A2.6035,2.6035,0,0,0,19.609,35.71a6.7255,6.7255,0,0,0,4.0777,1.6756,7.15,7.15,0,0,1,.7358.0813.3964.3964,0,0,1,.3862.4522A17.33,17.33,0,0,1,24.5171,40.4a1.519,1.519,0,0,0,.229,1.3057,9.3791,9.3791,0,0,0,.7757.99,4.49,4.49,0,0,0,2.3143,1.389.6473.6473,0,0,0,.8522-.3728A4.454,4.454,0,0,0,29.1,41.5973c.0106-.9783-.0519-1.9615-.0294-2.9385.03-1.3249.1313-1.4552,1.4446-1.6095a10.082,10.082,0,0,0,3.0016-.89,3.1489,3.1489,0,0,0,1.8349-1.6876,3.9061,3.9061,0,0,0-1.1231-4.2674A16.7347,16.7347,0,0,0,29.7038,27.57c-.897-.3334-.942-.4834-.7066-1.3922a1.6564,1.6564,0,0,0,.0937-.8607,2.5832,2.5832,0,0,1-.1362-.7581.6355.6355,0,0,0,.3942-.275,5.1656,5.1656,0,0,0,.2658-1.4207c.0205-.155.0375-.3117.0541-.4683a9.9647,9.9647,0,0,1,1.8143.2856,3.7336,3.7336,0,0,1,1.3275.8537,2.5909,2.5909,0,0,0,1.6308.454c.3178.0375.2968-.2711.24-.4744a7.17,7.17,0,0,0-.414-1.1658,3.5985,3.5985,0,0,0-.6184-.9752,13.0673,13.0673,0,0,0-4.0543-2.7409c-.0033-.3342-.007-.6683-.0209-1.0023-.0382-.9187-.1075-1.8372-.1446-2.7559-.0426-1.0561-.0252-2.1145-.1067-3.1679-.077-.9958-.2534-1.9858-.3755-2.9795-.0432-.3515-.0649-.7068-.0736-1.06-.0019-.077.0866-.2123.1459-.2193.693-.0812,1.3875-.1526,2.0835-.2075q1.5208-.12,3.0444-.2132c1.3014-.0777,2.603-.1578,3.9066-.2035,1.0346-.0362,2.0725-.07,3.1087-.0153a25.4823,25.4823,0,0,1,2.5743.3523.3485.3485,0,0,1,.2037.247c.0057.815-.0172,1.6288-.0187,2.4436-.0025,1.3285.012,2.6579.0056,3.9862-.004.8459-.0452,1.69-.0482,2.5358-.0076,2.08.0024,4.1609-.005,6.2409-.005,1.3735-.0307,2.7459-.0417,4.1192-.0082,1.021-.0181,2.0421-.0084,3.0638.0127,1.3346.0517,2.67.0648,4.0048.0086.8741-.0221,1.7468-.0092,2.6209.0086.582.0877,1.1665.0914,1.748.0065,1.035-.0332,2.0679-.0289,3.1029.0031.7747.064,1.552.0636,2.3263C44.0059,44.2015,43.9618,44.8023,43.906,45.3981ZM28.9843,31.7688c.0071-.1553.0123-.4246.0338-.6916.0214-.2651.0065-.6106.3456-.6314a3.35,3.35,0,0,1,1.0837.1481c.0835.0234.1768.3392.1408.4833a2.1843,2.1843,0,0,1-1.007,1.3676c-.358.2189-.4974.1289-.56-.3183C29.01,32.0458,29.0045,31.9646,28.9843,31.7688Z"/><path class="cls-3" d="M15.1319,54.9893l.0183.1086.4162-.0985-.0105-.061Z"/><polygon class="cls-3" points="8.312 17.567 8.31 17.578 8.317 17.576 8.319 17.576 8.312 17.567"/><path class="cls-3" d="M8.256,17.8156l.0538-.2378-.1822.0465Z"/></svg>