<svg id="Layer_1" data-name="Layer 1" xmlns="http://www.w3.org/2000/svg" width="0.8842in" height="0.8752in" viewBox="0 0 63.662 63.0125"><defs><style>.cls-1{fill:#2d2d2d;}.cls-2{fill:#00cd9f;}.cls-3{fill:#fff;}</style></defs><path class="cls-1" d="M61.6616,59.6643c-.6675-.6681-1.3331-1.3382-1.9866-2.0225-.1222-.1278-.3579-.3227-.0042-.5.0256-.0129.0318-.0969.0317-.1479a4.568,4.568,0,0,1-.0085-.516c.0356-.318.1046-.6316.1443-.95.0553-.4419.0571-.8959.15-1.3279a21.461,21.461,0,0,0,.4189-4.1324c.0015-.0805-.0317-.16-.0382-.2416a.7552.7552,0,0,1,.0057-.2318,4.8108,4.8108,0,0,0,.1888-.7642,2.0874,2.0874,0,0,0-.1169-1.2427,1.1312,1.1312,0,0,1-.0136-.64c.0985-.6154.2862-1.2217.3238-1.8389.0779-1.28.094-2.5655.112-3.8488.0146-1.0561-.0006-2.1121-.0115-3.1673-.004-.4017-.0619-.8037-.0437-1.2034.0311-.6905.0914-1.38.1638-2.0678a9.0614,9.0614,0,0,0-.0168-1.6591c-.0344-.4407.015-.8945.0236-1.3418.0037-.2072.0228-.4167.0113-.6227-.0213-.3835-.07-.765-.0888-1.1489-.0246-.5105-.0318-1.0232-.0451-1.5357a.7846.7846,0,0,1,.0068-.3263,1.312,1.312,0,0,0,.06-.8909,1.3848,1.3848,0,0,1-.0044-.6764,7.5823,7.5823,0,0,0,.0753-2.155c.0424-.805-.0474-1.617-.0042-2.4225a7.5936,7.5936,0,0,0-.09-2.5931.5944.5944,0,0,1-.0014-.1661c.0053-.3893.0213-.779.0142-1.168-.0153-.82-.114-1.6456-.0481-2.4581a14.7446,14.7446,0,0,0-.2748-3.2668c-.0138-.1-.1221-.1826-.1863-.2739-.0177.015-.0349.03-.0523.0444-.0193-.1495-.0337-.3-.0592-.4488-.0411-.2381-.0992-.4724-.1333-.7117-.0545-.3835.263-.7728.0037-1.1563a.06.06,0,0,1,.0038-.0411,3.5694,3.5694,0,0,0,.2332-1.2764l.116-.5232c.6253-1.3067,1.2408-2.62,1.8826-3.917.4-.8077.8133-1.6072,1.2277-2.4065a.2966.2966,0,0,0-.0706-.3531A6.6041,6.6041,0,0,0,62.07,0c-.9083.1487-1.2149,2.35-1.7564,3.5679q-.82,1.7111-1.62,3.4344c-.0954.2049-.17.29-.4055.1938a1.2056,1.2056,0,0,0-1.348.3882.5892.5892,0,0,1-.47.1982,1.2625,1.2625,0,0,0-.2987-.0291c-.4443.1037-.89.2074-1.3265.3428-1.35.4181-2.693.8593-4.0433,1.2742-.9869.3037-1.98.5844-2.972.8653-.7581.2144-1.5207.4091-2.2795.6207-.4276.1189-.8469.2828-1.2783.3788q-1.6677.3708-3.3434.6971c-1.0817.2127-2.8673.447-3.9664.5324-.9367.0728-1.8741.1341-2.8114.194-.6877.0436-1.3773.0374-2.066.0456l-.4118-.0137c-.5592-.05-1.1156-.1319-1.6748-.1842-.5032-.0474-1.01-.0568-1.5116-.1186-.7731-.0945-1.5427-.2205-2.314-.3321-.9618-.1391-1.9271-.2559-2.8848-.4221-.76-.1324-1.5086-.3328-2.2646-.4907q-2.3181-.4827-4.6394-.951c-.3954-.08-.7956-.1331-1.1952-.1866-.6637-.09-1.3294-.162-1.9925-.2552-1.251-.1758-2.4992-.3755-3.7517-.5379C8.7468,9.1213,8.0422,9.09,7.3419,9.018a.72.72,0,0,1-.4667-.2438C6.2739,8.0853,5.6784,7.39,5.1,6.6773c-.5261-.647-1.0318-1.3147-1.536-1.9834Q2.7143,3.5667,1.8759,2.4294a.2873.2873,0,0,0-.3919-.0682C1.0251,2.6664.56,2.96.0881,3.2386L0,3.6785C.97,4.9559,1.98,6.197,2.9713,7.4547q.4693.5949.9292,1.2c.1731.2295.3136.4295.0594.7584a1.22,1.22,0,0,0,.087,1.3058c.2086.2713.438.5242.6388.8025a.8992.8992,0,0,1,.1618.4619c.0334.4724.0454.9476.0591,1.4224.0231.7943.0357,1.59.06,2.3842.0414,1.3474.09,2.6936.1325,4.0405.0357,1.139.0661,2.2787.0993,3.4181.0173.595.0459,1.1891.0506,1.7838.0093,1.1722.0032,2.3445.0079,3.517a16.645,16.645,0,0,1,.0109,1.7989c-.194,1.8356.0854,3.6526.0608,5.48-.0114.8555.0835,1.712.0563,2.5666a17.8086,17.8086,0,0,0,.0724,2.545,11.9771,11.9771,0,0,1,.07,1.2683C5.5319,43.2106,5.5,44.213,5.504,45.215c.0049,1.3122.0539,2.6235.0378,3.9359-.01.8635-.0894,1.7285-.163,2.59-.0341.4019-.0991.7788.2867,1.0339a.4063.4063,0,0,1,.036.3485c-.1488.3243-.325.6345-.5031.9413-.2018.3475-3.2669,5.8443-3.1338,5.944.5665.4239,1.1214.8648,1.6548,1.3334.0325-.057.0645-.114.0969-.171C4.7,59.61,6.29,56.34,7.1765,54.7808a.5465.5465,0,0,1,.9533-.1522c.0835.0807.159.2033.2562.23a3.0368,3.0368,0,0,0,1.4919.1559.3569.3569,0,0,1,.2812.1189c.2326.25.4421.526.67.7817.2371.2659.4755.533.733.7739.17.1583.3524.1971.51-.0748a.7972.7972,0,0,1,.3029-.2264.6466.6466,0,0,0,.28-.8969,4.1261,4.1261,0,0,1-.1643-.7653.2632.2632,0,0,1,.11-.1987,6.9339,6.9339,0,0,1,2.01-1.0737c.5711-.1218,1.1376-.2718,1.7093-.3909,1.2208-.2535,2.4409-.5152,3.6665-.735,1.2241-.2206,2.4537-.4,3.682-.5857.7642-.1151,1.5293-.2324,2.2966-.3069.7816-.0759,1.5721-.0463,2.3481-.16a16.3641,16.3641,0,0,1,3.0662-.1228c1.0874.0444,2.1744.1026,3.2612.1593.9171.0478,2.4087.2072,3.3139.3617.699.1192,1.3968.248,2.0952.3706A43.3757,43.3757,0,0,1,44.4259,53.1c.5671.1751,1.1376.338,1.7083.4985.8956.2518,1.7959.4844,2.6931.7292l.2134.0684c.3978.151.7824.3427,1.1791.4961.6023.2344,1.2142.44,1.8122.6864.87.3593,1.7322.74,2.5944,1.12.3135.1382.6482.2653.6118.7649-.0053.0728.0792.1637.1387.2278a1.6452,1.6452,0,0,0,1.0923.483,1.4,1.4,0,0,1,.906.3966c.1212.1149.2032.2793.3205.4q1.4305,1.476,2.8684,2.9416c.2121.217.4327.4232.6456.6387q.227.23.4523.4616.9663-.73,1.9742-1.4033c-.2456-.2471-.49-.4963-.7373-.7409C62.49,60.4627,62.0687,60.0719,61.6616,59.6643ZM35.13,35.1257c.0321-.9163.2725-1.0982,1.18-1.0518a15.3222,15.3222,0,0,1,1.9637.2114c.6392.1167.7053.2691.5773.9206a2.2718,2.2718,0,0,1-.8829,1.61c-.7064.4592-1.4151.9229-2.1617,1.3094-.5907.3058-.6867.2084-.5529-.4677C35.2068,36.8131,35.1,35.967,35.13,35.1257Zm-4.6445-6.13c-.0393.3066-.0412.7062-.4345.7321a3.7938,3.7938,0,0,1-1.2447-.1655c-.0952-.0265-.1857-.3913-.1361-.5581a2.714,2.714,0,0,1,1.24-1.5871c.426-.2549.5823-.1516.63.3652.0085.0933.0108.1871.0233.4135C30.5455,28.3752,30.5248,28.6866,30.4852,28.9955ZM14.29,47.9011q-1.4393.4011-3.0237.8415h0l.003-.0048a4.38,4.38,0,0,1,.3525-.5742c.049-.0686.1023-.1322.1536-.1981.0883-.1132.1759-.2269.2686-.3349q.1623-.1891.326-.3748c.0735-.0834.1445-.1689.2166-.2535.1255-.1472.25-.2951.3643-.4524l.2368.2389,0,0,.18.1814.9226.9306h0ZM14.87,42.57a1.3662,1.3662,0,0,0-.0041.2436c-.0971-.0829-.1889-.1748-.2815-.2618a1.6271,1.6271,0,0,0-.3632-.2713.7087.7087,0,0,0-.6549-.0042l0,0h0a.6262.6262,0,0,1,.1129-.1184.9511.9511,0,0,1,.6526-.2568.8239.8239,0,0,1,.2933.0531.3848.3848,0,0,1,.1989.156.4481.4481,0,0,1,.0568.2155A2.0026,2.0026,0,0,1,14.87,42.57ZM27.985,46.308q-2.8941.2015-5.7867.4347c-.2139.0162-.4261.0679-.6393.1012-1.4031.2207-2.8059.4452-4.21.6593-.5884.09-1.1793.159-1.77.2322a1.2377,1.2377,0,0,1-.266-.0286v0h0c.0683-.0919.1273-.1706.1926-.2588.1849-.2495.3675-.4974.545-.7324a2.9425,2.9425,0,0,0,.3542-.6431,9.3381,9.3381,0,0,0,.3867-1.2331c.0371-.14.047-.2776.07-.4164s.06-.2787.07-.4164a5.2944,5.2944,0,0,0-.4168-2.394,4.0809,4.0809,0,0,0-.228-.4451,2.4236,2.4236,0,0,0-1.827-1.337,2.969,2.969,0,0,0-1.3933.09,2.13,2.13,0,0,0-.88.5363,3.5365,3.5365,0,0,0-.6857.9857,2.7284,2.7284,0,0,0-.1631.4893,2.6156,2.6156,0,0,0-.07,1.0239c.0061.043.013.0859.0193.1289.0681.4617.1483.9215.2086,1.3844l0,.005.007.0464a.6081.6081,0,0,1-.0741.3871c-.0208.0291-.0439.0575-.0649.0864l-.0042.0089c-.0958.1313-.1972.262-.2975.3927-.0486.0633-.0956.1278-.1454.1918-.0409.0527-.0855.11-.1272.1633-.1167.1492-.232.2965-.3552.4558-.0343-.1023-.0636-.1707-.0808-.2347a.3389.3389,0,0,1-.0165-.0648c-.01-.205-.0176-.41-.0264-.6152-.0267-.6151-.0518-1.23-.0793-1.8454q-.0115-.26-.0281-.52c-.0146-.2308-.0307-.4614-.0374-.6925-.0028-.0956-.0044-.1912-.0071-.2868q-.0428-1.5047-.0734-3.01a1.7105,1.7105,0,0,1,.0173-.2329c.0026-.0215.0021-.0429.0047-.0644a1.73,1.73,0,0,0,.0175-.2428c-.0137-.5753-.0613-1.15-.0571-1.7253,0-.0068-.0006-.0137,0-.02v0h0c.0094-1.0021.0525-2.0042.0676-3.0064.0009-.0569.0032-.1138.0039-.1708.0016-.1388-.0114-.2774-.0223-.416-.02-.2495-.0449-.4991-.0526-.7494-.0164-.5288-.0066-1.0581-.0172-1.5865-.0038-.1928-.0151-.3852-.0257-.5776-.0077-.1412-.0148-.2823-.0188-.4237-.0123-.4332-.0185-.8669-.0277-1.3-.0082-.384-.0185-.7679-.0409-1.1506-.0086-.1479-.034-.2945-.0542-.4414q-.06-.4346-.1116-.87c-.0084-.0721-.023-.1436-.0284-.2159a8.8034,8.8034,0,0,1-.0023-.9721q.0052-.1519.0095-.3037c.0156-.54.057-1.0792.0612-1.6188,0-.03-.0019-.0611-.0018-.0916.0014-.5408-.0194-1.0814-.0324-1.622-.0239-.9907-.0366-1.9822-.078-2.9718a3.8207,3.8207,0,0,1,.0105-.6516c.0022-.0163.0053-.0329.0079-.049a1.866,1.866,0,0,1,.0935-.3571,6.8587,6.8587,0,0,1,.3816-.8041h0a1.5255,1.5255,0,0,1,.4688.802.9425.9425,0,0,1-.0252.341,1.1355,1.1355,0,0,0-.0324.2959c0,.0193.0052.0379.0063.057a2.7913,2.7913,0,0,0,.0894.5094c.0231.093.0464.1858.0644.279.0194.1005.0554.1895.08.2868a4.7,4.7,0,0,0,1.6286,2.61c.6125.4905,1.2419.9567,1.88,1.4058a1.3083,1.3083,0,0,0,.93.1517c.0693-.0226.1382-.0453.2057-.0731.0723-.03.1435-.0613.2134-.0967.0841-.0426.1658-.09.2461-.14.0657-.0411.131-.0828.1939-.1287.0778-.057.1518-.1193.2248-.1832.0581-.0508.1166-.101.1713-.1559.07-.07.1339-.1455.1977-.2215.0494-.0587.1-.116.1455-.1781.06-.0821.1124-.1695.1653-.2568.0388-.0642.0805-.1265.1153-.1932.0491-.0946.0882-.1943.1284-.2934.0268-.0661.0582-.13.0808-.1979a3.2867,3.2867,0,0,0,.0872-.3461c.0127-.0589.0319-.116.0413-.1759a3.121,3.121,0,0,0,.0388-.5438c-.0059-.3016-.0225-.6-.0556-.8947a4.1643,4.1643,0,0,0-.2749-1.1476,4.7106,4.7106,0,0,0-1.6559-2.1862c-.0688-.0456-.1277-.1034-.2007-.1438a6.3359,6.3359,0,0,0-1.78-.512,2.41,2.41,0,0,0-1.1765.0677c-.0454.0132-.0916.0134-.1367.029-.0762.0267-.2057.0333-.2469-.0156-.2154-.2581-.41-.5368-.6639-.8774h0l0,0c.4617.03.82.04,1.1747.08.8155.0908,1.6314.1813,2.4436.3.9238.1346,1.8432.3029,2.7655.45.6519.1038,1.3053.1983,1.9571.3023.2721.0434.5448.0833.8156.1345.1123.0213.2228.0541.3345.08.5512.1262,1.0967.2864,1.6492.4081.3321.0732.669.1207,1.0046.1759.2114.0347.4209.0823.6328.1106.2837.0382.5682.0686.8526.1.5688.0638,1.1379.125,1.7044.207.6454.0934,1.288.2075,1.9311.3186.2665.0461.5328.0936.8.1356.1172.0185.2358.0274.3542.0375.2088.0176.4181.0312.6266.0525.19.02.38.0428.5707.0653-.0481,1.0319-.0449,2.067-.1177,3.0969-.1084,1.5323-.2321,1.6836-1.7591,1.8691a12.16,12.16,0,0,0-3.5194,1.0457A3.9209,3.9209,0,0,0,23.35,25.1045a4.3791,4.3791,0,0,0,1.063,4.9289,18.0742,18.0742,0,0,0,5.0859,3.0212c1.0188.3808,1.0625.5539.74,1.6062a1.9513,1.9513,0,0,0-.1557.9959,2.99,2.99,0,0,1-.0318,1.7563,3.3438,3.3438,0,0,0-.0452.8241,1.3028,1.3028,0,0,1,.1069.48c-.0283.1438-.1828.3859-.2611.3779a15.516,15.516,0,0,1-2.68-.3759,4.0218,4.0218,0,0,1-1.4877-.98,2.8805,2.8805,0,0,0-1.86-.5162c-.3654-.0416-.3581.3151-.3041.55a7.9142,7.9142,0,0,0,.4143,1.3459,3.8836,3.8836,0,0,0,.6612,1.1245,14.1243,14.1243,0,0,0,4.6336,3.196c.5605.2514.7237.49.3791.9892a1.1206,1.1206,0,0,0,.0473,1.3858c.0959.153.1978.3069.2988.46l.0042.0064A19.1871,19.1871,0,0,0,27.985,46.308ZM13.6,17.1638a2.96,2.96,0,0,1,.6569.0514,8.3364,8.3364,0,0,1,1.0874.44.3683.3683,0,0,1,.1389.1587,1.5193,1.5193,0,0,1,.0774.16,2.2671,2.2671,0,0,1,.1357.9917,2.831,2.831,0,0,1-.2727,1.0423,1.919,1.919,0,0,1-.3544.5034c-.0105.0106-.0189.0243-.03.0345h0v0a2.3539,2.3539,0,0,1,.1165-.3428,1.791,1.791,0,0,0,.212-.8318,1.8438,1.8438,0,0,0-.0191-.2663,2.1413,2.1413,0,0,0-.0846-.3468,2.8739,2.8739,0,0,0-.1693-.4168c-.009-.0179-.02-.0351-.029-.0528-.0333-.0636-.0671-.1271-.104-.1894a.5658.5658,0,0,0-.1157-.1306c-.0077-.0068-.012-.016-.02-.0225-.0186-.0153-.0422-.027-.0625-.0411a1.5393,1.5393,0,0,0-.1606-.0992c-.12-.0631-.2481-.12-.3609-.1845-.2122-.1219-.4765-.152-.6423-.4579h0Zm39.02,28.9746a.7154.7154,0,0,1-.1268.0543c-.0167.0056-.03.0063-.045.01-.146.038-.237.0042-.3231-.16-.2908-.5558-.6231-.7765-1.0585-.6915a1.6252,1.6252,0,0,0-.472.1858,1.9574,1.9574,0,0,1-.2429.0927h0a1.4588,1.4588,0,0,1,.0186-.22,1.0959,1.0959,0,0,1,.711-1.002c.0212-.0071.0374-.0227.0593-.0284a4.1618,4.1618,0,0,1,.6332-.105c.3384-.0338.4915.0614.6156.4083.1171.3274.2183.6624.3137.9988.0125.0444.0291.0873.0413.1317v0l0,0a.3494.3494,0,0,1,.0128.1441A.2461.2461,0,0,1,52.6194,46.1384Zm4.3252-20.4639c0,.0355-.0011.0709-.0014.1063-.0091,1.3459-.0411,2.6919-.0518,4.0379-.0055.6984.0311,1.3968.0213,2.0951-.0265,1.8877-.0705,3.7753-.1,5.663l-.0006.0345c-.0036.2331.0192.4665.0321.7.0048.0859.0131.1718.0113.2577-.02.8842-.0361,1.7686-.0575,2.6527-.02.8314-.0443,1.6626-.0816,2.4933-.0652,1.45-.2034,2.8974-.2947,4.3468l-.0025.0537c-.0492.8043-.0655,1.6108-.11,2.4154-.0469.85-.1087,1.6986-.1645,2.5476l-.0052.08-.0908.0376v0h0c-.0317-.0421-.0625-.085-.0946-.1269-.1877-.2446-.3819-.4842-.5533-.7423-.5033-.7581-.9934-1.5271-1.4885-2.2921-.0583-.09-.1082-.1881-.1728-.2723a.4183.4183,0,0,1-.0818-.1713.2659.2659,0,0,1-.0056-.0409.2625.2625,0,0,1,.0386-.1571l0,0a5.136,5.136,0,0,0,.9385-3.6554c-.0319-.1332-.0614-.2675-.1013-.3968-.03-.0968-.0638-.1916-.0981-.2862q-.0878-.2429-.1937-.4761c-.0406-.0894-.0812-.1787-.1258-.2658-.083-.1624-.1748-.32-.2708-.4746-.0438-.0706-.084-.1433-.13-.2124a7.1054,7.1054,0,0,0-.4775-.6364,1.9478,1.9478,0,0,0-.3605-.3294,2.619,2.619,0,0,0-1.3732-.4223,3.0589,3.0589,0,0,0-.6632.0286,2.8189,2.8189,0,0,0-1.44.65,3.2111,3.2111,0,0,0-1.1229,2.8669,7.4588,7.4588,0,0,0,.91,3.2727,3.8,3.8,0,0,0,.8572.9223,9.52,9.52,0,0,0,1.0326.6876.4926.4926,0,0,0,.2434.1076.591.591,0,0,1,.2056.0435c.337.1011.4843.4569.7155.8165-.6217-.2308-1.1639-.429-1.7038-.6341-.4638-.1764-.9214-.374-1.3885-.5394-.507-.18-1.0175-.3483-1.5262-.5228-.3809-.1307-.7593-.27-1.1428-.3912-1.0448-.3294-2.0963-.6343-3.1474-.94-.1059-.0308-.2112-.0639-.3171-.0946-.9252-.2684-1.8487-.55-2.784-.7718-1.2933-.3075-2.59-.6119-3.8979-.8306-.4015-.0672-.8066-.1117-1.211-.1606v0c-.0015-.8431-.0057-1.686-.0259-2.5285-.03-1.2626-.0472-1.2352,1.1289-1.5265,1.1909-.2948,2.3873-.5913,3.5444-.9933a5.75,5.75,0,0,0,3.4782-3.0083,3.0747,3.0747,0,0,0,.3029-2.2854,7.6209,7.6209,0,0,0-1.42-2.8488,7.8759,7.8759,0,0,0-2.594-2.2953,8.085,8.085,0,0,0-3.485-.7678c-.7107.02-.7731-.0949-.7345-.8578.0478-.9443.1-1.8891.1186-2.8342.0193-.9694.1565-1.13,1.1423-1.1683.6929-.027,1.386-.0555,2.0792-.0676a6.0907,6.0907,0,0,1,2.8831.17,1.8629,1.8629,0,0,0,.75.0442c.28-.0005.3859-.1407.3409-.4267a2.8182,2.8182,0,0,0-1.0074-1.7664,7.3711,7.3711,0,0,0-4.6221-1.9157,8.0764,8.0764,0,0,1-.8461-.09.4319.4319,0,0,1-.4215-.5208,20.4537,20.4537,0,0,1,.474-2.8709,1.7878,1.7878,0,0,0,.0323-.9713c.0378-.0009.0756.0011.1133,0h.0015c.5671-.0178,1.1348-.04,1.7019-.0733s1.1335-.0781,1.698-.1408c.7169-.08,1.43-.21,2.1426-.3414.31-.0573.62-.1152.93-.1694,1.1866-.2074,2.3737-.4115,3.5578-.6379.1213-.0231.2407-.0595.3605-.0924.27-.0741.54-.1579.8113-.2272q.438-.1118.8763-.2214c.6835-.17,1.3675-.3373,2.0491-.5179.1766-.0468.35-.1077.5233-.1716s.3456-.1309.52-.19c.222-.0745.4436-.1514.6656-.2259.1322-.0444.2657-.0831.3986-.1245.1186-.0369.2366-.0772.3561-.11.1457-.04.2931-.0729.4392-.111.5777-.1509,1.1569-.2952,1.7362-.4392.083-.02.1687-.0283.267-.0444v0h0c0,.05.0006.0777-.0023.1061-.0009.0095.0031.0281-.0007.0354-.3567.6791-.7214,1.354-1.0727,2.0367-.1109.2152-.24.22-.4074.1153-.1528-.0965-.3033-.1977-.4581-.29a2.1378,2.1378,0,0,0-1.9807-.061,3.3248,3.3248,0,0,0-1.4659,1.0932,3.07,3.07,0,0,0-.5313,1.0452,3.8089,3.8089,0,0,0-.0885,1.0293,5.7627,5.7627,0,0,0,.4366,1.9754,4.3558,4.3558,0,0,0,2.014,2.1983,2.122,2.122,0,0,0,1.3067.4558.2262.2262,0,0,1,.0945.0256c.0167.0063.0388.0019.0495.0132a.6191.6191,0,0,0,.5692.2236,1.3463,1.3463,0,0,0,.5065-.2265c.0132-.0085.0273-.015.04-.0237.0652-.0432.1217-.0956.185-.141a4.2257,4.2257,0,0,0,1.0883-1.1065,3.1821,3.1821,0,0,0,.5062-1.2526A4.5288,4.5288,0,0,0,56.23,20.03a5.0113,5.0113,0,0,0-.2862-1.7823.9594.9594,0,0,0-.0487-.113,1.272,1.272,0,0,1-.1544-.674,1.2508,1.2508,0,0,1,.2764-.658,1.7987,1.7987,0,0,0,.1421-.2678c.1391-.2707.2483-.5689.377-.85a1.8325,1.8325,0,0,1,.1053-.1848c.0224-.0369.0425-.0753.064-.1124h0v0l.0369.0124.0368.0123c.0146.2315.0316.4627.0425.6942.0025.0535.0086.1068.01.16l.0016.0936q.03,1.3752.0476,2.7507c.0149,1.31.0213,2.62.034,3.9293.0081.8415.0308,1.6822.0284,2.5234,0,.0371.0015.0741.0013.1112v0Zm-3.8207-8.2656c.0261.1065-.1047.2723-.2167.4142-.0219.0279-.0447.0565-.0638.0817-.3531.4676-.7191.9225-1.0758,1.3867a2.767,2.767,0,0,0-.1773.3157l0,0h0a2.16,2.16,0,0,1-.0738-1.44,1.4211,1.4211,0,0,1,.1911-.4036,1.0252,1.0252,0,0,1,.5222-.4182.9645.9645,0,0,1,.3637-.0453.4576.4576,0,0,0,.11-.0145c.1671-.0336.3626-.1138.4207.1229h0Z"/><path class="cls-2" d="M35.8063,38.1249c.7466-.3865,1.4553-.85,2.1617-1.3094a2.2718,2.2718,0,0,0,.8829-1.61c.128-.6515.0619-.8039-.5773-.9206a15.3222,15.3222,0,0,0-1.9637-.2114c-.9077-.0464-1.1481.1355-1.18,1.0518-.0295.8413.0771,1.6874.1237,2.5315C35.12,38.3333,35.2156,38.4307,35.8063,38.1249Z"/><path class="cls-2" d="M17.3491,47.5031c1.404-.2141,2.8067-.4386,4.21-.6592.2132-.0336.4254-.0847.6394-.1015q2.3644-.1863,4.73-.36c.8333-.06,1.6694-.1606,2.5008-.1392.1752.0045.35.0218.5253.03-.101-.1535-.2029-.3074-.2988-.46a1.1206,1.1206,0,0,1-.0473-1.3858c.3446-.4994.1814-.7378-.3791-.9892a14.1243,14.1243,0,0,1-4.6336-3.196,3.8836,3.8836,0,0,1-.6612-1.1245,7.9142,7.9142,0,0,1-.4143-1.3459c-.054-.2348-.0613-.5915.3041-.55a2.8805,2.8805,0,0,1,1.86.5162,4.0218,4.0218,0,0,0,1.4877.98,15.516,15.516,0,0,0,2.68.3759c.0783.008.2328-.2341.2611-.3779a1.3028,1.3028,0,0,0-.1069-.48,3.3438,3.3438,0,0,1,.0452-.8241,2.99,2.99,0,0,0,.0318-1.7563,1.9513,1.9513,0,0,1,.1557-.9959c.3223-1.0523.2786-1.2254-.74-1.6062a18.0742,18.0742,0,0,1-5.0859-3.0212,4.3791,4.3791,0,0,1-1.063-4.9289,3.9209,3.9209,0,0,1,2.2146-1.9616,12.16,12.16,0,0,1,3.5194-1.0457c1.527-.1855,1.6507-.3368,1.7591-1.8691.0728-1.03.07-2.065.1177-3.0969-.19-.0225-.38-.0458-.5707-.0653-.2085-.0213-.4178-.0349-.6266-.0525-.1184-.01-.237-.0188-.3542-.0373-.267-.0422-.5333-.09-.8-.1358-.6431-.1111-1.2857-.2252-1.9311-.3186-.5665-.082-1.1356-.1432-1.7044-.207-.2843-.0319-.5689-.0621-.8526-.1-.212-.0286-.4214-.076-.6328-.1108-.3356-.0552-.6725-.1027-1.0046-.1759-.5525-.1217-1.098-.2819-1.6492-.4081-.1117-.0256-.222-.0583-.3344-.08-.2708-.0513-.5436-.0912-.8157-.1346-.6518-.104-1.3052-.1985-1.9571-.3023-.9223-.1471-1.8417-.3154-2.7655-.45-.8122-.1183-1.6281-.2088-2.4436-.3-.3549-.04-.713-.0493-1.1747-.08l0,0c.2536.3408.4485.6195.6639.8772.0411.0492.1705.0422.2469.0157.0451-.0156.0912-.0157.1366-.0289a2.41,2.41,0,0,1,1.1765-.0677,6.3359,6.3359,0,0,1,1.78.512c.073.04.1319.0982.2007.1438a4.71,4.71,0,0,1,1.656,2.1861,4.1657,4.1657,0,0,1,.2748,1.1477c.0331.2944.05.5931.0556.8947a3.121,3.121,0,0,1-.0388.5438c-.0094.06-.0286.1169-.0413.1759a3.2867,3.2867,0,0,1-.0872.3461c-.0227.0679-.0539.1317-.0808.1979-.04.0991-.0793.1988-.1284.2934-.0348.0669-.0763.1289-.1153.1932-.0529.0873-.1053.1747-.1653.2568-.0456.0622-.096.1191-.1455.1781-.0638.076-.1279.1516-.1977.2215-.0548.0551-.113.105-.1713.1559-.073.0639-.147.1262-.2248.1832-.0631.0461-.128.0874-.1939.1287-.08.05-.162.0977-.2461.14-.07.0355-.141.0669-.2134.0967-.0675.0278-.1364.05-.2057.0731-.0592.0193-.1156.0473-.176.0626a.8168.8168,0,0,1-.6122-.1081c-.0484-.0337-.0938-.0723-.142-.1062-.6381-.4491-1.2675-.9153-1.88-1.4058a4.7,4.7,0,0,1-1.6286-2.61c-.0242-.0973-.06-.1863-.08-.2868-.018-.0932-.0413-.186-.0644-.279a2.79,2.79,0,0,1-.0894-.5094c-.0011-.0191-.006-.0377-.0063-.057a1.1386,1.1386,0,0,1,.0324-.2962.9407.9407,0,0,0,.0252-.3407,1.5255,1.5255,0,0,0-.4688-.802h0a6.8234,6.8234,0,0,0-.3817.8041,1.866,1.866,0,0,0-.0935.3571c-.0026.0161-.0057.0327-.0079.049a3.8207,3.8207,0,0,0-.0105.6516c.0414.99.0541,1.9811.078,2.9718.013.5406.0338,1.0812.0324,1.622,0,.03.0021.061.0018.0915v0c-.0042.54-.0456,1.079-.0612,1.6188q-.0044.1515-.0095.3037a8.8243,8.8243,0,0,0,.0023.9719c.0055.0724.02.1439.0284.2161q.0508.4356.1116.87c.02.1469.0456.2933.0542.4412.0224.3828.0327.7668.0409,1.1508.0092.4335.0154.8672.0277,1.3.004.1414.0111.2825.0188.4237.0105.1925.0219.3849.0257.5776.0105.5286.0007,1.0581.0172,1.5863.0078.25.0329.5.0526.75.0109.1386.0239.2772.0223.416v0c-.0007.0569-.003.1138-.0039.1707-.0151,1.0022-.0582,2.0043-.0676,3.0064h0c0,.0069,0,.0138,0,.0206-.0042.5751.0434,1.15.0571,1.7253a1.73,1.73,0,0,1-.0175.2428c-.0026.0215-.0021.0429-.0047.0644a1.7105,1.7105,0,0,0-.0173.2329q.03,1.5054.0734,3.01c.0027.0955.0043.191.0071.2866.0067.2312.0228.4619.0374.6927q.0165.26.0281.52c.0275.6151.0526,1.23.0793,1.8454.0088.2051.0167.41.0264.6151a.338.338,0,0,0,.0165.0649c.0172.064.0465.1324.0808.2347.1232-.1593.2385-.3066.3552-.4558l.1272-.1633c.05-.064.0968-.1285.1454-.1918.1025-.1338.2038-.2673.3017-.4016.021-.0289.0441-.0573.0649-.0864a.6081.6081,0,0,0,.0741-.3871l-.007-.0464c-.06-.4647-.14-.9261-.2083-1.3894-.0063-.043-.0132-.0859-.0193-.1289a2.6156,2.6156,0,0,1,.07-1.0239,2.7258,2.7258,0,0,1,.1631-.4893,3.5365,3.5365,0,0,1,.6857-.9857,2.13,2.13,0,0,1,.88-.5363,2.9719,2.9719,0,0,1,1.3934-.09,2.4238,2.4238,0,0,1,1.8269,1.3374,4.0809,4.0809,0,0,1,.228.4451,5.2944,5.2944,0,0,1,.4168,2.394c-.01.1377-.047.2776-.07.4164s-.0332.2766-.07.4164a9.3381,9.3381,0,0,1-.3867,1.2331,2.9415,2.9415,0,0,1-.3543.6435c-.1774.2347-.36.4825-.5449.732-.0653.0882-.1243.1669-.1926.2588h0a1.2346,1.2346,0,0,0,.2661.0284C16.17,47.6625,16.7606,47.5928,17.3491,47.5031Z"/><path class="cls-2" d="M30.539,27.7821c-.0472-.5168-.2035-.62-.63-.3652a2.714,2.714,0,0,0-1.24,1.5871c-.05.1668.0409.5316.1361.5581a3.7938,3.7938,0,0,0,1.2447.1655c.3933-.0259.3952-.4255.4345-.7321.04-.3089.06-.62.0771-.8C30.55,27.9692,30.5475,27.8754,30.539,27.7821Z"/><path class="cls-2" d="M56.9433,25.5631c.0024-.8412-.02-1.6821-.0284-2.5233-.0128-1.31-.0191-2.62-.0341-3.9293q-.0156-1.3756-.0475-2.7508l-.0016-.0936c-.0012-.0535-.0073-.1068-.01-.16-.0108-.2315-.028-.4627-.0426-.6941l-.0367-.0124-.0369-.0124v0c-.0216.0374-.0416.0755-.064.1124a1.8325,1.8325,0,0,0-.1053.1848c-.1287.2813-.2379.5795-.377.85a1.82,1.82,0,0,1-.1421.268,1.2493,1.2493,0,0,0-.2764.6578,1.272,1.272,0,0,0,.1544.674.9594.9594,0,0,1,.0487.113A5.0113,5.0113,0,0,1,56.23,20.03a4.5317,4.5317,0,0,1-.0573.6031,3.18,3.18,0,0,1-.5062,1.2524,4.2257,4.2257,0,0,1-1.0883,1.1065c-.0633.0454-.12.0977-.1849.1409-.0131.0087-.0272.0153-.0405.0238a1.3463,1.3463,0,0,1-.5065.2265.6187.6187,0,0,1-.5692-.2235c-.0107-.0114-.0329-.007-.0495-.0133a.2262.2262,0,0,0-.0945-.0256,2.122,2.122,0,0,1-1.3067-.4558,4.3558,4.3558,0,0,1-2.014-2.1983,5.7627,5.7627,0,0,1-.4366-1.9754,3.8089,3.8089,0,0,1,.0885-1.0293,3.07,3.07,0,0,1,.5313-1.0452,3.3241,3.3241,0,0,1,1.4658-1.0933,2.138,2.138,0,0,1,1.9808.061c.1548.0924.3052.1935.4581.29.1671.1053.2965.1.4073-.1152.3514-.6826.7161-1.3571,1.0728-2.0366.0037-.0072,0-.0258.0007-.0353.0029-.0284.0019-.0566.0023-.1061h0c-.0984.016-.184.0236-.267.0443-.5792.1441-1.1584.2882-1.7362.4391-.1461.0381-.2935.0708-.4392.111-.12.0329-.2375.0732-.3561.11-.1329.0414-.2663.08-.3986.1245-.222.0745-.4436.1514-.6656.2259-.1743.0586-.3468.1256-.52.19s-.3468.1249-.5234.1718c-.6814.18-1.3655.3475-2.049.5177q-.4385.109-.8763.2214c-.2716.0693-.5408.1531-.8113.2272-.12.0329-.2392.0694-.3605.0926-1.1841.2258-2.3712.4307-3.5579.6378-.31.0541-.62.112-.93.1693-.7127.1319-1.4257.2616-2.1426.3414-.5645.0627-1.1309.1074-1.698.1408s-1.1348.0555-1.7018.0733h-.0016c-.0377.0012-.0755-.0008-.1133,0a1.7878,1.7878,0,0,1-.0323.9713,20.4537,20.4537,0,0,0-.474,2.8709.4319.4319,0,0,0,.4215.5208,8.0764,8.0764,0,0,0,.8461.09,7.3711,7.3711,0,0,1,4.6221,1.9157,2.8182,2.8182,0,0,1,1.0074,1.7664c.045.286-.0612.4262-.3409.4267a1.8629,1.8629,0,0,1-.75-.0442,6.0907,6.0907,0,0,0-2.8831-.17c-.6932.0121-1.3863.0406-2.0792.0676-.9858.0382-1.123.1989-1.1423,1.1683-.0187.9451-.0708,1.89-.1186,2.8342-.0386.7629.0238.8781.7345.8578a8.085,8.085,0,0,1,3.485.7678,7.8759,7.8759,0,0,1,2.594,2.2953,7.6209,7.6209,0,0,1,1.42,2.8488,3.0747,3.0747,0,0,1-.3029,2.2854,5.75,5.75,0,0,1-3.4782,3.0083c-1.1571.402-2.3535.6985-3.5444.9933-1.1761.2913-1.1591.2639-1.1289,1.5265.02.8425.0244,1.6854.0259,2.5285.4044.0488.8095.0934,1.2111.1606,1.308.2188,2.6046.5231,3.8979.8307.9351.2223,1.8586.5033,2.7838.7718.106.0308.2113.0639.3172.0947,1.0511.3053,2.1026.61,3.1474.94.3835.1209.7619.2605,1.1428.3912.5087.1745,1.0192.3426,1.5263.5225.4671.1656.9246.3631,1.3885.5395.54.2053,1.082.4032,1.7037.6343-.2313-.3593-.3786-.715-.7155-.8165a.591.591,0,0,0-.2056-.0435.4926.4926,0,0,1-.2434-.1076,9.52,9.52,0,0,1-1.0326-.6876,3.8,3.8,0,0,1-.8572-.9223,7.4588,7.4588,0,0,1-.91-3.2727,3.2111,3.2111,0,0,1,1.1229-2.8669,2.8189,2.8189,0,0,1,1.4405-.65,3.0639,3.0639,0,0,1,.6631-.0288,2.6171,2.6171,0,0,1,1.3733.4225,1.9478,1.9478,0,0,1,.3605.3294,7.1054,7.1054,0,0,1,.4775.6364c.0464.0691.0866.1417.13.2124.096.1548.1878.3122.2708.4746.0446.0872.0851.1764.1258.2658q.1062.2331.1937.4761c.0343.0947.0682.1893.0981.2862.04.1293.0694.2636.1013.3968.0269.112.0642.2189.0853.3336a3.4035,3.4035,0,0,1-.9233,3.2007.6542.6542,0,0,0-.1006.1214.2625.2625,0,0,0-.0386.1571.2449.2449,0,0,0,.0056.0409.4183.4183,0,0,0,.0818.1713c.0646.0842.1145.1821.1728.2723.4951.765.9852,1.534,1.4885,2.2921.1714.2581.3656.4977.5533.7423.0321.0419.0629.0847.0946.1269v0l.0908-.0376.0052-.08c.0558-.8491.1176-1.698.1643-2.5476.0443-.8048.0606-1.6112.11-2.4154l.0025-.0537c.0913-1.4494.23-2.8965.2947-4.3468.0373-.8307.0615-1.6619.0816-2.4933.0214-.8841.0379-1.7683.0575-2.6524.0018-.086-.0065-.172-.0113-.258-.0129-.2332-.0357-.4666-.0321-.7h0l.0006-.0345c.0293-1.8877.0733-3.7753.1-5.663.01-.6983-.0268-1.3967-.0213-2.0951.0107-1.346.0427-2.692.0518-4.0379,0-.0354.0012-.071.0014-.1064v0C56.9448,25.6372,56.9432,25.6,56.9433,25.5631Z"/><path class="cls-2" d="M13.367,46.97l-.18-.1815L12.95,46.55c-.1144.1573-.2388.3052-.3643.4524-.072.0844-.1431.17-.2166.2535q-.164.186-.326.3748c-.0926.1079-.18.2218-.2686.3349-.0513.0659-.1046.13-.1536.1981a4.38,4.38,0,0,0-.3525.5742l-.003.0048h0l3.0235-.8417h0Z"/><path class="cls-3" d="M52.7439,45.8138l0,0c-.0122-.0445-.0288-.0874-.0413-.1318-.0954-.3364-.1966-.6714-.3137-.9988-.1241-.3469-.2772-.4421-.6156-.4083a4.1618,4.1618,0,0,0-.6332.105c-.0219.0057-.0381.0213-.0593.0284a1.0968,1.0968,0,0,0-.711,1.002,1.4588,1.4588,0,0,0-.0186.22h0a1.9624,1.9624,0,0,0,.243-.0927,1.6208,1.6208,0,0,1,.4719-.1858c.4354-.085.7677.1355,1.0586.6911.086.1643.177.1982.323.16.0154-.0039.0283-.0046.045-.01a.7154.7154,0,0,0,.1268-.0543.2463.2463,0,0,0,.1373-.18A.3494.3494,0,0,0,52.7439,45.8138Z"/><path class="cls-3" d="M52.7031,17.2859a.4576.4576,0,0,1-.11.0145.9645.9645,0,0,0-.3637.0453,1.0252,1.0252,0,0,0-.5222.4182,1.4211,1.4211,0,0,0-.1911.4036,2.16,2.16,0,0,0,.0738,1.44h0a2.8078,2.8078,0,0,1,.1774-.3157c.3566-.464.7228-.9191,1.0757-1.3864.0191-.0253.0419-.054.0639-.0819.112-.1419.2428-.3077.2167-.4142l0,0C53.0657,17.1723,52.87,17.2524,52.7031,17.2859Z"/><path class="cls-3" d="M14.2419,17.6217c.1128.0648.2407.1215.3609.1846a1.5393,1.5393,0,0,1,.1606.0992c.02.0141.0438.0258.0625.0411.008.0065.0123.0157.02.0225a.5649.5649,0,0,1,.1156.13l0,0c.0369.0623.0707.1258.104.1894.0094.0177.02.0349.029.0528a2.8739,2.8739,0,0,1,.1693.4168,2.1413,2.1413,0,0,1,.0846.3468,1.8438,1.8438,0,0,1,.0191.2663,1.79,1.79,0,0,1-.212.8318,2.3527,2.3527,0,0,0-.1165.3427h0c.0108-.01.0192-.0239.03-.0345a1.9166,1.9166,0,0,0,.3544-.5034,2.831,2.831,0,0,0,.2727-1.0423,2.2655,2.2655,0,0,0-.1357-.9913,1.4966,1.4966,0,0,0-.0774-.1606.3683.3683,0,0,0-.1389-.1587,8.3364,8.3364,0,0,0-1.0874-.44,2.96,2.96,0,0,0-.6569-.0514l0,0C13.7656,17.47,14.03,17.5,14.2419,17.6217Z"/><path class="cls-3" d="M14.8242,42.11a.3841.3841,0,0,0-.199-.1556.8236.8236,0,0,0-.2932-.0535.9511.9511,0,0,0-.6526.2568.6282.6282,0,0,0-.1127.1184l0,0a.7087.7087,0,0,1,.6549.0042,1.6294,1.6294,0,0,1,.3632.2713c.0926.087.1844.1789.2815.2618A1.3662,1.3662,0,0,1,14.87,42.57a2.0228,2.0228,0,0,0,.0109-.2446A.4481.4481,0,0,0,14.8242,42.11Z"/></svg>