<svg id="Layer_1" data-name="Layer 1" xmlns="http://www.w3.org/2000/svg" width="49.0294" height="21.8567" viewBox="0 0 49.0294 21.8567"><defs><style>.cls-1{fill:#2d2d2d;}</style></defs><path class="cls-1" d="M32.8341,13.1208c-.0131.662-.0276,1.3239-.0313,1.9869-.0028.4777.0287.9593.014,1.4354-.0162.53-.0967,1.0524-.0939,1.5835a1.9009,1.9009,0,0,1-.3138,1.0675.2978.2978,0,0,0-.0623.1682c.0117.1632-.075.2554-.2428.3237-.2473.1006-.3018.1962-.2043.4266.0946.2234.24.4375.3568.6572a.555.555,0,0,0,.1845.1889,1.869,1.869,0,0,1,.4948.4626,1.0562,1.0562,0,0,0,.5279.3765,1.1406,1.1406,0,0,0,.6023.035,2.5414,2.5414,0,0,1,.5338-.1444c.0652,0,.1188-.06.1817-.0873a1.336,1.336,0,0,1,.4331-.1718,2.7877,2.7877,0,0,0,.7545-.2221l-.1626-.0463a4.35,4.35,0,0,1,1.1256-.5642,2.16,2.16,0,0,0,.464-.2871,6.9746,6.9746,0,0,1,.9915-.5474,3.2067,3.2067,0,0,0,.9337-.562.9376.9376,0,0,1,.6076-.28.9826.9826,0,0,0,.7072-.3692,2.066,2.066,0,0,1,.473-.3437c.2326-.1268.4649-.2541.6993-.3789.3209-.171.6318-.3552.97-.5048a2.0135,2.0135,0,0,0,.7-.4061.6723.6723,0,0,1,.2118-.1462A4.8188,4.8188,0,0,0,44.969,15.98a.766.766,0,0,1,.1521-.0873c.2826-.1547.5807-.2947.8443-.4673a2.0578,2.0578,0,0,1,1.1511-.4261.6.6,0,0,0,.15-.041c.29-.0812.36-.1917.2541-.4356a.25.25,0,0,1,.0027-.2515.3605.3605,0,0,0-.0722-.4775.6724.6724,0,0,1-.0953-.1715c.1017-.0518.1816-.1306.2769-.1335.2506-.0078.3535-.1558.5023-.2656a4.1372,4.1372,0,0,0,.4191-.28,4.9937,4.9937,0,0,0,.3718-.4626c.1772-.2164.1041-.4277-.0455-.6768a9.1034,9.1034,0,0,1-.7249-1.1091.5481.5481,0,0,0-.1425-.1913q-.8883-.7857-1.7854-1.5651a1.6911,1.6911,0,0,0-.366-.2639,2.11,2.11,0,0,0-.4177-.1044c.0457-.2863.0284-.3149-.2662-.4286l-.0537.1651c-.0822-.0829-.1759-.1386-.1892-.1978A.9589.9589,0,0,0,44.55,7.61q-.5588-.4521-1.1389-.8868a.7066.7066,0,0,0-.5478-.1838.52.52,0,0,1-.308-.0989c-.4382-.312-.8654-.6343-1.2958-.9536-.0168-.0125-.0262-.0314-.0418-.0453q-.6114-.5445-1.2233-1.0886c-.0461-.0412-.1155-.0849-.1239-.1287-.01-.05.0369-.1009.0614-.1567L39.4977,3.7l-.0106.1757a.7587.7587,0,0,1-.426-.3814c-.0114-.0278-.0656-.0558-.1056-.07a.9487.9487,0,0,1-.4994-.3827l.333.1684a7.9623,7.9623,0,0,0-1.397-1.1308.6646.6646,0,0,0-.137-.0483l-.029.0316.3963.36a5.212,5.212,0,0,1-1.3791-.9541c.1008-.0766.0734-.1653-.0329-.2485-.1683-.1319-.34-.2608-.5116-.39A.7328.7328,0,0,0,35.466.67c-.0741-.0167-.1626.04-.2873.0771A.8832.8832,0,0,0,34.4917,0a.55.55,0,0,1-.6231.0373A4.5267,4.5267,0,0,0,33.4323.31a2.3446,2.3446,0,0,0-.5912.5379,1.0552,1.0552,0,0,0-.1686.9608c.0543.1363.0014.2343-.1313.3167a.3849.3849,0,0,0-.2052.3571q.0339.5728.0631,1.1453c.0516,1.0415.1074,2.0834.15,3.1243.0372.8986.0562,1.7958.0894,2.6941.0109.2927.0491.5876.0593.88a.789.789,0,0,1-.005.1109A6.5349,6.5349,0,0,1,32.8341,13.1208Zm10.283.4509a.86.86,0,0,0,.564-.1646,1.6812,1.6812,0,0,1,.2206-.1371.3482.3482,0,0,1,.2114.0073c-.4038.3569-.927.5893-1.4132.9567a4.0291,4.0291,0,0,1,.0661-.8609C42.9941,13.345,43.0328,13.4944,43.1171,13.5717Zm-.4014-3.9471c.0423.0238.1012.0755.0958.1028a3.53,3.53,0,0,1-.1151.3753.466.466,0,0,1-.0842-.4538C42.6134,9.6344,42.6949,9.6128,42.7157,9.6246Zm-3.363,5.31a.5818.5818,0,0,0,.5189-.2756.1727.1727,0,0,1,.1154-.0728,1.7,1.7,0,0,0,.8524-.2776c.244.2205.2533.2793.055.4-.1807.11-.3778.2039-.5571.3153a4.0786,4.0786,0,0,0-.3354.2566c-.0247-.0252-.0466-.0441-.0635-.0653-.1682-.2113-.2527-.2293-.4662-.0981-.0649.04-.1281.0815-.1954.1188-.014.0077-.0423,0-.064-.0007C39.1178,15.0551,39.1519,14.95,39.3527,14.935Zm.2319-7.4424a4.68,4.68,0,0,1,1.1726.6993,4.2664,4.2664,0,0,0-.6733.122,3.15,3.15,0,0,0-.5208.3A1.3617,1.3617,0,0,1,39.5846,7.4926ZM34.6224,18.2977l.059-.2774C34.7925,18.14,34.7608,18.23,34.6224,18.2977ZM38.114,6.7049l-.39.0516L37.626,6.42A.6543.6543,0,0,1,38.114,6.7049Zm-3.508-.5338c-.022-.2406-.0331-.4806-.0443-.7207-.015-.32-.0339-.6409-.0361-.96-.0011-.1629-.0431-.3789.0638-.471.1772-.1527.1588-.36.2817-.5622a3.3094,3.3094,0,0,1,.8078.5933.2533.2533,0,0,1-.0222.3714.64.64,0,0,0-.1511.5911.645.645,0,0,1-.1717.51.7707.7707,0,0,0-.2.6088.6608.6608,0,0,1-.0124.1579c-.0087.0787-.0073.1821-.1347.1707a.6807.6807,0,0,1-.2944-.1158A.2486.2486,0,0,1,34.606,6.1711Z" transform="translate(0)"/><path class="cls-1" d="M.04,11.2325a.4939.4939,0,0,0,.0165.4188c.0654.1557.1379.3078.1929.4687a.6157.6157,0,0,0,.7126.4572,11.279,11.279,0,0,1,1.5172-.0465,3.3172,3.3172,0,0,0,1.502-.1435.6106.6106,0,0,1,.4636.0629,2.1252,2.1252,0,0,0,.9844.1007.1649.1649,0,0,0,.1367-.0527c.0981-.1769.2312-.1374.3647-.1153.1455.0241.29.0573.4367.07a1.4072,1.4072,0,0,0,1.007-.0764,1.08,1.08,0,0,1,.72-.13,2.603,2.603,0,0,0,.88-.0213,3.2915,3.2915,0,0,1,.621-.0107c.0855.0013.17.0284.2556.0315.418.0153.8361.0321,1.2544.0367.2449.0027.49-.0177.7354-.0254a.8068.8068,0,0,1,.33.007.5212.5212,0,0,0,.3944-.0014.7548.7548,0,0,1,.2579-.0231.5224.5224,0,0,1,.1874.0307c.28.0079.5641.0121.8519.0207a9.0472,9.0472,0,0,1,2.6137-.09,1.5928,1.5928,0,0,1,.4613.0675c.0914.0284.1914.0225.2814.0546.2108.0751.4023-.0662.5985-.0781.4793-.0294.96-.0029,1.44.0119.3687.0114.7363.0528,1.105.0564.5157.005,1.0321-.0135,1.5481-.02.036,0,.0714.0261.1078.0276.54.0236,1.081.0505,1.622.065.3546.0095.71-.0126,1.0647.0023.54.0228,1.0791.114,1.6172.0862.5593-.0288,1.1079.04,1.6615.0649a11.6755,11.6755,0,0,0,1.3268.0032,9.3125,9.3125,0,0,1,1.9167.1014c.4031.0552.8028.1406,1.2067.1858.3418.0382.69.0133,1.03.06.6721.0929,1.3378.247,2.0116.3156a2.6289,2.6289,0,0,1,1.1718.4587,1.0053,1.0053,0,0,0,.3448.1106c.3082.0649.5423-.1409.7808-.3319a2.278,2.278,0,0,0,.6588-1.3385,1.1717,1.1717,0,0,0-.0819-.4608.3863.3863,0,0,1-.0072-.358.7637.7637,0,0,0-.1964-.7953,5.1085,5.1085,0,0,0-1.5421-.5524c-.4749-.072-.9521-.1338-1.4218-.2371a4.247,4.247,0,0,0-1.1405-.0783,3.8055,3.8055,0,0,1-.7331-.05c-.4262-.0612-.8479-.1626-1.2752-.21-.5518-.0606-1.11-.0557-1.66-.1316a5.6834,5.6834,0,0,0-1.8789.0576.8614.8614,0,0,1-.433-.0375,1.44,1.44,0,0,0-.6552-.066,1.7116,1.7116,0,0,1-.7318-.0155,2.8921,2.8921,0,0,0-1.4634-.0947,1.652,1.652,0,0,1-.4766.0487,5.9116,5.9116,0,0,0-1.9895.0867.5839.5839,0,0,1-.3607-.0014,2.06,2.06,0,0,0-1.2378-.0825,5.0757,5.0757,0,0,1-1.2538.113,6.9881,6.9881,0,0,0-.7705-.0229c-.2447-.0022-.4909.0212-.7341.0027a5.7042,5.7042,0,0,0-2.1676.0286.7507.7507,0,0,1-.2218.0151.6942.6942,0,0,1-.224-.0254,8.5826,8.5826,0,0,1-3.0928-.1655c-.0143.1507-.0649.1647-.2837.1774-.5788.0337-1.158.0472-1.737.069a.1179.1179,0,0,1-.037,0,1.9655,1.9655,0,0,0-.99.0625,1.1154,1.1154,0,0,1-.2207.0321c-.5411.0014-1.0826.0093-1.6231-.0067-.2689-.0081-.5355-.0677-.804-.0939a4.6871,4.6871,0,0,0-.6617-.0376c-.6657.03-1.3312.0773-1.9969.1129a2.3208,2.3208,0,0,1-.33-.0219c-.3919-.0352-.7834-.1022-1.1758-.0982a2.5319,2.5319,0,0,1-.9128-.114A1.9647,1.9647,0,0,0,.6325,9.1433a.5768.5768,0,0,0-.4358.5327,5.7861,5.7861,0,0,0-.1332,1.3452A.43.43,0,0,1,.04,11.2325Z" transform="translate(0)"/></svg>
