<svg id="Layer_1" data-name="Layer 1" xmlns="http://www.w3.org/2000/svg" width="0.9746in" height="3.133in" viewBox="0 0 70.1686 225.5764"><defs><style>.cls-1{fill:#5c51ff;}</style></defs><path class="cls-1" d="M34.9473.0156A7.8518,7.8518,0,0,1,38.06.6674c.722.4266,1.3081,1.1237,2.2115,1.2525.111.0158.2064.2077.2817.3351.2507.4246.4733.8673.7366,1.2832.2506.396.2569.65-.096.9345-1.0989.886-2.23,1.7316-3.3093,2.6413-1.4546,1.2263-2.94,2.4285-4.29,3.7667-1.836,1.82-3.5651,3.75-5.3227,5.65-.5435.5873-1.0244,1.2331-1.544,1.8434a76.5191,76.5191,0,0,0-5.3351,6.9576c-1.2811,1.9092-2.2584,3.961-3.3819,5.9428-.3185.562-.5914,1.15-.8722,1.7323-.3737.7749-.7344,1.5561-1.1012,2.3344-.1178.25-.25.4941-.3534.75-.53,1.31-1.0671,2.6169-1.5725,3.9356-.2415.63-.4188,1.284-.6243,1.9274-.4016,1.2576-.8335,2.5072-1.1954,3.7751-.4048,1.4184-.6892,2.87-1.1267,4.2781a69.4184,69.4184,0,0,0-1.7406,8.8321c-.1519.8731-.2087,1.7609-.2933,2.643-.14,1.4573-.2664,2.9157-.399,4.3735-.0469.5148-.1035,1.029-.1411,1.544-.0666.9106-.1359,1.8214-.1787,2.7324-.0473,1.0052-.0944,2.0119-.0876,3.0159.0045.6684.1461,1.3319.1489,2,.0033.76-.1552,1.5289-.11,2.2818.1157,1.94.2908,3.8748.4756,5.8074a10.5859,10.5859,0,0,0,.33,1.2215A12.3346,12.3346,0,0,1,9.41,85.8718c.1036,1.0242.131,2.06.274,3.0769a22.39,22.39,0,0,0,.6892,3.6557,27.0377,27.0377,0,0,1,.8726,3.578q.17.9784.3827,1.948c.1034.4673.2414.9259.3678,1.3871a6.8015,6.8015,0,0,1,.2.6932c.1485.913.714,1.7392.4709,2.7389-.029.1194.1223.27.162.4145.2078.7574.42,1.5137.6028,2.2782.1041.4358.1339.8916.2321,1.3293a15.6113,15.6113,0,0,0,.4553,1.7427c.4552,1.3023.5234,2.7139,1.0644,3.9972a18.7516,18.7516,0,0,1,.5764,2.1642c.1569.5516.3521,1.0914.54,1.6327.2648.7629.544,1.52.8072,2.2839.2553.7412.4848,1.4925.751,2.2293.2153.596.4972,1.1665.6982,1.7672.449,1.3419.9,2.6789,1.2683,4.0551a40.4057,40.4057,0,0,0,1.8155,4.8022c.982,2.3979,2.0055,4.7773,3.0074,7.1663.5716,1.3627,1.1077,2.7422,1.7093,4.09.9919,2.2224,2.03,4.4228,3.0358,6.6385a7.1221,7.1221,0,0,1,.8509,2.1608,3.5459,3.5459,0,0,0,.6813,1.71c.2911.4511.6179.8821.8687,1.3559.7169,1.3542,1.3956,2.73,2.1056,4.0882.2768.53.6289,1.0185.8915,1.5548.5159,1.0541.9685,2.1415,1.4931,3.1906.5383,1.0763,1.1568,2.11,1.6931,3.1869.5215,1.0471.9429,2.1484,1.4824,3.1848.6245,1.2,1.3526,2.3416,1.9934,3.5327.5391,1.0019,1,2.0483,1.53,3.0558.3064.5824.7219,1.1048,1.0172,1.6921.9579,1.9057,1.8641,3.8389,2.8269,5.7419.746,1.4745,1.5523,2.9165,2.3223,4.3782q1.6416,3.1158,3.27,6.2391c.3076.5863.6443,1.1577.925,1.7574.6638,1.4178,1.3187,2.8406,1.9454,4.2764.528,1.21.9888,2.4513,1.5231,3.658.3146.71.3837.6923,1.08.3236l.1647-.0872c-2.5009,1.9773-5.5358,2.83-8.3833,3.8465.27-.1665.5274-.36.793-.5312-.1149-.2837-.1755-.4538-.2511-.6164-.7212-1.5521-1.4584-3.0965-2.1631-4.6566-.4075-.9024-.7345-1.8443-1.15-2.7423a19.1365,19.1365,0,0,0-2.3815-4.31c-.1057-.1279-.0952-.3487-.169-.5116-.0953-.2106-.2269-.4034-.3327-.6093-.1469-.2856-.2951-.5715-.4228-.8665-.1306-.3015-.2075-.6309-.36-.9186-.2943-.5543-.6149-1.0947-.9466-1.6265a2.9409,2.9409,0,0,0-.4634-.521c-.3951-.385-.87-.6829-.733-1.41a1.008,1.008,0,0,0-.3862-.8626c-.63-.3485-.6894-.91-.75-1.5182a1.7584,1.7584,0,0,0-.1615-.6032c-.873-1.74-1.77-3.4671-2.632-5.2124a14.28,14.28,0,0,0-.9664-1.4709,18.7213,18.7213,0,0,1-1.2713-2.7517c-.2529-.5744-.41-1.2273-.9769-1.3066-.2362-.4052-.382-.6656-.5379-.92-.1542-.2513-.4677-.5029-.45-.7427a2.3182,2.3182,0,0,0-.5706-1.6968,12.3015,12.3015,0,0,1-.9608-2.0186c-.5056-1.0171-1.04-2.0189-1.5649-3.0256a.51.51,0,0,0-.1619-.2122,2.674,2.674,0,0,1-1.0212-1.64,13.73,13.73,0,0,0-1.3093-3.35c-.2772-.3979-.49-.7207-1.0375-.5267a13.229,13.229,0,0,0-.299-1.6717c-.1307-.4188-.4686-.7654-.6036-1.1835a18.319,18.319,0,0,0-1.9693-4.0189,5.35,5.35,0,0,1-.5016-1.1577,13.0209,13.0209,0,0,0-2.7775-4.9351,1.26,1.26,0,0,1-.3483-.7178,15.9319,15.9319,0,0,0-.921-3.4007,4.1357,4.1357,0,0,0-1.1658-2.19c-.1828-.1568-.2253-.4721-.3534-.7021-.1435-.2576-.3113-.5008-.5176-.8282.0129-.0418.1553-.2542.1027-.3755a11.8742,11.8742,0,0,0-.7053-1.3239c-.1017-.1715-.3693-.2924-.3834-.4572a17.8415,17.8415,0,0,0-1.0751-3.7761,16.7525,16.7525,0,0,0-1.0914-2.3607c-.1534-.3106-.3714-.5864-.5408-.8893q-.4024-.7191-.7737-1.4562c-.0346-.0685.0211-.18.0132-.2694a5.4869,5.4869,0,0,0-.1277-1.1483,19.9984,19.9984,0,0,0-.88-2.3725c-.3313-.7192-.4338-1.569-1.2007-2.065a.8526.8526,0,0,1-.2762-1.14c.2069-.3878.0449-.6757-.1939-.99-.5328-.7013-.9864-1.446-.4637-2.2977-.1751-.2486-.431-.4482-.4029-.6039.0738-.4084-.1741-.5982-.3449-.8767-.213-.3474-.5256-.8059-.4436-1.1379.35-1.42-.4754-2.4206-.9625-3.5509a1.6583,1.6583,0,0,1-.1825-.8334,3.1978,3.1978,0,0,0-.2389-2.1056,5.1487,5.1487,0,0,1-.4565-1.4644c-.3466-1.7812-.8376-3.52-1.3529-5.25a17.549,17.549,0,0,1-.483-2.3014,4.6948,4.6948,0,0,0-.8913-2.3089,1.521,1.521,0,0,1-.1729-1.9247,1.0649,1.0649,0,0,0-.4193-1.5323,6.7191,6.7191,0,0,1-.7622-.6891L2.58,94.4c-.1455-.2068-.2938-.3921-.415-.5944-.296-.4945.2364-1.0646.025-1.4657a1.9071,1.9071,0,0,1-.3081-1.5318,3.456,3.456,0,0,0,.0952-1.0891A3.0753,3.0753,0,0,0,1.348,88.38c-.2285-.4055.0772-1.0321-.32-1.4582a.6733.6733,0,0,1-.1975-.2963C.7848,86.363.67,86.0306.78,85.836a2.9138,2.9138,0,0,0,.2864-2.1444c-.1241-.639-.1722-1.3017-.31-1.9539a3.205,3.205,0,0,1-.1345-2.2162c.0684-.1437-.1074-.3882-.1382-.5922-.0843-.5573-.172-1.1153-.22-1.6776C.2123,76.6534.2406,76.0446.171,75.45a5.3,5.3,0,0,1,.0919-2.9751.67.67,0,0,0,.0515-.3581,30.8776,30.8776,0,0,1,.129-3.3557,26.2317,26.2317,0,0,1,.39-5.6136.9236.9236,0,0,0-.1528-.592,1.4793,1.4793,0,0,1-.0487-1.4021,10.7534,10.7534,0,0,0,.77-4.3173,1.527,1.527,0,0,1,.0459-.45,22.0631,22.0631,0,0,0,1.009-6.02,1.0457,1.0457,0,0,1,.0975-.4461,10.7672,10.7672,0,0,0,.7239-2.0637c.2587-1.1145.51-2.2423.8372-3.3472.27-.9117.4763-1.8417.7623-2.7483.3476-1.102.75-2.1878,1.1275-3.2809.43-1.2433.7389-2.55,1.8687-3.4193a1.42,1.42,0,0,0,.2236-.2929l-.1375-.03c.0663-.3962.1234-.7938.2018-1.1878a5.3371,5.3371,0,0,1,.2116-.7972c.1576-.4281.3255-.8547.5239-1.2656.1468-.3037.3784-.568.5212-.873.6124-1.3082,1.18-2.6375,1.8156-3.9344a27.26,27.26,0,0,1,1.4372-2.571c.7519-1.1878,1.5609-2.34,2.3511-3.5037a24.08,24.08,0,0,0,1.3989-2.0525,26.902,26.902,0,0,1,3.2434-4.3522c1.2763-1.5361,2.7836-2.8753,4.1235-4.3615a36.1921,36.1921,0,0,1,4.1371-3.93c1.0993-.8888,2.1265-1.873,3.1581-2.8449.8952-.8433,1.7588-1.7216,2.6214-2.5995A1.4018,1.4018,0,0,1,34.9473.0156Z"/><path class="cls-1" d="M48.0336,196.8742a1.609,1.609,0,0,1-.2.0949c-.5454.2078-1.1148.3658-1.6609.5724-1.6757.6343-3.3394,1.2939-5.0185,1.9211-1.9448.7267-3.9006,1.4306-5.8528,2.142q-1.0728.3909-2.1511.7706a.7965.7965,0,0,0-.5111.6531c-.0572.3075-.2.4805-.489.4862a2.159,2.159,0,0,0-1.6472,1.0534,4.8377,4.8377,0,0,0-.5691,1.5018,9.2621,9.2621,0,0,0-.192,1.0124,1.0761,1.0761,0,0,1,.3743,1.1732,1.6885,1.6885,0,0,0,1.8623.6833c.0206.2577-.021.4641.0623.5873.0947.14.3.2092.4587.3041.36.2147.7187.43,1.0808.6375.2286.1308.4113.1124.48-.1318a9.85,9.85,0,0,1,2.7348,1.7939l-.943-.4494-.0376.0778a1.2693,1.2693,0,0,0,.1863.2141,15.0536,15.0536,0,0,0,3.0725,1.69l-.5464-.4811a1.7965,1.7965,0,0,1,1.0587.6208c.054.0627.1441.1406.2032.14a1.4409,1.4409,0,0,1,1.0042.487l-.3156.1555.9846.5134c.0852-.088.1462-.2133.2446-.2341.0865-.0183.2163.0752.3248.1281q1.4359.7,2.8713,1.4038c.0367.0179.0782.02.1131.0416.8931.5433,1.7895,1.0783,2.6746,1.6416a.99.99,0,0,1,.4009.4888,1.3456,1.3456,0,0,0,.7272.8639q1.21.7317,2.44,1.405a1.8342,1.8342,0,0,0,1.1905.3193c.1184-.0215.2874.1075.4982.1943-.12.1023-.1928.1643-.2654.2266.4186.4528.4833.4624.9774.1569a4.0125,4.0125,0,0,0,.489.6862,3.2012,3.2012,0,0,0,.7453.468q2.0706,1.0449,4.1472,2.0671a1.05,1.05,0,0,0,.4531.1137,17.4419,17.4419,0,0,1,2.555.4727c.5645.0819,1.005.0526,1.277-.44a10.3837,10.3837,0,0,0,.5865-1.041,8.44,8.44,0,0,0,.2169-.9861,1.6338,1.6338,0,0,0,.1314-1.1279,1.5588,1.5588,0,0,1,.0488-.6119,1.2994,1.2994,0,0,1,.3831.0423.7194.7194,0,0,0,.93-.2369.5044.5044,0,0,1,.4606-.2c.5242.0064.6771-.2089.6206-.8036a1.2018,1.2018,0,0,0-.0311-.3068,4.1365,4.1365,0,0,1-.0343-2.4434c.13-.6178.1758-1.2735.26-1.9122a1.566,1.566,0,0,1,.0524-.3469,9.8439,9.8439,0,0,0,.5463-2.9614,1.38,1.38,0,0,1,.1184-.5022,4.1021,4.1021,0,0,0,.2493-1.6c.0352-.7361.1529-1.45.2393-2.1712.0631-.5271.1321-1.0521.2-1.5774a4.2453,4.2453,0,0,1,.2959-1.1346,1.995,1.995,0,0,0,.1765-1.5845,1.8966,1.8966,0,0,1,.0837-1.3327,6.5431,6.5431,0,0,0,.37-2.15,14.1882,14.1882,0,0,1,.3021-2.2444,4.4089,4.4089,0,0,0,.1982-1.0743,8.8231,8.8231,0,0,1,.2378-2.5036c.0489.0638.0976.1275.2008.2627a5.5725,5.5725,0,0,0-.1279-1.5574,2.6925,2.6925,0,0,1,.0083-.9282c.0056-.1367.0771-.2813.0314-.4013a5.059,5.059,0,0,1-.1137-1.0921,2.207,2.207,0,0,0-.4925-1.0788,1.9983,1.9983,0,0,0-1.0676-.678,3.5433,3.5433,0,0,1-1.2024-.5507,1.0556,1.0556,0,0,0-.4785-.1925c-.4873-.0452-.9841-.1457-1.4622-.1464-.493-.0008-.63.1732-.6395.7053-.0063.3609-.1143.5916-.4227.6963a.6152.6152,0,0,0-.265.2445,3.9178,3.9178,0,0,1-1.74,1.4025c-.9789.406-1.8828.9583-2.8455,1.3982-.8653.3954-1.7734.71-2.65,1.0852-1.2167.52-2.4237,1.059-3.6319,1.5953C51.6207,196.1568,49.7627,196.452,48.0336,196.8742ZM60.5908,213.099a8.2009,8.2009,0,0,1,1.5363-.7877c-.33,1.1771-.3858,2.3177-.7553,3.3355a.6759.6759,0,0,1-.1636-.3825,3.454,3.454,0,0,1,.0953-.5113,1.7164,1.7164,0,0,0-.0979-1.163C61.0034,213.4951,60.7011,213.54,60.5908,213.099Zm-6.9586,2.6c.2338-.12.4274-.3493.8944-.1967a7.2857,7.2857,0,0,1-.6084.5018c-.0464.031-.1833-.037-.2572-.0962C53.6246,215.8788,53.6064,215.7124,53.6322,215.6991Zm7.8592-10.5668c.0166.0394.0511.0855.0468.1171-.0209.1524-.0525.3008-.08.4509-.09.4935.0036.6346.5117.78.051.0147.1015.04.1652.0661a8.4547,8.4547,0,0,0-.2335.8146c-.0776.4153-.11.85-.184,1.2669-.0815.4578-.1961.4862-.775.2089a3.4054,3.4054,0,0,0-.0952-1.78.3521.3521,0,0,1,.0519-.2682,1.1815,1.1815,0,0,0,.138-1.1662C60.9225,205.2417,61.0916,205.0978,61.4914,205.1323Zm-11.93,5.7688A6.4233,6.4233,0,0,0,49.38,212.09a8.4318,8.4318,0,0,0,.254,1.3309,8.8508,8.8508,0,0,1-2.1192-1.612A2.7549,2.7549,0,0,1,49.5617,210.9011Zm13.8305-16.2449.4683-.3232C63.8347,194.6394,63.69,194.7677,63.3922,194.6562ZM44.15,209.0419l.6881-.0813.1826.7569C44.4594,209.4993,44.4594,209.4993,44.15,209.0419Zm-2.2241-5.3288a1.2932,1.2932,0,0,1,.4221.451c.1116.2251-.08.3026-.2181.3794a1.3406,1.3406,0,0,1-.2816.1449,1.5893,1.5893,0,0,0-.9774.839,1.33,1.33,0,0,1-.8152.71,1.3134,1.3134,0,0,0-.98.7351.5122.5122,0,0,1-.6673.3281,6.2527,6.2527,0,0,1-1.6653-1.0241c.2837-.3819.679-.5089.8338-.9524.0934-.2677.5205-.3578.8208-.4818.5884-.2428,1.1916-.4563,1.7912-.6766.4494-.1653.8988-.3308,1.3568-.4766A.4828.4828,0,0,1,41.9263,203.7131Z"/></svg>